<svg width="678" height="262" viewBox="0 0 678 262" fill="none" xmlns="http://www.w3.org/2000/svg">
<rect x="0.375" y="0.375" width="135" height="129.75" rx="2.0625" fill="#40FF4D"/>
<rect x="0.375" y="0.375" width="135" height="129.75" rx="2.0625" stroke="#A7A7A7" stroke-opacity="0.25" stroke-width="0.75"/>
<rect x="0.375" y="0.375" width="135" height="129.75" rx="2.0625" stroke="black" stroke-width="0.75"/>
<rect x="68.4542" y="9.42028" width="79.2675" height="80.6465" rx="3.06281" transform="rotate(45.7727 68.4542 9.42028)" fill="#3D7D41" stroke="black" stroke-width="1.11375"/>
<rect x="39.7131" y="37.6672" width="56.8013" height="56.8013" rx="1.25297" fill="black" stroke="black" stroke-width="1.11375"/>
<rect x="67.7131" y="65.9944" width="27.8438" height="27.8438" rx="1.25297" fill="white" stroke="black" stroke-width="1.11375"/>
<rect x="40.9827" y="38.1506" width="27.8438" height="27.8438" rx="1.25297" fill="white" stroke="black" stroke-width="1.11375"/>
<rect x="542.375" y="1.375" width="135" height="129.75" rx="2.0625" fill="#FFFC39"/>
<rect x="542.375" y="1.375" width="135" height="129.75" rx="2.0625" stroke="#A7A7A7" stroke-opacity="0.25" stroke-width="0.75"/>
<rect x="542.375" y="1.375" width="135" height="129.75" rx="2.0625" stroke="black" stroke-width="0.75"/>
<path d="M609.734 14.8135C609.906 14.2462 610.709 14.2462 610.88 14.8135L615.899 31.4336C616.309 32.7889 618.052 33.1595 618.978 32.0879L630.322 18.9463C630.71 18.4977 631.443 18.8242 631.369 19.4121L629.194 36.6367C629.017 38.0412 630.458 39.0889 631.739 38.4863L647.449 31.0947C647.985 30.8424 648.523 31.4394 648.216 31.9463L639.223 46.7979C638.49 48.0088 639.382 49.553 640.797 49.5234L658.154 49.1602C658.747 49.1478 658.995 49.9117 658.509 50.25L644.252 60.1592C643.09 60.9672 643.276 62.7403 644.581 63.2891L660.586 70.0176C661.132 70.2472 661.049 71.0459 660.467 71.1572L643.412 74.4111C642.022 74.6766 641.471 76.3723 642.439 77.4043L654.324 90.0605C654.73 90.4926 654.328 91.189 653.751 91.0537L636.848 87.0898C635.47 86.7669 634.277 88.0909 634.742 89.4277L640.451 105.824C640.646 106.384 639.996 106.856 639.524 106.498L625.694 96.002C624.567 95.1461 622.939 95.8707 622.82 97.2812L621.366 114.582C621.317 115.173 620.531 115.34 620.245 114.82L611.881 99.6064C611.199 98.366 609.415 98.3659 608.733 99.6064L600.369 114.82C600.084 115.34 599.298 115.173 599.248 114.582L597.795 97.2812C597.676 95.8706 596.048 95.1461 594.92 96.002L581.09 106.498C580.618 106.856 579.968 106.384 580.163 105.824L585.872 89.4277C586.337 88.0908 585.145 86.7667 583.767 87.0898L566.863 91.0537C566.286 91.189 565.884 90.4926 566.29 90.0605L578.175 77.4043C579.144 76.3722 578.593 74.6765 577.202 74.4111L560.148 71.1572C559.566 71.0462 559.482 70.2473 560.028 70.0176L576.033 63.2891C577.338 62.7404 577.525 60.9672 576.362 60.1592L562.105 50.25C561.619 49.9117 561.868 49.1478 562.46 49.1602L579.818 49.5234C581.234 49.5528 582.125 48.0088 581.392 46.7979L572.398 31.9463C572.092 31.4395 572.629 30.8426 573.165 31.0947L588.875 38.4863C590.156 39.0891 591.598 38.0413 591.421 36.6367L589.245 19.4121C589.171 18.8242 589.905 18.4977 590.292 18.9463L601.638 32.0879C602.563 33.1595 604.307 32.7889 604.716 31.4336L609.734 14.8135Z" fill="#5B85AB" stroke="black" stroke-width="1.197"/>
<path d="M609.579 28.9199C609.702 28.5148 610.275 28.5149 610.397 28.9199L613.982 40.792C614.275 41.76 615.521 42.0243 616.182 41.2588L624.285 31.8721C624.562 31.5517 625.085 31.7851 625.032 32.2051L623.479 44.5088C623.352 45.5118 624.382 46.2594 625.297 45.8291L636.519 40.5498C636.902 40.3696 637.286 40.7961 637.066 41.1582L630.643 51.7656C630.119 52.6306 630.756 53.734 631.767 53.7129L644.165 53.4531C644.588 53.4443 644.765 53.9898 644.418 54.2314L634.235 61.3096C633.405 61.8867 633.538 63.1529 634.47 63.5449L645.902 68.3516C646.292 68.5158 646.232 69.0867 645.816 69.166L633.635 71.4902C632.642 71.6799 632.248 72.8908 632.94 73.6279L641.429 82.668C641.718 82.9766 641.432 83.4736 641.02 83.377L628.946 80.5459C627.962 80.315 627.11 81.2609 627.442 82.2158L631.52 93.9277C631.659 94.3275 631.195 94.6651 630.857 94.4092L620.979 86.9111C620.174 86.3 619.01 86.8186 618.926 87.8262L617.888 100.184C617.852 100.605 617.291 100.724 617.087 100.354L611.112 89.4863C610.625 88.6005 609.351 88.6004 608.864 89.4863L602.89 100.354C602.686 100.724 602.124 100.605 602.089 100.184L601.051 87.8262C600.966 86.8185 599.803 86.2998 598.997 86.9111L589.119 94.4092C588.782 94.665 588.318 94.3275 588.457 93.9277L592.535 82.2158C592.867 81.261 592.015 80.3151 591.03 80.5459L578.957 83.377C578.545 83.4736 578.258 82.9766 578.548 82.668L587.036 73.6279C587.728 72.8907 587.335 71.6798 586.342 71.4902L574.16 69.166C573.745 69.0866 573.685 68.5156 574.075 68.3516L585.507 63.5449C586.439 63.153 586.573 61.8867 585.742 61.3096L575.559 54.2314C575.212 53.9898 575.389 53.4446 575.812 53.4531L588.21 53.7129C589.221 53.734 589.858 52.6306 589.334 51.7656L582.91 41.1582C582.691 40.7962 583.075 40.3699 583.458 40.5498L594.68 45.8291C595.595 46.2596 596.624 45.5119 596.498 44.5088L594.944 32.2051C594.891 31.7851 595.416 31.5516 595.692 31.8721L603.796 41.2588C604.457 42.0242 605.702 41.76 605.994 40.792L609.579 28.9199Z" fill="#FACA0A" stroke="black" stroke-width="0.855"/>
<circle cx="610.411" cy="65.4158" r="12.825" fill="black"/>
<rect x="272.375" y="0.375" width="135" height="129.75" rx="2.0625" fill="#FF3333"/>
<rect x="272.375" y="0.375" width="135" height="129.75" rx="2.0625" stroke="#A7A7A7" stroke-opacity="0.25" stroke-width="0.75"/>
<rect x="272.375" y="0.375" width="135" height="129.75" rx="2.0625" stroke="black" stroke-width="0.75"/>
<circle cx="340.75" cy="64.75" r="50.0625" fill="#FACA0A" stroke="black" stroke-width="1.125"/>
<rect x="340.465" y="23.3983" width="29.6631" height="29.6631" transform="rotate(45.3336 340.465 23.3983)" fill="#B20909" stroke="black" stroke-width="1.97754"/>
<rect x="361.316" y="44.496" width="29.6631" height="29.6631" transform="rotate(45.3336 361.316 44.496)" fill="white" stroke="black" stroke-width="1.97754"/>
<rect x="319.367" y="44.2518" width="29.6631" height="29.6631" transform="rotate(45.3336 319.367 44.2518)" fill="white" stroke="black" stroke-width="1.97754"/>
<rect x="340.222" y="65.3475" width="29.6631" height="29.6631" transform="rotate(45.3336 340.222 65.3475)" fill="#B20909" stroke="black" stroke-width="1.97754"/>
<rect x="408.375" y="131.375" width="135" height="129.75" rx="2.0625" fill="#B5DCFF"/>
<rect x="408.375" y="131.375" width="135" height="129.75" rx="2.0625" stroke="#A7A7A7" stroke-opacity="0.25" stroke-width="0.75"/>
<rect x="408.375" y="131.375" width="135" height="129.75" rx="2.0625" stroke="black" stroke-width="0.75"/>
<rect x="477.169" y="141.795" width="80.0682" height="81.4611" rx="3.09375" transform="rotate(45.7727 477.169 141.795)" fill="#77B3E9" stroke="black" stroke-width="1.125"/>
<rect x="-0.5625" y="0.5625" width="57.375" height="57.375" rx="1.26563" transform="matrix(-1 0 0 1 504.953 169.767)" fill="black" stroke="black" stroke-width="1.125"/>
<rect x="-0.5625" y="0.5625" width="28.125" height="28.125" rx="1.26563" transform="matrix(-1 0 0 1 476.68 198.378)" fill="white" stroke="black" stroke-width="1.125"/>
<rect x="-0.5625" y="0.5625" width="28.125" height="28.125" rx="1.26563" transform="matrix(-1 0 0 1 503.68 170.253)" fill="white" stroke="black" stroke-width="1.125"/>
<rect x="136.375" y="130.375" width="135" height="129.75" rx="2.0625" fill="#FFB1E2"/>
<rect x="136.375" y="130.375" width="135" height="129.75" rx="2.0625" stroke="#A7A7A7" stroke-opacity="0.25" stroke-width="0.75"/>
<rect x="136.375" y="130.375" width="135" height="129.75" rx="2.0625" stroke="black" stroke-width="0.75"/>
<rect x="188.008" y="171.317" width="37.125" height="46.125" fill="black"/>
<circle cx="182.085" cy="169.864" r="25.578" transform="rotate(44.8257 182.085 169.864)" fill="#FFA0A0" stroke="black" stroke-width="0.882"/>
<circle cx="225.632" cy="171.834" r="17.748" transform="rotate(44.8257 225.632 171.834)" fill="#7D3D65" stroke="black" stroke-width="0.612"/>
<circle cx="226.772" cy="215.867" r="25.578" transform="rotate(44.8257 226.772 215.867)" fill="#FFA0A0" stroke="black" stroke-width="0.882"/>
<circle cx="182.418" cy="214.226" r="18.8572" transform="rotate(44.8257 182.418 214.226)" fill="#7D3D65" stroke="black" stroke-width="0.65025"/>
</svg>
