<svg width="1296" height="716" viewBox="0 0 1296 716" fill="none" xmlns="http://www.w3.org/2000/svg">
<path d="M549.375 41.4307L920.625 32.3848V75.6172L549.375 67.8379V41.4307Z" fill="white" stroke="black" stroke-width="0.75"/>
<path d="M525.625 0.375C540.325 0.375 552.25 12.4584 552.25 27.375C552.25 42.2916 540.325 54.375 525.625 54.375C510.925 54.375 499 42.2916 499 27.375C499 12.4584 510.925 0.375 525.625 0.375Z" fill="#D9D9D9" stroke="black" stroke-width="0.75"/>
<path d="M555.28 41.625L574.844 286.875H480.401L497.225 41.625H555.28Z" fill="#D9D9D9" stroke="black" stroke-width="0.75"/>
<rect x="490" y="64.125" width="72" height="19.5" rx="7.125" fill="#FF0000" stroke="black" stroke-width="0.75"/>
<rect x="490" y="22.875" width="72" height="19.5" rx="7.125" fill="#FF0000" stroke="black" stroke-width="0.75"/>
<path d="M1097 617.5C1070.77 617.5 1046.9 597.333 1029.56 564.46C1012.23 531.61 1001.5 486.193 1001.5 436C1001.5 385.807 1012.23 340.39 1029.56 307.54C1046.9 274.667 1070.77 254.5 1097 254.5C1123.23 254.5 1147.1 274.667 1164.44 307.54C1181.77 340.39 1192.5 385.807 1192.5 436C1192.5 486.193 1181.77 531.61 1164.44 564.46C1147.1 597.333 1123.23 617.5 1097 617.5Z" fill="#004F80" stroke="black"/>
<path d="M1024 617.5C997.768 617.5 973.899 597.333 956.56 564.46C939.232 531.61 928.5 486.193 928.5 436C928.5 385.807 939.232 340.39 956.56 307.54C973.899 274.667 997.768 254.5 1024 254.5C1050.23 254.5 1074.1 274.667 1091.44 307.54C1108.77 340.39 1119.5 385.807 1119.5 436C1119.5 486.193 1108.77 531.61 1091.44 564.46C1074.1 597.333 1050.23 617.5 1024 617.5Z" fill="#81A0D8" stroke="black"/>
<path d="M964 617.5C937.768 617.5 913.899 597.333 896.56 564.46C879.232 531.61 868.5 486.193 868.5 436C868.5 385.807 879.232 340.39 896.56 307.54C913.899 274.667 937.768 254.5 964 254.5C990.232 254.5 1014.1 274.667 1031.44 307.54C1048.77 340.39 1059.5 385.807 1059.5 436C1059.5 486.193 1048.77 531.61 1031.44 564.46C1014.1 597.333 990.232 617.5 964 617.5Z" fill="#004F80" stroke="black"/>
<path d="M891 617.5C864.768 617.5 840.899 597.333 823.56 564.46C806.232 531.61 795.5 486.193 795.5 436C795.5 385.807 806.232 340.39 823.56 307.54C840.899 274.667 864.768 254.5 891 254.5C917.232 254.5 941.101 274.667 958.44 307.54C975.768 340.39 986.5 385.807 986.5 436C986.5 486.193 975.768 531.61 958.44 564.46C941.101 597.333 917.232 617.5 891 617.5Z" fill="#81A0D8" stroke="black"/>
<path d="M1200 715.5C1173.77 715.5 1149.9 695.333 1132.56 662.46C1115.23 629.61 1104.5 584.193 1104.5 534C1104.5 483.807 1115.23 438.39 1132.56 405.54C1149.9 372.667 1173.77 352.5 1200 352.5C1226.23 352.5 1250.1 372.667 1267.44 405.54C1284.77 438.39 1295.5 483.807 1295.5 534C1295.5 584.193 1284.77 629.61 1267.44 662.46C1250.1 695.333 1226.23 715.5 1200 715.5Z" fill="#004F80" stroke="black"/>
<path d="M1127 715.5C1100.77 715.5 1076.9 695.333 1059.56 662.46C1042.23 629.61 1031.5 584.193 1031.5 534C1031.5 483.807 1042.23 438.39 1059.56 405.54C1076.9 372.667 1100.77 352.5 1127 352.5C1153.23 352.5 1177.1 372.667 1194.44 405.54C1211.77 438.39 1222.5 483.807 1222.5 534C1222.5 584.193 1211.77 629.61 1194.44 662.46C1177.1 695.333 1153.23 715.5 1127 715.5Z" fill="#81A0D8" stroke="black"/>
<path d="M1067 715.5C1040.77 715.5 1016.9 695.333 999.56 662.46C982.232 629.61 971.5 584.193 971.5 534C971.5 483.807 982.232 438.39 999.56 405.54C1016.9 372.667 1040.77 352.5 1067 352.5C1093.23 352.5 1117.1 372.667 1134.44 405.54C1151.77 438.39 1162.5 483.807 1162.5 534C1162.5 584.193 1151.77 629.61 1134.44 662.46C1117.1 695.333 1093.23 715.5 1067 715.5Z" fill="#004F80" stroke="black"/>
<path d="M994 715.5C967.768 715.5 943.899 695.333 926.56 662.46C909.232 629.61 898.5 584.193 898.5 534C898.5 483.807 909.232 438.39 926.56 405.54C943.899 372.667 967.768 352.5 994 352.5C1020.23 352.5 1044.1 372.667 1061.44 405.54C1078.77 438.39 1089.5 483.807 1089.5 534C1089.5 584.193 1078.77 629.61 1061.44 662.46C1044.1 695.333 1020.23 715.5 994 715.5Z" fill="#81A0D8" stroke="black"/>
<path d="M832 617.5C805.768 617.5 781.899 597.333 764.56 564.46C747.232 531.61 736.5 486.193 736.5 436C736.5 385.807 747.232 340.39 764.56 307.54C781.899 274.667 805.768 254.5 832 254.5C858.232 254.5 882.101 274.667 899.44 307.54C916.768 340.39 927.5 385.807 927.5 436C927.5 486.193 916.768 531.61 899.44 564.46C882.101 597.333 858.232 617.5 832 617.5Z" fill="#004F80" stroke="black"/>
<path d="M759 617.5C732.768 617.5 708.899 597.333 691.56 564.46C674.232 531.61 663.5 486.193 663.5 436C663.5 385.807 674.232 340.39 691.56 307.54C708.899 274.667 732.768 254.5 759 254.5C785.232 254.5 809.101 274.667 826.44 307.54C843.768 340.39 854.5 385.807 854.5 436C854.5 486.193 843.768 531.61 826.44 564.46C809.101 597.333 785.232 617.5 759 617.5Z" fill="#81A0D8" stroke="black"/>
<path d="M699 617.5C672.768 617.5 648.899 597.333 631.56 564.46C614.232 531.61 603.5 486.193 603.5 436C603.5 385.807 614.232 340.39 631.56 307.54C648.899 274.667 672.768 254.5 699 254.5C725.232 254.5 749.101 274.667 766.44 307.54C783.768 340.39 794.5 385.807 794.5 436C794.5 486.193 783.768 531.61 766.44 564.46C749.101 597.333 725.232 617.5 699 617.5Z" fill="#004F80" stroke="black"/>
<path d="M626 617.5C599.768 617.5 575.899 597.333 558.56 564.46C541.232 531.61 530.5 486.193 530.5 436C530.5 385.807 541.232 340.39 558.56 307.54C575.899 274.667 599.768 254.5 626 254.5C652.232 254.5 676.101 274.667 693.44 307.54C710.768 340.39 721.5 385.807 721.5 436C721.5 486.193 710.768 531.61 693.44 564.46C676.101 597.333 652.232 617.5 626 617.5Z" fill="#81A0D8" stroke="black"/>
<path d="M935 715.5C908.768 715.5 884.899 695.333 867.56 662.46C850.232 629.61 839.5 584.193 839.5 534C839.5 483.807 850.232 438.39 867.56 405.54C884.899 372.667 908.768 352.5 935 352.5C961.232 352.5 985.101 372.667 1002.44 405.54C1019.77 438.39 1030.5 483.807 1030.5 534C1030.5 584.193 1019.77 629.61 1002.44 662.46C985.101 695.333 961.232 715.5 935 715.5Z" fill="#004F80" stroke="black"/>
<path d="M862 715.5C835.768 715.5 811.899 695.333 794.56 662.46C777.232 629.61 766.5 584.193 766.5 534C766.5 483.807 777.232 438.39 794.56 405.54C811.899 372.667 835.768 352.5 862 352.5C888.232 352.5 912.101 372.667 929.44 405.54C946.768 438.39 957.5 483.807 957.5 534C957.5 584.193 946.768 629.61 929.44 662.46C912.101 695.333 888.232 715.5 862 715.5Z" fill="#81A0D8" stroke="black"/>
<path d="M802 715.5C775.768 715.5 751.899 695.333 734.56 662.46C717.232 629.61 706.5 584.193 706.5 534C706.5 483.807 717.232 438.39 734.56 405.54C751.899 372.667 775.768 352.5 802 352.5C828.232 352.5 852.101 372.667 869.44 405.54C886.768 438.39 897.5 483.807 897.5 534C897.5 584.193 886.768 629.61 869.44 662.46C852.101 695.333 828.232 715.5 802 715.5Z" fill="#004F80" stroke="black"/>
<path d="M729 715.5C702.768 715.5 678.899 695.333 661.56 662.46C644.232 629.61 633.5 584.193 633.5 534C633.5 483.807 644.232 438.39 661.56 405.54C678.899 372.667 702.768 352.5 729 352.5C755.232 352.5 779.101 372.667 796.44 405.54C813.768 438.39 824.5 483.807 824.5 534C824.5 584.193 813.768 629.61 796.44 662.46C779.101 695.333 755.232 715.5 729 715.5Z" fill="#81A0D8" stroke="black"/>
<path d="M567 617.5C540.768 617.5 516.899 597.333 499.56 564.46C482.232 531.61 471.5 486.193 471.5 436C471.5 385.807 482.232 340.39 499.56 307.54C516.899 274.667 540.768 254.5 567 254.5C593.232 254.5 617.101 274.667 634.44 307.54C651.768 340.39 662.5 385.807 662.5 436C662.5 486.193 651.768 531.61 634.44 564.46C617.101 597.333 593.232 617.5 567 617.5Z" fill="#004F80" stroke="black"/>
<path d="M494 617.5C467.768 617.5 443.899 597.333 426.56 564.46C409.232 531.61 398.5 486.193 398.5 436C398.5 385.807 409.232 340.39 426.56 307.54C443.899 274.667 467.768 254.5 494 254.5C520.232 254.5 544.101 274.667 561.44 307.54C578.768 340.39 589.5 385.807 589.5 436C589.5 486.193 578.768 531.61 561.44 564.46C544.101 597.333 520.232 617.5 494 617.5Z" fill="#81A0D8" stroke="black"/>
<path d="M434 617.5C407.768 617.5 383.899 597.333 366.56 564.46C349.232 531.61 338.5 486.193 338.5 436C338.5 385.807 349.232 340.39 366.56 307.54C383.899 274.667 407.768 254.5 434 254.5C460.232 254.5 484.101 274.667 501.44 307.54C518.768 340.39 529.5 385.807 529.5 436C529.5 486.193 518.768 531.61 501.44 564.46C484.101 597.333 460.232 617.5 434 617.5Z" fill="#004F80" stroke="black"/>
<path d="M361 617.5C334.768 617.5 310.899 597.333 293.56 564.46C276.232 531.61 265.5 486.193 265.5 436C265.5 385.807 276.232 340.39 293.56 307.54C310.899 274.667 334.768 254.5 361 254.5C387.232 254.5 411.101 274.667 428.44 307.54C445.768 340.39 456.5 385.807 456.5 436C456.5 486.193 445.768 531.61 428.44 564.46C411.101 597.333 387.232 617.5 361 617.5Z" fill="#81A0D8" stroke="black"/>
<path d="M670 715.5C643.768 715.5 619.899 695.333 602.56 662.46C585.232 629.61 574.5 584.193 574.5 534C574.5 483.807 585.232 438.39 602.56 405.54C619.899 372.667 643.768 352.5 670 352.5C696.232 352.5 720.101 372.667 737.44 405.54C754.768 438.39 765.5 483.807 765.5 534C765.5 584.193 754.768 629.61 737.44 662.46C720.101 695.333 696.232 715.5 670 715.5Z" fill="#004F80" stroke="black"/>
<path d="M597 715.5C570.768 715.5 546.899 695.333 529.56 662.46C512.232 629.61 501.5 584.193 501.5 534C501.5 483.807 512.232 438.39 529.56 405.54C546.899 372.667 570.768 352.5 597 352.5C623.232 352.5 647.101 372.667 664.44 405.54C681.768 438.39 692.5 483.807 692.5 534C692.5 584.193 681.768 629.61 664.44 662.46C647.101 695.333 623.232 715.5 597 715.5Z" fill="#81A0D8" stroke="black"/>
<path d="M537 715.5C510.768 715.5 486.899 695.333 469.56 662.46C452.232 629.61 441.5 584.193 441.5 534C441.5 483.807 452.232 438.39 469.56 405.54C486.899 372.667 510.768 352.5 537 352.5C563.232 352.5 587.101 372.667 604.44 405.54C621.768 438.39 632.5 483.807 632.5 534C632.5 584.193 621.768 629.61 604.44 662.46C587.101 695.333 563.232 715.5 537 715.5Z" fill="#004F80" stroke="black"/>
<path d="M464 715.5C437.768 715.5 413.899 695.333 396.56 662.46C379.232 629.61 368.5 584.193 368.5 534C368.5 483.807 379.232 438.39 396.56 405.54C413.899 372.667 437.768 352.5 464 352.5C490.232 352.5 514.101 372.667 531.44 405.54C548.768 438.39 559.5 483.807 559.5 534C559.5 584.193 548.768 629.61 531.44 662.46C514.101 695.333 490.232 715.5 464 715.5Z" fill="#81A0D8" stroke="black"/>
<path d="M302 617.5C275.768 617.5 251.899 597.333 234.56 564.46C217.232 531.61 206.5 486.193 206.5 436C206.5 385.807 217.232 340.39 234.56 307.54C251.899 274.667 275.768 254.5 302 254.5C328.232 254.5 352.101 274.667 369.44 307.54C386.768 340.39 397.5 385.807 397.5 436C397.5 486.193 386.768 531.61 369.44 564.46C352.101 597.333 328.232 617.5 302 617.5Z" fill="#004F80" stroke="black"/>
<path d="M229 617.5C202.768 617.5 178.899 597.333 161.56 564.46C144.232 531.61 133.5 486.193 133.5 436C133.5 385.807 144.232 340.39 161.56 307.54C178.899 274.667 202.768 254.5 229 254.5C255.232 254.5 279.101 274.667 296.44 307.54C313.768 340.39 324.5 385.807 324.5 436C324.5 486.193 313.768 531.61 296.44 564.46C279.101 597.333 255.232 617.5 229 617.5Z" fill="#81A0D8" stroke="black"/>
<path d="M169 617.5C142.768 617.5 118.899 597.333 101.56 564.46C84.2321 531.61 73.5 486.193 73.5 436C73.5 385.807 84.2321 340.39 101.56 307.54C118.899 274.667 142.768 254.5 169 254.5C195.232 254.5 219.101 274.667 236.44 307.54C253.768 340.39 264.5 385.807 264.5 436C264.5 486.193 253.768 531.61 236.44 564.46C219.101 597.333 195.232 617.5 169 617.5Z" fill="#004F80" stroke="black"/>
<path d="M96 617.5C69.7678 617.5 45.8992 597.333 28.5596 564.46C11.2321 531.61 0.5 486.193 0.5 436C0.5 385.807 11.2321 340.39 28.5596 307.54C45.8992 274.667 69.7678 254.5 96 254.5C122.232 254.5 146.101 274.667 163.44 307.54C180.768 340.39 191.5 385.807 191.5 436C191.5 486.193 180.768 531.61 163.44 564.46C146.101 597.333 122.232 617.5 96 617.5Z" fill="#81A0D8" stroke="black"/>
<path d="M405 715.5C378.768 715.5 354.899 695.333 337.56 662.46C320.232 629.61 309.5 584.193 309.5 534C309.5 483.807 320.232 438.39 337.56 405.54C354.899 372.667 378.768 352.5 405 352.5C431.232 352.5 455.101 372.667 472.44 405.54C489.768 438.39 500.5 483.807 500.5 534C500.5 584.193 489.768 629.61 472.44 662.46C455.101 695.333 431.232 715.5 405 715.5Z" fill="#004F80" stroke="black"/>
<path d="M332 715.5C305.768 715.5 281.899 695.333 264.56 662.46C247.232 629.61 236.5 584.193 236.5 534C236.5 483.807 247.232 438.39 264.56 405.54C281.899 372.667 305.768 352.5 332 352.5C358.232 352.5 382.101 372.667 399.44 405.54C416.768 438.39 427.5 483.807 427.5 534C427.5 584.193 416.768 629.61 399.44 662.46C382.101 695.333 358.232 715.5 332 715.5Z" fill="#81A0D8" stroke="black"/>
<path d="M272 715.5C245.768 715.5 221.899 695.333 204.56 662.46C187.232 629.61 176.5 584.193 176.5 534C176.5 483.807 187.232 438.39 204.56 405.54C221.899 372.667 245.768 352.5 272 352.5C298.232 352.5 322.101 372.667 339.44 405.54C356.768 438.39 367.5 483.807 367.5 534C367.5 584.193 356.768 629.61 339.44 662.46C322.101 695.333 298.232 715.5 272 715.5Z" fill="#004F80" stroke="black"/>
<path d="M199 715.5C172.768 715.5 148.899 695.333 131.56 662.46C114.232 629.61 103.5 584.193 103.5 534C103.5 483.807 114.232 438.39 131.56 405.54C148.899 372.667 172.768 352.5 199 352.5C225.232 352.5 249.101 372.667 266.44 405.54C283.768 438.39 294.5 483.807 294.5 534C294.5 584.193 283.768 629.61 266.44 662.46C249.101 695.333 225.232 715.5 199 715.5Z" fill="#81A0D8" stroke="black"/>
</svg>
