<svg width="1016" height="479" viewBox="0 0 1016 479" fill="none" xmlns="http://www.w3.org/2000/svg">
<rect x="0.15673" y="0.689518" width="3.51164" height="210.999" transform="matrix(-0.532789 0.846248 0.846248 0.532789 321.063 1.67096)" fill="#FFA0A0" stroke="black"/>
<rect x="0.5" y="0.5" width="3.51" height="176" transform="matrix(0 1 1 0 321 1.48145)" fill="#FFA0A0" stroke="black"/>
<rect x="0.5" y="0.5" width="3.51" height="176" transform="matrix(0 1 1 0 492 1.48145)" fill="#FFA0A0" stroke="black"/>
<rect x="0.15673" y="0.689518" width="3.51164" height="210.999" transform="matrix(-0.532789 0.846248 0.846248 0.532789 133.063 0.670964)" fill="#FFA0A0" stroke="black"/>
<rect x="-0.687133" y="-0.166877" width="3.51164" height="210.999" transform="matrix(-0.520257 -0.85401 -0.85401 0.520257 312.414 4.97863)" fill="#FFA0A0" stroke="black"/>
<rect x="-0.691034" y="-0.149904" width="3.51164" height="210.999" transform="matrix(-0.54113 -0.840939 -0.840939 0.54113 494.075 4.75342)" fill="#FFA0A0" stroke="black"/>
<rect x="-0.697881" y="-0.113851" width="3.51164" height="210.999" transform="matrix(-0.584031 -0.811732 -0.811732 0.584031 666.521 3.04826)" fill="#FFA0A0" stroke="black"/>
<rect x="0.095409" y="0.70064" width="3.51164" height="210.999" transform="matrix(-0.605232 0.796049 0.796049 0.605232 673.939 3.98873)" fill="#FFA0A0" stroke="black"/>
<rect x="0.673705" y="0.214758" width="3.51164" height="210.999" transform="matrix(0.458947 0.888464 0.888464 -0.458947 662.318 116.097)" fill="#FFA0A0" stroke="black"/>
<rect x="0.116639" y="0.69742" width="3.51164" height="210.999" transform="matrix(-0.580781 0.81406 0.81406 0.580781 504.996 2.53629)" fill="#FFA0A0" stroke="black"/>
<rect x="307.5" y="1.98145" width="16" height="280" fill="#FFA0A0" stroke="black"/>
<rect x="490.5" y="1.98145" width="16" height="371" fill="#FFA0A0" stroke="black"/>
<rect x="657.5" y="1.98145" width="16" height="371" fill="#FFA0A0" stroke="black"/>
<rect x="747.5" y="130.981" width="16" height="280" transform="rotate(-90 747.5 130.981)" fill="#FFA0A0" stroke="black"/>
<rect x="307.5" y="122.981" width="16" height="280" fill="#FFA0A0" stroke="black"/>
<rect x="221.5" y="130.981" width="16" height="268" transform="rotate(-90 221.5 130.981)" fill="#FFA0A0" stroke="black"/>
<rect x="55.5" y="130.981" width="16" height="268" transform="rotate(-90 55.5 130.981)" fill="#FFA0A0" stroke="black"/>
<rect x="504.5" y="130.981" width="16" height="280" transform="rotate(-90 504.5 130.981)" fill="#FFA0A0" stroke="black"/>
<circle cx="665" cy="122.481" r="19.5" fill="#FFA0A0" stroke="black"/>
<circle cx="498" cy="122.481" r="19.5" fill="#FFA0A0" stroke="black"/>
<circle cx="315" cy="123.481" r="19.5" fill="#FFA0A0" stroke="black"/>
<g filter="url(#filter0_d_1077_953)">
<mask id="path-22-inside-1_1077_953" fill="white">
<path d="M988.47 378.482H4L173.135 147.482L280.234 293.757L387.335 147.482L496.234 296.215L605.135 147.482L712.234 293.757L819.335 147.482L988.47 378.482Z"/>
</mask>
<path d="M988.47 378.482H4L173.135 147.482L280.234 293.757L387.335 147.482L496.234 296.215L605.135 147.482L712.234 293.757L819.335 147.482L988.47 378.482Z" fill="#FFEEF9"/>
<path d="M988.47 378.482V379.482H990.441L989.277 377.892L988.47 378.482ZM4 378.482L3.19315 377.892L2.02842 379.482H4V378.482ZM173.135 147.482L173.942 146.892L173.135 145.79L172.328 146.892L173.135 147.482ZM280.234 293.757L279.428 294.348L280.234 295.45L281.041 294.348L280.234 293.757ZM387.335 147.482L388.142 146.892L387.335 145.79L386.528 146.892L387.335 147.482ZM496.234 296.215L495.428 296.806L496.234 297.908L497.041 296.806L496.234 296.215ZM605.135 147.482L605.942 146.892L605.135 145.79L604.328 146.892L605.135 147.482ZM712.234 293.757L711.428 294.348L712.234 295.45L713.041 294.348L712.234 293.757ZM819.335 147.482L820.142 146.892L819.335 145.79L818.528 146.892L819.335 147.482ZM988.47 378.482V377.482H4V378.482V379.482H988.47V378.482ZM4 378.482L4.80685 379.073L173.942 148.073L173.135 147.482L172.328 146.892L3.19315 377.892L4 378.482ZM173.135 147.482L172.328 148.073L279.428 294.348L280.234 293.757L281.041 293.166L173.942 146.892L173.135 147.482ZM280.234 293.757L281.041 294.348L388.142 148.073L387.335 147.482L386.528 146.892L279.428 293.166L280.234 293.757ZM387.335 147.482L386.528 148.073L495.428 296.806L496.234 296.215L497.041 295.624L388.142 146.892L387.335 147.482ZM496.234 296.215L497.041 296.806L605.942 148.073L605.135 147.482L604.328 146.892L495.428 295.624L496.234 296.215ZM605.135 147.482L604.328 148.073L711.428 294.348L712.234 293.757L713.041 293.166L605.942 146.892L605.135 147.482ZM712.234 293.757L713.041 294.348L820.142 148.073L819.335 147.482L818.528 146.892L711.428 293.166L712.234 293.757ZM819.335 147.482L818.528 148.073L987.663 379.073L988.47 378.482L989.277 377.892L820.142 146.892L819.335 147.482Z" fill="black" mask="url(#path-22-inside-1_1077_953)"/>
<mask id="path-24-inside-2_1077_953" fill="white">
<path d="M988.47 415.482H4L173.135 184.482L280.234 330.757L387.335 184.482L496.234 333.215L605.135 184.482L712.234 330.757L819.335 184.482L988.47 415.482Z"/>
</mask>
<path d="M988.47 415.482H4L173.135 184.482L280.234 330.757L387.335 184.482L496.234 333.215L605.135 184.482L712.234 330.757L819.335 184.482L988.47 415.482Z" fill="#FFD7F0"/>
<path d="M988.47 415.482V416.482H990.441L989.277 414.892L988.47 415.482ZM4 415.482L3.19315 414.892L2.02842 416.482H4V415.482ZM173.135 184.482L173.942 183.892L173.135 182.79L172.328 183.892L173.135 184.482ZM280.234 330.757L279.428 331.348L280.234 332.45L281.041 331.348L280.234 330.757ZM387.335 184.482L388.142 183.892L387.335 182.79L386.528 183.892L387.335 184.482ZM496.234 333.215L495.428 333.806L496.234 334.908L497.041 333.806L496.234 333.215ZM605.135 184.482L605.942 183.892L605.135 182.79L604.328 183.892L605.135 184.482ZM712.234 330.757L711.428 331.348L712.234 332.45L713.041 331.348L712.234 330.757ZM819.335 184.482L820.142 183.892L819.335 182.79L818.528 183.892L819.335 184.482ZM988.47 415.482V414.482H4V415.482V416.482H988.47V415.482ZM4 415.482L4.80685 416.073L173.942 185.073L173.135 184.482L172.328 183.892L3.19315 414.892L4 415.482ZM173.135 184.482L172.328 185.073L279.428 331.348L280.234 330.757L281.041 330.166L173.942 183.892L173.135 184.482ZM280.234 330.757L281.041 331.348L388.142 185.073L387.335 184.482L386.528 183.892L279.428 330.166L280.234 330.757ZM387.335 184.482L386.528 185.073L495.428 333.806L496.234 333.215L497.041 332.624L388.142 183.892L387.335 184.482ZM496.234 333.215L497.041 333.806L605.942 185.073L605.135 184.482L604.328 183.892L495.428 332.624L496.234 333.215ZM605.135 184.482L604.328 185.073L711.428 331.348L712.234 330.757L713.041 330.166L605.942 183.892L605.135 184.482ZM712.234 330.757L713.041 331.348L820.142 185.073L819.335 184.482L818.528 183.892L711.428 330.166L712.234 330.757ZM819.335 184.482L818.528 185.073L987.663 416.073L988.47 415.482L989.277 414.892L820.142 183.892L819.335 184.482Z" fill="black" mask="url(#path-24-inside-2_1077_953)"/>
<mask id="path-26-inside-3_1077_953" fill="white">
<path d="M988.47 463.482H4L173.135 232.482L280.234 378.757L387.335 232.482L496.234 381.215L605.135 232.482L712.234 378.757L819.335 232.482L988.47 463.482Z"/>
</mask>
<path d="M988.47 463.482H4L173.135 232.482L280.234 378.757L387.335 232.482L496.234 381.215L605.135 232.482L712.234 378.757L819.335 232.482L988.47 463.482Z" fill="#FFBCE6"/>
<path d="M988.47 463.482V464.482H990.441L989.277 462.892L988.47 463.482ZM4 463.482L3.19315 462.892L2.02842 464.482H4V463.482ZM173.135 232.482L173.942 231.892L173.135 230.79L172.328 231.892L173.135 232.482ZM280.234 378.757L279.428 379.348L280.234 380.45L281.041 379.348L280.234 378.757ZM387.335 232.482L388.142 231.892L387.335 230.79L386.528 231.892L387.335 232.482ZM496.234 381.215L495.428 381.806L496.234 382.908L497.041 381.806L496.234 381.215ZM605.135 232.482L605.942 231.892L605.135 230.79L604.328 231.892L605.135 232.482ZM712.234 378.757L711.428 379.348L712.234 380.45L713.041 379.348L712.234 378.757ZM819.335 232.482L820.142 231.892L819.335 230.79L818.528 231.892L819.335 232.482ZM988.47 463.482V462.482H4V463.482V464.482H988.47V463.482ZM4 463.482L4.80685 464.073L173.942 233.073L173.135 232.482L172.328 231.892L3.19315 462.892L4 463.482ZM173.135 232.482L172.328 233.073L279.428 379.348L280.234 378.757L281.041 378.166L173.942 231.892L173.135 232.482ZM280.234 378.757L281.041 379.348L388.142 233.073L387.335 232.482L386.528 231.892L279.428 378.166L280.234 378.757ZM387.335 232.482L386.528 233.073L495.428 381.806L496.234 381.215L497.041 380.624L388.142 231.892L387.335 232.482ZM496.234 381.215L497.041 381.806L605.942 233.073L605.135 232.482L604.328 231.892L495.428 380.624L496.234 381.215ZM605.135 232.482L604.328 233.073L711.428 379.348L712.234 378.757L713.041 378.166L605.942 231.892L605.135 232.482ZM712.234 378.757L713.041 379.348L820.142 233.073L819.335 232.482L818.528 231.892L711.428 378.166L712.234 378.757ZM819.335 232.482L818.528 233.073L987.663 464.073L988.47 463.482L989.277 462.892L820.142 231.892L819.335 232.482Z" fill="black" mask="url(#path-26-inside-3_1077_953)"/>
<mask id="path-28-inside-4_1077_953" fill="white">
<path d="M988.47 518.482H4L173.135 287.482L280.234 433.757L387.335 287.482L496.234 436.215L605.135 287.482L712.234 433.757L819.335 287.482L988.47 518.482Z"/>
</mask>
<path d="M988.47 518.482H4L173.135 287.482L280.234 433.757L387.335 287.482L496.234 436.215L605.135 287.482L712.234 433.757L819.335 287.482L988.47 518.482Z" fill="#FF95D7"/>
<path d="M988.47 518.482V519.482H990.441L989.277 517.892L988.47 518.482ZM4 518.482L3.19315 517.892L2.02842 519.482H4V518.482ZM173.135 287.482L173.942 286.892L173.135 285.79L172.328 286.892L173.135 287.482ZM280.234 433.757L279.428 434.348L280.234 435.45L281.041 434.348L280.234 433.757ZM387.335 287.482L388.142 286.892L387.335 285.79L386.528 286.892L387.335 287.482ZM496.234 436.215L495.428 436.806L496.234 437.908L497.041 436.806L496.234 436.215ZM605.135 287.482L605.942 286.892L605.135 285.79L604.328 286.892L605.135 287.482ZM712.234 433.757L711.428 434.348L712.234 435.45L713.041 434.348L712.234 433.757ZM819.335 287.482L820.142 286.892L819.335 285.79L818.528 286.892L819.335 287.482ZM988.47 518.482V517.482H4V518.482V519.482H988.47V518.482ZM4 518.482L4.80685 519.073L173.942 288.073L173.135 287.482L172.328 286.892L3.19315 517.892L4 518.482ZM173.135 287.482L172.328 288.073L279.428 434.348L280.234 433.757L281.041 433.166L173.942 286.892L173.135 287.482ZM280.234 433.757L281.041 434.348L388.142 288.073L387.335 287.482L386.528 286.892L279.428 433.166L280.234 433.757ZM387.335 287.482L386.528 288.073L495.428 436.806L496.234 436.215L497.041 435.624L388.142 286.892L387.335 287.482ZM496.234 436.215L497.041 436.806L605.942 288.073L605.135 287.482L604.328 286.892L495.428 435.624L496.234 436.215ZM605.135 287.482L604.328 288.073L711.428 434.348L712.234 433.757L713.041 433.166L605.942 286.892L605.135 287.482ZM712.234 433.757L713.041 434.348L820.142 288.073L819.335 287.482L818.528 286.892L711.428 433.166L712.234 433.757ZM819.335 287.482L818.528 288.073L987.663 519.073L988.47 518.482L989.277 517.892L820.142 286.892L819.335 287.482Z" fill="black" mask="url(#path-28-inside-4_1077_953)"/>
<mask id="path-30-inside-5_1077_953" fill="white">
<path d="M988.47 570.482H4L173.135 339.482L280.234 485.757L387.335 339.482L496.234 488.215L605.135 339.482L712.234 485.757L819.335 339.482L988.47 570.482Z"/>
</mask>
<path d="M988.47 570.482H4L173.135 339.482L280.234 485.757L387.335 339.482L496.234 488.215L605.135 339.482L712.234 485.757L819.335 339.482L988.47 570.482Z" fill="#DF68B2"/>
<path d="M988.47 570.482V571.482H990.441L989.277 569.892L988.47 570.482ZM4 570.482L3.19315 569.892L2.02842 571.482H4V570.482ZM173.135 339.482L173.942 338.892L173.135 337.79L172.328 338.892L173.135 339.482ZM280.234 485.757L279.428 486.348L280.234 487.45L281.041 486.348L280.234 485.757ZM387.335 339.482L388.142 338.892L387.335 337.79L386.528 338.892L387.335 339.482ZM496.234 488.215L495.428 488.806L496.234 489.908L497.041 488.806L496.234 488.215ZM605.135 339.482L605.942 338.892L605.135 337.79L604.328 338.892L605.135 339.482ZM712.234 485.757L711.428 486.348L712.234 487.45L713.041 486.348L712.234 485.757ZM819.335 339.482L820.142 338.892L819.335 337.79L818.528 338.892L819.335 339.482ZM988.47 570.482V569.482H4V570.482V571.482H988.47V570.482ZM4 570.482L4.80685 571.073L173.942 340.073L173.135 339.482L172.328 338.892L3.19315 569.892L4 570.482ZM173.135 339.482L172.328 340.073L279.428 486.348L280.234 485.757L281.041 485.166L173.942 338.892L173.135 339.482ZM280.234 485.757L281.041 486.348L388.142 340.073L387.335 339.482L386.528 338.892L279.428 485.166L280.234 485.757ZM387.335 339.482L386.528 340.073L495.428 488.806L496.234 488.215L497.041 487.624L388.142 338.892L387.335 339.482ZM496.234 488.215L497.041 488.806L605.942 340.073L605.135 339.482L604.328 338.892L495.428 487.624L496.234 488.215ZM605.135 339.482L604.328 340.073L711.428 486.348L712.234 485.757L713.041 485.166L605.942 338.892L605.135 339.482ZM712.234 485.757L713.041 486.348L820.142 340.073L819.335 339.482L818.528 338.892L711.428 485.166L712.234 485.757ZM819.335 339.482L818.528 340.073L987.663 571.073L988.47 570.482L989.277 569.892L820.142 338.892L819.335 339.482Z" fill="black" mask="url(#path-30-inside-5_1077_953)"/>
</g>
<defs>
<filter id="filter0_d_1077_953" x="0" y="147.482" width="992.469" height="431" filterUnits="userSpaceOnUse" color-interpolation-filters="sRGB">
<feFlood flood-opacity="0" result="BackgroundImageFix"/>
<feColorMatrix in="SourceAlpha" type="matrix" values="0 0 0 0 0 0 0 0 0 0 0 0 0 0 0 0 0 0 127 0" result="hardAlpha"/>
<feOffset dy="4"/>
<feGaussianBlur stdDeviation="2"/>
<feComposite in2="hardAlpha" operator="out"/>
<feColorMatrix type="matrix" values="0 0 0 0 0 0 0 0 0 0 0 0 0 0 0 0 0 0 0.25 0"/>
<feBlend mode="normal" in2="BackgroundImageFix" result="effect1_dropShadow_1077_953"/>
<feBlend mode="normal" in="SourceGraphic" in2="effect1_dropShadow_1077_953" result="shape"/>
</filter>
</defs>
</svg>
