<svg width="1089" height="388" viewBox="0 0 1089 388" fill="none" xmlns="http://www.w3.org/2000/svg">
<rect y="29.25" width="1089" height="329.25" fill="#505050"/>
<rect x="0.375" y="0.375" width="135.75" height="28.5" rx="1.125" fill="#D9D9D9" stroke="black" stroke-width="0.75"/>
<rect x="136.125" y="0.375" width="135.75" height="28.5" rx="1.125" fill="#D9D9D9" stroke="black" stroke-width="0.75"/>
<rect x="272.625" y="0.375" width="135.75" height="28.5" rx="1.125" fill="#D9D9D9" stroke="black" stroke-width="0.75"/>
<rect x="408.375" y="0.375" width="135.75" height="28.5" rx="1.125" fill="#D9D9D9" stroke="black" stroke-width="0.75"/>
<rect x="544.875" y="0.375" width="135.75" height="28.5" rx="1.125" fill="#D9D9D9" stroke="black" stroke-width="0.75"/>
<rect x="680.625" y="0.375" width="135.75" height="28.5" rx="1.125" fill="#D9D9D9" stroke="black" stroke-width="0.75"/>
<rect x="817.125" y="0.375" width="135.75" height="28.5" rx="1.125" fill="#D9D9D9" stroke="black" stroke-width="0.75"/>
<rect x="952.875" y="0.375" width="135.75" height="28.5" rx="1.125" fill="#D9D9D9" stroke="black" stroke-width="0.75"/>
<rect x="0.375" y="358.875" width="135.75" height="28.5" rx="1.125" fill="#D9D9D9" stroke="black" stroke-width="0.75"/>
<rect x="136.125" y="358.875" width="135.75" height="28.5" rx="1.125" fill="#D9D9D9" stroke="black" stroke-width="0.75"/>
<rect x="272.625" y="358.875" width="135.75" height="28.5" rx="1.125" fill="#D9D9D9" stroke="black" stroke-width="0.75"/>
<rect x="408.375" y="358.875" width="135.75" height="28.5" rx="1.125" fill="#D9D9D9" stroke="black" stroke-width="0.75"/>
<rect x="544.875" y="358.875" width="135.75" height="28.5" rx="1.125" fill="#D9D9D9" stroke="black" stroke-width="0.75"/>
<rect x="680.625" y="358.875" width="135.75" height="28.5" rx="1.125" fill="#D9D9D9" stroke="black" stroke-width="0.75"/>
<rect x="817.125" y="358.875" width="135.75" height="28.5" rx="1.125" fill="#D9D9D9" stroke="black" stroke-width="0.75"/>
<rect x="952.875" y="358.875" width="135.75" height="28.5" rx="1.125" fill="#D9D9D9" stroke="black" stroke-width="0.75"/>
<rect x="499.125" y="141.375" width="91.5" height="86.25" fill="#505050" stroke="#D9D9D9" stroke-width="2.25"/>
<rect x="686.625" y="141.375" width="91.5" height="86.25" fill="#505050" stroke="#D9D9D9" stroke-width="2.25"/>
<rect x="405.375" y="141.375" width="91.5" height="86.25" fill="#505050" stroke="#D9D9D9" stroke-width="2.25"/>
<rect x="217.875" y="141.375" width="91.5" height="86.25" fill="#505050" stroke="#D9D9D9" stroke-width="2.25"/>
<rect x="124.125" y="141.375" width="91.5" height="86.25" fill="#505050" stroke="#D9D9D9" stroke-width="2.25"/>
<rect x="592.875" y="97.125" width="91.5" height="86.25" fill="#505050" stroke="#D9D9D9" stroke-width="2.25"/>
<rect x="592.875" y="185.625" width="91.5" height="86.25" fill="#505050" stroke="#D9D9D9" stroke-width="2.25"/>
<rect x="311.625" y="97.125" width="91.5" height="86.25" fill="#505050" stroke="#D9D9D9" stroke-width="2.25"/>
<rect x="311.625" y="185.625" width="91.5" height="86.25" fill="#505050" stroke="#D9D9D9" stroke-width="2.25"/>
<rect x="874.125" y="141.375" width="91.5" height="86.25" fill="#505050" stroke="#D9D9D9" stroke-width="2.25"/>
<rect x="780.375" y="97.125" width="91.5" height="86.25" fill="#505050" stroke="#D9D9D9" stroke-width="2.25"/>
<rect x="780.375" y="185.625" width="91.5" height="86.25" fill="#505050" stroke="#D9D9D9" stroke-width="2.25"/>
</svg>
