<svg width="694" height="511" viewBox="0 0 694 511" fill="none" xmlns="http://www.w3.org/2000/svg">
<rect x="235.5" y="58.5" width="12" height="261" fill="#FFF76B" stroke="black"/>
<rect x="221" y="53" width="40" height="6" fill="#FFF76B"/>
<rect x="221.5" y="53.5" width="39" height="5" stroke="black" stroke-opacity="0.54"/>
<rect x="221.5" y="53.5" width="39" height="5" stroke="black" stroke-opacity="0.2"/>
<rect x="221" y="21" width="40" height="6" fill="#FFF76B"/>
<rect x="221.5" y="21.5" width="39" height="5" stroke="black" stroke-opacity="0.54"/>
<rect x="221.5" y="21.5" width="39" height="5" stroke="black" stroke-opacity="0.2"/>
<rect x="230.5" y="26.5" width="22" height="27" rx="1.5" fill="#FFF76B" stroke="black"/>
<path d="M254.109 21.25H229.891L242 0.975586L254.109 21.25Z" fill="#FFF76B" stroke="black"/>
<mask id="path-8-inside-1_1072_912" fill="white">
<path d="M439 39.5576L416 51.5918V51.9814H415.256L415 52.1152V51.9814H252V27.9814H415V27L439 39.5576Z"/>
</mask>
<path d="M439 39.5576L416 51.5918V51.9814H415.256L415 52.1152V51.9814H252V27.9814H415V27L439 39.5576Z" fill="#FFF76B"/>
<path d="M439 39.5576L439.464 40.4437L441.157 39.5576L439.464 38.6716L439 39.5576ZM416 51.5918L415.536 50.7058L415 50.9864V51.5918H416ZM416 51.9814V52.9814H417V51.9814H416ZM415.256 51.9814V50.9814H415.01L414.792 51.0953L415.256 51.9814ZM415 52.1152H414V53.7666L415.463 53.0014L415 52.1152ZM415 51.9814H416V50.9814H415V51.9814ZM252 51.9814H251V52.9814H252V51.9814ZM252 27.9814V26.9814H251V27.9814H252ZM415 27.9814V28.9814H416V27.9814H415ZM415 27L415.464 26.114L414 25.3482V27H415ZM439 39.5576L438.536 38.6716L415.536 50.7058L416 51.5918L416.464 52.4778L439.464 40.4437L439 39.5576ZM416 51.5918H415V51.9814H416H417V51.5918H416ZM416 51.9814V50.9814H415.256V51.9814V52.9814H416V51.9814ZM415.256 51.9814L414.792 51.0953L414.537 51.2291L415 52.1152L415.463 53.0014L415.719 52.8676L415.256 51.9814ZM415 52.1152H416V51.9814H415H414V52.1152H415ZM415 51.9814V50.9814H252V51.9814V52.9814H415V51.9814ZM252 51.9814H253V27.9814H252H251V51.9814H252ZM252 27.9814V28.9814H415V27.9814V26.9814H252V27.9814ZM415 27.9814H416V27H415H414V27.9814H415ZM415 27L414.536 27.886L438.536 40.4437L439 39.5576L439.464 38.6716L415.464 26.114L415 27Z" fill="black" mask="url(#path-8-inside-1_1072_912)"/>
<rect x="390.5" y="295.75" width="62.75" height="62.75" fill="#FFF76B" stroke="black"/>
<rect x="390.5" y="230" width="62.75" height="62.75" fill="#FFF76B" stroke="black"/>
<rect x="390.5" y="168.25" width="62.75" height="62.75" fill="#FFF76B" stroke="black"/>
<rect x="390.5" y="105.5" width="62.75" height="62.75" fill="#FFF76B" stroke="black"/>
<rect x="453.25" y="105.5" width="62.75" height="62.75" fill="#FFF76B" stroke="black"/>
<rect x="516" y="105.5" width="62.75" height="62.75" fill="#FFF76B" stroke="black"/>
<rect x="578.75" y="105.5" width="62.75" height="62.75" fill="#FFF76B" stroke="black"/>
<g filter="url(#filter0_d_1072_912)">
<circle cx="593" cy="342" r="97" fill="#D9D9D9"/>
<circle cx="593" cy="342" r="96.5" stroke="black"/>
</g>
<g filter="url(#filter1_d_1072_912)">
<circle cx="604" cy="342" r="75" fill="#C0C0C0"/>
<circle cx="604" cy="342" r="74.5" stroke="black"/>
</g>
<g filter="url(#filter2_d_1072_912)">
<circle cx="609" cy="345" r="50" fill="#A7A5A5"/>
<circle cx="609" cy="345" r="49.5" stroke="black"/>
</g>
<g filter="url(#filter3_d_1072_912)">
<circle cx="420" cy="379" r="121.25" fill="#D9D9D9"/>
<circle cx="420" cy="379" r="120.625" stroke="black" stroke-width="1.25"/>
</g>
<g filter="url(#filter4_d_1072_912)">
<circle cx="422.5" cy="379" r="93.75" fill="#C0C0C0"/>
<circle cx="422.5" cy="379" r="93.125" stroke="black" stroke-width="1.25"/>
</g>
<g filter="url(#filter5_d_1072_912)">
<circle cx="422.5" cy="382.75" r="62.5" fill="#A7A5A5"/>
<circle cx="422.5" cy="382.75" r="61.875" stroke="black" stroke-width="1.25"/>
</g>
<g filter="url(#filter6_d_1072_912)">
<circle cx="118" cy="245" r="114" fill="#D9D9D9"/>
<circle cx="118" cy="245" r="113.5" stroke="black"/>
</g>
<g filter="url(#filter7_d_1072_912)">
<circle cx="120.351" cy="245" r="88.1443" fill="#C0C0C0"/>
<circle cx="120.351" cy="245" r="87.6443" stroke="black"/>
</g>
<g filter="url(#filter8_d_1072_912)">
<circle cx="120.349" cy="248.526" r="58.7629" fill="#A7A5A5"/>
<circle cx="120.349" cy="248.526" r="58.2629" stroke="black"/>
</g>
<g filter="url(#filter9_d_1072_912)">
<circle cx="243" cy="340" r="114" fill="#D9D9D9"/>
<circle cx="243" cy="340" r="113.5" stroke="black"/>
</g>
<g filter="url(#filter10_d_1072_912)">
<circle cx="245.351" cy="340" r="88.1443" fill="#C0C0C0"/>
<circle cx="245.351" cy="340" r="87.6443" stroke="black"/>
</g>
<g filter="url(#filter11_d_1072_912)">
<circle cx="245.349" cy="343.526" r="58.7629" fill="#A7A5A5"/>
<circle cx="245.349" cy="343.526" r="58.2629" stroke="black"/>
</g>
<defs>
<filter id="filter0_d_1072_912" x="492" y="245" width="202" height="202" filterUnits="userSpaceOnUse" color-interpolation-filters="sRGB">
<feFlood flood-opacity="0" result="BackgroundImageFix"/>
<feColorMatrix in="SourceAlpha" type="matrix" values="0 0 0 0 0 0 0 0 0 0 0 0 0 0 0 0 0 0 127 0" result="hardAlpha"/>
<feOffset dy="4"/>
<feGaussianBlur stdDeviation="2"/>
<feComposite in2="hardAlpha" operator="out"/>
<feColorMatrix type="matrix" values="0 0 0 0 0 0 0 0 0 0 0 0 0 0 0 0 0 0 0.25 0"/>
<feBlend mode="normal" in2="BackgroundImageFix" result="effect1_dropShadow_1072_912"/>
<feBlend mode="normal" in="SourceGraphic" in2="effect1_dropShadow_1072_912" result="shape"/>
</filter>
<filter id="filter1_d_1072_912" x="525" y="267" width="158" height="158" filterUnits="userSpaceOnUse" color-interpolation-filters="sRGB">
<feFlood flood-opacity="0" result="BackgroundImageFix"/>
<feColorMatrix in="SourceAlpha" type="matrix" values="0 0 0 0 0 0 0 0 0 0 0 0 0 0 0 0 0 0 127 0" result="hardAlpha"/>
<feOffset dy="4"/>
<feGaussianBlur stdDeviation="2"/>
<feComposite in2="hardAlpha" operator="out"/>
<feColorMatrix type="matrix" values="0 0 0 0 0 0 0 0 0 0 0 0 0 0 0 0 0 0 0.25 0"/>
<feBlend mode="normal" in2="BackgroundImageFix" result="effect1_dropShadow_1072_912"/>
<feBlend mode="normal" in="SourceGraphic" in2="effect1_dropShadow_1072_912" result="shape"/>
</filter>
<filter id="filter2_d_1072_912" x="555" y="295" width="108" height="108" filterUnits="userSpaceOnUse" color-interpolation-filters="sRGB">
<feFlood flood-opacity="0" result="BackgroundImageFix"/>
<feColorMatrix in="SourceAlpha" type="matrix" values="0 0 0 0 0 0 0 0 0 0 0 0 0 0 0 0 0 0 127 0" result="hardAlpha"/>
<feOffset dy="4"/>
<feGaussianBlur stdDeviation="2"/>
<feComposite in2="hardAlpha" operator="out"/>
<feColorMatrix type="matrix" values="0 0 0 0 0 0 0 0 0 0 0 0 0 0 0 0 0 0 0.25 0"/>
<feBlend mode="normal" in2="BackgroundImageFix" result="effect1_dropShadow_1072_912"/>
<feBlend mode="normal" in="SourceGraphic" in2="effect1_dropShadow_1072_912" result="shape"/>
</filter>
<filter id="filter3_d_1072_912" x="293.75" y="257.75" width="252.5" height="252.5" filterUnits="userSpaceOnUse" color-interpolation-filters="sRGB">
<feFlood flood-opacity="0" result="BackgroundImageFix"/>
<feColorMatrix in="SourceAlpha" type="matrix" values="0 0 0 0 0 0 0 0 0 0 0 0 0 0 0 0 0 0 127 0" result="hardAlpha"/>
<feOffset dy="5"/>
<feGaussianBlur stdDeviation="2.5"/>
<feComposite in2="hardAlpha" operator="out"/>
<feColorMatrix type="matrix" values="0 0 0 0 0 0 0 0 0 0 0 0 0 0 0 0 0 0 0.25 0"/>
<feBlend mode="normal" in2="BackgroundImageFix" result="effect1_dropShadow_1072_912"/>
<feBlend mode="normal" in="SourceGraphic" in2="effect1_dropShadow_1072_912" result="shape"/>
</filter>
<filter id="filter4_d_1072_912" x="323.75" y="285.25" width="197.5" height="197.5" filterUnits="userSpaceOnUse" color-interpolation-filters="sRGB">
<feFlood flood-opacity="0" result="BackgroundImageFix"/>
<feColorMatrix in="SourceAlpha" type="matrix" values="0 0 0 0 0 0 0 0 0 0 0 0 0 0 0 0 0 0 127 0" result="hardAlpha"/>
<feOffset dy="5"/>
<feGaussianBlur stdDeviation="2.5"/>
<feComposite in2="hardAlpha" operator="out"/>
<feColorMatrix type="matrix" values="0 0 0 0 0 0 0 0 0 0 0 0 0 0 0 0 0 0 0.25 0"/>
<feBlend mode="normal" in2="BackgroundImageFix" result="effect1_dropShadow_1072_912"/>
<feBlend mode="normal" in="SourceGraphic" in2="effect1_dropShadow_1072_912" result="shape"/>
</filter>
<filter id="filter5_d_1072_912" x="355" y="320.25" width="135" height="135" filterUnits="userSpaceOnUse" color-interpolation-filters="sRGB">
<feFlood flood-opacity="0" result="BackgroundImageFix"/>
<feColorMatrix in="SourceAlpha" type="matrix" values="0 0 0 0 0 0 0 0 0 0 0 0 0 0 0 0 0 0 127 0" result="hardAlpha"/>
<feOffset dy="5"/>
<feGaussianBlur stdDeviation="2.5"/>
<feComposite in2="hardAlpha" operator="out"/>
<feColorMatrix type="matrix" values="0 0 0 0 0 0 0 0 0 0 0 0 0 0 0 0 0 0 0.25 0"/>
<feBlend mode="normal" in2="BackgroundImageFix" result="effect1_dropShadow_1072_912"/>
<feBlend mode="normal" in="SourceGraphic" in2="effect1_dropShadow_1072_912" result="shape"/>
</filter>
<filter id="filter6_d_1072_912" x="0" y="131" width="236" height="236" filterUnits="userSpaceOnUse" color-interpolation-filters="sRGB">
<feFlood flood-opacity="0" result="BackgroundImageFix"/>
<feColorMatrix in="SourceAlpha" type="matrix" values="0 0 0 0 0 0 0 0 0 0 0 0 0 0 0 0 0 0 127 0" result="hardAlpha"/>
<feOffset dy="4"/>
<feGaussianBlur stdDeviation="2"/>
<feComposite in2="hardAlpha" operator="out"/>
<feColorMatrix type="matrix" values="0 0 0 0 0 0 0 0 0 0 0 0 0 0 0 0 0 0 0.25 0"/>
<feBlend mode="normal" in2="BackgroundImageFix" result="effect1_dropShadow_1072_912"/>
<feBlend mode="normal" in="SourceGraphic" in2="effect1_dropShadow_1072_912" result="shape"/>
</filter>
<filter id="filter7_d_1072_912" x="28.207" y="156.855" width="184.289" height="184.289" filterUnits="userSpaceOnUse" color-interpolation-filters="sRGB">
<feFlood flood-opacity="0" result="BackgroundImageFix"/>
<feColorMatrix in="SourceAlpha" type="matrix" values="0 0 0 0 0 0 0 0 0 0 0 0 0 0 0 0 0 0 127 0" result="hardAlpha"/>
<feOffset dy="4"/>
<feGaussianBlur stdDeviation="2"/>
<feComposite in2="hardAlpha" operator="out"/>
<feColorMatrix type="matrix" values="0 0 0 0 0 0 0 0 0 0 0 0 0 0 0 0 0 0 0.25 0"/>
<feBlend mode="normal" in2="BackgroundImageFix" result="effect1_dropShadow_1072_912"/>
<feBlend mode="normal" in="SourceGraphic" in2="effect1_dropShadow_1072_912" result="shape"/>
</filter>
<filter id="filter8_d_1072_912" x="57.5859" y="189.763" width="125.527" height="125.525" filterUnits="userSpaceOnUse" color-interpolation-filters="sRGB">
<feFlood flood-opacity="0" result="BackgroundImageFix"/>
<feColorMatrix in="SourceAlpha" type="matrix" values="0 0 0 0 0 0 0 0 0 0 0 0 0 0 0 0 0 0 127 0" result="hardAlpha"/>
<feOffset dy="4"/>
<feGaussianBlur stdDeviation="2"/>
<feComposite in2="hardAlpha" operator="out"/>
<feColorMatrix type="matrix" values="0 0 0 0 0 0 0 0 0 0 0 0 0 0 0 0 0 0 0.25 0"/>
<feBlend mode="normal" in2="BackgroundImageFix" result="effect1_dropShadow_1072_912"/>
<feBlend mode="normal" in="SourceGraphic" in2="effect1_dropShadow_1072_912" result="shape"/>
</filter>
<filter id="filter9_d_1072_912" x="125" y="226" width="236" height="236" filterUnits="userSpaceOnUse" color-interpolation-filters="sRGB">
<feFlood flood-opacity="0" result="BackgroundImageFix"/>
<feColorMatrix in="SourceAlpha" type="matrix" values="0 0 0 0 0 0 0 0 0 0 0 0 0 0 0 0 0 0 127 0" result="hardAlpha"/>
<feOffset dy="4"/>
<feGaussianBlur stdDeviation="2"/>
<feComposite in2="hardAlpha" operator="out"/>
<feColorMatrix type="matrix" values="0 0 0 0 0 0 0 0 0 0 0 0 0 0 0 0 0 0 0.25 0"/>
<feBlend mode="normal" in2="BackgroundImageFix" result="effect1_dropShadow_1072_912"/>
<feBlend mode="normal" in="SourceGraphic" in2="effect1_dropShadow_1072_912" result="shape"/>
</filter>
<filter id="filter10_d_1072_912" x="153.207" y="251.855" width="184.289" height="184.289" filterUnits="userSpaceOnUse" color-interpolation-filters="sRGB">
<feFlood flood-opacity="0" result="BackgroundImageFix"/>
<feColorMatrix in="SourceAlpha" type="matrix" values="0 0 0 0 0 0 0 0 0 0 0 0 0 0 0 0 0 0 127 0" result="hardAlpha"/>
<feOffset dy="4"/>
<feGaussianBlur stdDeviation="2"/>
<feComposite in2="hardAlpha" operator="out"/>
<feColorMatrix type="matrix" values="0 0 0 0 0 0 0 0 0 0 0 0 0 0 0 0 0 0 0.25 0"/>
<feBlend mode="normal" in2="BackgroundImageFix" result="effect1_dropShadow_1072_912"/>
<feBlend mode="normal" in="SourceGraphic" in2="effect1_dropShadow_1072_912" result="shape"/>
</filter>
<filter id="filter11_d_1072_912" x="182.586" y="284.763" width="125.527" height="125.525" filterUnits="userSpaceOnUse" color-interpolation-filters="sRGB">
<feFlood flood-opacity="0" result="BackgroundImageFix"/>
<feColorMatrix in="SourceAlpha" type="matrix" values="0 0 0 0 0 0 0 0 0 0 0 0 0 0 0 0 0 0 127 0" result="hardAlpha"/>
<feOffset dy="4"/>
<feGaussianBlur stdDeviation="2"/>
<feComposite in2="hardAlpha" operator="out"/>
<feColorMatrix type="matrix" values="0 0 0 0 0 0 0 0 0 0 0 0 0 0 0 0 0 0 0.25 0"/>
<feBlend mode="normal" in2="BackgroundImageFix" result="effect1_dropShadow_1072_912"/>
<feBlend mode="normal" in="SourceGraphic" in2="effect1_dropShadow_1072_912" result="shape"/>
</filter>
</defs>
</svg>
