<svg width="440" height="440" viewBox="0 0 440 440" fill="none" xmlns="http://www.w3.org/2000/svg">
<rect x="-45.375" y="202.549" width="177.5" height="61.25" fill="#4A6781" stroke="black" stroke-width="1.25"/>
<rect x="-0.0119327" y="-0.883803" width="231" height="5.85765" transform="matrix(0.697496 -0.716588 -0.716588 -0.697496 82.2068 190.551)" fill="#4A6781" stroke="black" stroke-width="1.25"/>
<rect x="-0.0119327" y="-0.883803" width="231" height="5.85765" transform="matrix(0.697496 -0.716588 -0.716588 -0.697496 78.2068 180.551)" fill="#4A6781" stroke="black" stroke-width="1.25"/>
<rect x="-0.281395" y="0.837894" width="4.38955" height="139.958" transform="matrix(-0.895431 0.4452 0.4452 0.895431 271.621 41.1602)" fill="#4A6781" stroke="black" stroke-width="1.25"/>
<rect x="-0.281395" y="0.837894" width="4.38955" height="139.958" transform="matrix(-0.895431 0.4452 0.4452 0.895431 275.129 39.3379)" fill="#4A6781" stroke="black" stroke-width="1.25"/>
<rect x="228.987" y="13.2615" width="17.5" height="60" transform="rotate(-45.0143 228.987 13.2615)" fill="#4A6781" stroke="black" stroke-width="1.25"/>
<circle cx="332.25" cy="160.25" r="30.625" fill="#4A6781" stroke="black" stroke-width="1.25"/>
<rect x="33.375" y="141.299" width="98.75" height="61.25" fill="#4A6781" stroke="black" stroke-width="1.25"/>
<g filter="url(#filter0_d_1082_12)">
<mask id="path-9-inside-1_1082_12" fill="white">
<path d="M64 264H164V177H264V264H364V177H464V264H564V177H664V481H-36V177H64V264Z"/>
</mask>
<path d="M64 264H164V177H264V264H364V177H464V264H564V177H664V481H-36V177H64V264Z" fill="#C2E2FF"/>
<path d="M64 264H63V265H64V264ZM164 264V265H165V264H164ZM164 177V176H163V177H164ZM264 177H265V176H264V177ZM264 264H263V265H264V264ZM364 264V265H365V264H364ZM364 177V176H363V177H364ZM464 177H465V176H464V177ZM464 264H463V265H464V264ZM564 264V265H565V264H564ZM564 177V176H563V177H564ZM664 177H665V176H664V177ZM664 481V482H665V481H664ZM-36 481H-37V482H-36V481ZM-36 177V176H-37V177H-36ZM64 177H65V176H64V177ZM64 264V265H164V264V263H64V264ZM164 264H165V177H164H163V264H164ZM164 177V178H264V177V176H164V177ZM264 177H263V264H264H265V177H264ZM264 264V265H364V264V263H264V264ZM364 264H365V177H364H363V264H364ZM364 177V178H464V177V176H364V177ZM464 177H463V264H464H465V177H464ZM464 264V265H564V264V263H464V264ZM564 264H565V177H564H563V264H564ZM564 177V178H664V177V176H564V177ZM664 177H663V481H664H665V177H664ZM664 481V480H-36V481V482H664V481ZM-36 481H-35V177H-36H-37V481H-36ZM-36 177V178H64V177V176H-36V177ZM64 177H63V264H64H65V177H64Z" fill="black" mask="url(#path-9-inside-1_1082_12)"/>
</g>
<g filter="url(#filter1_d_1082_12)">
<mask id="path-11-inside-2_1082_12" fill="white">
<path d="M16 293H116V206H216V293H316V206H416V293H516V206H616V510H-84V206H16V293Z"/>
</mask>
<path d="M16 293H116V206H216V293H316V206H416V293H516V206H616V510H-84V206H16V293Z" fill="#84C5FF"/>
<path d="M16 293H15V294H16V293ZM116 293V294H117V293H116ZM116 206V205H115V206H116ZM216 206H217V205H216V206ZM216 293H215V294H216V293ZM316 293V294H317V293H316ZM316 206V205H315V206H316ZM416 206H417V205H416V206ZM416 293H415V294H416V293ZM516 293V294H517V293H516ZM516 206V205H515V206H516ZM616 206H617V205H616V206ZM616 510V511H617V510H616ZM-84 510H-85V511H-84V510ZM-84 206V205H-85V206H-84ZM16 206H17V205H16V206ZM16 293V294H116V293V292H16V293ZM116 293H117V206H116H115V293H116ZM116 206V207H216V206V205H116V206ZM216 206H215V293H216H217V206H216ZM216 293V294H316V293V292H216V293ZM316 293H317V206H316H315V293H316ZM316 206V207H416V206V205H316V206ZM416 206H415V293H416H417V206H416ZM416 293V294H516V293V292H416V293ZM516 293H517V206H516H515V293H516ZM516 206V207H616V206V205H516V206ZM616 206H615V510H616H617V206H616ZM616 510V509H-84V510V511H616V510ZM-84 510H-83V206H-84H-85V510H-84ZM-84 206V207H16V206V205H-84V206ZM16 206H15V293H16H17V206H16Z" fill="black" mask="url(#path-11-inside-2_1082_12)"/>
</g>
<g filter="url(#filter2_d_1082_12)">
<mask id="path-13-inside-3_1082_12" fill="white">
<path d="M93 318H193V231H293V318H393V231H493V318H593V231H693V535H-7V231H93V318Z"/>
</mask>
<path d="M93 318H193V231H293V318H393V231H493V318H593V231H693V535H-7V231H93V318Z" fill="#77B3E9"/>
<path d="M93 318H92V319H93V318ZM193 318V319H194V318H193ZM193 231V230H192V231H193ZM293 231H294V230H293V231ZM293 318H292V319H293V318ZM393 318V319H394V318H393ZM393 231V230H392V231H393ZM493 231H494V230H493V231ZM493 318H492V319H493V318ZM593 318V319H594V318H593ZM593 231V230H592V231H593ZM693 231H694V230H693V231ZM693 535V536H694V535H693ZM-7 535H-8V536H-7V535ZM-7 231V230H-8V231H-7ZM93 231H94V230H93V231ZM93 318V319H193V318V317H93V318ZM193 318H194V231H193H192V318H193ZM193 231V232H293V231V230H193V231ZM293 231H292V318H293H294V231H293ZM293 318V319H393V318V317H293V318ZM393 318H394V231H393H392V318H393ZM393 231V232H493V231V230H393V231ZM493 231H492V318H493H494V231H493ZM493 318V319H593V318V317H493V318ZM593 318H594V231H593H592V318H593ZM593 231V232H693V231V230H593V231ZM693 231H692V535H693H694V231H693ZM693 535V534H-7V535V536H693V535ZM-7 535H-6V231H-7H-8V535H-7ZM-7 231V232H93V231V230H-7V231ZM93 231H92V318H93H94V231H93Z" fill="black" mask="url(#path-13-inside-3_1082_12)"/>
</g>
<g filter="url(#filter3_d_1082_12)">
<mask id="path-15-inside-4_1082_12" fill="white">
<path d="M42 352H142V265H242V352H342V265H442V352H542V265H642V569H-58V265H42V352Z"/>
</mask>
<path d="M42 352H142V265H242V352H342V265H442V352H542V265H642V569H-58V265H42V352Z" fill="#6799C7"/>
<path d="M42 352H41V353H42V352ZM142 352V353H143V352H142ZM142 265V264H141V265H142ZM242 265H243V264H242V265ZM242 352H241V353H242V352ZM342 352V353H343V352H342ZM342 265V264H341V265H342ZM442 265H443V264H442V265ZM442 352H441V353H442V352ZM542 352V353H543V352H542ZM542 265V264H541V265H542ZM642 265H643V264H642V265ZM642 569V570H643V569H642ZM-58 569H-59V570H-58V569ZM-58 265V264H-59V265H-58ZM42 265H43V264H42V265ZM42 352V353H142V352V351H42V352ZM142 352H143V265H142H141V352H142ZM142 265V266H242V265V264H142V265ZM242 265H241V352H242H243V265H242ZM242 352V353H342V352V351H242V352ZM342 352H343V265H342H341V352H342ZM342 265V266H442V265V264H342V265ZM442 265H441V352H442H443V265H442ZM442 352V353H542V352V351H442V352ZM542 352H543V265H542H541V352H542ZM542 265V266H642V265V264H542V265ZM642 265H641V569H642H643V265H642ZM642 569V568H-58V569V570H642V569ZM-58 569H-57V265H-58H-59V569H-58ZM-58 265V266H42V265V264H-58V265ZM42 265H41V352H42H43V265H42Z" fill="black" mask="url(#path-15-inside-4_1082_12)"/>
</g>
<g filter="url(#filter4_ddd_1082_12)">
<mask id="path-17-inside-5_1082_12" fill="white">
<path d="M89 392H189V305H289V392H389V305H489V392H589V305H689V609H-11V305H89V392Z"/>
</mask>
<path d="M89 392H189V305H289V392H389V305H489V392H589V305H689V609H-11V305H89V392Z" fill="#5B85AB"/>
<path d="M89 392H88V393H89V392ZM189 392V393H190V392H189ZM189 305V304H188V305H189ZM289 305H290V304H289V305ZM289 392H288V393H289V392ZM389 392V393H390V392H389ZM389 305V304H388V305H389ZM489 305H490V304H489V305ZM489 392H488V393H489V392ZM589 392V393H590V392H589ZM589 305V304H588V305H589ZM689 305H690V304H689V305ZM689 609V610H690V609H689ZM-11 609H-12V610H-11V609ZM-11 305V304H-12V305H-11ZM89 305H90V304H89V305ZM89 392V393H189V392V391H89V392ZM189 392H190V305H189H188V392H189ZM189 305V306H289V305V304H189V305ZM289 305H288V392H289H290V305H289ZM289 392V393H389V392V391H289V392ZM389 392H390V305H389H388V392H389ZM389 305V306H489V305V304H389V305ZM489 305H488V392H489H490V305H489ZM489 392V393H589V392V391H489V392ZM589 392H590V305H589H588V392H589ZM589 305V306H689V305V304H589V305ZM689 305H688V609H689H690V305H689ZM689 609V608H-11V609V610H689V609ZM-11 609H-10V305H-11H-12V609H-11ZM-11 305V306H89V305V304H-11V305ZM89 305H88V392H89H90V305H89Z" fill="black" mask="url(#path-17-inside-5_1082_12)"/>
</g>
<defs>
<filter id="filter0_d_1082_12" x="-40" y="177" width="708" height="312" filterUnits="userSpaceOnUse" color-interpolation-filters="sRGB">
<feFlood flood-opacity="0" result="BackgroundImageFix"/>
<feColorMatrix in="SourceAlpha" type="matrix" values="0 0 0 0 0 0 0 0 0 0 0 0 0 0 0 0 0 0 127 0" result="hardAlpha"/>
<feOffset dy="4"/>
<feGaussianBlur stdDeviation="2"/>
<feComposite in2="hardAlpha" operator="out"/>
<feColorMatrix type="matrix" values="0 0 0 0 0 0 0 0 0 0 0 0 0 0 0 0 0 0 0.25 0"/>
<feBlend mode="normal" in2="BackgroundImageFix" result="effect1_dropShadow_1082_12"/>
<feBlend mode="normal" in="SourceGraphic" in2="effect1_dropShadow_1082_12" result="shape"/>
</filter>
<filter id="filter1_d_1082_12" x="-88" y="206" width="708" height="312" filterUnits="userSpaceOnUse" color-interpolation-filters="sRGB">
<feFlood flood-opacity="0" result="BackgroundImageFix"/>
<feColorMatrix in="SourceAlpha" type="matrix" values="0 0 0 0 0 0 0 0 0 0 0 0 0 0 0 0 0 0 127 0" result="hardAlpha"/>
<feOffset dy="4"/>
<feGaussianBlur stdDeviation="2"/>
<feComposite in2="hardAlpha" operator="out"/>
<feColorMatrix type="matrix" values="0 0 0 0 0 0 0 0 0 0 0 0 0 0 0 0 0 0 0.25 0"/>
<feBlend mode="normal" in2="BackgroundImageFix" result="effect1_dropShadow_1082_12"/>
<feBlend mode="normal" in="SourceGraphic" in2="effect1_dropShadow_1082_12" result="shape"/>
</filter>
<filter id="filter2_d_1082_12" x="-11" y="231" width="708" height="312" filterUnits="userSpaceOnUse" color-interpolation-filters="sRGB">
<feFlood flood-opacity="0" result="BackgroundImageFix"/>
<feColorMatrix in="SourceAlpha" type="matrix" values="0 0 0 0 0 0 0 0 0 0 0 0 0 0 0 0 0 0 127 0" result="hardAlpha"/>
<feOffset dy="4"/>
<feGaussianBlur stdDeviation="2"/>
<feComposite in2="hardAlpha" operator="out"/>
<feColorMatrix type="matrix" values="0 0 0 0 0 0 0 0 0 0 0 0 0 0 0 0 0 0 0.25 0"/>
<feBlend mode="normal" in2="BackgroundImageFix" result="effect1_dropShadow_1082_12"/>
<feBlend mode="normal" in="SourceGraphic" in2="effect1_dropShadow_1082_12" result="shape"/>
</filter>
<filter id="filter3_d_1082_12" x="-62" y="265" width="708" height="312" filterUnits="userSpaceOnUse" color-interpolation-filters="sRGB">
<feFlood flood-opacity="0" result="BackgroundImageFix"/>
<feColorMatrix in="SourceAlpha" type="matrix" values="0 0 0 0 0 0 0 0 0 0 0 0 0 0 0 0 0 0 127 0" result="hardAlpha"/>
<feOffset dy="4"/>
<feGaussianBlur stdDeviation="2"/>
<feComposite in2="hardAlpha" operator="out"/>
<feColorMatrix type="matrix" values="0 0 0 0 0 0 0 0 0 0 0 0 0 0 0 0 0 0 0.25 0"/>
<feBlend mode="normal" in2="BackgroundImageFix" result="effect1_dropShadow_1082_12"/>
<feBlend mode="normal" in="SourceGraphic" in2="effect1_dropShadow_1082_12" result="shape"/>
</filter>
<filter id="filter4_ddd_1082_12" x="-15" y="305" width="708" height="312" filterUnits="userSpaceOnUse" color-interpolation-filters="sRGB">
<feFlood flood-opacity="0" result="BackgroundImageFix"/>
<feColorMatrix in="SourceAlpha" type="matrix" values="0 0 0 0 0 0 0 0 0 0 0 0 0 0 0 0 0 0 127 0" result="hardAlpha"/>
<feOffset dy="4"/>
<feGaussianBlur stdDeviation="2"/>
<feComposite in2="hardAlpha" operator="out"/>
<feColorMatrix type="matrix" values="0 0 0 0 0 0 0 0 0 0 0 0 0 0 0 0 0 0 0.25 0"/>
<feBlend mode="normal" in2="BackgroundImageFix" result="effect1_dropShadow_1082_12"/>
<feColorMatrix in="SourceAlpha" type="matrix" values="0 0 0 0 0 0 0 0 0 0 0 0 0 0 0 0 0 0 127 0" result="hardAlpha"/>
<feOffset dy="4"/>
<feGaussianBlur stdDeviation="2"/>
<feComposite in2="hardAlpha" operator="out"/>
<feColorMatrix type="matrix" values="0 0 0 0 0 0 0 0 0 0 0 0 0 0 0 0 0 0 0.25 0"/>
<feBlend mode="normal" in2="effect1_dropShadow_1082_12" result="effect2_dropShadow_1082_12"/>
<feColorMatrix in="SourceAlpha" type="matrix" values="0 0 0 0 0 0 0 0 0 0 0 0 0 0 0 0 0 0 127 0" result="hardAlpha"/>
<feOffset dy="4"/>
<feGaussianBlur stdDeviation="2"/>
<feComposite in2="hardAlpha" operator="out"/>
<feColorMatrix type="matrix" values="0 0 0 0 0 0 0 0 0 0 0 0 0 0 0 0 0 0 0.25 0"/>
<feBlend mode="normal" in2="effect2_dropShadow_1082_12" result="effect3_dropShadow_1082_12"/>
<feBlend mode="normal" in="SourceGraphic" in2="effect3_dropShadow_1082_12" result="shape"/>
</filter>
</defs>
</svg>
