<svg width="1522" height="636" viewBox="0 0 1522 636" fill="none" xmlns="http://www.w3.org/2000/svg">
<mask id="path-1-inside-1_1086_275" fill="white">
<path d="M694.75 147.25H736V133H765.25V147.25H791.5V213.25H641.5V147.25H665.5V133H694.75V147.25Z"/>
</mask>
<path d="M694.75 147.25H736V133H765.25V147.25H791.5V213.25H641.5V147.25H665.5V133H694.75V147.25Z" fill="#FACA0A"/>
<path d="M694.75 147.25H694V148H694.75V147.25ZM736 147.25V148H736.75V147.25H736ZM736 133V132.25H735.25V133H736ZM765.25 133H766V132.25H765.25V133ZM765.25 147.25H764.5V148H765.25V147.25ZM791.5 147.25H792.25V146.5H791.5V147.25ZM791.5 213.25V214H792.25V213.25H791.5ZM641.5 213.25H640.75V214H641.5V213.25ZM641.5 147.25V146.5H640.75V147.25H641.5ZM665.5 147.25V148H666.25V147.25H665.5ZM665.5 133V132.25H664.75V133H665.5ZM694.75 133H695.5V132.25H694.75V133ZM694.75 147.25V148H736V147.25V146.5H694.75V147.25ZM736 147.25H736.75V133H736H735.25V147.25H736ZM736 133V133.75H765.25V133V132.25H736V133ZM765.25 133H764.5V147.25H765.25H766V133H765.25ZM765.25 147.25V148H791.5V147.25V146.5H765.25V147.25ZM791.5 147.25H790.75V213.25H791.5H792.25V147.25H791.5ZM791.5 213.25V212.5H641.5V213.25V214H791.5V213.25ZM641.5 213.25H642.25V147.25H641.5H640.75V213.25H641.5ZM641.5 147.25V148H665.5V147.25V146.5H641.5V147.25ZM665.5 147.25H666.25V133H665.5H664.75V147.25H665.5ZM665.5 133V133.75H694.75V133V132.25H665.5V133ZM694.75 133H694V147.25H694.75H695.5V133H694.75Z" fill="black" mask="url(#path-1-inside-1_1086_275)"/>
<mask id="path-3-inside-2_1086_275" fill="white">
<path d="M769.75 81.25H811V67H840.25V81.25H866.5V147.25H716.5V81.25H740.5V67H769.75V81.25Z"/>
</mask>
<path d="M769.75 81.25H811V67H840.25V81.25H866.5V147.25H716.5V81.25H740.5V67H769.75V81.25Z" fill="#D9D9D9"/>
<path d="M769.75 81.25H769V82H769.75V81.25ZM811 81.25V82H811.75V81.25H811ZM811 67V66.25H810.25V67H811ZM840.25 67H841V66.25H840.25V67ZM840.25 81.25H839.5V82H840.25V81.25ZM866.5 81.25H867.25V80.5H866.5V81.25ZM866.5 147.25V148H867.25V147.25H866.5ZM716.5 147.25H715.75V148H716.5V147.25ZM716.5 81.25V80.5H715.75V81.25H716.5ZM740.5 81.25V82H741.25V81.25H740.5ZM740.5 67V66.25H739.75V67H740.5ZM769.75 67H770.5V66.25H769.75V67ZM769.75 81.25V82H811V81.25V80.5H769.75V81.25ZM811 81.25H811.75V67H811H810.25V81.25H811ZM811 67V67.75H840.25V67V66.25H811V67ZM840.25 67H839.5V81.25H840.25H841V67H840.25ZM840.25 81.25V82H866.5V81.25V80.5H840.25V81.25ZM866.5 81.25H865.75V147.25H866.5H867.25V81.25H866.5ZM866.5 147.25V146.5H716.5V147.25V148H866.5V147.25ZM716.5 147.25H717.25V81.25H716.5H715.75V147.25H716.5ZM716.5 81.25V82H740.5V81.25V80.5H716.5V81.25ZM740.5 81.25H741.25V67H740.5H739.75V81.25H740.5ZM740.5 67V67.75H769.75V67V66.25H740.5V67ZM769.75 67H769V81.25H769.75H770.5V67H769.75Z" fill="black" mask="url(#path-3-inside-2_1086_275)"/>
<mask id="path-5-inside-3_1086_275" fill="white">
<path d="M698.75 14.25H740V0H769.25V14.25H795.5V80.25H645.5V14.25H669.5V0H698.75V14.25Z"/>
</mask>
<path d="M698.75 14.25H740V0H769.25V14.25H795.5V80.25H645.5V14.25H669.5V0H698.75V14.25Z" fill="#D9D9D9"/>
<path d="M698.75 14.25H698V15H698.75V14.25ZM740 14.25V15H740.75V14.25H740ZM740 0V-0.75H739.25V0H740ZM769.25 0H770V-0.75H769.25V0ZM769.25 14.25H768.5V15H769.25V14.25ZM795.5 14.25H796.25V13.5H795.5V14.25ZM795.5 80.25V81H796.25V80.25H795.5ZM645.5 80.25H644.75V81H645.5V80.25ZM645.5 14.25V13.5H644.75V14.25H645.5ZM669.5 14.25V15H670.25V14.25H669.5ZM669.5 0V-0.75H668.75V0H669.5ZM698.75 0H699.5V-0.75H698.75V0ZM698.75 14.25V15H740V14.25V13.5H698.75V14.25ZM740 14.25H740.75V0H740H739.25V14.25H740ZM740 0V0.75H769.25V0V-0.75H740V0ZM769.25 0H768.5V14.25H769.25H770V0H769.25ZM769.25 14.25V15H795.5V14.25V13.5H769.25V14.25ZM795.5 14.25H794.75V80.25H795.5H796.25V14.25H795.5ZM795.5 80.25V79.5H645.5V80.25V81H795.5V80.25ZM645.5 80.25H646.25V14.25H645.5H644.75V80.25H645.5ZM645.5 14.25V15H669.5V14.25V13.5H645.5V14.25ZM669.5 14.25H670.25V0H669.5H668.75V14.25H669.5ZM669.5 0V0.75H698.75V0V-0.75H669.5V0ZM698.75 0H698V14.25H698.75H699.5V0H698.75Z" fill="black" mask="url(#path-5-inside-3_1086_275)"/>
<rect x="508.5" y="187.125" width="54" height="344" fill="#B30909" stroke="black"/>
<rect x="562.5" y="187.125" width="54" height="344" fill="#D9D9D9" stroke="black"/>
<rect x="615.5" y="187.125" width="54" height="344" fill="#B30909" stroke="black"/>
<rect x="668.5" y="187.125" width="54" height="344" fill="#D9D9D9" stroke="black"/>
<rect x="721.5" y="187.125" width="54" height="344" fill="#B30909" stroke="black"/>
<rect x="775.5" y="187.125" width="54" height="344" fill="#D9D9D9" stroke="black"/>
<rect x="828.5" y="187.125" width="54" height="344" fill="#B30909" stroke="black"/>
<rect x="881.5" y="187.125" width="54" height="344" fill="#D9D9D9" stroke="black"/>
<rect x="934.5" y="187.125" width="54" height="344" fill="#B30909" stroke="black"/>
<rect x="987.5" y="187.125" width="54" height="344" fill="#D9D9D9" stroke="black"/>
<rect x="1041.5" y="187.125" width="54" height="344" fill="#B30909" stroke="black"/>
<rect x="1095.5" y="187.125" width="54" height="344" fill="#D9D9D9" stroke="black"/>
<rect x="1148.5" y="187.125" width="54" height="344" fill="#B30909" stroke="black"/>
<rect x="1201.5" y="187.125" width="54" height="344" fill="#D9D9D9" stroke="black"/>
<rect x="1254.5" y="187.125" width="54" height="344" fill="#B30909" stroke="black"/>
<rect x="1308.5" y="187.125" width="54" height="344" fill="#D9D9D9" stroke="black"/>
<rect x="1361.5" y="187.125" width="54" height="344" fill="#B30909" stroke="black"/>
<rect x="1414.5" y="187.125" width="54" height="344" fill="#D9D9D9" stroke="black"/>
<rect x="1467.5" y="187.125" width="54" height="344" fill="#B30909" stroke="black"/>
<rect x="188.5" y="187.125" width="54" height="344" fill="#B30909" stroke="black"/>
<rect x="242.5" y="187.125" width="54" height="344" fill="#D9D9D9" stroke="black"/>
<rect x="295.5" y="187.125" width="54" height="344" fill="#B30909" stroke="black"/>
<rect x="348.5" y="187.125" width="54" height="344" fill="#D9D9D9" stroke="black"/>
<rect x="401.5" y="187.125" width="54" height="344" fill="#B30909" stroke="black"/>
<rect x="455.5" y="187.125" width="54" height="344" fill="#D9D9D9" stroke="black"/>
<rect x="508.5" y="187.125" width="54" height="344" fill="#B30909" stroke="black"/>
<rect x="561.5" y="187.125" width="54" height="344" fill="#D9D9D9" stroke="black"/>
<rect x="614.5" y="187.125" width="54" height="344" fill="#B30909" stroke="black"/>
<rect x="667.5" y="187.125" width="54" height="344" fill="#D9D9D9" stroke="black"/>
<rect x="534.5" y="198.125" width="54" height="344" fill="#D9D9D9" stroke="black"/>
<rect x="588.5" y="198.125" width="54" height="344" fill="#B30909" stroke="black"/>
<rect x="641.5" y="198.125" width="54" height="344" fill="#D9D9D9" stroke="black"/>
<rect x="694.5" y="198.125" width="54" height="344" fill="#B30909" stroke="black"/>
<rect x="747.5" y="198.125" width="54" height="344" fill="#D9D9D9" stroke="black"/>
<rect x="801.5" y="198.125" width="54" height="344" fill="#B30909" stroke="black"/>
<rect x="854.5" y="198.125" width="54" height="344" fill="#D9D9D9" stroke="black"/>
<rect x="907.5" y="198.125" width="54" height="344" fill="#B30909" stroke="black"/>
<rect x="960.5" y="198.125" width="54" height="344" fill="#D9D9D9" stroke="black"/>
<rect x="1013.5" y="198.125" width="54" height="344" fill="#D9D9D9" stroke="black"/>
<rect x="960.5" y="198.125" width="54" height="344" fill="#D9D9D9" stroke="black"/>
<rect x="1014.5" y="198.125" width="54" height="344" fill="#B30909" stroke="black"/>
<rect x="1067.5" y="198.125" width="54" height="344" fill="#D9D9D9" stroke="black"/>
<rect x="1120.5" y="198.125" width="54" height="344" fill="#B30909" stroke="black"/>
<rect x="1173.5" y="198.125" width="54" height="344" fill="#D9D9D9" stroke="black"/>
<rect x="1227.5" y="198.125" width="54" height="344" fill="#B30909" stroke="black"/>
<rect x="1280.5" y="198.125" width="54" height="344" fill="#D9D9D9" stroke="black"/>
<rect x="1333.5" y="198.125" width="54" height="344" fill="#B30909" stroke="black"/>
<rect x="1386.5" y="198.125" width="54" height="344" fill="#D9D9D9" stroke="black"/>
<rect x="1439.5" y="198.125" width="54" height="344" fill="#D9D9D9" stroke="black"/>
<rect x="108.5" y="198.125" width="54" height="344" fill="#D9D9D9" stroke="black"/>
<rect x="162.5" y="198.125" width="54" height="344" fill="#B30909" stroke="black"/>
<rect x="215.5" y="198.125" width="54" height="344" fill="#D9D9D9" stroke="black"/>
<rect x="268.5" y="198.125" width="54" height="344" fill="#B30909" stroke="black"/>
<rect x="321.5" y="198.125" width="54" height="344" fill="#D9D9D9" stroke="black"/>
<rect x="375.5" y="198.125" width="54" height="344" fill="#B30909" stroke="black"/>
<rect x="428.5" y="198.125" width="54" height="344" fill="#D9D9D9" stroke="black"/>
<rect x="481.5" y="198.125" width="54" height="344" fill="#B30909" stroke="black"/>
<rect x="534.5" y="198.125" width="54" height="344" fill="#D9D9D9" stroke="black"/>
<rect x="506.5" y="212.125" width="54" height="344" fill="#D9D9D9" stroke="black"/>
<rect x="560.5" y="212.125" width="54" height="344" fill="#B30909" stroke="black"/>
<rect x="613.5" y="212.125" width="54" height="344" fill="#D9D9D9" stroke="black"/>
<rect x="666.5" y="212.125" width="54" height="344" fill="#B30909" stroke="black"/>
<rect x="719.5" y="212.125" width="54" height="344" fill="#D9D9D9" stroke="black"/>
<rect x="773.5" y="212.125" width="54" height="344" fill="#B30909" stroke="black"/>
<rect x="826.5" y="212.125" width="54" height="344" fill="#D9D9D9" stroke="black"/>
<rect x="879.5" y="212.125" width="54" height="344" fill="#B30909" stroke="black"/>
<rect x="932.5" y="212.125" width="54" height="344" fill="#D9D9D9" stroke="black"/>
<rect x="985.5" y="212.125" width="54" height="344" fill="#D9D9D9" stroke="black"/>
<rect x="985.5" y="212.5" width="54" height="344" fill="#B30909" stroke="black"/>
<rect x="1038.5" y="212.5" width="54" height="344" fill="#D9D9D9" stroke="black"/>
<rect x="1091.5" y="212.5" width="54" height="344" fill="#B30909" stroke="black"/>
<rect x="1144.5" y="212.5" width="54" height="344" fill="#D9D9D9" stroke="black"/>
<rect x="1198.5" y="212.5" width="54" height="344" fill="#B30909" stroke="black"/>
<rect x="1251.5" y="212.5" width="54" height="344" fill="#D9D9D9" stroke="black"/>
<rect x="1304.5" y="212.5" width="54" height="344" fill="#B30909" stroke="black"/>
<rect x="1357.5" y="212.5" width="54" height="344" fill="#D9D9D9" stroke="black"/>
<rect x="1410.5" y="212.5" width="54" height="344" fill="#D9D9D9" stroke="black"/>
<rect x="80.5" y="212.125" width="54" height="344" fill="#D9D9D9" stroke="black"/>
<rect x="134.5" y="212.125" width="54" height="344" fill="#B30909" stroke="black"/>
<rect x="187.5" y="212.125" width="54" height="344" fill="#D9D9D9" stroke="black"/>
<rect x="240.5" y="212.125" width="54" height="344" fill="#B30909" stroke="black"/>
<rect x="293.5" y="212.125" width="54" height="344" fill="#D9D9D9" stroke="black"/>
<rect x="347.5" y="212.125" width="54" height="344" fill="#B30909" stroke="black"/>
<rect x="400.5" y="212.125" width="54" height="344" fill="#D9D9D9" stroke="black"/>
<rect x="453.5" y="212.125" width="54" height="344" fill="#B30909" stroke="black"/>
<rect x="506.5" y="212.125" width="54" height="344" fill="#D9D9D9" stroke="black"/>
<rect x="533.5" y="236.125" width="54" height="344" fill="#B30909" stroke="black"/>
<rect x="587.5" y="236.125" width="54" height="344" fill="#D9D9D9" stroke="black"/>
<rect x="640.5" y="236.125" width="54" height="344" fill="#B30909" stroke="black"/>
<rect x="693.5" y="236.125" width="54" height="344" fill="#D9D9D9" stroke="black"/>
<rect x="746.5" y="236.125" width="54" height="344" fill="#B30909" stroke="black"/>
<rect x="800.5" y="236.125" width="54" height="344" fill="#D9D9D9" stroke="black"/>
<rect x="853.5" y="236.125" width="54" height="344" fill="#B30909" stroke="black"/>
<rect x="906.5" y="236.125" width="54" height="344" fill="#D9D9D9" stroke="black"/>
<rect x="959.5" y="236.125" width="54" height="344" fill="#B30909" stroke="black"/>
<rect x="1012.5" y="236.125" width="54" height="344" fill="#D9D9D9" stroke="black"/>
<rect x="1012.5" y="236.5" width="54" height="344" fill="#D9D9D9" stroke="black"/>
<rect x="1065.5" y="236.5" width="54" height="344" fill="#B30909" stroke="black"/>
<rect x="1118.5" y="236.5" width="54" height="344" fill="#D9D9D9" stroke="black"/>
<rect x="1171.5" y="236.5" width="54" height="344" fill="#B30909" stroke="black"/>
<rect x="1225.5" y="236.5" width="54" height="344" fill="#D9D9D9" stroke="black"/>
<rect x="1278.5" y="236.5" width="54" height="344" fill="#B30909" stroke="black"/>
<rect x="1331.5" y="236.5" width="54" height="344" fill="#D9D9D9" stroke="black"/>
<rect x="1384.5" y="236.5" width="54" height="344" fill="#B30909" stroke="black"/>
<rect x="1437.5" y="236.5" width="54" height="344" fill="#D9D9D9" stroke="black"/>
<rect x="0.5" y="236.125" width="54" height="344" fill="#B30909" stroke="black"/>
<rect x="54.5" y="236.125" width="54" height="344" fill="#D9D9D9" stroke="black"/>
<rect x="107.5" y="236.125" width="54" height="344" fill="#B30909" stroke="black"/>
<rect x="160.5" y="236.125" width="54" height="344" fill="#D9D9D9" stroke="black"/>
<rect x="213.5" y="236.125" width="54" height="344" fill="#B30909" stroke="black"/>
<rect x="267.5" y="236.125" width="54" height="344" fill="#D9D9D9" stroke="black"/>
<rect x="320.5" y="236.125" width="54" height="344" fill="#B30909" stroke="black"/>
<rect x="373.5" y="236.125" width="54" height="344" fill="#D9D9D9" stroke="black"/>
<rect x="426.5" y="236.125" width="54" height="344" fill="#B30909" stroke="black"/>
<rect x="479.5" y="236.125" width="54" height="344" fill="#D9D9D9" stroke="black"/>
<rect x="507.5" y="282.125" width="54" height="344" fill="#D9D9D9" stroke="black"/>
<rect x="561.5" y="282.125" width="54" height="344" fill="#B30909" stroke="black"/>
<rect x="614.5" y="282.125" width="54" height="344" fill="#D9D9D9" stroke="black"/>
<rect x="667.5" y="282.125" width="54" height="344" fill="#B30909" stroke="black"/>
<rect x="720.5" y="282.125" width="54" height="344" fill="#D9D9D9" stroke="black"/>
<rect x="774.5" y="282.125" width="54" height="344" fill="#B30909" stroke="black"/>
<rect x="827.5" y="282.125" width="54" height="344" fill="#D9D9D9" stroke="black"/>
<rect x="880.5" y="282.125" width="54" height="344" fill="#B30909" stroke="black"/>
<rect x="933.5" y="282.125" width="54" height="344" fill="#D9D9D9" stroke="black"/>
<rect x="986.5" y="282.125" width="54" height="344" fill="#D9D9D9" stroke="black"/>
<rect x="81.5" y="282.5" width="54" height="344" fill="#D9D9D9" stroke="black"/>
<rect x="135.5" y="282.5" width="54" height="344" fill="#B30909" stroke="black"/>
<rect x="188.5" y="282.5" width="54" height="344" fill="#D9D9D9" stroke="black"/>
<rect x="241.5" y="282.5" width="54" height="344" fill="#B30909" stroke="black"/>
<rect x="294.5" y="282.5" width="54" height="344" fill="#D9D9D9" stroke="black"/>
<rect x="348.5" y="282.5" width="54" height="344" fill="#B30909" stroke="black"/>
<rect x="401.5" y="282.5" width="54" height="344" fill="#D9D9D9" stroke="black"/>
<rect x="454.5" y="282.5" width="54" height="344" fill="#B30909" stroke="black"/>
<rect x="507.5" y="282.5" width="54" height="344" fill="#D9D9D9" stroke="black"/>
<rect x="932.5" y="282.5" width="54" height="344" fill="#D9D9D9" stroke="black"/>
<rect x="986.5" y="282.5" width="54" height="344" fill="#B30909" stroke="black"/>
<rect x="1039.5" y="282.5" width="54" height="344" fill="#D9D9D9" stroke="black"/>
<rect x="1092.5" y="282.5" width="54" height="344" fill="#B30909" stroke="black"/>
<rect x="1145.5" y="282.5" width="54" height="344" fill="#D9D9D9" stroke="black"/>
<rect x="1199.5" y="282.5" width="54" height="344" fill="#B30909" stroke="black"/>
<rect x="1252.5" y="282.5" width="54" height="344" fill="#D9D9D9" stroke="black"/>
<rect x="1305.5" y="282.5" width="54" height="344" fill="#B30909" stroke="black"/>
<rect x="1358.5" y="282.5" width="54" height="344" fill="#D9D9D9" stroke="black"/>
<rect x="1411.5" y="282.5" width="54" height="344" fill="#D9D9D9" stroke="black"/>
<rect x="535.5" y="350.125" width="54" height="344" fill="#D9D9D9" stroke="black"/>
<rect x="589.5" y="350.125" width="54" height="344" fill="#B30909" stroke="black"/>
<rect x="642.5" y="350.125" width="54" height="344" fill="#D9D9D9" stroke="black"/>
<rect x="695.5" y="350.125" width="54" height="344" fill="#B30909" stroke="black"/>
<rect x="748.5" y="350.125" width="54" height="344" fill="#D9D9D9" stroke="black"/>
<rect x="802.5" y="350.125" width="54" height="344" fill="#B30909" stroke="black"/>
<rect x="855.5" y="350.125" width="54" height="344" fill="#D9D9D9" stroke="black"/>
<rect x="908.5" y="350.125" width="54" height="344" fill="#B30909" stroke="black"/>
<rect x="961.5" y="350.125" width="54" height="344" fill="#D9D9D9" stroke="black"/>
<rect x="961.5" y="350.125" width="54" height="344" fill="#D9D9D9" stroke="black"/>
<rect x="1015.5" y="350.125" width="54" height="344" fill="#B30909" stroke="black"/>
<rect x="1068.5" y="350.125" width="54" height="344" fill="#D9D9D9" stroke="black"/>
<rect x="1121.5" y="350.125" width="54" height="344" fill="#B30909" stroke="black"/>
<rect x="1174.5" y="350.125" width="54" height="344" fill="#D9D9D9" stroke="black"/>
<rect x="1228.5" y="350.125" width="54" height="344" fill="#B30909" stroke="black"/>
<rect x="1281.5" y="350.125" width="54" height="344" fill="#D9D9D9" stroke="black"/>
<rect x="1334.5" y="350.125" width="54" height="344" fill="#B30909" stroke="black"/>
<rect x="1387.5" y="350.125" width="54" height="344" fill="#D9D9D9" stroke="black"/>
<rect x="215.5" y="350.125" width="54" height="344" fill="#D9D9D9" stroke="black"/>
<rect x="269.5" y="350.125" width="54" height="344" fill="#B30909" stroke="black"/>
<rect x="322.5" y="350.125" width="54" height="344" fill="#D9D9D9" stroke="black"/>
<rect x="375.5" y="350.125" width="54" height="344" fill="#B30909" stroke="black"/>
<rect x="428.5" y="350.125" width="54" height="344" fill="#D9D9D9" stroke="black"/>
<rect x="482.5" y="350.125" width="54" height="344" fill="#B30909" stroke="black"/>
<rect x="535.5" y="350.125" width="54" height="344" fill="#D9D9D9" stroke="black"/>
<rect x="588.5" y="350.125" width="54" height="344" fill="#B30909" stroke="black"/>
<rect x="641.5" y="350.125" width="54" height="344" fill="#D9D9D9" stroke="black"/>
<rect x="505.5" y="509.125" width="54" height="344" fill="#D9D9D9" stroke="black"/>
<rect x="559.5" y="509.125" width="54" height="344" fill="#D9D9D9" stroke="black"/>
<rect x="612.5" y="509.125" width="54" height="344" fill="#D9D9D9" stroke="black"/>
<rect x="665.5" y="509.125" width="54" height="344" fill="#D9D9D9" stroke="black"/>
<rect x="718.5" y="509.125" width="54" height="344" fill="#D9D9D9" stroke="black"/>
<rect x="772.5" y="509.125" width="54" height="344" fill="#D9D9D9" stroke="black"/>
<rect x="825.5" y="509.125" width="54" height="344" fill="#D9D9D9" stroke="black"/>
<rect x="878.5" y="509.125" width="54" height="344" fill="#D9D9D9" stroke="black"/>
<rect x="931.5" y="509.125" width="54" height="344" fill="#D9D9D9" stroke="black"/>
<rect x="984.5" y="509.125" width="54" height="344" fill="#D9D9D9" stroke="black"/>
</svg>
