<svg width="1225" height="545" viewBox="0 0 1225 545" fill="none" xmlns="http://www.w3.org/2000/svg">
<rect x="142.504" y="177.5" width="175" height="17" transform="rotate(-90 142.504 177.5)" fill="#E06E34" stroke="black"/>
<rect x="322.647" y="57.3245" width="175" height="17" transform="rotate(-174.621 322.647 57.3245)" fill="#E06E34" stroke="black"/>
<rect x="321.647" y="97.3245" width="175" height="17" transform="rotate(-174.621 321.647 97.3245)" fill="#E06E34" stroke="black"/>
<rect x="306.504" y="175.5" width="175" height="17" transform="rotate(-90 306.504 175.5)" fill="#E06E34" stroke="black"/>
<rect x="477.647" y="57.3245" width="175" height="17" transform="rotate(-174.621 477.647 57.3245)" fill="#E06E34" stroke="black"/>
<rect x="476.647" y="97.3245" width="175" height="17" transform="rotate(-174.621 476.647 97.3245)" fill="#E06E34" stroke="black"/>
<rect x="461.504" y="175.5" width="175" height="17" transform="rotate(-90 461.504 175.5)" fill="#E06E34" stroke="black"/>
<rect x="636.647" y="57.3245" width="175" height="17" transform="rotate(-174.621 636.647 57.3245)" fill="#E06E34" stroke="black"/>
<rect x="635.647" y="97.3245" width="175" height="17" transform="rotate(-174.621 635.647 97.3245)" fill="#E06E34" stroke="black"/>
<rect x="620.504" y="175.5" width="175" height="17" transform="rotate(-90 620.504 175.5)" fill="#E06E34" stroke="black"/>
<rect x="792.647" y="57.3245" width="175" height="17" transform="rotate(-174.621 792.647 57.3245)" fill="#E06E34" stroke="black"/>
<rect x="791.647" y="97.3245" width="175" height="17" transform="rotate(-174.621 791.647 97.3245)" fill="#E06E34" stroke="black"/>
<rect x="776.504" y="175.5" width="175" height="17" transform="rotate(-90 776.504 175.5)" fill="#E06E34" stroke="black"/>
<rect x="948.647" y="57.3245" width="175" height="17" transform="rotate(-174.621 948.647 57.3245)" fill="#E06E34" stroke="black"/>
<rect x="947.647" y="97.3245" width="175" height="17" transform="rotate(-174.621 947.647 97.3245)" fill="#E06E34" stroke="black"/>
<rect x="932.504" y="175.5" width="175" height="17" transform="rotate(-90 932.504 175.5)" fill="#E06E34" stroke="black"/>
<rect x="1105.65" y="57.3245" width="175" height="17" transform="rotate(-174.621 1105.65 57.3245)" fill="#E06E34" stroke="black"/>
<rect x="1104.65" y="97.3245" width="175" height="17" transform="rotate(-174.621 1104.65 97.3245)" fill="#E06E34" stroke="black"/>
<rect x="1089.5" y="175.5" width="175" height="17" transform="rotate(-90 1089.5 175.5)" fill="#E06E34" stroke="black"/>
<path d="M125.672 158.352L99.6434 203.863L47.9757 204.504L22.3279 159.646L48.3561 114.135L100.024 113.495L125.672 158.352Z" fill="#FF5454" stroke="black"/>
<path d="M280.125 159.175L254.097 204.687L202.429 205.327L176.781 160.47L202.809 114.958L254.477 114.318L280.125 159.175Z" fill="#FF5454" stroke="black"/>
<path d="M202.125 203.175L176.097 248.687L124.429 249.327L98.781 204.47L124.809 158.958L176.477 158.318L202.125 203.175Z" fill="#00BDA1" stroke="black"/>
<path d="M124.125 248.175L98.0965 293.687L46.4288 294.327L20.781 249.47L46.8092 203.958L98.4769 203.318L124.125 248.175Z" fill="#FF5454" stroke="black"/>
<path d="M278.578 248.998L252.55 294.51L200.882 295.15L175.234 250.293L201.262 204.781L252.93 204.141L278.578 248.998Z" fill="#FF5454" stroke="black"/>
<path d="M434.672 159.175L408.643 204.687L356.976 205.327L331.328 160.47L357.356 114.958L409.024 114.318L434.672 159.175Z" fill="#FF5454" stroke="black"/>
<path d="M433.125 248.998L407.097 294.51L355.429 295.15L329.781 250.293L355.809 204.781L407.477 204.141L433.125 248.998Z" fill="#FF5454" stroke="black"/>
<path d="M200.578 292.998L174.55 338.51L122.882 339.15L97.2341 294.293L123.262 248.781L174.93 248.141L200.578 292.998Z" fill="#00BDA1" stroke="black"/>
<path d="M356.672 204.175L330.643 249.687L278.976 250.327L253.328 205.47L279.356 159.958L331.024 159.318L356.672 204.175Z" fill="#00BDA1" stroke="black"/>
<path d="M355.125 293.998L329.097 339.51L277.429 340.15L251.781 295.293L277.809 249.781L329.477 249.141L355.125 293.998Z" fill="#00BDA1" stroke="black"/>
<path d="M124.672 336.175L98.6434 381.687L46.9757 382.327L21.3279 337.47L47.3561 291.958L99.0238 291.318L124.672 336.175Z" fill="#FF5454" stroke="black"/>
<path d="M279.125 336.998L253.097 382.51L201.429 383.15L175.781 338.293L201.809 292.781L253.477 292.141L279.125 336.998Z" fill="#FF5454" stroke="black"/>
<path d="M201.125 380.998L175.097 426.51L123.429 427.15L97.781 382.293L123.809 336.781L175.477 336.141L201.125 380.998Z" fill="#00BDA1" stroke="black"/>
<path d="M123.125 425.998L97.0965 471.51L45.4288 472.15L19.781 427.293L45.8092 381.781L97.4769 381.141L123.125 425.998Z" fill="#FF5454" stroke="black"/>
<path d="M277.578 426.822L251.55 472.333L199.882 472.973L174.234 428.116L200.262 382.605L251.93 381.965L277.578 426.822Z" fill="#FF5454" stroke="black"/>
<path d="M433.672 336.998L407.643 382.51L355.976 383.15L330.328 338.293L356.356 292.781L408.024 292.141L433.672 336.998Z" fill="#FF5454" stroke="black"/>
<path d="M432.125 426.822L406.097 472.333L354.429 472.973L328.781 428.116L354.809 382.605L406.477 381.965L432.125 426.822Z" fill="#FF5454" stroke="black"/>
<path d="M199.578 470.822L173.55 516.333L121.882 516.973L96.2341 472.116L122.262 426.605L173.93 425.965L199.578 470.822Z" fill="#00BDA1" stroke="black"/>
<path d="M355.672 381.998L329.643 427.51L277.976 428.15L252.328 383.293L278.356 337.781L330.024 337.141L355.672 381.998Z" fill="#00BDA1" stroke="black"/>
<path d="M354.125 471.822L328.097 517.333L276.429 517.973L250.781 473.116L276.809 427.605L328.477 426.965L354.125 471.822Z" fill="#00BDA1" stroke="black"/>
<path d="M588.672 159.175L562.643 204.687L510.976 205.327L485.328 160.47L511.356 114.958L563.024 114.318L588.672 159.175Z" fill="#FF5454" stroke="black"/>
<path d="M510.672 203.175L484.643 248.687L432.976 249.327L407.328 204.47L433.356 158.958L485.024 158.318L510.672 203.175Z" fill="#00BDA1" stroke="black"/>
<path d="M587.125 248.998L561.097 294.51L509.429 295.15L483.781 250.293L509.809 204.781L561.477 204.141L587.125 248.998Z" fill="#FF5454" stroke="black"/>
<path d="M743.218 159.175L717.19 204.687L665.523 205.327L639.875 160.47L665.903 114.958L717.571 114.318L743.218 159.175Z" fill="#FF5454" stroke="black"/>
<path d="M741.672 248.998L715.643 294.51L663.976 295.15L638.328 250.293L664.356 204.781L716.024 204.141L741.672 248.998Z" fill="#FF5454" stroke="black"/>
<path d="M509.125 292.998L483.097 338.51L431.429 339.15L405.781 294.293L431.809 248.781L483.477 248.141L509.125 292.998Z" fill="#00BDA1" stroke="black"/>
<path d="M665.218 204.175L639.19 249.687L587.523 250.327L561.875 205.47L587.903 159.958L639.571 159.318L665.218 204.175Z" fill="#00BDA1" stroke="black"/>
<path d="M663.672 293.998L637.643 339.51L585.976 340.15L560.328 295.293L586.356 249.781L638.024 249.141L663.672 293.998Z" fill="#00BDA1" stroke="black"/>
<path d="M587.672 336.998L561.643 382.51L509.976 383.15L484.328 338.293L510.356 292.781L562.024 292.141L587.672 336.998Z" fill="#FF5454" stroke="black"/>
<path d="M509.672 380.998L483.643 426.51L431.976 427.15L406.328 382.293L432.356 336.781L484.024 336.141L509.672 380.998Z" fill="#00BDA1" stroke="black"/>
<path d="M586.125 426.822L560.097 472.333L508.429 472.973L482.781 428.116L508.809 382.605L560.477 381.965L586.125 426.822Z" fill="#FF5454" stroke="black"/>
<path d="M742.218 336.998L716.19 382.51L664.523 383.15L638.875 338.293L664.903 292.781L716.571 292.141L742.218 336.998Z" fill="#FF5454" stroke="black"/>
<path d="M740.672 426.822L714.643 472.333L662.976 472.973L637.328 428.116L663.356 382.605L715.024 381.965L740.672 426.822Z" fill="#FF5454" stroke="black"/>
<path d="M508.125 470.822L482.097 516.333L430.429 516.973L404.781 472.116L430.809 426.605L482.477 425.965L508.125 470.822Z" fill="#00BDA1" stroke="black"/>
<path d="M664.218 381.998L638.19 427.51L586.523 428.15L560.875 383.293L586.903 337.781L638.571 337.141L664.218 381.998Z" fill="#00BDA1" stroke="black"/>
<path d="M662.672 471.822L636.643 517.333L584.976 517.973L559.328 473.116L585.356 427.605L637.024 426.965L662.672 471.822Z" fill="#00BDA1" stroke="black"/>
<path d="M896.672 158.175L870.643 203.687L818.976 204.327L793.328 159.47L819.356 113.958L871.024 113.318L896.672 158.175Z" fill="#FF5454" stroke="black"/>
<path d="M895.125 247.998L869.097 293.51L817.429 294.15L791.781 249.293L817.809 203.781L869.477 203.141L895.125 247.998Z" fill="#FF5454" stroke="black"/>
<path d="M818.672 203.175L792.643 248.687L740.976 249.327L715.328 204.47L741.356 158.958L793.024 158.318L818.672 203.175Z" fill="#00BDA1" stroke="black"/>
<path d="M817.125 292.998L791.097 338.51L739.429 339.15L713.781 294.293L739.809 248.781L791.477 248.141L817.125 292.998Z" fill="#00BDA1" stroke="black"/>
<path d="M895.672 335.998L869.643 381.51L817.976 382.15L792.328 337.293L818.356 291.781L870.024 291.141L895.672 335.998Z" fill="#FF5454" stroke="black"/>
<path d="M894.125 425.822L868.097 471.333L816.429 471.973L790.781 427.116L816.809 381.605L868.477 380.965L894.125 425.822Z" fill="#FF5454" stroke="black"/>
<path d="M817.672 380.998L791.643 426.51L739.976 427.15L714.328 382.293L740.356 336.781L792.024 336.141L817.672 380.998Z" fill="#00BDA1" stroke="black"/>
<path d="M816.125 470.822L790.097 516.333L738.429 516.973L712.781 472.116L738.809 426.605L790.477 425.965L816.125 470.822Z" fill="#00BDA1" stroke="black"/>
<path d="M1050.67 158.175L1024.64 203.687L972.976 204.327L947.328 159.47L973.356 113.958L1025.02 113.318L1050.67 158.175Z" fill="#FF5454" stroke="black"/>
<path d="M972.672 202.175L946.643 247.687L894.976 248.327L869.328 203.47L895.356 157.958L947.024 157.318L972.672 202.175Z" fill="#00BDA1" stroke="black"/>
<path d="M1049.12 247.998L1023.1 293.51L971.429 294.15L945.781 249.293L971.809 203.781L1023.48 203.141L1049.12 247.998Z" fill="#FF5454" stroke="black"/>
<path d="M1205.22 158.175L1179.19 203.687L1127.52 204.327L1101.87 159.47L1127.9 113.958L1179.57 113.318L1205.22 158.175Z" fill="#FF5454" stroke="black"/>
<path d="M1203.67 247.998L1177.64 293.51L1125.98 294.15L1100.33 249.293L1126.36 203.781L1178.02 203.141L1203.67 247.998Z" fill="#FF5454" stroke="black"/>
<path d="M971.125 291.998L945.097 337.51L893.429 338.15L867.781 293.293L893.809 247.781L945.477 247.141L971.125 291.998Z" fill="#00BDA1" stroke="black"/>
<path d="M1127.22 203.175L1101.19 248.687L1049.52 249.327L1023.87 204.47L1049.9 158.958L1101.57 158.318L1127.22 203.175Z" fill="#00BDA1" stroke="black"/>
<path d="M1125.67 292.998L1099.64 338.51L1047.98 339.15L1022.33 294.293L1048.36 248.781L1100.02 248.141L1125.67 292.998Z" fill="#00BDA1" stroke="black"/>
<path d="M1049.67 335.998L1023.64 381.51L971.976 382.15L946.328 337.293L972.356 291.781L1024.02 291.141L1049.67 335.998Z" fill="#FF5454" stroke="black"/>
<path d="M971.672 379.998L945.643 425.51L893.976 426.15L868.328 381.293L894.356 335.781L946.024 335.141L971.672 379.998Z" fill="#00BDA1" stroke="black"/>
<path d="M1048.12 425.822L1022.1 471.333L970.429 471.973L944.781 427.116L970.809 381.605L1022.48 380.965L1048.12 425.822Z" fill="#FF5454" stroke="black"/>
<path d="M1204.22 335.998L1178.19 381.51L1126.52 382.15L1100.87 337.293L1126.9 291.781L1178.57 291.141L1204.22 335.998Z" fill="#FF5454" stroke="black"/>
<path d="M1202.67 425.822L1176.64 471.333L1124.98 471.973L1099.33 427.116L1125.36 381.605L1177.02 380.965L1202.67 425.822Z" fill="#FF5454" stroke="black"/>
<path d="M970.125 469.822L944.097 515.333L892.429 515.973L866.781 471.116L892.809 425.605L944.477 424.965L970.125 469.822Z" fill="#00BDA1" stroke="black"/>
<path d="M1126.22 380.998L1100.19 426.51L1048.52 427.15L1022.87 382.293L1048.9 336.781L1100.57 336.141L1126.22 380.998Z" fill="#00BDA1" stroke="black"/>
<path d="M1124.67 470.822L1098.64 516.333L1046.98 516.973L1021.33 472.116L1047.36 426.605L1099.02 425.965L1124.67 470.822Z" fill="#00BDA1" stroke="black"/>
</svg>
