<svg width="440" height="366" viewBox="0 0 440 366" fill="none" xmlns="http://www.w3.org/2000/svg">
<rect x="65" width="309.881" height="129.938" fill="#3F3F3F"/>
<rect x="87.8203" y="18.7031" width="263.025" height="93.3187" fill="#E1E1E1"/>
<rect x="109.693" y="34.0602" width="44.1" height="61.8187" rx="0.984375" fill="#9C9A9A" stroke="black" stroke-width="0.39375"/>
<path d="M126.041 74.1631C125.923 74.1631 125.834 74.0843 125.775 73.9268C125.716 73.7693 125.706 73.6118 125.746 73.4543C125.805 73.2968 125.913 73.2181 126.071 73.2181C127.232 73.159 128.138 73.0212 128.788 72.8046C129.437 72.5684 129.762 72.0762 129.762 71.3281V56.2081C129.762 55.7356 129.673 55.3911 129.496 55.1745C129.319 54.9579 128.896 54.8496 128.226 54.8496H126.189C126.051 54.8496 125.953 54.7709 125.893 54.6134C125.854 54.4362 125.854 54.2689 125.893 54.1114C125.933 53.9342 126.031 53.8456 126.189 53.8456C127.193 53.8062 128.177 53.6586 129.142 53.4026C130.107 53.1467 130.924 52.8612 131.593 52.5462C131.869 52.4281 132.193 52.369 132.568 52.369C133.02 52.369 133.247 52.5265 133.247 52.8415V71.3281C133.247 72.1156 133.601 72.6176 134.31 72.8342C135.019 73.0507 135.905 73.1787 136.968 73.2181C137.105 73.2181 137.194 73.2968 137.233 73.4543C137.273 73.6118 137.273 73.7693 137.233 73.9268C137.194 74.0843 137.105 74.1631 136.968 74.1631H126.041Z" fill="black"/>
<line x1="109.496" y1="65.1664" x2="153.99" y2="65.1664" stroke="black" stroke-width="0.39375"/>
<rect x="162.455" y="34.0602" width="44.1" height="61.8187" rx="0.984375" fill="#9C9A9A" stroke="black" stroke-width="0.39375"/>
<path d="M183.65 74.5175C183.079 74.5175 182.606 74.3501 182.232 74.0154C181.878 73.6807 181.701 73.2575 181.701 72.7456C181.701 71.4265 181.917 70.1173 182.35 68.8179C182.803 67.5186 183.374 66.2586 184.063 65.0379C184.772 63.7976 185.51 62.6262 186.278 61.5237C187.066 60.4015 187.794 59.3679 188.463 58.4229C189.153 57.4779 189.704 56.6511 190.117 55.9423H181.11C180.854 55.9423 180.648 55.9817 180.49 56.0604C180.333 56.1195 180.205 56.2573 180.106 56.4739C180.067 56.5723 179.978 56.7889 179.84 57.1236C179.703 57.4386 179.575 57.7536 179.456 58.0686C179.338 58.3836 179.26 58.5804 179.22 58.6592C179.161 58.7773 179.023 58.8561 178.807 58.8954C178.61 58.9151 178.423 58.8954 178.246 58.8364C178.068 58.7773 177.99 58.6789 178.009 58.5411L178.984 53.2254C179.082 52.8907 179.368 52.7234 179.84 52.7234H191.151C191.308 52.7234 191.446 52.7825 191.564 52.9006C191.682 53.0187 191.741 53.127 191.741 53.2254V55.5879C191.741 55.7257 191.712 55.8931 191.653 56.09C191.594 56.2868 191.387 56.6707 191.033 57.2417C190.501 58.1079 189.92 59.0628 189.29 60.1062C188.66 61.13 188.07 62.2817 187.518 63.5614C186.967 64.8214 186.514 66.2192 186.16 67.7548C185.806 69.2707 185.628 70.9442 185.628 72.7751C185.628 73.2673 185.432 73.6807 185.038 74.0154C184.644 74.3501 184.181 74.5175 183.65 74.5175Z" fill="black"/>
<line x1="162.258" y1="65.1664" x2="206.752" y2="65.1664" stroke="black" stroke-width="0.39375"/>
<rect x="233.33" y="34.0602" width="44.1" height="61.8187" rx="0.984375" fill="#9C9A9A" stroke="black" stroke-width="0.39375"/>
<path d="M254.141 74.1631C253.728 73.8481 253.728 73.5528 254.141 73.2771C255.027 73.1787 255.686 73.0606 256.12 72.9228C256.553 72.7653 256.838 72.5684 256.976 72.3321C257.133 72.0762 257.212 71.7711 257.212 71.4167V68.1978H249.121C248.924 68.1978 248.776 68.1289 248.678 67.9911C248.599 67.8532 248.56 67.7154 248.56 67.5776V67.0756C248.56 66.9575 248.609 66.8 248.707 66.6031C248.707 66.6031 248.875 66.357 249.209 65.8648C249.544 65.3726 249.987 64.7229 250.538 63.9157C251.089 63.1086 251.69 62.2226 252.34 61.2579C253.009 60.2932 253.678 59.3286 254.348 58.3639C255.017 57.3992 255.627 56.5132 256.179 55.7061C256.73 54.8792 257.173 54.2098 257.508 53.6979C257.862 53.1861 258.049 52.9203 258.069 52.9006C258.187 52.7234 258.423 52.6348 258.777 52.6348H260.077C260.372 52.6348 260.52 52.7923 260.52 53.1073V66.8098H263.768C263.926 66.8098 264.034 66.9279 264.093 67.1642C264.152 67.3807 264.152 67.6071 264.093 67.8434C264.054 68.0796 263.955 68.1978 263.798 68.1978H260.52V71.4167C260.52 71.8301 260.579 72.155 260.697 72.3912C260.815 72.6275 261.061 72.8145 261.435 72.9523C261.829 73.0704 262.42 73.1787 263.207 73.2771C263.424 73.3953 263.522 73.5331 263.502 73.6906C263.502 73.8481 263.404 74.0056 263.207 74.1631H254.141ZM250.213 66.8098H257.212V56.5625L250.213 66.8098Z" fill="black"/>
<line x1="233.133" y1="65.1664" x2="277.627" y2="65.1664" stroke="black" stroke-width="0.39375"/>
<rect x="286.091" y="34.0602" width="44.1" height="61.8187" rx="0.984375" fill="#9C9A9A" stroke="black" stroke-width="0.39375"/>
<path d="M302.443 74.1631C302.306 74.1631 302.178 74.1532 302.06 74.1336C301.941 74.0942 301.882 73.9859 301.882 73.8087V71.8006C301.882 71.269 302.119 70.6784 302.591 70.0287C303.083 69.3593 303.703 68.6506 304.452 67.9025C305.219 67.1346 306.027 66.3275 306.873 65.4809C307.72 64.6343 308.517 63.7582 309.265 62.8526C310.033 61.9273 310.653 60.9823 311.126 60.0176C311.618 59.0529 311.864 58.0686 311.864 57.0645C311.864 55.962 311.578 55.1154 311.008 54.5248C310.456 53.9145 309.59 53.6093 308.409 53.6093C307.798 53.6093 307.208 53.6881 306.637 53.8456C306.066 54.0031 305.593 54.2393 305.219 54.5543C304.865 54.8496 304.688 55.2237 304.688 55.6765C304.688 55.9325 304.757 56.1786 304.895 56.4148C305.052 56.6511 305.328 56.9168 305.721 57.2121C306.135 57.5075 306.342 57.9209 306.342 58.4525C306.342 58.925 306.174 59.3286 305.84 59.6632C305.505 59.9979 305.111 60.1653 304.658 60.1653C303.93 60.1653 303.32 59.8503 302.827 59.2203C302.335 58.5903 302.089 57.8717 302.089 57.0645C302.089 56.1589 302.375 55.3517 302.945 54.6429C303.536 53.9342 304.333 53.3829 305.338 52.9892C306.342 52.5757 307.483 52.369 308.763 52.369C310.082 52.369 311.244 52.5856 312.248 53.0187C313.272 53.4321 314.079 54.0129 314.669 54.7611C315.26 55.5092 315.555 56.3951 315.555 57.4189C315.555 58.3836 315.299 59.3187 314.788 60.2243C314.276 61.1103 313.606 61.9667 312.779 62.7936C311.953 63.6204 311.067 64.4178 310.122 65.1856C309.177 65.9337 308.271 66.6523 307.405 67.3414C306.538 68.0304 305.8 68.6801 305.19 69.2904C304.58 69.9007 304.205 70.4717 304.068 71.0032H312.809C312.829 71.0032 312.858 71.0032 312.898 71.0032C313.153 71.0032 313.34 70.9836 313.459 70.9442C313.596 70.9048 313.724 70.767 313.843 70.5307C313.941 70.3142 314.069 70.0189 314.226 69.6448C314.404 69.2707 314.532 68.9853 314.61 68.7884C314.689 68.6309 314.817 68.5423 314.994 68.5226C315.171 68.5029 315.329 68.5423 315.467 68.6407C315.605 68.7195 315.644 68.8671 315.585 69.0837L314.669 73.8678C314.63 74.0253 314.532 74.1139 314.374 74.1336C314.236 74.1532 314.069 74.1631 313.872 74.1631C313.833 74.1631 313.803 74.1631 313.783 74.1631H302.443Z" fill="black"/>
<line x1="285.895" y1="65.1664" x2="330.388" y2="65.1664" stroke="black" stroke-width="0.39375"/>
<mask id="path-15-inside-1_1305_1469" fill="white">
<path d="M443.15 172.644H411.258V206.112H364.008V158.862H395.9V125.394H443.15V172.644Z"/>
</mask>
<path d="M443.15 172.644H411.258V206.112H364.008V158.862H395.9V125.394H443.15V172.644Z" fill="#77E9A5"/>
<path d="M443.15 172.644V173.037H443.544V172.644H443.15ZM411.258 172.644V172.25H410.864V172.644H411.258ZM411.258 206.112V206.506H411.652V206.112H411.258ZM364.008 206.112H363.614V206.506H364.008V206.112ZM364.008 158.862V158.469H363.614V158.862H364.008ZM395.9 158.862V159.256H396.294V158.862H395.9ZM395.9 125.394V125H395.507V125.394H395.9ZM443.15 125.394H443.544V125H443.15V125.394ZM443.15 172.644V172.25H411.258V172.644V173.037H443.15V172.644ZM411.258 172.644H410.864V206.112H411.258H411.652V172.644H411.258ZM411.258 206.112V205.719H364.008V206.112V206.506H411.258V206.112ZM364.008 206.112H364.402V158.862H364.008H363.614V206.112H364.008ZM364.008 158.862V159.256H395.9V158.862V158.469H364.008V158.862ZM395.9 158.862H396.294V125.394H395.9H395.507V158.862H395.9ZM395.9 125.394V125.787H443.15V125.394V125H395.9V125.394ZM443.15 125.394H442.757V172.644H443.15H443.544V125.394H443.15Z" fill="black" mask="url(#path-15-inside-1_1305_1469)"/>
<mask id="path-17-inside-2_1305_1469" fill="white">
<path d="M487.65 172.644H455.758V206.112H408.508V158.862H440.4V125.394H487.65V172.644Z"/>
</mask>
<path d="M487.65 172.644H455.758V206.112H408.508V158.862H440.4V125.394H487.65V172.644Z" fill="#00B84A"/>
<path d="M487.65 172.644V173.037H488.044V172.644H487.65ZM455.758 172.644V172.25H455.364V172.644H455.758ZM455.758 206.112V206.506H456.152V206.112H455.758ZM408.508 206.112H408.114V206.506H408.508V206.112ZM408.508 158.862V158.469H408.114V158.862H408.508ZM440.4 158.862V159.256H440.794V158.862H440.4ZM440.4 125.394V125H440.007V125.394H440.4ZM487.65 125.394H488.044V125H487.65V125.394ZM487.65 172.644V172.25H455.758V172.644V173.037H487.65V172.644ZM455.758 172.644H455.364V206.112H455.758H456.152V172.644H455.758ZM455.758 206.112V205.719H408.508V206.112V206.506H455.758V206.112ZM408.508 206.112H408.902V158.862H408.508H408.114V206.112H408.508ZM408.508 158.862V159.256H440.4V158.862V158.469H408.508V158.862ZM440.4 158.862H440.794V125.394H440.4H440.007V158.862H440.4ZM440.4 125.394V125.787H487.65V125.394V125H440.4V125.394ZM487.65 125.394H487.257V172.644H487.65H488.044V125.394H487.65Z" fill="black" mask="url(#path-17-inside-2_1305_1469)"/>
<mask id="path-19-inside-3_1305_1469" fill="white">
<path d="M262.818 172.644H230.926V206.112H183.676V158.862H215.568V125.394H262.818V172.644Z"/>
</mask>
<path d="M262.818 172.644H230.926V206.112H183.676V158.862H215.568V125.394H262.818V172.644Z" fill="#77E9A5"/>
<path d="M262.818 172.644V173.037H263.212V172.644H262.818ZM230.926 172.644V172.25H230.532V172.644H230.926ZM230.926 206.112V206.506H231.32V206.112H230.926ZM183.676 206.112H183.282V206.506H183.676V206.112ZM183.676 158.862V158.469H183.282V158.862H183.676ZM215.568 158.862V159.256H215.962V158.862H215.568ZM215.568 125.394V125H215.175V125.394H215.568ZM262.818 125.394H263.212V125H262.818V125.394ZM262.818 172.644V172.25H230.926V172.644V173.037H262.818V172.644ZM230.926 172.644H230.532V206.112H230.926H231.32V172.644H230.926ZM230.926 206.112V205.719H183.676V206.112V206.506H230.926V206.112ZM183.676 206.112H184.07V158.862H183.676H183.282V206.112H183.676ZM183.676 158.862V159.256H215.568V158.862V158.469H183.676V158.862ZM215.568 158.862H215.962V125.394H215.568H215.175V158.862H215.568ZM215.568 125.394V125.787H262.818V125.394V125H215.568V125.394ZM262.818 125.394H262.425V172.644H262.818H263.212V125.394H262.818Z" fill="black" mask="url(#path-19-inside-3_1305_1469)"/>
<mask id="path-21-inside-4_1305_1469" fill="white">
<path d="M307.307 172.644H275.414V206.112H228.164V158.862H260.057V125.394H307.307V172.644Z"/>
</mask>
<path d="M307.307 172.644H275.414V206.112H228.164V158.862H260.057V125.394H307.307V172.644Z" fill="#00B84A"/>
<path d="M307.307 172.644V173.037H307.7V172.644H307.307ZM275.414 172.644V172.25H275.02V172.644H275.414ZM275.414 206.112V206.506H275.808V206.112H275.414ZM228.164 206.112H227.77V206.506H228.164V206.112ZM228.164 158.862V158.469H227.77V158.862H228.164ZM260.057 158.862V159.256H260.45V158.862H260.057ZM260.057 125.394V125H259.663V125.394H260.057ZM307.307 125.394H307.7V125H307.307V125.394ZM307.307 172.644V172.25H275.414V172.644V173.037H307.307V172.644ZM275.414 172.644H275.02V206.112H275.414H275.808V172.644H275.414ZM275.414 206.112V205.719H228.164V206.112V206.506H275.414V206.112ZM228.164 206.112H228.558V158.862H228.164H227.77V206.112H228.164ZM228.164 158.862V159.256H260.057V158.862V158.469H228.164V158.862ZM260.057 158.862H260.45V125.394H260.057H259.663V158.862H260.057ZM260.057 125.394V125.787H307.307V125.394V125H260.057V125.394ZM307.307 125.394H306.913V172.644H307.307H307.7V125.394H307.307Z" fill="black" mask="url(#path-21-inside-4_1305_1469)"/>
<mask id="path-23-inside-5_1305_1469" fill="white">
<path d="M352.986 172.644H321.094V206.112H273.844V158.862H305.736V125.394H352.986V172.644Z"/>
</mask>
<path d="M352.986 172.644H321.094V206.112H273.844V158.862H305.736V125.394H352.986V172.644Z" fill="#77E9A5"/>
<path d="M352.986 172.644V173.037H353.38V172.644H352.986ZM321.094 172.644V172.25H320.7V172.644H321.094ZM321.094 206.112V206.506H321.487V206.112H321.094ZM273.844 206.112H273.45V206.506H273.844V206.112ZM273.844 158.862V158.469H273.45V158.862H273.844ZM305.736 158.862V159.256H306.13V158.862H305.736ZM305.736 125.394V125H305.343V125.394H305.736ZM352.986 125.394H353.38V125H352.986V125.394ZM352.986 172.644V172.25H321.094V172.644V173.037H352.986V172.644ZM321.094 172.644H320.7V206.112H321.094H321.487V172.644H321.094ZM321.094 206.112V205.719H273.844V206.112V206.506H321.094V206.112ZM273.844 206.112H274.237V158.862H273.844H273.45V206.112H273.844ZM273.844 158.862V159.256H305.736V158.862V158.469H273.844V158.862ZM305.736 158.862H306.13V125.394H305.736H305.343V158.862H305.736ZM305.736 125.394V125.787H352.986V125.394V125H305.736V125.394ZM352.986 125.394H352.593V172.644H352.986H353.38V125.394H352.986Z" fill="black" mask="url(#path-23-inside-5_1305_1469)"/>
<mask id="path-25-inside-6_1305_1469" fill="white">
<path d="M397.479 172.644H365.586V206.112H318.336V158.862H350.229V125.394H397.479V172.644Z"/>
</mask>
<path d="M397.479 172.644H365.586V206.112H318.336V158.862H350.229V125.394H397.479V172.644Z" fill="#00B84A"/>
<path d="M397.479 172.644V173.037H397.872V172.644H397.479ZM365.586 172.644V172.25H365.192V172.644H365.586ZM365.586 206.112V206.506H365.98V206.112H365.586ZM318.336 206.112H317.942V206.506H318.336V206.112ZM318.336 158.862V158.469H317.942V158.862H318.336ZM350.229 158.862V159.256H350.622V158.862H350.229ZM350.229 125.394V125H349.835V125.394H350.229ZM397.479 125.394H397.872V125H397.479V125.394ZM397.479 172.644V172.25H365.586V172.644V173.037H397.479V172.644ZM365.586 172.644H365.192V206.112H365.586H365.98V172.644H365.586ZM365.586 206.112V205.719H318.336V206.112V206.506H365.586V206.112ZM318.336 206.112H318.73V158.862H318.336H317.942V206.112H318.336ZM318.336 158.862V159.256H350.229V158.862V158.469H318.336V158.862ZM350.229 158.862H350.622V125.394H350.229H349.835V158.862H350.229ZM350.229 125.394V125.787H397.479V125.394V125H350.229V125.394ZM397.479 125.394H397.085V172.644H397.479H397.872V125.394H397.479Z" fill="black" mask="url(#path-25-inside-6_1305_1469)"/>
<mask id="path-27-inside-7_1305_1469" fill="white">
<path d="M82.4785 172.644H50.5859V206.112H3.33594V158.862H35.2285V125.394H82.4785V172.644Z"/>
</mask>
<path d="M82.4785 172.644H50.5859V206.112H3.33594V158.862H35.2285V125.394H82.4785V172.644Z" fill="#77E9A5"/>
<path d="M82.4785 172.644V173.037H82.8723V172.644H82.4785ZM50.5859 172.644V172.25H50.1922V172.644H50.5859ZM50.5859 206.112V206.506H50.9797V206.112H50.5859ZM3.33594 206.112H2.94219V206.506H3.33594V206.112ZM3.33594 158.862V158.469H2.94219V158.862H3.33594ZM35.2285 158.862V159.256H35.6223V158.862H35.2285ZM35.2285 125.394V125H34.8348V125.394H35.2285ZM82.4785 125.394H82.8723V125H82.4785V125.394ZM82.4785 172.644V172.25H50.5859V172.644V173.037H82.4785V172.644ZM50.5859 172.644H50.1922V206.112H50.5859H50.9797V172.644H50.5859ZM50.5859 206.112V205.719H3.33594V206.112V206.506H50.5859V206.112ZM3.33594 206.112H3.72969V158.862H3.33594H2.94219V206.112H3.33594ZM3.33594 158.862V159.256H35.2285V158.862V158.469H3.33594V158.862ZM35.2285 158.862H35.6223V125.394H35.2285H34.8348V158.862H35.2285ZM35.2285 125.394V125.787H82.4785V125.394V125H35.2285V125.394ZM82.4785 125.394H82.0848V172.644H82.4785H82.8723V125.394H82.4785Z" fill="black" mask="url(#path-27-inside-7_1305_1469)"/>
<mask id="path-29-inside-8_1305_1469" fill="white">
<path d="M126.975 172.644H95.082V206.112H47.832V158.862H79.7246V125.394H126.975V172.644Z"/>
</mask>
<path d="M126.975 172.644H95.082V206.112H47.832V158.862H79.7246V125.394H126.975V172.644Z" fill="#00B84A"/>
<path d="M126.975 172.644V173.037H127.368V172.644H126.975ZM95.082 172.644V172.25H94.6883V172.644H95.082ZM95.082 206.112V206.506H95.4758V206.112H95.082ZM47.832 206.112H47.4383V206.506H47.832V206.112ZM47.832 158.862V158.469H47.4383V158.862H47.832ZM79.7246 158.862V159.256H80.1184V158.862H79.7246ZM79.7246 125.394V125H79.3309V125.394H79.7246ZM126.975 125.394H127.368V125H126.975V125.394ZM126.975 172.644V172.25H95.082V172.644V173.037H126.975V172.644ZM95.082 172.644H94.6883V206.112H95.082H95.4758V172.644H95.082ZM95.082 206.112V205.719H47.832V206.112V206.506H95.082V206.112ZM47.832 206.112H48.2258V158.862H47.832H47.4383V206.112H47.832ZM47.832 158.862V159.256H79.7246V158.862V158.469H47.832V158.862ZM79.7246 158.862H80.1184V125.394H79.7246H79.3309V158.862H79.7246ZM79.7246 125.394V125.787H126.975V125.394V125H79.7246V125.394ZM126.975 125.394H126.581V172.644H126.975H127.368V125.394H126.975Z" fill="black" mask="url(#path-29-inside-8_1305_1469)"/>
<mask id="path-31-inside-9_1305_1469" fill="white">
<path d="M172.65 172.644H140.758V206.112H93.5078V158.862H125.4V125.394H172.65V172.644Z"/>
</mask>
<path d="M172.65 172.644H140.758V206.112H93.5078V158.862H125.4V125.394H172.65V172.644Z" fill="#77E9A5"/>
<path d="M172.65 172.644V173.037H173.044V172.644H172.65ZM140.758 172.644V172.25H140.364V172.644H140.758ZM140.758 206.112V206.506H141.152V206.112H140.758ZM93.5078 206.112H93.1141V206.506H93.5078V206.112ZM93.5078 158.862V158.469H93.1141V158.862H93.5078ZM125.4 158.862V159.256H125.794V158.862H125.4ZM125.4 125.394V125H125.007V125.394H125.4ZM172.65 125.394H173.044V125H172.65V125.394ZM172.65 172.644V172.25H140.758V172.644V173.037H172.65V172.644ZM140.758 172.644H140.364V206.112H140.758H141.152V172.644H140.758ZM140.758 206.112V205.719H93.5078V206.112V206.506H140.758V206.112ZM93.5078 206.112H93.9016V158.862H93.5078H93.1141V206.112H93.5078ZM93.5078 158.862V159.256H125.4V158.862V158.469H93.5078V158.862ZM125.4 158.862H125.794V125.394H125.4H125.007V158.862H125.4ZM125.4 125.394V125.787H172.65V125.394V125H125.4V125.394ZM172.65 125.394H172.257V172.644H172.65H173.044V125.394H172.65Z" fill="black" mask="url(#path-31-inside-9_1305_1469)"/>
<mask id="path-33-inside-10_1305_1469" fill="white">
<path d="M217.143 172.644H185.25V206.112H138V158.862H169.893V125.394H217.143V172.644Z"/>
</mask>
<path d="M217.143 172.644H185.25V206.112H138V158.862H169.893V125.394H217.143V172.644Z" fill="#00B84A"/>
<path d="M217.143 172.644V173.037H217.536V172.644H217.143ZM185.25 172.644V172.25H184.856V172.644H185.25ZM185.25 206.112V206.506H185.644V206.112H185.25ZM138 206.112H137.606V206.506H138V206.112ZM138 158.862V158.469H137.606V158.862H138ZM169.893 158.862V159.256H170.286V158.862H169.893ZM169.893 125.394V125H169.499V125.394H169.893ZM217.143 125.394H217.536V125H217.143V125.394ZM217.143 172.644V172.25H185.25V172.644V173.037H217.143V172.644ZM185.25 172.644H184.856V206.112H185.25H185.644V172.644H185.25ZM185.25 206.112V205.719H138V206.112V206.506H185.25V206.112ZM138 206.112H138.394V158.862H138H137.606V206.112H138ZM138 158.862V159.256H169.893V158.862V158.469H138V158.862ZM169.893 158.862H170.286V125.394H169.893H169.499V158.862H169.893ZM169.893 125.394V125.787H217.143V125.394V125H169.893V125.394ZM217.143 125.394H216.749V172.644H217.143H217.536V125.394H217.143Z" fill="black" mask="url(#path-33-inside-10_1305_1469)"/>
<mask id="path-35-inside-11_1305_1469" fill="white">
<path d="M36.8066 172.644H4.91406V206.112H-42.3359V158.862H-10.4434V125.394H36.8066V172.644Z"/>
</mask>
<path d="M36.8066 172.644H4.91406V206.112H-42.3359V158.862H-10.4434V125.394H36.8066V172.644Z" fill="#00B84A"/>
<path d="M36.8066 172.644V173.037H37.2004V172.644H36.8066ZM4.91406 172.644V172.25H4.52031V172.644H4.91406ZM4.91406 206.112V206.506H5.30781V206.112H4.91406ZM-42.3359 206.112H-42.7297V206.506H-42.3359V206.112ZM-42.3359 158.862V158.469H-42.7297V158.862H-42.3359ZM-10.4434 158.862V159.256H-10.0496V158.862H-10.4434ZM-10.4434 125.394V125H-10.8371V125.394H-10.4434ZM36.8066 125.394H37.2004V125H36.8066V125.394ZM36.8066 172.644V172.25H4.91406V172.644V173.037H36.8066V172.644ZM4.91406 172.644H4.52031V206.112H4.91406H5.30781V172.644H4.91406ZM4.91406 206.112V205.719H-42.3359V206.112V206.506H4.91406V206.112ZM-42.3359 206.112H-41.9422V158.862H-42.3359H-42.7297V206.112H-42.3359ZM-42.3359 158.862V159.256H-10.4434V158.862V158.469H-42.3359V158.862ZM-10.4434 158.862H-10.0496V125.394H-10.4434H-10.8371V158.862H-10.4434ZM-10.4434 125.394V125.787H36.8066V125.394V125H-10.4434V125.394ZM36.8066 125.394H36.4129V172.644H36.8066H37.2004V125.394H36.8066Z" fill="black" mask="url(#path-35-inside-11_1305_1469)"/>
<mask id="path-37-inside-12_1305_1469" fill="white">
<path d="M456.15 252.969H424.258V286.438H377.008V239.188H408.9V205.719H456.15V252.969Z"/>
</mask>
<path d="M456.15 252.969H424.258V286.438H377.008V239.188H408.9V205.719H456.15V252.969Z" fill="#77E9A5"/>
<path d="M456.15 252.969V253.362H456.544V252.969H456.15ZM424.258 252.969V252.575H423.864V252.969H424.258ZM424.258 286.438V286.831H424.652V286.438H424.258ZM377.008 286.438H376.614V286.831H377.008V286.438ZM377.008 239.188V238.794H376.614V239.188H377.008ZM408.9 239.188V239.581H409.294V239.188H408.9ZM408.9 205.719V205.325H408.507V205.719H408.9ZM456.15 205.719H456.544V205.325H456.15V205.719ZM456.15 252.969V252.575H424.258V252.969V253.362H456.15V252.969ZM424.258 252.969H423.864V286.438H424.258H424.652V252.969H424.258ZM424.258 286.438V286.044H377.008V286.438V286.831H424.258V286.438ZM377.008 286.438H377.402V239.188H377.008H376.614V286.438H377.008ZM377.008 239.188V239.581H408.9V239.188V238.794H377.008V239.188ZM408.9 239.188H409.294V205.719H408.9H408.507V239.188H408.9ZM408.9 205.719V206.112H456.15V205.719V205.325H408.9V205.719ZM456.15 205.719H455.757V252.969H456.15H456.544V205.719H456.15Z" fill="black" mask="url(#path-37-inside-12_1305_1469)"/>
<mask id="path-39-inside-13_1305_1469" fill="white">
<path d="M500.643 252.969H468.75V286.438H421.5V239.188H453.393V205.719H500.643V252.969Z"/>
</mask>
<path d="M500.643 252.969H468.75V286.438H421.5V239.188H453.393V205.719H500.643V252.969Z" fill="#00B84A"/>
<path d="M500.643 252.969V253.362H501.036V252.969H500.643ZM468.75 252.969V252.575H468.356V252.969H468.75ZM468.75 286.438V286.831H469.144V286.438H468.75ZM421.5 286.438H421.106V286.831H421.5V286.438ZM421.5 239.188V238.794H421.106V239.188H421.5ZM453.393 239.188V239.581H453.786V239.188H453.393ZM453.393 205.719V205.325H452.999V205.719H453.393ZM500.643 205.719H501.036V205.325H500.643V205.719ZM500.643 252.969V252.575H468.75V252.969V253.362H500.643V252.969ZM468.75 252.969H468.356V286.438H468.75H469.144V252.969H468.75ZM468.75 286.438V286.044H421.5V286.438V286.831H468.75V286.438ZM421.5 286.438H421.894V239.188H421.5H421.106V286.438H421.5ZM421.5 239.188V239.581H453.393V239.188V238.794H421.5V239.188ZM453.393 239.188H453.786V205.719H453.393H452.999V239.188H453.393ZM453.393 205.719V206.112H500.643V205.719V205.325H453.393V205.719ZM500.643 205.719H500.249V252.969H500.643H501.036V205.719H500.643Z" fill="black" mask="url(#path-39-inside-13_1305_1469)"/>
<mask id="path-41-inside-14_1305_1469" fill="white">
<path d="M275.807 252.969H243.914V286.438H196.664V239.188H228.557V205.719H275.807V252.969Z"/>
</mask>
<path d="M275.807 252.969H243.914V286.438H196.664V239.188H228.557V205.719H275.807V252.969Z" fill="#77E9A5"/>
<path d="M275.807 252.969V253.362H276.2V252.969H275.807ZM243.914 252.969V252.575H243.52V252.969H243.914ZM243.914 286.438V286.831H244.308V286.438H243.914ZM196.664 286.438H196.27V286.831H196.664V286.438ZM196.664 239.188V238.794H196.27V239.188H196.664ZM228.557 239.188V239.581H228.95V239.188H228.557ZM228.557 205.719V205.325H228.163V205.719H228.557ZM275.807 205.719H276.2V205.325H275.807V205.719ZM275.807 252.969V252.575H243.914V252.969V253.362H275.807V252.969ZM243.914 252.969H243.52V286.438H243.914H244.308V252.969H243.914ZM243.914 286.438V286.044H196.664V286.438V286.831H243.914V286.438ZM196.664 286.438H197.058V239.188H196.664H196.27V286.438H196.664ZM196.664 239.188V239.581H228.557V239.188V238.794H196.664V239.188ZM228.557 239.188H228.95V205.719H228.557H228.163V239.188H228.557ZM228.557 205.719V206.112H275.807V205.719V205.325H228.557V205.719ZM275.807 205.719H275.413V252.969H275.807H276.2V205.719H275.807Z" fill="black" mask="url(#path-41-inside-14_1305_1469)"/>
<mask id="path-43-inside-15_1305_1469" fill="white">
<path d="M320.307 252.969H288.414V286.438H241.164V239.188H273.057V205.719H320.307V252.969Z"/>
</mask>
<path d="M320.307 252.969H288.414V286.438H241.164V239.188H273.057V205.719H320.307V252.969Z" fill="#00B84A"/>
<path d="M320.307 252.969V253.362H320.7V252.969H320.307ZM288.414 252.969V252.575H288.02V252.969H288.414ZM288.414 286.438V286.831H288.808V286.438H288.414ZM241.164 286.438H240.77V286.831H241.164V286.438ZM241.164 239.188V238.794H240.77V239.188H241.164ZM273.057 239.188V239.581H273.45V239.188H273.057ZM273.057 205.719V205.325H272.663V205.719H273.057ZM320.307 205.719H320.7V205.325H320.307V205.719ZM320.307 252.969V252.575H288.414V252.969V253.362H320.307V252.969ZM288.414 252.969H288.02V286.438H288.414H288.808V252.969H288.414ZM288.414 286.438V286.044H241.164V286.438V286.831H288.414V286.438ZM241.164 286.438H241.558V239.188H241.164H240.77V286.438H241.164ZM241.164 239.188V239.581H273.057V239.188V238.794H241.164V239.188ZM273.057 239.188H273.45V205.719H273.057H272.663V239.188H273.057ZM273.057 205.719V206.112H320.307V205.719V205.325H273.057V205.719ZM320.307 205.719H319.913V252.969H320.307H320.7V205.719H320.307Z" fill="black" mask="url(#path-43-inside-15_1305_1469)"/>
<mask id="path-45-inside-16_1305_1469" fill="white">
<path d="M365.979 252.969H334.086V286.438H286.836V239.188H318.729V205.719H365.979V252.969Z"/>
</mask>
<path d="M365.979 252.969H334.086V286.438H286.836V239.188H318.729V205.719H365.979V252.969Z" fill="#77E9A5"/>
<path d="M365.979 252.969V253.362H366.372V252.969H365.979ZM334.086 252.969V252.575H333.692V252.969H334.086ZM334.086 286.438V286.831H334.48V286.438H334.086ZM286.836 286.438H286.442V286.831H286.836V286.438ZM286.836 239.188V238.794H286.442V239.188H286.836ZM318.729 239.188V239.581H319.122V239.188H318.729ZM318.729 205.719V205.325H318.335V205.719H318.729ZM365.979 205.719H366.372V205.325H365.979V205.719ZM365.979 252.969V252.575H334.086V252.969V253.362H365.979V252.969ZM334.086 252.969H333.692V286.438H334.086H334.48V252.969H334.086ZM334.086 286.438V286.044H286.836V286.438V286.831H334.086V286.438ZM286.836 286.438H287.23V239.188H286.836H286.442V286.438H286.836ZM286.836 239.188V239.581H318.729V239.188V238.794H286.836V239.188ZM318.729 239.188H319.122V205.719H318.729H318.335V239.188H318.729ZM318.729 205.719V206.112H365.979V205.719V205.325H318.729V205.719ZM365.979 205.719H365.585V252.969H365.979H366.372V205.719H365.979Z" fill="black" mask="url(#path-45-inside-16_1305_1469)"/>
<mask id="path-47-inside-17_1305_1469" fill="white">
<path d="M410.475 252.969H378.582V286.438H331.332V239.188H363.225V205.719H410.475V252.969Z"/>
</mask>
<path d="M410.475 252.969H378.582V286.438H331.332V239.188H363.225V205.719H410.475V252.969Z" fill="#00B84A"/>
<path d="M410.475 252.969V253.362H410.868V252.969H410.475ZM378.582 252.969V252.575H378.188V252.969H378.582ZM378.582 286.438V286.831H378.976V286.438H378.582ZM331.332 286.438H330.938V286.831H331.332V286.438ZM331.332 239.188V238.794H330.938V239.188H331.332ZM363.225 239.188V239.581H363.618V239.188H363.225ZM363.225 205.719V205.325H362.831V205.719H363.225ZM410.475 205.719H410.868V205.325H410.475V205.719ZM410.475 252.969V252.575H378.582V252.969V253.362H410.475V252.969ZM378.582 252.969H378.188V286.438H378.582H378.976V252.969H378.582ZM378.582 286.438V286.044H331.332V286.438V286.831H378.582V286.438ZM331.332 286.438H331.726V239.188H331.332H330.938V286.438H331.332ZM331.332 239.188V239.581H363.225V239.188V238.794H331.332V239.188ZM363.225 239.188H363.618V205.719H363.225H362.831V239.188H363.225ZM363.225 205.719V206.112H410.475V205.719V205.325H363.225V205.719ZM410.475 205.719H410.081V252.969H410.475H410.868V205.719H410.475Z" fill="black" mask="url(#path-47-inside-17_1305_1469)"/>
<mask id="path-49-inside-18_1305_1469" fill="white">
<path d="M95.4746 252.969H63.582V286.438H16.332V239.188H48.2246V205.719H95.4746V252.969Z"/>
</mask>
<path d="M95.4746 252.969H63.582V286.438H16.332V239.188H48.2246V205.719H95.4746V252.969Z" fill="#77E9A5"/>
<path d="M95.4746 252.969V253.362H95.8684V252.969H95.4746ZM63.582 252.969V252.575H63.1883V252.969H63.582ZM63.582 286.438V286.831H63.9758V286.438H63.582ZM16.332 286.438H15.9383V286.831H16.332V286.438ZM16.332 239.188V238.794H15.9383V239.188H16.332ZM48.2246 239.188V239.581H48.6184V239.188H48.2246ZM48.2246 205.719V205.325H47.8309V205.719H48.2246ZM95.4746 205.719H95.8684V205.325H95.4746V205.719ZM95.4746 252.969V252.575H63.582V252.969V253.362H95.4746V252.969ZM63.582 252.969H63.1883V286.438H63.582H63.9758V252.969H63.582ZM63.582 286.438V286.044H16.332V286.438V286.831H63.582V286.438ZM16.332 286.438H16.7258V239.188H16.332H15.9383V286.438H16.332ZM16.332 239.188V239.581H48.2246V239.188V238.794H16.332V239.188ZM48.2246 239.188H48.6184V205.719H48.2246H47.8309V239.188H48.2246ZM48.2246 205.719V206.112H95.4746V205.719V205.325H48.2246V205.719ZM95.4746 205.719H95.0809V252.969H95.4746H95.8684V205.719H95.4746Z" fill="black" mask="url(#path-49-inside-18_1305_1469)"/>
<mask id="path-51-inside-19_1305_1469" fill="white">
<path d="M139.963 252.969H108.07V286.438H60.8203V239.188H92.7129V205.719H139.963V252.969Z"/>
</mask>
<path d="M139.963 252.969H108.07V286.438H60.8203V239.188H92.7129V205.719H139.963V252.969Z" fill="#00B84A"/>
<path d="M139.963 252.969V253.362H140.357V252.969H139.963ZM108.07 252.969V252.575H107.677V252.969H108.07ZM108.07 286.438V286.831H108.464V286.438H108.07ZM60.8203 286.438H60.4266V286.831H60.8203V286.438ZM60.8203 239.188V238.794H60.4266V239.188H60.8203ZM92.7129 239.188V239.581H93.1066V239.188H92.7129ZM92.7129 205.719V205.325H92.3191V205.719H92.7129ZM139.963 205.719H140.357V205.325H139.963V205.719ZM139.963 252.969V252.575H108.07V252.969V253.362H139.963V252.969ZM108.07 252.969H107.677V286.438H108.07H108.464V252.969H108.07ZM108.07 286.438V286.044H60.8203V286.438V286.831H108.07V286.438ZM60.8203 286.438H61.2141V239.188H60.8203H60.4266V286.438H60.8203ZM60.8203 239.188V239.581H92.7129V239.188V238.794H60.8203V239.188ZM92.7129 239.188H93.1066V205.719H92.7129H92.3191V239.188H92.7129ZM92.7129 205.719V206.112H139.963V205.719V205.325H92.7129V205.719ZM139.963 205.719H139.569V252.969H139.963H140.357V205.719H139.963Z" fill="black" mask="url(#path-51-inside-19_1305_1469)"/>
<mask id="path-53-inside-20_1305_1469" fill="white">
<path d="M185.643 252.969H153.75V286.438H106.5V239.188H138.393V205.719H185.643V252.969Z"/>
</mask>
<path d="M185.643 252.969H153.75V286.438H106.5V239.188H138.393V205.719H185.643V252.969Z" fill="#77E9A5"/>
<path d="M185.643 252.969V253.362H186.036V252.969H185.643ZM153.75 252.969V252.575H153.356V252.969H153.75ZM153.75 286.438V286.831H154.144V286.438H153.75ZM106.5 286.438H106.106V286.831H106.5V286.438ZM106.5 239.188V238.794H106.106V239.188H106.5ZM138.393 239.188V239.581H138.786V239.188H138.393ZM138.393 205.719V205.325H137.999V205.719H138.393ZM185.643 205.719H186.036V205.325H185.643V205.719ZM185.643 252.969V252.575H153.75V252.969V253.362H185.643V252.969ZM153.75 252.969H153.356V286.438H153.75H154.144V252.969H153.75ZM153.75 286.438V286.044H106.5V286.438V286.831H153.75V286.438ZM106.5 286.438H106.894V239.188H106.5H106.106V286.438H106.5ZM106.5 239.188V239.581H138.393V239.188V238.794H106.5V239.188ZM138.393 239.188H138.786V205.719H138.393H137.999V239.188H138.393ZM138.393 205.719V206.112H185.643V205.719V205.325H138.393V205.719ZM185.643 205.719H185.249V252.969H185.643H186.036V205.719H185.643Z" fill="black" mask="url(#path-53-inside-20_1305_1469)"/>
<mask id="path-55-inside-21_1305_1469" fill="white">
<path d="M230.135 252.969H198.242V286.438H150.992V239.188H182.885V205.719H230.135V252.969Z"/>
</mask>
<path d="M230.135 252.969H198.242V286.438H150.992V239.188H182.885V205.719H230.135V252.969Z" fill="#00B84A"/>
<path d="M230.135 252.969V253.362H230.529V252.969H230.135ZM198.242 252.969V252.575H197.848V252.969H198.242ZM198.242 286.438V286.831H198.636V286.438H198.242ZM150.992 286.438H150.598V286.831H150.992V286.438ZM150.992 239.188V238.794H150.598V239.188H150.992ZM182.885 239.188V239.581H183.279V239.188H182.885ZM182.885 205.719V205.325H182.491V205.719H182.885ZM230.135 205.719H230.529V205.325H230.135V205.719ZM230.135 252.969V252.575H198.242V252.969V253.362H230.135V252.969ZM198.242 252.969H197.848V286.438H198.242H198.636V252.969H198.242ZM198.242 286.438V286.044H150.992V286.438V286.831H198.242V286.438ZM150.992 286.438H151.386V239.188H150.992H150.598V286.438H150.992ZM150.992 239.188V239.581H182.885V239.188V238.794H150.992V239.188ZM182.885 239.188H183.279V205.719H182.885H182.491V239.188H182.885ZM182.885 205.719V206.112H230.135V205.719V205.325H182.885V205.719ZM230.135 205.719H229.741V252.969H230.135H230.529V205.719H230.135Z" fill="black" mask="url(#path-55-inside-21_1305_1469)"/>
<mask id="path-57-inside-22_1305_1469" fill="white">
<path d="M5.30664 252.969H-26.5859V286.438H-73.8359V239.188H-41.9434V205.719H5.30664V252.969Z"/>
</mask>
<path d="M5.30664 252.969H-26.5859V286.438H-73.8359V239.188H-41.9434V205.719H5.30664V252.969Z" fill="#77E9A5"/>
<path d="M5.30664 252.969V253.362H5.70039V252.969H5.30664ZM-26.5859 252.969V252.575H-26.9797V252.969H-26.5859ZM-26.5859 286.438V286.831H-26.1922V286.438H-26.5859ZM-73.8359 286.438H-74.2297V286.831H-73.8359V286.438ZM-73.8359 239.188V238.794H-74.2297V239.188H-73.8359ZM-41.9434 239.188V239.581H-41.5496V239.188H-41.9434ZM-41.9434 205.719V205.325H-42.3371V205.719H-41.9434ZM5.30664 205.719H5.70039V205.325H5.30664V205.719ZM5.30664 252.969V252.575H-26.5859V252.969V253.362H5.30664V252.969ZM-26.5859 252.969H-26.9797V286.438H-26.5859H-26.1922V252.969H-26.5859ZM-26.5859 286.438V286.044H-73.8359V286.438V286.831H-26.5859V286.438ZM-73.8359 286.438H-73.4422V239.188H-73.8359H-74.2297V286.438H-73.8359ZM-73.8359 239.188V239.581H-41.9434V239.188V238.794H-73.8359V239.188ZM-41.9434 239.188H-41.5496V205.719H-41.9434H-42.3371V239.188H-41.9434ZM-41.9434 205.719V206.112H5.30664V205.719V205.325H-41.9434V205.719ZM5.30664 205.719H4.91289V252.969H5.30664H5.70039V205.719H5.30664Z" fill="black" mask="url(#path-57-inside-22_1305_1469)"/>
<mask id="path-59-inside-23_1305_1469" fill="white">
<path d="M49.7988 252.969H17.9062V286.438H-29.3438V239.188H2.54883V205.719H49.7988V252.969Z"/>
</mask>
<path d="M49.7988 252.969H17.9062V286.438H-29.3438V239.188H2.54883V205.719H49.7988V252.969Z" fill="#00B84A"/>
<path d="M49.7988 252.969V253.362H50.1926V252.969H49.7988ZM17.9062 252.969V252.575H17.5125V252.969H17.9062ZM17.9062 286.438V286.831H18.3V286.438H17.9062ZM-29.3438 286.438H-29.7375V286.831H-29.3438V286.438ZM-29.3438 239.188V238.794H-29.7375V239.188H-29.3438ZM2.54883 239.188V239.581H2.94258V239.188H2.54883ZM2.54883 205.719V205.325H2.15508V205.719H2.54883ZM49.7988 205.719H50.1926V205.325H49.7988V205.719ZM49.7988 252.969V252.575H17.9062V252.969V253.362H49.7988V252.969ZM17.9062 252.969H17.5125V286.438H17.9062H18.3V252.969H17.9062ZM17.9062 286.438V286.044H-29.3438V286.438V286.831H17.9062V286.438ZM-29.3438 286.438H-28.95V239.188H-29.3438H-29.7375V286.438H-29.3438ZM-29.3438 239.188V239.581H2.54883V239.188V238.794H-29.3438V239.188ZM2.54883 239.188H2.94258V205.719H2.54883H2.15508V239.188H2.54883ZM2.54883 205.719V206.112H49.7988V205.719V205.325H2.54883V205.719ZM49.7988 205.719H49.4051V252.969H49.7988H50.1926V205.719H49.7988Z" fill="black" mask="url(#path-59-inside-23_1305_1469)"/>
<mask id="path-61-inside-24_1305_1469" fill="white">
<path d="M379.158 332.25H347.266V365.719H300.016V318.469H331.908V285H379.158V332.25Z"/>
</mask>
<path d="M379.158 332.25H347.266V365.719H300.016V318.469H331.908V285H379.158V332.25Z" fill="#77E9A5"/>
<path d="M379.158 332.25V332.644H379.552V332.25H379.158ZM347.266 332.25V331.856H346.872V332.25H347.266ZM347.266 365.719V366.112H347.659V365.719H347.266ZM300.016 365.719H299.622V366.112H300.016V365.719ZM300.016 318.469V318.075H299.622V318.469H300.016ZM331.908 318.469V318.862H332.302V318.469H331.908ZM331.908 285V284.606H331.514V285H331.908ZM379.158 285H379.552V284.606H379.158V285ZM379.158 332.25V331.856H347.266V332.25V332.644H379.158V332.25ZM347.266 332.25H346.872V365.719H347.266H347.659V332.25H347.266ZM347.266 365.719V365.325H300.016V365.719V366.112H347.266V365.719ZM300.016 365.719H300.409V318.469H300.016H299.622V365.719H300.016ZM300.016 318.469V318.862H331.908V318.469V318.075H300.016V318.469ZM331.908 318.469H332.302V285H331.908H331.514V318.469H331.908ZM331.908 285V285.394H379.158V285V284.606H331.908V285ZM379.158 285H378.764V332.25H379.158H379.552V285H379.158Z" fill="black" mask="url(#path-61-inside-24_1305_1469)"/>
<mask id="path-63-inside-25_1305_1469" fill="white">
<path d="M423.65 332.25H391.758V365.719H344.508V318.469H376.4V285H423.65V332.25Z"/>
</mask>
<path d="M423.65 332.25H391.758V365.719H344.508V318.469H376.4V285H423.65V332.25Z" fill="#00B84A"/>
<path d="M423.65 332.25V332.644H424.044V332.25H423.65ZM391.758 332.25V331.856H391.364V332.25H391.758ZM391.758 365.719V366.112H392.152V365.719H391.758ZM344.508 365.719H344.114V366.112H344.508V365.719ZM344.508 318.469V318.075H344.114V318.469H344.508ZM376.4 318.469V318.862H376.794V318.469H376.4ZM376.4 285V284.606H376.007V285H376.4ZM423.65 285H424.044V284.606H423.65V285ZM423.65 332.25V331.856H391.758V332.25V332.644H423.65V332.25ZM391.758 332.25H391.364V365.719H391.758H392.152V332.25H391.758ZM391.758 365.719V365.325H344.508V365.719V366.112H391.758V365.719ZM344.508 365.719H344.902V318.469H344.508H344.114V365.719H344.508ZM344.508 318.469V318.862H376.4V318.469V318.075H344.508V318.469ZM376.4 318.469H376.794V285H376.4H376.007V318.469H376.4ZM376.4 285V285.394H423.65V285V284.606H376.4V285ZM423.65 285H423.257V332.25H423.65H424.044V285H423.65Z" fill="black" mask="url(#path-63-inside-25_1305_1469)"/>
<mask id="path-65-inside-26_1305_1469" fill="white">
<path d="M469.326 332.25H437.434V365.719H390.184V318.469H422.076V285H469.326V332.25Z"/>
</mask>
<path d="M469.326 332.25H437.434V365.719H390.184V318.469H422.076V285H469.326V332.25Z" fill="#77E9A5"/>
<path d="M469.326 332.25V332.644H469.72V332.25H469.326ZM437.434 332.25V331.856H437.04V332.25H437.434ZM437.434 365.719V366.112H437.827V365.719H437.434ZM390.184 365.719H389.79V366.112H390.184V365.719ZM390.184 318.469V318.075H389.79V318.469H390.184ZM422.076 318.469V318.862H422.47V318.469H422.076ZM422.076 285V284.606H421.682V285H422.076ZM469.326 285H469.72V284.606H469.326V285ZM469.326 332.25V331.856H437.434V332.25V332.644H469.326V332.25ZM437.434 332.25H437.04V365.719H437.434H437.827V332.25H437.434ZM437.434 365.719V365.325H390.184V365.719V366.112H437.434V365.719ZM390.184 365.719H390.577V318.469H390.184H389.79V365.719H390.184ZM390.184 318.469V318.862H422.076V318.469V318.075H390.184V318.469ZM422.076 318.469H422.47V285H422.076H421.682V318.469H422.076ZM422.076 285V285.394H469.326V285V284.606H422.076V285ZM469.326 285H468.932V332.25H469.326H469.72V285H469.326Z" fill="black" mask="url(#path-65-inside-26_1305_1469)"/>
<mask id="path-67-inside-27_1305_1469" fill="white">
<path d="M513.814 332.25H481.922V365.719H434.672V318.469H466.564V285H513.814V332.25Z"/>
</mask>
<path d="M513.814 332.25H481.922V365.719H434.672V318.469H466.564V285H513.814V332.25Z" fill="#00B84A"/>
<path d="M513.814 332.25V332.644H514.208V332.25H513.814ZM481.922 332.25V331.856H481.528V332.25H481.922ZM481.922 365.719V366.112H482.316V365.719H481.922ZM434.672 365.719H434.278V366.112H434.672V365.719ZM434.672 318.469V318.075H434.278V318.469H434.672ZM466.564 318.469V318.862H466.958V318.469H466.564ZM466.564 285V284.606H466.171V285H466.564ZM513.814 285H514.208V284.606H513.814V285ZM513.814 332.25V331.856H481.922V332.25V332.644H513.814V332.25ZM481.922 332.25H481.528V365.719H481.922H482.316V332.25H481.922ZM481.922 365.719V365.325H434.672V365.719V366.112H481.922V365.719ZM434.672 365.719H435.066V318.469H434.672H434.278V365.719H434.672ZM434.672 318.469V318.862H466.564V318.469V318.075H434.672V318.469ZM466.564 318.469H466.958V285H466.564H466.171V318.469H466.564ZM466.564 285V285.394H513.814V285V284.606H466.564V285ZM513.814 285H513.421V332.25H513.814H514.208V285H513.814Z" fill="black" mask="url(#path-67-inside-27_1305_1469)"/>
<mask id="path-69-inside-28_1305_1469" fill="white">
<path d="M198.814 332.25H166.922V365.719H119.672V318.469H151.564V285H198.814V332.25Z"/>
</mask>
<path d="M198.814 332.25H166.922V365.719H119.672V318.469H151.564V285H198.814V332.25Z" fill="#77E9A5"/>
<path d="M198.814 332.25V332.644H199.208V332.25H198.814ZM166.922 332.25V331.856H166.528V332.25H166.922ZM166.922 365.719V366.112H167.316V365.719H166.922ZM119.672 365.719H119.278V366.112H119.672V365.719ZM119.672 318.469V318.075H119.278V318.469H119.672ZM151.564 318.469V318.862H151.958V318.469H151.564ZM151.564 285V284.606H151.171V285H151.564ZM198.814 285H199.208V284.606H198.814V285ZM198.814 332.25V331.856H166.922V332.25V332.644H198.814V332.25ZM166.922 332.25H166.528V365.719H166.922H167.316V332.25H166.922ZM166.922 365.719V365.325H119.672V365.719V366.112H166.922V365.719ZM119.672 365.719H120.066V318.469H119.672H119.278V365.719H119.672ZM119.672 318.469V318.862H151.564V318.469V318.075H119.672V318.469ZM151.564 318.469H151.958V285H151.564H151.171V318.469H151.564ZM151.564 285V285.394H198.814V285V284.606H151.564V285ZM198.814 285H198.421V332.25H198.814H199.208V285H198.814Z" fill="black" mask="url(#path-69-inside-28_1305_1469)"/>
<mask id="path-71-inside-29_1305_1469" fill="white">
<path d="M243.314 332.25H211.422V365.719H164.172V318.469H196.064V285H243.314V332.25Z"/>
</mask>
<path d="M243.314 332.25H211.422V365.719H164.172V318.469H196.064V285H243.314V332.25Z" fill="#00B84A"/>
<path d="M243.314 332.25V332.644H243.708V332.25H243.314ZM211.422 332.25V331.856H211.028V332.25H211.422ZM211.422 365.719V366.112H211.816V365.719H211.422ZM164.172 365.719H163.778V366.112H164.172V365.719ZM164.172 318.469V318.075H163.778V318.469H164.172ZM196.064 318.469V318.862H196.458V318.469H196.064ZM196.064 285V284.606H195.671V285H196.064ZM243.314 285H243.708V284.606H243.314V285ZM243.314 332.25V331.856H211.422V332.25V332.644H243.314V332.25ZM211.422 332.25H211.028V365.719H211.422H211.816V332.25H211.422ZM211.422 365.719V365.325H164.172V365.719V366.112H211.422V365.719ZM164.172 365.719H164.566V318.469H164.172H163.778V365.719H164.172ZM164.172 318.469V318.862H196.064V318.469V318.075H164.172V318.469ZM196.064 318.469H196.458V285H196.064H195.671V318.469H196.064ZM196.064 285V285.394H243.314V285V284.606H196.064V285ZM243.314 285H242.921V332.25H243.314H243.708V285H243.314Z" fill="black" mask="url(#path-71-inside-29_1305_1469)"/>
<mask id="path-73-inside-30_1305_1469" fill="white">
<path d="M288.986 332.25H257.094V365.719H209.844V318.469H241.736V285H288.986V332.25Z"/>
</mask>
<path d="M288.986 332.25H257.094V365.719H209.844V318.469H241.736V285H288.986V332.25Z" fill="#77E9A5"/>
<path d="M288.986 332.25V332.644H289.38V332.25H288.986ZM257.094 332.25V331.856H256.7V332.25H257.094ZM257.094 365.719V366.112H257.487V365.719H257.094ZM209.844 365.719H209.45V366.112H209.844V365.719ZM209.844 318.469V318.075H209.45V318.469H209.844ZM241.736 318.469V318.862H242.13V318.469H241.736ZM241.736 285V284.606H241.343V285H241.736ZM288.986 285H289.38V284.606H288.986V285ZM288.986 332.25V331.856H257.094V332.25V332.644H288.986V332.25ZM257.094 332.25H256.7V365.719H257.094H257.487V332.25H257.094ZM257.094 365.719V365.325H209.844V365.719V366.112H257.094V365.719ZM209.844 365.719H210.237V318.469H209.844H209.45V365.719H209.844ZM209.844 318.469V318.862H241.736V318.469V318.075H209.844V318.469ZM241.736 318.469H242.13V285H241.736H241.343V318.469H241.736ZM241.736 285V285.394H288.986V285V284.606H241.736V285ZM288.986 285H288.593V332.25H288.986H289.38V285H288.986Z" fill="black" mask="url(#path-73-inside-30_1305_1469)"/>
<mask id="path-75-inside-31_1305_1469" fill="white">
<path d="M333.482 332.25H301.59V365.719H254.34V318.469H286.232V285H333.482V332.25Z"/>
</mask>
<path d="M333.482 332.25H301.59V365.719H254.34V318.469H286.232V285H333.482V332.25Z" fill="#00B84A"/>
<path d="M333.482 332.25V332.644H333.876V332.25H333.482ZM301.59 332.25V331.856H301.196V332.25H301.59ZM301.59 365.719V366.112H301.984V365.719H301.59ZM254.34 365.719H253.946V366.112H254.34V365.719ZM254.34 318.469V318.075H253.946V318.469H254.34ZM286.232 318.469V318.862H286.626V318.469H286.232ZM286.232 285V284.606H285.839V285H286.232ZM333.482 285H333.876V284.606H333.482V285ZM333.482 332.25V331.856H301.59V332.25V332.644H333.482V332.25ZM301.59 332.25H301.196V365.719H301.59H301.984V332.25H301.59ZM301.59 365.719V365.325H254.34V365.719V366.112H301.59V365.719ZM254.34 365.719H254.734V318.469H254.34H253.946V365.719H254.34ZM254.34 318.469V318.862H286.232V318.469V318.075H254.34V318.469ZM286.232 318.469H286.626V285H286.232H285.839V318.469H286.232ZM286.232 285V285.394H333.482V285V284.606H286.232V285ZM333.482 285H333.089V332.25H333.482H333.876V285H333.482Z" fill="black" mask="url(#path-75-inside-31_1305_1469)"/>
<mask id="path-77-inside-32_1305_1469" fill="white">
<path d="M18.4824 332.25H-13.4102V365.719H-60.6602V318.469H-28.7676V285H18.4824V332.25Z"/>
</mask>
<path d="M18.4824 332.25H-13.4102V365.719H-60.6602V318.469H-28.7676V285H18.4824V332.25Z" fill="#77E9A5"/>
<path d="M18.4824 332.25V332.644H18.8762V332.25H18.4824ZM-13.4102 332.25V331.856H-13.8039V332.25H-13.4102ZM-13.4102 365.719V366.112H-13.0164V365.719H-13.4102ZM-60.6602 365.719H-61.0539V366.112H-60.6602V365.719ZM-60.6602 318.469V318.075H-61.0539V318.469H-60.6602ZM-28.7676 318.469V318.862H-28.3738V318.469H-28.7676ZM-28.7676 285V284.606H-29.1613V285H-28.7676ZM18.4824 285H18.8762V284.606H18.4824V285ZM18.4824 332.25V331.856H-13.4102V332.25V332.644H18.4824V332.25ZM-13.4102 332.25H-13.8039V365.719H-13.4102H-13.0164V332.25H-13.4102ZM-13.4102 365.719V365.325H-60.6602V365.719V366.112H-13.4102V365.719ZM-60.6602 365.719H-60.2664V318.469H-60.6602H-61.0539V365.719H-60.6602ZM-60.6602 318.469V318.862H-28.7676V318.469V318.075H-60.6602V318.469ZM-28.7676 318.469H-28.3738V285H-28.7676H-29.1613V318.469H-28.7676ZM-28.7676 285V285.394H18.4824V285V284.606H-28.7676V285ZM18.4824 285H18.0887V332.25H18.4824H18.8762V285H18.4824Z" fill="black" mask="url(#path-77-inside-32_1305_1469)"/>
<mask id="path-79-inside-33_1305_1469" fill="white">
<path d="M62.9707 332.25H31.0781V365.719H-16.1719V318.469H15.7207V285H62.9707V332.25Z"/>
</mask>
<path d="M62.9707 332.25H31.0781V365.719H-16.1719V318.469H15.7207V285H62.9707V332.25Z" fill="#00B84A"/>
<path d="M62.9707 332.25V332.644H63.3645V332.25H62.9707ZM31.0781 332.25V331.856H30.6844V332.25H31.0781ZM31.0781 365.719V366.112H31.4719V365.719H31.0781ZM-16.1719 365.719H-16.5656V366.112H-16.1719V365.719ZM-16.1719 318.469V318.075H-16.5656V318.469H-16.1719ZM15.7207 318.469V318.862H16.1145V318.469H15.7207ZM15.7207 285V284.606H15.327V285H15.7207ZM62.9707 285H63.3645V284.606H62.9707V285ZM62.9707 332.25V331.856H31.0781V332.25V332.644H62.9707V332.25ZM31.0781 332.25H30.6844V365.719H31.0781H31.4719V332.25H31.0781ZM31.0781 365.719V365.325H-16.1719V365.719V366.112H31.0781V365.719ZM-16.1719 365.719H-15.7781V318.469H-16.1719H-16.5656V365.719H-16.1719ZM-16.1719 318.469V318.862H15.7207V318.469V318.075H-16.1719V318.469ZM15.7207 318.469H16.1145V285H15.7207H15.327V318.469H15.7207ZM15.7207 285V285.394H62.9707V285V284.606H15.7207V285ZM62.9707 285H62.577V332.25H62.9707H63.3645V285H62.9707Z" fill="black" mask="url(#path-79-inside-33_1305_1469)"/>
<mask id="path-81-inside-34_1305_1469" fill="white">
<path d="M108.65 332.25H76.7578V365.719H29.5078V318.469H61.4004V285H108.65V332.25Z"/>
</mask>
<path d="M108.65 332.25H76.7578V365.719H29.5078V318.469H61.4004V285H108.65V332.25Z" fill="#77E9A5"/>
<path d="M108.65 332.25V332.644H109.044V332.25H108.65ZM76.7578 332.25V331.856H76.3641V332.25H76.7578ZM76.7578 365.719V366.112H77.1516V365.719H76.7578ZM29.5078 365.719H29.1141V366.112H29.5078V365.719ZM29.5078 318.469V318.075H29.1141V318.469H29.5078ZM61.4004 318.469V318.862H61.7941V318.469H61.4004ZM61.4004 285V284.606H61.0066V285H61.4004ZM108.65 285H109.044V284.606H108.65V285ZM108.65 332.25V331.856H76.7578V332.25V332.644H108.65V332.25ZM76.7578 332.25H76.3641V365.719H76.7578H77.1516V332.25H76.7578ZM76.7578 365.719V365.325H29.5078V365.719V366.112H76.7578V365.719ZM29.5078 365.719H29.9016V318.469H29.5078H29.1141V365.719H29.5078ZM29.5078 318.469V318.862H61.4004V318.469V318.075H29.5078V318.469ZM61.4004 318.469H61.7941V285H61.4004H61.0066V318.469H61.4004ZM61.4004 285V285.394H108.65V285V284.606H61.4004V285ZM108.65 285H108.257V332.25H108.65H109.044V285H108.65Z" fill="black" mask="url(#path-81-inside-34_1305_1469)"/>
<mask id="path-83-inside-35_1305_1469" fill="white">
<path d="M153.143 332.25H121.25V365.719H74V318.469H105.893V285H153.143V332.25Z"/>
</mask>
<path d="M153.143 332.25H121.25V365.719H74V318.469H105.893V285H153.143V332.25Z" fill="#00B84A"/>
<path d="M153.143 332.25V332.644H153.536V332.25H153.143ZM121.25 332.25V331.856H120.856V332.25H121.25ZM121.25 365.719V366.112H121.644V365.719H121.25ZM74 365.719H73.6063V366.112H74V365.719ZM74 318.469V318.075H73.6063V318.469H74ZM105.893 318.469V318.862H106.286V318.469H105.893ZM105.893 285V284.606H105.499V285H105.893ZM153.143 285H153.536V284.606H153.143V285ZM153.143 332.25V331.856H121.25V332.25V332.644H153.143V332.25ZM121.25 332.25H120.856V365.719H121.25H121.644V332.25H121.25ZM121.25 365.719V365.325H74V365.719V366.112H121.25V365.719ZM74 365.719H74.3937V318.469H74H73.6063V365.719H74ZM74 318.469V318.862H105.893V318.469V318.075H74V318.469ZM105.893 318.469H106.286V285H105.893H105.499V318.469H105.893ZM105.893 285V285.394H153.143V285V284.606H105.893V285ZM153.143 285H152.749V332.25H153.143H153.536V285H153.143Z" fill="black" mask="url(#path-83-inside-35_1305_1469)"/>
</svg>
