<svg width="440" height="348" viewBox="0 0 440 348" fill="none" xmlns="http://www.w3.org/2000/svg">
<line x1="229.751" y1="1.394" x2="182.076" y2="72.3685" stroke="black" stroke-width="5"/>
<line x1="245.939" y1="12.268" x2="198.264" y2="83.2425" stroke="black" stroke-width="5"/>
<line x1="263.372" y1="23.977" x2="215.697" y2="94.9515" stroke="black" stroke-width="5"/>
<line x1="280.388" y1="35.4077" x2="232.713" y2="106.382" stroke="black" stroke-width="5"/>
<line x1="266.297" y1="77.4464" x2="195.323" y2="29.7717" stroke="black" stroke-width="5"/>
<line x1="229.175" y1="50.0344" x2="206.175" y2="156.534" stroke="black" stroke-width="2.5"/>
<line x1="261.957" y1="157.021" x2="205.448" y2="157.021" stroke="black" stroke-width="2.5"/>
<rect x="278.679" y="138.567" width="40" height="531.697" transform="rotate(30 278.679 138.567)" fill="#FACA0A" stroke="black"/>
<rect x="324.531" y="138.683" width="40" height="531.697" transform="rotate(30 324.531 138.683)" fill="white" stroke="black"/>
<rect x="367.531" y="138.683" width="40" height="531.697" transform="rotate(30 367.531 138.683)" fill="#FACA0A" stroke="black"/>
<rect x="413.382" y="138.799" width="40" height="531.697" transform="rotate(30 413.382 138.799)" fill="white" stroke="black"/>
<rect x="459.531" y="138.683" width="40" height="531.697" transform="rotate(30 459.531 138.683)" fill="#FACA0A" stroke="black"/>
<rect x="505.382" y="138.799" width="40" height="531.697" transform="rotate(30 505.382 138.799)" fill="white" stroke="black"/>
<rect x="548.382" y="138.799" width="40" height="531.697" transform="rotate(30 548.382 138.799)" fill="#FACA0A" stroke="black"/>
<rect x="594.234" y="138.915" width="40" height="531.697" transform="rotate(30 594.234 138.915)" fill="white" stroke="black"/>
<rect x="639.531" y="138.683" width="40" height="531.697" transform="rotate(30 639.531 138.683)" fill="#FACA0A" stroke="black"/>
<rect x="685.382" y="138.799" width="40" height="531.697" transform="rotate(30 685.382 138.799)" fill="white" stroke="black"/>
<rect x="6.23379" y="136.915" width="40" height="531.697" transform="rotate(30 6.23379 136.915)" fill="#FACA0A" stroke="black"/>
<rect x="52.0854" y="137.032" width="40" height="531.697" transform="rotate(30 52.0854 137.032)" fill="white" stroke="black"/>
<rect x="98.2338" y="136.915" width="40" height="531.697" transform="rotate(30 98.2338 136.915)" fill="#FACA0A" stroke="black"/>
<rect x="144.085" y="137.032" width="40" height="531.697" transform="rotate(30 144.085 137.032)" fill="white" stroke="black"/>
<rect x="187.085" y="137.032" width="40" height="531.697" transform="rotate(30 187.085 137.032)" fill="#FACA0A" stroke="black"/>
<rect x="232.937" y="137.148" width="40" height="531.697" transform="rotate(30 232.937 137.148)" fill="white" stroke="black"/>
</svg>
