<svg width="440" height="480" viewBox="0 0 440 480" fill="none" xmlns="http://www.w3.org/2000/svg">
<line x1="217.023" y1="147" x2="217.023" y2="409" stroke="black" stroke-width="10"/>
<path d="M282.193 90.7793L250.198 146.684L183.891 145.86L149.595 89.106L181.591 33.2015L247.898 34.025L282.193 90.7793Z" fill="#C1121F" stroke="black"/>
<path d="M268.932 90.6115L243.335 135.335L190.29 134.676L162.854 89.2731L188.45 44.5497L241.495 45.2083L268.932 90.6115Z" fill="white" stroke="black" stroke-width="0.8"/>
<path d="M202.023 113V78.5C202.023 74.9196 203.446 71.4858 205.977 68.9541C208.509 66.4223 211.943 65 215.523 65C219.104 65 222.538 66.4223 225.069 68.9541C227.601 71.4858 229.023 74.9196 229.023 78.5V104" stroke="black" stroke-width="6" stroke-linecap="round" stroke-linejoin="round"/>
<path d="M220.023 95L229.023 104L238.023 95" stroke="black" stroke-width="6" stroke-linecap="round" stroke-linejoin="round"/>
<path d="M518 642.5C491.768 642.5 467.899 622.333 450.56 589.46C433.232 556.61 422.5 511.193 422.5 461C422.5 410.807 433.232 365.39 450.56 332.54C467.899 299.667 491.768 279.5 518 279.5C544.232 279.5 568.101 299.667 585.44 332.54C602.768 365.39 613.5 410.807 613.5 461C613.5 511.193 602.768 556.61 585.44 589.46C568.101 622.333 544.232 642.5 518 642.5Z" fill="#004F80" stroke="black"/>
<path d="M445 642.5C418.768 642.5 394.899 622.333 377.56 589.46C360.232 556.61 349.5 511.193 349.5 461C349.5 410.807 360.232 365.39 377.56 332.54C394.899 299.667 418.768 279.5 445 279.5C471.232 279.5 495.101 299.667 512.44 332.54C529.768 365.39 540.5 410.807 540.5 461C540.5 511.193 529.768 556.61 512.44 589.46C495.101 622.333 471.232 642.5 445 642.5Z" fill="#C1121F" stroke="black"/>
<path d="M386 642.5C359.768 642.5 335.899 622.333 318.56 589.46C301.232 556.61 290.5 511.193 290.5 461C290.5 410.807 301.232 365.39 318.56 332.54C335.899 299.667 359.768 279.5 386 279.5C412.232 279.5 436.101 299.667 453.44 332.54C470.768 365.39 481.5 410.807 481.5 461C481.5 511.193 470.768 556.61 453.44 589.46C436.101 622.333 412.232 642.5 386 642.5Z" fill="#004F80" stroke="black"/>
<path d="M313 642.5C286.768 642.5 262.899 622.333 245.56 589.46C228.232 556.61 217.5 511.193 217.5 461C217.5 410.807 228.232 365.39 245.56 332.54C262.899 299.667 286.768 279.5 313 279.5C339.232 279.5 363.101 299.667 380.44 332.54C397.768 365.39 408.5 410.807 408.5 461C408.5 511.193 397.768 556.61 380.44 589.46C363.101 622.333 339.232 642.5 313 642.5Z" fill="#C1121F" stroke="black"/>
<path d="M253 642.5C226.768 642.5 202.899 622.333 185.56 589.46C168.232 556.61 157.5 511.193 157.5 461C157.5 410.807 168.232 365.39 185.56 332.54C202.899 299.667 226.768 279.5 253 279.5C279.232 279.5 303.101 299.667 320.44 332.54C337.768 365.39 348.5 410.807 348.5 461C348.5 511.193 337.768 556.61 320.44 589.46C303.101 622.333 279.232 642.5 253 642.5Z" fill="#004F80" stroke="black"/>
<path d="M180 642.5C153.768 642.5 129.899 622.333 112.56 589.46C95.2321 556.61 84.5 511.193 84.5 461C84.5 410.807 95.2321 365.39 112.56 332.54C129.899 299.667 153.768 279.5 180 279.5C206.232 279.5 230.101 299.667 247.44 332.54C264.768 365.39 275.5 410.807 275.5 461C275.5 511.193 264.768 556.61 247.44 589.46C230.101 622.333 206.232 642.5 180 642.5Z" fill="#C1121F" stroke="black"/>
<path d="M489 740.5C462.768 740.5 438.899 720.333 421.56 687.46C404.232 654.61 393.5 609.193 393.5 559C393.5 508.807 404.232 463.39 421.56 430.54C438.899 397.667 462.768 377.5 489 377.5C515.232 377.5 539.101 397.667 556.44 430.54C573.768 463.39 584.5 508.807 584.5 559C584.5 609.193 573.768 654.61 556.44 687.46C539.101 720.333 515.232 740.5 489 740.5Z" fill="#004F80" stroke="black"/>
<path d="M416 740.5C389.768 740.5 365.899 720.333 348.56 687.46C331.232 654.61 320.5 609.193 320.5 559C320.5 508.807 331.232 463.39 348.56 430.54C365.899 397.667 389.768 377.5 416 377.5C442.232 377.5 466.101 397.667 483.44 430.54C500.768 463.39 511.5 508.807 511.5 559C511.5 609.193 500.768 654.61 483.44 687.46C466.101 720.333 442.232 740.5 416 740.5Z" fill="#C1121F" stroke="black"/>
<path d="M356 740.5C329.768 740.5 305.899 720.333 288.56 687.46C271.232 654.61 260.5 609.193 260.5 559C260.5 508.807 271.232 463.39 288.56 430.54C305.899 397.667 329.768 377.5 356 377.5C382.232 377.5 406.101 397.667 423.44 430.54C440.768 463.39 451.5 508.807 451.5 559C451.5 609.193 440.768 654.61 423.44 687.46C406.101 720.333 382.232 740.5 356 740.5Z" fill="#004F80" stroke="black"/>
<path d="M283 740.5C256.768 740.5 232.899 720.333 215.56 687.46C198.232 654.61 187.5 609.193 187.5 559C187.5 508.807 198.232 463.39 215.56 430.54C232.899 397.667 256.768 377.5 283 377.5C309.232 377.5 333.101 397.667 350.44 430.54C367.768 463.39 378.5 508.807 378.5 559C378.5 609.193 367.768 654.61 350.44 687.46C333.101 720.333 309.232 740.5 283 740.5Z" fill="#C1121F" stroke="black"/>
<path d="M121 642.5C94.7678 642.5 70.8992 622.333 53.5596 589.46C36.2321 556.61 25.5 511.193 25.5 461C25.5 410.807 36.2321 365.39 53.5596 332.54C70.8992 299.667 94.7678 279.5 121 279.5C147.232 279.5 171.101 299.667 188.44 332.54C205.768 365.39 216.5 410.807 216.5 461C216.5 511.193 205.768 556.61 188.44 589.46C171.101 622.333 147.232 642.5 121 642.5Z" fill="#004F80" stroke="black"/>
<path d="M48 642.5C21.7678 642.5 -2.10082 622.333 -19.4404 589.46C-36.7679 556.61 -47.5 511.193 -47.5 461C-47.5 410.807 -36.7679 365.39 -19.4404 332.54C-2.10082 299.667 21.7678 279.5 48 279.5C74.2322 279.5 98.1008 299.667 115.44 332.54C132.768 365.39 143.5 410.807 143.5 461C143.5 511.193 132.768 556.61 115.44 589.46C98.1008 622.333 74.2322 642.5 48 642.5Z" fill="#C1121F" stroke="black"/>
<path d="M-12 642.5C-38.2322 642.5 -62.1008 622.333 -79.4404 589.46C-96.7679 556.61 -107.5 511.193 -107.5 461C-107.5 410.807 -96.7679 365.39 -79.4404 332.54C-62.1008 299.667 -38.2322 279.5 -12 279.5C14.2322 279.5 38.1008 299.667 55.4404 332.54C72.7679 365.39 83.5 410.807 83.5 461C83.5 511.193 72.7679 556.61 55.4404 589.46C38.1008 622.333 14.2322 642.5 -12 642.5Z" fill="#004F80" stroke="black"/>
<path d="M-85 642.5C-111.232 642.5 -135.101 622.333 -152.44 589.46C-169.768 556.61 -180.5 511.193 -180.5 461C-180.5 410.807 -169.768 365.39 -152.44 332.54C-135.101 299.667 -111.232 279.5 -85 279.5C-58.7678 279.5 -34.8992 299.667 -17.5596 332.54C-0.232099 365.39 10.5 410.807 10.5 461C10.5 511.193 -0.232099 556.61 -17.5596 589.46C-34.8992 622.333 -58.7678 642.5 -85 642.5Z" fill="#C1121F" stroke="black"/>
<path d="M224 740.5C197.768 740.5 173.899 720.333 156.56 687.46C139.232 654.61 128.5 609.193 128.5 559C128.5 508.807 139.232 463.39 156.56 430.54C173.899 397.667 197.768 377.5 224 377.5C250.232 377.5 274.101 397.667 291.44 430.54C308.768 463.39 319.5 508.807 319.5 559C319.5 609.193 308.768 654.61 291.44 687.46C274.101 720.333 250.232 740.5 224 740.5Z" fill="#004F80" stroke="black"/>
<path d="M151 740.5C124.768 740.5 100.899 720.333 83.5596 687.46C66.2321 654.61 55.5 609.193 55.5 559C55.5 508.807 66.2321 463.39 83.5596 430.54C100.899 397.667 124.768 377.5 151 377.5C177.232 377.5 201.101 397.667 218.44 430.54C235.768 463.39 246.5 508.807 246.5 559C246.5 609.193 235.768 654.61 218.44 687.46C201.101 720.333 177.232 740.5 151 740.5Z" fill="#C1121F" stroke="black"/>
<path d="M91 740.5C64.7678 740.5 40.8992 720.333 23.5596 687.46C6.2321 654.61 -4.5 609.193 -4.5 559C-4.5 508.807 6.2321 463.39 23.5596 430.54C40.8992 397.667 64.7678 377.5 91 377.5C117.232 377.5 141.101 397.667 158.44 430.54C175.768 463.39 186.5 508.807 186.5 559C186.5 609.193 175.768 654.61 158.44 687.46C141.101 720.333 117.232 740.5 91 740.5Z" fill="#004F80" stroke="black"/>
<path d="M18 740.5C-8.23225 740.5 -32.1008 720.333 -49.4404 687.46C-66.7679 654.61 -77.5 609.193 -77.5 559C-77.5 508.807 -66.7679 463.39 -49.4404 430.54C-32.1008 397.667 -8.23225 377.5 18 377.5C44.2322 377.5 68.1008 397.667 85.4404 430.54C102.768 463.39 113.5 508.807 113.5 559C113.5 609.193 102.768 654.61 85.4404 687.46C68.1008 720.333 44.2322 740.5 18 740.5Z" fill="#C1121F" stroke="black"/>
<path d="M-41 740.5C-67.2322 740.5 -91.1008 720.333 -108.44 687.46C-125.768 654.61 -136.5 609.193 -136.5 559C-136.5 508.807 -125.768 463.39 -108.44 430.54C-91.1008 397.667 -67.2322 377.5 -41 377.5C-14.7678 377.5 9.10082 397.667 26.4404 430.54C43.7679 463.39 54.5 508.807 54.5 559C54.5 609.193 43.7679 654.61 26.4404 687.46C9.10082 720.333 -14.7678 740.5 -41 740.5Z" fill="#004F80" stroke="black"/>
</svg>
