<svg width="78" height="78" viewBox="0 0 78 78" fill="none" xmlns="http://www.w3.org/2000/svg">
<rect x="39.446" y="0.530282" width="53.3788" height="54.3074" rx="2.0625" transform="rotate(45.7727 39.446 0.530282)" fill="#49A359" stroke="black" stroke-width="0.75"/>
<circle cx="39.5" cy="38.5" r="16" fill="white" stroke="black"/>
<path d="M34.676 44.8114C34.5463 44.836 34.4314 44.8205 34.3313 44.7648C34.2284 44.6947 34.1633 44.5876 34.136 44.4435C34.1087 44.2994 34.0814 44.1553 34.0541 44.0112C34.0268 43.8671 33.9995 43.723 33.9722 43.5789C33.8836 42.9538 33.9167 42.3803 34.0716 41.8583C34.2265 41.3364 34.44 40.8481 34.7121 40.3935C34.9986 39.9361 35.2893 39.5004 35.584 39.0863C35.876 38.6578 36.1103 38.2402 36.287 37.8335C36.4782 37.4241 36.5643 37.0122 36.5455 36.5978C36.5049 36.0681 36.3221 35.6549 35.9971 35.3582C35.6695 35.0471 35.2646 34.8402 34.7824 34.7375C34.3001 34.6348 33.8213 34.6285 33.3457 34.7186C32.582 34.8633 31.9645 35.1893 31.4934 35.6966C31.034 36.1867 30.8065 36.9164 30.8111 37.8859C30.8006 38.067 30.7518 38.2031 30.6645 38.2943C30.5773 38.3855 30.4689 38.4433 30.3392 38.4679L29.3016 38.6645C29.1719 38.6891 29.0485 38.6677 28.9312 38.6003C28.8284 38.5303 28.7633 38.4232 28.736 38.2791C28.6384 37.6855 28.6616 37.0989 28.8056 36.5193C28.9495 35.9397 29.2066 35.4059 29.5769 34.9178C29.9616 34.4269 30.4419 34.0075 31.0178 33.6595C31.6055 33.2944 32.2884 33.0381 33.0665 32.8906C33.9456 32.7241 34.7181 32.7046 35.3842 32.8322C36.0619 32.9426 36.6263 33.164 37.0774 33.4965C37.5402 33.8119 37.9032 34.1909 38.1662 34.6337C38.4292 35.0765 38.5914 35.5384 38.6527 36.0194C38.7187 36.604 38.6729 37.15 38.5153 37.6576C38.3549 38.1507 38.1387 38.6246 37.8666 39.0792C37.5917 39.5194 37.3097 39.961 37.0204 40.4039C36.7428 40.8297 36.5126 41.2689 36.3296 41.7215C36.1584 42.157 36.102 42.6081 36.1606 43.0747C36.1762 43.2359 36.1918 43.3972 36.2075 43.5584C36.2348 43.7025 36.2621 43.8466 36.2894 43.9907C36.2906 44.1547 36.2562 44.2881 36.1861 44.3909C36.116 44.4938 36.0017 44.5602 35.8432 44.5903L34.676 44.8114ZM35.1747 48.3891C35.0306 48.4164 34.9 48.3964 34.7827 48.329C34.6771 48.2446 34.6107 48.1303 34.5834 47.9862L34.3335 46.6676C34.3062 46.5235 34.3276 46.4 34.3977 46.2972C34.4795 46.1772 34.5924 46.1036 34.7365 46.0763L36.1415 45.81C36.3 45.78 36.4321 45.8072 36.5376 45.8917C36.6549 45.9591 36.7272 46.0648 36.7545 46.2089L37.0043 47.5274C37.0316 47.6715 37.0044 47.8036 36.9226 47.9236C36.8526 48.0264 36.7383 48.0929 36.5797 48.1229L35.1747 48.3891Z" fill="black"/>
<path d="M43.4917 40.511C43.3467 40.4891 43.23 40.427 43.1416 40.3246C43.0699 40.21 43.045 40.0801 43.0669 39.9351L44.6695 29.3194C44.6914 29.1744 44.7525 29.0649 44.8526 28.991C44.9694 28.9049 45.1004 28.8727 45.2454 28.8946L46.2678 29.0489C46.4128 29.0708 46.5212 29.1391 46.5929 29.2538C46.6668 29.3539 46.6928 29.4765 46.6709 29.6215L45.0683 40.2372C45.0464 40.3823 44.9842 40.499 44.8819 40.5873C44.7818 40.6612 44.6592 40.6872 44.5141 40.6653L43.4917 40.511ZM42.7508 44.0925C42.6058 44.0706 42.4891 44.0085 42.4007 43.9062C42.329 43.7915 42.3041 43.6617 42.326 43.5166L42.5329 42.1462C42.557 41.9866 42.6191 41.8699 42.7192 41.7961C42.8361 41.7099 42.967 41.6777 43.112 41.6996L44.5043 41.9098C44.6493 41.9317 44.7576 42 44.8293 42.1146C44.9177 42.217 44.9499 42.3479 44.9258 42.5074L44.7189 43.8779C44.697 44.0229 44.6276 44.1385 44.5108 44.2247C44.4106 44.2986 44.288 44.3246 44.143 44.3027L42.7508 44.0925Z" fill="black"/>
</svg>
