<svg width="72" height="70" viewBox="0 0 72 70" fill="none" xmlns="http://www.w3.org/2000/svg">
<rect x="21.8636" y="2.18589" width="21.1042" height="21.1042" transform="rotate(87.0621 21.8636 2.18589)" fill="#198F0F" stroke="black" stroke-width="1.5"/>
<mask id="path-2-inside-1_1367_20" fill="white">
<path d="M69.2314 38.9912L40.4785 40.3379L41.7725 67.9473L1.82031 69.8184L0 30.9453L29.9092 29.543L28.6211 2.01465L67.4141 0.198242L69.2314 38.9912Z"/>
</mask>
<path d="M69.2314 38.9912L40.4785 40.3379L41.7725 67.9473L1.82031 69.8184L0 30.9453L29.9092 29.543L28.6211 2.01465L67.4141 0.198242L69.2314 38.9912Z" fill="#EAFF00"/>
<path d="M69.2314 38.9912L69.3016 40.4896L70.8 40.4194L70.7298 38.921L69.2314 38.9912ZM40.4785 40.3379L40.4083 38.8395L38.9099 38.9097L38.9802 40.4081L40.4785 40.3379ZM41.7725 67.9473L41.8426 69.4456L43.341 69.3754L43.2708 67.877L41.7725 67.9473ZM1.82031 69.8184L0.321954 69.8885L0.392119 71.3869L1.89049 71.3167L1.82031 69.8184ZM0 30.9453L-0.0702529 29.447L-1.56852 29.5172L-1.49836 31.0155L0 30.9453ZM29.9092 29.543L29.9794 31.0413L31.4776 30.9711L31.4075 29.4729L29.9092 29.543ZM28.6211 2.01465L28.5509 0.51629L27.0526 0.586446L27.1227 2.08476L28.6211 2.01465ZM67.4141 0.198242L68.9124 0.128047L68.8422 -1.37027L67.3439 -1.30012L67.4141 0.198242ZM69.2314 38.9912L69.1613 37.4929L40.4083 38.8395L40.4785 40.3379L40.5487 41.8362L69.3016 40.4896L69.2314 38.9912ZM40.4785 40.3379L38.9802 40.4081L40.2741 68.0175L41.7725 67.9473L43.2708 67.877L41.9769 40.2677L40.4785 40.3379ZM41.7725 67.9473L41.7023 66.4489L1.75014 68.32L1.82031 69.8184L1.89049 71.3167L41.8426 69.4456L41.7725 67.9473ZM1.82031 69.8184L3.31867 69.7482L1.49836 30.8751L0 30.9453L-1.49836 31.0155L0.321954 69.8885L1.82031 69.8184ZM0 30.9453L0.0702529 32.4437L29.9794 31.0413L29.9092 29.543L29.8389 28.0446L-0.0702529 29.447L0 30.9453ZM29.9092 29.543L31.4075 29.4729L30.1195 1.94454L28.6211 2.01465L27.1227 2.08476L28.4108 29.6131L29.9092 29.543ZM28.6211 2.01465L28.6913 3.51301L67.4842 1.6966L67.4141 0.198242L67.3439 -1.30012L28.5509 0.51629L28.6211 2.01465ZM67.4141 0.198242L65.9157 0.268438L67.7331 39.0614L69.2314 38.9912L70.7298 38.921L68.9124 0.128047L67.4141 0.198242Z" fill="black" mask="url(#path-2-inside-1_1367_20)"/>
<circle cx="60" cy="56.5986" r="11.25" fill="#198F0F" stroke="black" stroke-width="1.5"/>
</svg>
