<svg width="104" height="104" viewBox="0 0 104 104" fill="none" xmlns="http://www.w3.org/2000/svg">
<rect x="0.5" y="0.5" width="103" height="103" rx="2.75" fill="white" stroke="black"/>
<path d="M51.3652 7.99121C51.5175 7.48693 52.2315 7.48693 52.3838 7.99121L56.8457 22.7646C57.2095 23.9693 58.7587 24.2983 59.5811 23.3457L69.666 11.6641C70.0102 11.2654 70.6624 11.5557 70.5967 12.0781L68.6631 27.3896C68.5055 28.6381 69.7871 29.569 70.9258 29.0332L84.8906 22.4639C85.3672 22.2398 85.8451 22.7701 85.5723 23.2207L77.5781 36.4209C76.9263 37.4973 77.7184 38.87 78.9766 38.8438L94.4062 38.5215C94.9326 38.5109 95.1531 39.1897 94.7207 39.4902L82.0488 48.2979C81.0155 49.0161 81.1807 50.5924 82.3408 51.0801L96.5674 57.0615C97.0528 57.2658 96.9783 57.9755 96.4609 58.0742L81.3018 60.9668C80.0656 61.2027 79.5761 62.7096 80.4375 63.627L91.001 74.877C91.3615 75.2609 91.0049 75.8797 90.4922 75.7598L75.4668 72.2363C74.2417 71.9491 73.1813 73.1261 73.5947 74.3145L78.6699 88.8896C78.8427 89.3869 78.2652 89.8065 77.8457 89.4883L65.5527 80.1582C64.5503 79.3974 63.1024 80.0419 62.9971 81.2959L61.7051 96.6738C61.661 97.1988 60.9628 97.3473 60.709 96.8857L53.2734 83.3623C52.6671 82.2598 51.0829 82.2599 50.4766 83.3623L43.041 96.8857C42.7872 97.3474 42.089 97.1987 42.0449 96.6738L40.7529 81.2959C40.6476 80.0419 39.1997 79.3974 38.1973 80.1582L25.9043 89.4883C25.4848 89.8067 24.9072 89.387 25.0801 88.8896L30.1543 74.3145C30.5679 73.1261 29.5083 71.9491 28.2832 72.2363L13.2578 75.7598C12.745 75.8799 12.3885 75.2609 12.749 74.877L23.3125 63.627C24.1739 62.7096 23.6843 61.2027 22.4482 60.9668L7.28906 58.0742C6.77162 57.9755 6.69702 57.2657 7.18262 57.0615L21.4092 51.0801C22.5692 50.5923 22.7345 49.0161 21.7012 48.2979L9.0293 39.4902C8.59682 39.1896 8.81727 38.5107 9.34375 38.5215L24.7734 38.8438C26.0316 38.87 26.8237 37.4973 26.1719 36.4209L18.1777 23.2207C17.9049 22.7701 18.3827 22.2396 18.8594 22.4639L32.8242 29.0332C33.9628 29.5688 35.2445 28.6381 35.0869 27.3896L33.1533 12.0781C33.0876 11.5557 33.7398 11.2654 34.084 11.6641L44.168 23.3457C44.9903 24.2983 46.5405 23.9693 46.9043 22.7646L51.3652 7.99121Z" fill="#5B85AB" stroke="black" stroke-width="1.064"/>
<path d="M51.2256 20.5293C51.3344 20.1691 51.8444 20.1691 51.9531 20.5293L55.1406 31.082C55.4007 31.9422 56.5074 32.1774 57.0947 31.4971L64.2979 23.1523C64.5438 22.868 65.009 23.0761 64.9619 23.4492L63.5811 34.3857C63.4688 35.2772 64.3841 35.9419 65.1973 35.5596L75.1719 30.8662C75.5123 30.706 75.8539 31.0854 75.6592 31.4072L69.9492 40.8369C69.4838 41.6058 70.0496 42.5852 70.9482 42.5664L81.9688 42.3369C82.3449 42.3291 82.5023 42.8136 82.1934 43.0283L73.1426 49.3203C72.4045 49.8333 72.5229 50.9583 73.3516 51.3066L83.5127 55.5791C83.8595 55.7249 83.8061 56.2322 83.4365 56.3027L72.6084 58.3691C71.7258 58.5379 71.376 59.6144 71.9912 60.2695L79.5371 68.3047C79.7947 68.579 79.5392 69.0214 79.1729 68.9355L68.4414 66.4189C67.5663 66.2137 66.8089 67.0544 67.1045 67.9033L70.7285 78.3135C70.8522 78.6688 70.4403 78.9685 70.1406 78.7412L61.3594 72.0771C60.6434 71.5337 59.6094 71.9939 59.5342 72.8896L58.6113 83.874C58.5798 84.249 58.0807 84.3551 57.8994 84.0254L52.5889 74.3662C52.1558 73.5785 51.0239 73.5785 50.5908 74.3662L45.2793 84.0254C45.098 84.355 44.5999 84.2489 44.5684 83.874L43.6455 72.8896C43.5703 71.994 42.5363 71.5339 41.8203 72.0771L33.0391 78.7412C32.7393 78.9686 32.3265 78.6688 32.4502 78.3135L36.0752 67.9033C36.3708 67.0544 35.6134 66.2137 34.7383 66.4189L24.0059 68.9355C23.6397 69.021 23.3851 68.5789 23.6426 68.3047L31.1885 60.2695C31.8038 59.6142 31.4533 58.5376 30.5703 58.3691L19.7422 56.3027C19.373 56.2319 19.3203 55.7249 19.667 55.5791L29.8281 51.3066C30.6567 50.9583 30.7752 49.8334 30.0371 49.3203L20.9854 43.0283C20.6768 42.8135 20.8349 42.3291 21.2109 42.3369L32.2314 42.5664C33.13 42.5852 33.6958 41.6058 33.2305 40.8369L27.5205 31.4072C27.3256 31.0854 27.6674 30.706 28.0078 30.8662L37.9814 35.5596C38.7946 35.9422 39.7108 35.2773 39.5986 34.3857L38.2168 23.4492C38.1697 23.076 38.6359 22.8679 38.8818 23.1523L46.085 31.4971C46.6723 32.1774 47.779 31.9422 48.0391 31.082L51.2256 20.5293Z" fill="#FACA0A" stroke="black" stroke-width="0.76"/>
<circle cx="51.9703" cy="52.9703" r="11.4" fill="black"/>
</svg>
