<svg width="100" height="100" viewBox="0 0 73 73" fill="none" xmlns="http://www.w3.org/2000/svg">
<path d="M36.0303 2.74707C36.1445 2.36886 36.6807 2.36886 36.7949 2.74707L40.1406 13.8271C40.4135 14.7305 41.5756 14.9778 42.1924 14.2637L49.7559 5.50195C50.014 5.2029 50.5036 5.42055 50.4541 5.8125L49.0039 17.2959C48.8857 18.2323 49.8472 18.9311 50.7012 18.5293L61.1738 13.6016C61.5313 13.4334 61.89 13.831 61.6855 14.1689L55.6895 24.0693C55.2006 24.8766 55.7949 25.9062 56.7383 25.8867L68.3105 25.6445C68.7055 25.6363 68.8712 26.1456 68.5469 26.3711L59.043 32.9775C58.268 33.5162 58.3919 34.6976 59.2617 35.0635L69.9316 39.5498C70.2958 39.7029 70.2396 40.2355 69.8516 40.3096L58.4824 42.4785C57.5555 42.6555 57.1883 43.7856 57.834 44.4736L65.7568 52.9121C66.0272 53.2001 65.7596 53.6634 65.375 53.5732L54.1064 50.9307C53.1876 50.7152 52.393 51.598 52.7031 52.4893L56.5088 63.4209C56.6384 63.7938 56.2052 64.1086 55.8906 63.8701L46.6709 56.8721C45.9191 56.3015 44.8329 56.7851 44.7539 57.7256L43.7852 69.2598C43.7517 69.6531 43.2284 69.764 43.0381 69.418L37.4609 59.2754C37.0061 58.4487 35.8179 58.4484 35.3633 59.2754L29.7871 69.418C29.5968 69.764 29.0735 69.6531 29.04 69.2598L28.0703 57.7256C27.9913 56.7851 26.9061 56.3015 26.1543 56.8721L16.9346 63.8701C16.6199 64.1088 16.1867 63.7939 16.3164 63.4209L20.1221 52.4893C20.4321 51.5981 19.6375 50.7153 18.7188 50.9307L7.4502 53.5732C7.06574 53.6634 6.79762 53.2002 7.06738 52.9121L14.9912 44.4736C15.6368 43.7856 15.2695 42.6555 14.3428 42.4785L2.97266 40.3096C2.58485 40.2353 2.52945 39.7029 2.89355 39.5498L13.5635 35.0635C14.4332 34.6975 14.5571 33.5162 13.7822 32.9775L4.27832 26.3711C3.95391 26.1456 4.11966 25.6363 4.51465 25.6445L16.0859 25.8867C17.0296 25.9064 17.6246 24.8767 17.1357 24.0693L11.1396 14.1689C10.9351 13.831 11.2939 13.4334 11.6514 13.6016L22.124 18.5293C22.978 18.9311 23.9395 18.2323 23.8213 17.2959L22.3711 5.8125C22.3216 5.42053 22.8112 5.2029 23.0693 5.50195L30.6328 14.2637C31.2496 14.9777 32.4118 14.7305 32.6846 13.8271L36.0303 2.74707Z" fill="#5B85AB" stroke="black" stroke-width="0.798"/>
<path d="M35.9258 12.1514C36.0074 11.8812 36.3901 11.8812 36.4717 12.1514L38.8613 20.0654C39.0562 20.7108 39.8866 20.8873 40.3271 20.377L45.7295 14.1191C45.9139 13.9056 46.2637 14.061 46.2285 14.3408L45.1924 22.543C45.1079 23.2118 45.7943 23.7107 46.4043 23.4238L53.8857 19.9043C54.1409 19.7845 54.3966 20.0683 54.251 20.3096L49.9678 27.3818C49.6188 27.9585 50.0438 28.6938 50.7178 28.6797L58.9834 28.5068C59.2653 28.5012 59.383 28.8644 59.1514 29.0254L52.3633 33.7441C51.8098 34.1289 51.8982 34.973 52.5195 35.2344L60.1406 38.4385C60.4008 38.5478 60.3612 38.9286 60.084 38.9814L51.9629 40.5312C51.3008 40.6577 51.0386 41.4646 51.5 41.9561L57.1592 47.9834C57.3521 48.189 57.1612 48.52 56.8867 48.4561L48.8369 46.5684C48.1807 46.4146 47.6133 47.045 47.835 47.6816L50.5527 55.4893C50.6455 55.7558 50.3361 55.9812 50.1113 55.8105L43.5264 50.8125C42.9894 50.4049 42.2137 50.7501 42.1572 51.4219L41.4648 59.6602C41.4412 59.9413 41.0676 60.0206 40.9316 59.7734L36.9482 52.5293C36.6234 51.9385 35.774 51.9385 35.4492 52.5293L31.4658 59.7734C31.3298 60.0207 30.9563 59.9413 30.9326 59.6602L30.2402 51.4219C30.1838 50.7501 29.4081 50.4049 28.8711 50.8125L22.2861 55.8105C22.0613 55.9812 21.7519 55.7558 21.8447 55.4893L24.5625 47.6816C24.7841 47.0451 24.2167 46.4147 23.5605 46.5684L15.5107 48.4561C15.2362 48.5202 15.0452 48.189 15.2383 47.9834L20.8975 41.9561C21.3588 41.4646 21.0966 40.6577 20.4346 40.5312L12.3135 38.9814C12.0364 38.9286 11.996 38.548 12.2559 38.4385L19.8779 35.2344C20.4991 34.9729 20.5877 34.1289 20.0342 33.7441L13.2461 29.0254C13.0144 28.8644 13.1321 28.5011 13.4141 28.5068L21.6797 28.6797C22.3536 28.6938 22.7786 27.9585 22.4297 27.3818L18.1465 20.3096C18.0007 20.0683 18.2565 19.7844 18.5117 19.9043L25.9932 23.4238C26.6031 23.7106 27.2895 23.2117 27.2051 22.543L26.1689 14.3408C26.1337 14.0609 26.4836 13.9056 26.668 14.1191L32.0703 20.377C32.5108 20.8873 33.3412 20.7108 33.5361 20.0654L35.9258 12.1514Z" fill="#FACA0A" stroke="black" stroke-width="0.57"/>
<circle cx="36.4836" cy="36.4816" r="8.55" fill="black"/>
</svg>
