<svg width="121" height="120" viewBox="0 0 121 120" fill="none" xmlns="http://www.w3.org/2000/svg">
<rect x="8.5" y="8.5" width="103" height="103" rx="2.75" fill="white" stroke="black"/>
<rect x="20.625" y="20.3389" width="78.75" height="78.75" fill="#00BDA1" stroke="black" stroke-width="1.25"/>
<path d="M59.5374 53.7721L40.7491 20.5442L78.9193 20.8871L59.5374 53.7721Z" fill="#C40000" stroke="black" stroke-width="1.25"/>
<path d="M59.5374 65.6977L40.7491 98.9256L78.9193 98.5826L59.5374 65.6977Z" fill="#C40000" stroke="black" stroke-width="1.25"/>
<path d="M53.7721 60.2503L20.5442 41.462L20.8871 79.6322L53.7721 60.2503Z" fill="#C40000" stroke="black" stroke-width="1.25"/>
<path d="M65.6385 59.5238L99.7199 40.253L99.3688 79.4026L65.6385 59.5238Z" fill="#C40000" stroke="black" stroke-width="1.25"/>
<mask id="path-7-inside-1_1126_77" fill="white">
<path d="M66.0674 49.0859L78.6152 49.1992L72.374 59.7871L78.6152 70.376L66.0674 70.4883L59.6963 81.2988L53.6465 70.5996L41.3574 70.7109L47.5332 59.7871L41.3574 48.8652L53.6465 48.9746L59.6963 38.2764L66.0674 49.0859Z"/>
</mask>
<path d="M66.0674 49.0859L78.6152 49.1992L72.374 59.7871L78.6152 70.376L66.0674 70.4883L59.6963 81.2988L53.6465 70.5996L41.3574 70.7109L47.5332 59.7871L41.3574 48.8652L53.6465 48.9746L59.6963 38.2764L66.0674 49.0859Z" fill="white"/>
<path d="M66.0674 49.0859L65.026 49.6998L65.373 50.2886L66.0565 50.2948L66.0674 49.0859ZM78.6152 49.1992L79.6566 49.8131L80.7199 48.0093L78.6261 47.9904L78.6152 49.1992ZM72.374 59.7871L71.3326 59.1732L70.9708 59.7871L71.3326 60.4009L72.374 59.7871ZM78.6152 70.376L78.6261 71.5848L80.7199 71.5661L79.6567 69.7621L78.6152 70.376ZM66.0674 70.4883L66.0566 69.2795L65.373 69.2856L65.0259 69.8745L66.0674 70.4883ZM59.6963 81.2988L58.644 81.8938L59.6746 83.7165L60.7377 81.9126L59.6963 81.2988ZM53.6465 70.5996L54.6988 70.0046L54.3481 69.3843L53.6355 69.3908L53.6465 70.5996ZM41.3574 70.7109L40.3051 70.116L39.2746 71.9387L41.3684 71.9198L41.3574 70.7109ZM47.5332 59.7871L48.5855 60.382L48.9219 59.7871L48.5855 59.1921L47.5332 59.7871ZM41.3574 48.8652L41.3682 47.6564L39.2746 47.6378L40.3051 49.4602L41.3574 48.8652ZM53.6465 48.9746L53.6357 50.1834L54.3481 50.1898L54.6987 49.5697L53.6465 48.9746ZM59.6963 38.2764L60.7377 37.6626L59.6746 35.8588L58.644 37.6813L59.6963 38.2764ZM66.0674 49.0859L66.0565 50.2948L78.6043 50.408L78.6152 49.1992L78.6261 47.9904L66.0783 47.8771L66.0674 49.0859ZM78.6152 49.1992L77.5738 48.5853L71.3326 59.1732L72.374 59.7871L73.4154 60.401L79.6566 49.8131L78.6152 49.1992ZM72.374 59.7871L71.3326 60.4009L77.5738 70.9898L78.6152 70.376L79.6567 69.7621L73.4154 59.1733L72.374 59.7871ZM78.6152 70.376L78.6044 69.1672L66.0566 69.2795L66.0674 70.4883L66.0782 71.6971L78.6261 71.5848L78.6152 70.376ZM66.0674 70.4883L65.0259 69.8745L58.6548 80.6851L59.6963 81.2988L60.7377 81.9126L67.1088 71.1021L66.0674 70.4883ZM59.6963 81.2988L60.7486 80.7038L54.6988 70.0046L53.6465 70.5996L52.5942 71.1946L58.644 81.8938L59.6963 81.2988ZM53.6465 70.5996L53.6355 69.3908L41.3465 69.5021L41.3574 70.7109L41.3684 71.9198L53.6574 71.8084L53.6465 70.5996ZM41.3574 70.7109L42.4098 71.3059L48.5855 60.382L47.5332 59.7871L46.4809 59.1922L40.3051 70.116L41.3574 70.7109ZM47.5332 59.7871L48.5855 59.1921L42.4097 48.2702L41.3574 48.8652L40.3051 49.4602L46.4809 60.3821L47.5332 59.7871ZM41.3574 48.8652L41.3467 50.074L53.6357 50.1834L53.6465 48.9746L53.6572 47.7658L41.3682 47.6564L41.3574 48.8652ZM53.6465 48.9746L54.6987 49.5697L60.7486 38.8714L59.6963 38.2764L58.644 37.6813L52.5942 48.3796L53.6465 48.9746ZM59.6963 38.2764L58.6549 38.8902L65.026 49.6998L66.0674 49.0859L67.1088 48.4721L60.7377 37.6626L59.6963 38.2764Z" fill="black" mask="url(#path-7-inside-1_1126_77)"/>
</svg>
