<svg width="61" height="59" viewBox="0 0 61 59" fill="none" xmlns="http://www.w3.org/2000/svg">
<rect x="58.6598" y="38.2392" width="17.5868" height="17.5868" transform="rotate(87.0621 58.6598 38.2392)" fill="#77E9A5" stroke="black" stroke-width="1.25"/>
<mask id="path-2-inside-1_1126_82" fill="white">
<path d="M58.6914 32.3281L34.7324 33.4492L35.8105 56.457L2.51758 58.0166L1 25.6221L25.9229 24.4541L24.8496 1.51367L57.1768 0L58.6914 32.3281Z"/>
</mask>
<path d="M58.6914 32.3281L34.7324 33.4492L35.8105 56.457L2.51758 58.0166L1 25.6221L25.9229 24.4541L24.8496 1.51367L57.1768 0L58.6914 32.3281Z" fill="#BA5079"/>
<path d="M58.6914 32.3281L58.7498 33.5768L59.9985 33.5183L59.94 32.2696L58.6914 32.3281ZM34.7324 33.4492L34.674 32.2006L33.4253 32.259L33.4838 33.5077L34.7324 33.4492ZM35.8105 56.457L35.869 57.7057L37.1177 57.6472L37.0592 56.3985L35.8105 56.457ZM2.51758 58.0166L1.26895 58.0751L1.32744 59.3237L2.57607 59.2652L2.51758 58.0166ZM1 25.6221L0.941485 24.3734L-0.307124 24.432L-0.248631 25.6806L1 25.6221ZM25.9229 24.4541L25.9814 25.7027L27.2299 25.6442L27.1715 24.3957L25.9229 24.4541ZM24.8496 1.51367L24.7911 0.26504L23.5426 0.323503L23.601 1.57209L24.8496 1.51367ZM57.1768 0L58.4254 -0.0585013L58.3669 -1.3071L57.1183 -1.24863L57.1768 0ZM58.6914 32.3281L58.633 31.0795L34.674 32.2006L34.7324 33.4492L34.7908 34.6979L58.7498 33.5768L58.6914 32.3281ZM34.7324 33.4492L33.4838 33.5077L34.5619 56.5155L35.8105 56.457L37.0592 56.3985L35.9811 33.3907L34.7324 33.4492ZM35.8105 56.457L35.7521 55.2084L2.45909 56.768L2.51758 58.0166L2.57607 59.2652L35.869 57.7057L35.8105 56.457ZM2.51758 58.0166L3.76621 57.9581L2.24863 25.5636L1 25.6221L-0.248631 25.6806L1.26895 58.0751L2.51758 58.0166ZM1 25.6221L1.05851 26.8707L25.9814 25.7027L25.9229 24.4541L25.8643 23.2055L0.941485 24.3734L1 25.6221ZM25.9229 24.4541L27.1715 24.3957L26.0982 1.45526L24.8496 1.51367L23.601 1.57209L24.6742 24.5125L25.9229 24.4541ZM24.8496 1.51367L24.9081 2.7623L57.2352 1.24863L57.1768 0L57.1183 -1.24863L24.7911 0.26504L24.8496 1.51367ZM57.1768 0L55.9281 0.0585013L57.4428 32.3866L58.6914 32.3281L59.94 32.2696L58.4254 -0.0585013L57.1768 0Z" fill="black" mask="url(#path-2-inside-1_1126_82)"/>
<circle cx="10.0215" cy="11.1523" r="9.375" fill="#77E9A5" stroke="black" stroke-width="1.25"/>
</svg>
