<svg width="104" height="104" viewBox="0 0 104 104" fill="none" xmlns="http://www.w3.org/2000/svg">
<rect x="0.5" y="0.5" width="103" height="103" rx="2.75" fill="white" stroke="black"/>
<rect x="80.6618" y="61.2392" width="17.5868" height="17.5868" transform="rotate(87.0621 80.6618 61.2392)" fill="#77E9A5" stroke="black" stroke-width="1.25"/>
<mask id="path-3-inside-1_1126_99" fill="white">
<path d="M80.6914 55.3281L56.7324 56.4492L57.8105 79.457L24.5176 81.0166L23 48.6221L47.9229 47.4541L46.8496 24.5137L79.1768 23L80.6914 55.3281Z"/>
</mask>
<path d="M80.6914 55.3281L56.7324 56.4492L57.8105 79.457L24.5176 81.0166L23 48.6221L47.9229 47.4541L46.8496 24.5137L79.1768 23L80.6914 55.3281Z" fill="#BA5079"/>
<path d="M80.6914 55.3281L80.7498 56.5768L81.9985 56.5183L81.94 55.2696L80.6914 55.3281ZM56.7324 56.4492L56.674 55.2006L55.4253 55.259L55.4838 56.5077L56.7324 56.4492ZM57.8105 79.457L57.869 80.7057L59.1177 80.6472L59.0592 79.3985L57.8105 79.457ZM24.5176 81.0166L23.2689 81.0751L23.3274 82.3237L24.5761 82.2652L24.5176 81.0166ZM23 48.6221L22.9415 47.3734L21.6929 47.432L21.7514 48.6806L23 48.6221ZM47.9229 47.4541L47.9814 48.7027L49.2299 48.6442L49.1715 47.3957L47.9229 47.4541ZM46.8496 24.5137L46.7911 23.265L45.5426 23.3235L45.601 24.5721L46.8496 24.5137ZM79.1768 23L80.4254 22.9415L80.3669 21.6929L79.1183 21.7514L79.1768 23ZM80.6914 55.3281L80.633 54.0795L56.674 55.2006L56.7324 56.4492L56.7908 57.6979L80.7498 56.5768L80.6914 55.3281ZM56.7324 56.4492L55.4838 56.5077L56.5619 79.5155L57.8105 79.457L59.0592 79.3985L57.9811 56.3907L56.7324 56.4492ZM57.8105 79.457L57.7521 78.2084L24.4591 79.768L24.5176 81.0166L24.5761 82.2652L57.869 80.7057L57.8105 79.457ZM24.5176 81.0166L25.7662 80.9581L24.2486 48.5636L23 48.6221L21.7514 48.6806L23.2689 81.0751L24.5176 81.0166ZM23 48.6221L23.0585 49.8707L47.9814 48.7027L47.9229 47.4541L47.8643 46.2055L22.9415 47.3734L23 48.6221ZM47.9229 47.4541L49.1715 47.3957L48.0982 24.4553L46.8496 24.5137L45.601 24.5721L46.6742 47.5125L47.9229 47.4541ZM46.8496 24.5137L46.9081 25.7623L79.2352 24.2486L79.1768 23L79.1183 21.7514L46.7911 23.265L46.8496 24.5137ZM79.1768 23L77.9281 23.0585L79.4428 55.3866L80.6914 55.3281L81.94 55.2696L80.4254 22.9415L79.1768 23Z" fill="black" mask="url(#path-3-inside-1_1126_99)"/>
<circle cx="32.0215" cy="34.1523" r="9.375" fill="#77E9A5" stroke="black" stroke-width="1.25"/>
</svg>
