<svg width="124" height="124" viewBox="0 0 124 124" fill="none" xmlns="http://www.w3.org/2000/svg">
<rect x="60.2145" y="31.6003" width="29" height="29" transform="rotate(90.0354 60.2145 31.6003)" fill="white" stroke="black"/>
<mask id="path-2-inside-1_1066_802" fill="white">
<path d="M67.9477 69.5305L67.9336 92.4973L35.5703 92.4773L35.5903 60.114L59.5746 60.1288L59.5889 37.0956L92.918 37.1162L92.8979 69.5459L67.9477 69.5305Z"/>
</mask>
<path d="M67.9477 69.5305L67.9336 92.4973L35.5703 92.4773L35.5903 60.114L59.5746 60.1288L59.5889 37.0956L92.918 37.1162L92.8979 69.5459L67.9477 69.5305Z" fill="#FACA0A"/>
<path d="M67.9477 69.5305L67.9484 68.5305L66.9484 68.5299L66.9477 69.5299L67.9477 69.5305ZM67.9336 92.4973L67.9329 93.4973L68.9329 93.4979L68.9336 92.4979L67.9336 92.4973ZM35.5703 92.4773L34.5703 92.4767L34.5697 93.4767L35.5697 93.4773L35.5703 92.4773ZM35.5903 60.114L35.5909 59.114L34.5909 59.1134L34.5903 60.1134L35.5903 60.114ZM59.5746 60.1288L59.574 61.1288L60.574 61.1294L60.5746 60.1294L59.5746 60.1288ZM59.5889 37.0956L59.5895 36.0956L58.5895 36.095L58.5889 37.095L59.5889 37.0956ZM92.918 37.1162L93.918 37.1168L93.9186 36.1168L92.9186 36.1162L92.918 37.1162ZM92.8979 69.5459L92.8973 70.5459L93.8973 70.5465L93.8979 69.5465L92.8979 69.5459ZM67.9477 69.5305L66.9477 69.5299L66.9336 92.4967L67.9336 92.4973L68.9336 92.4979L68.9477 69.5311L67.9477 69.5305ZM67.9336 92.4973L67.9342 91.4973L35.5709 91.4773L35.5703 92.4773L35.5697 93.4773L67.9329 93.4973L67.9336 92.4973ZM35.5703 92.4773L36.5703 92.4779L36.5903 60.1146L35.5903 60.114L34.5903 60.1134L34.5703 92.4767L35.5703 92.4773ZM35.5903 60.114L35.5897 61.114L59.574 61.1288L59.5746 60.1288L59.5753 59.1288L35.5909 59.114L35.5903 60.114ZM59.5746 60.1288L60.5746 60.1294L60.5889 37.0962L59.5889 37.0956L58.5889 37.095L58.5746 60.1282L59.5746 60.1288ZM59.5889 37.0956L59.5883 38.0956L92.9174 38.1162L92.918 37.1162L92.9186 36.1162L59.5895 36.0956L59.5889 37.0956ZM92.918 37.1162L91.918 37.1156L91.8979 69.5453L92.8979 69.5459L93.8979 69.5465L93.918 37.1168L92.918 37.1162ZM92.8979 69.5459L92.8986 68.5459L67.9484 68.5305L67.9477 69.5305L67.9471 70.5305L92.8973 70.5459L92.8979 69.5459Z" fill="black" mask="url(#path-2-inside-1_1066_802)"/>
<rect x="96.0856" y="68.6003" width="29" height="29" transform="rotate(90.0354 96.0856 68.6003)" fill="white" stroke="black"/>
<circle cx="65.0664" cy="64.582" r="12" fill="white" stroke="black"/>
</svg>
