<svg width="104" height="104" viewBox="0 0 104 104" fill="none" xmlns="http://www.w3.org/2000/svg">
<rect x="0.496094" y="0.5" width="103" height="103" rx="2.75" fill="white" stroke="black"/>
<rect x="80.6422" y="61.2392" width="17.5868" height="17.5868" transform="rotate(87.0621 80.6422 61.2392)" fill="#77E9A5" stroke="black" stroke-width="1.25"/>
<mask id="path-3-inside-1_1295_568" fill="white">
<path d="M80.668 55.3281L56.709 56.4492L57.7871 79.457L24.4941 81.0166L22.9766 48.6221L47.8994 47.4541L46.8262 24.5137L79.1533 23L80.668 55.3281Z"/>
</mask>
<path d="M80.668 55.3281L56.709 56.4492L57.7871 79.457L24.4941 81.0166L22.9766 48.6221L47.8994 47.4541L46.8262 24.5137L79.1533 23L80.668 55.3281Z" fill="#BA5079"/>
<path d="M80.668 55.3281L80.7264 56.5768L81.9751 56.5183L81.9166 55.2696L80.668 55.3281ZM56.709 56.4492L56.6506 55.2006L55.4018 55.259L55.4604 56.5077L56.709 56.4492ZM57.7871 79.457L57.8456 80.7057L59.0942 80.6472L59.0357 79.3985L57.7871 79.457ZM24.4941 81.0166L23.2455 81.0751L23.304 82.3237L24.5526 82.2652L24.4941 81.0166ZM22.9766 48.6221L22.918 47.3734L21.6694 47.432L21.7279 48.6806L22.9766 48.6221ZM47.8994 47.4541L47.9579 48.7027L49.2065 48.6442L49.148 47.3957L47.8994 47.4541ZM46.8262 24.5137L46.7677 23.265L45.5191 23.3235L45.5775 24.5721L46.8262 24.5137ZM79.1533 23L80.402 22.9415L80.3435 21.6929L79.0949 21.7514L79.1533 23ZM80.668 55.3281L80.6095 54.0795L56.6506 55.2006L56.709 56.4492L56.7674 57.6979L80.7264 56.5768L80.668 55.3281ZM56.709 56.4492L55.4604 56.5077L56.5385 79.5155L57.7871 79.457L59.0357 79.3985L57.9576 56.3907L56.709 56.4492ZM57.7871 79.457L57.7286 78.2084L24.4356 79.768L24.4941 81.0166L24.5526 82.2652L57.8456 80.7057L57.7871 79.457ZM24.4941 81.0166L25.7428 80.9581L24.2252 48.5636L22.9766 48.6221L21.7279 48.6806L23.2455 81.0751L24.4941 81.0166ZM22.9766 48.6221L23.0351 49.8707L47.9579 48.7027L47.8994 47.4541L47.8409 46.2055L22.918 47.3734L22.9766 48.6221ZM47.8994 47.4541L49.148 47.3957L48.0748 24.4553L46.8262 24.5137L45.5775 24.5721L46.6508 47.5125L47.8994 47.4541ZM46.8262 24.5137L46.8846 25.7623L79.2118 24.2486L79.1533 23L79.0949 21.7514L46.7677 23.265L46.8262 24.5137ZM79.1533 23L77.9047 23.0585L79.4193 55.3866L80.668 55.3281L81.9166 55.2696L80.402 22.9415L79.1533 23Z" fill="black" mask="url(#path-3-inside-1_1295_568)"/>
<circle cx="32" cy="34.1523" r="9.375" fill="#77E9A5" stroke="black" stroke-width="1.25"/>
</svg>
