<svg width="110" height="110" viewBox="0 0 110 110" fill="none" xmlns="http://www.w3.org/2000/svg">
<path d="M44.3111 59.4791L44.3758 59.0081L44.0005 58.7146L20.3048 40.1999L50.0933 44.3138L50.5652 44.3788L50.8587 44.0035L69.3734 20.3078L65.2595 50.0963L65.1945 50.5683L65.5689 50.8613L89.2664 69.3768L59.4761 65.2622L59.005 65.1975L58.712 65.5719L40.1965 89.2694L44.3111 59.4791Z" fill="black" stroke="black" stroke-width="1.65375"/>
<path d="M45.7962 56.655L45.9285 56.2976L45.6851 56.0043L30.3424 37.4738L52.9151 45.7954L53.2725 45.9277L53.5658 45.6843L72.0963 30.3416L63.7747 52.9143L63.6424 53.2718L63.8858 53.565L79.2293 72.0961L56.6558 63.7739L56.2984 63.6416L56.0051 63.8851L37.474 79.2286L45.7962 56.655Z" fill="white" stroke="black" stroke-width="1.323"/>
<path d="M46.5286 60.2101L46.4847 59.8088L46.1169 59.6454L22.8439 49.2957L48.1673 46.561L48.5676 46.5169L48.7319 46.1493L59.0817 22.8762L61.8164 48.1996L61.8595 48.5998L62.2281 48.7643L85.5021 59.1142L60.1778 61.8488L59.7767 61.8917L59.6131 62.2604L49.2632 85.5345L46.5286 60.2101Z" fill="#FACA0A" stroke="black" stroke-width="1.4007"/>
</svg>
