<svg width="71" height="72" viewBox="0 0 71 72" fill="none" xmlns="http://www.w3.org/2000/svg">
<g clip-path="url(#clip0_1108_77)">
<rect width="71" height="72" rx="3.25" fill="#008C09"/>
<path d="M42.4736 42.9236L42.0913 43.0289L41.9895 43.4121L35.586 67.6391L28.9594 43.4719L28.8541 43.0896L28.4709 42.9879L4.24394 36.5834L28.4111 29.9577L28.7934 29.8525L28.8951 29.4692L35.2996 5.24127L41.9253 29.4094L42.0305 29.7917L42.4138 29.8935L66.6417 36.297L42.4736 42.9236Z" fill="black" stroke="black" stroke-width="1.37812"/>
<path d="M39.8241 42.7135L39.5069 42.7303L39.3614 43.0127L30.2042 60.8458L29.1696 40.8257L29.1527 40.5085L28.8703 40.363L11.0372 31.2058L31.0573 30.1712L31.3745 30.1544L31.52 29.872L40.6774 12.0379L41.7119 32.0589L41.7287 32.3762L42.0111 32.5216L59.8452 41.679L39.8241 42.7135Z" fill="white" stroke="black" stroke-width="1.1025"/>
<path d="M42.3066 40.9867L42.0139 41.151L42.0087 41.4869L41.7199 62.7109L31.3131 44.2111L31.1488 43.9184L30.8132 43.9142L9.58914 43.6254L28.0889 33.2186L28.3814 33.0534L28.3856 32.7177L28.6742 11.4927L39.0812 29.9935L39.2464 30.286L39.5823 30.2911L60.8073 30.5797L42.3066 40.9867Z" fill="#FACA0A" stroke="black" stroke-width="1.16725"/>
</g>
<rect x="0.5" y="0.5" width="70" height="71" rx="2.75" stroke="black"/>
<defs>
<clipPath id="clip0_1108_77">
<rect width="71" height="72" rx="3.25" fill="white"/>
</clipPath>
</defs>
</svg>
