<svg width="55" height="56" viewBox="0 0 55 56" fill="none" xmlns="http://www.w3.org/2000/svg">
<rect x="0.375" y="0.375" width="53.3788" height="54.3074" rx="2.0625" fill="#0B450F" stroke="black" stroke-width="0.75"/>
<path d="M26.4648 12.4941C26.6332 11.9759 27.3668 11.9759 27.5352 12.4941L30.7109 22.2676C30.8615 22.731 31.293 23.0448 31.7803 23.0449H42.0576C42.6022 23.0453 42.8284 23.7423 42.3877 24.0625L34.0742 30.1035C33.6799 30.39 33.5144 30.8978 33.665 31.3613L36.8408 41.1348C37.009 41.6528 36.4163 42.0835 35.9756 41.7637L27.6611 35.7227C27.2669 35.4364 26.7331 35.4364 26.3389 35.7227L18.0244 41.7637C17.5837 42.0835 16.991 41.6528 17.1592 41.1348L20.335 31.3613C20.4856 30.8978 20.3201 30.39 19.9258 30.1035L11.6123 24.0625C11.1716 23.7423 11.3978 23.0453 11.9424 23.0449H22.2197C22.707 23.0448 23.1385 22.731 23.2891 22.2676L26.4648 12.4941Z" fill="#FACA0A" stroke="black" stroke-width="0.5625"/>
</svg>
