<svg width="110" height="110" viewBox="0 0 110 110" fill="none" xmlns="http://www.w3.org/2000/svg">
<rect x="3.5" y="3.5" width="103" height="103" rx="2.75" fill="white" stroke="black"/>
<path d="M44.6236 59.9039L44.6883 59.4329L44.313 59.1394L20.6173 40.6247L50.4058 44.7386L50.8777 44.8036L51.1712 44.4283L69.6859 20.7326L65.572 50.5211L65.507 50.9931L65.8814 51.2861L89.5789 69.8016L59.7886 65.687L59.3175 65.6223L59.0245 65.9967L40.509 89.6942L44.6236 59.9039Z" fill="black" stroke="black" stroke-width="1.65375"/>
<path d="M46.1048 57.0798L46.2371 56.7224L45.9937 56.4291L30.6509 37.8986L53.2237 46.2202L53.5811 46.3525L53.8744 46.1091L72.4049 30.7664L64.0833 53.3391L63.951 53.6966L64.1944 53.9899L79.5379 72.5209L56.9644 64.1987L56.6069 64.0664L56.3137 64.3099L37.7826 79.6534L46.1048 57.0798Z" fill="white" stroke="black" stroke-width="1.323"/>
<path d="M46.8411 60.634L46.7972 60.2327L46.4294 60.0693L23.1564 49.7195L48.4798 46.9848L48.8801 46.9408L49.0444 46.5731L59.3942 23.3L62.1289 48.6234L62.172 49.0236L62.5406 49.1881L85.8146 59.538L60.4903 62.2726L60.0892 62.3155L59.9256 62.6843L49.5757 85.9583L46.8411 60.634Z" fill="#FACA0A" stroke="black" stroke-width="1.4007"/>
</svg>
