<svg width="94" height="94" viewBox="0 0 94 94" fill="none" xmlns="http://www.w3.org/2000/svg">
<circle cx="46.6292" cy="46.6281" r="32.64" transform="rotate(46.3361 46.6292 46.6281)" fill="#D9D9D9" stroke="black" stroke-width="0.68"/>
<path d="M69.4487 70.0447C66.4844 72.8934 61.2833 73.0003 55.1373 70.6695C49.018 68.3488 42.083 63.65 35.7997 57.1115C29.5166 50.5731 25.0978 43.4571 23.0225 37.2505C20.9381 31.0166 21.2519 25.8239 24.2162 22.9753C27.1806 20.1269 32.3818 20.0197 38.5276 22.3505C44.6467 24.6712 51.5807 29.3703 57.8638 35.9085C64.147 42.4468 68.567 49.5629 70.6424 55.7695C72.7268 62.0033 72.4128 67.1961 69.4487 70.0447Z" fill="#484848" stroke="black" stroke-width="0.68"/>
<path d="M70.0053 23.8472C72.8438 26.8213 72.933 32.0227 70.5811 38.1607C68.2395 44.272 63.517 51.1909 56.9571 57.4518C50.3972 63.7125 43.2661 68.1069 37.0524 70.161C30.8114 72.2241 25.6199 71.8925 22.7814 68.9185C19.9432 65.9444 19.8538 60.7429 22.2056 54.605C24.5472 48.4939 29.27 41.576 35.8296 35.3153C42.3894 29.0545 49.5205 24.6589 55.7343 22.6047C61.9751 20.5417 67.1668 20.8734 70.0053 23.8472Z" fill="#8B8B8B" stroke="black" stroke-width="0.68"/>
<line x1="70.0205" y1="23.3636" x2="22.7743" y2="69.3961" stroke="black" stroke-width="0.68"/>
<line x1="69.403" y1="70.4882" x2="23.3705" y2="23.2421" stroke="black" stroke-width="0.68"/>
<path d="M69.4487 70.0447C66.4844 72.8934 61.2833 73.0003 55.1373 70.6695C49.018 68.3488 42.083 63.65 35.7997 57.1115C29.5166 50.5731 25.0978 43.4571 23.0225 37.2505C20.9381 31.0166 21.2519 25.8239 24.2162 22.9753C27.1806 20.1269 32.3818 20.0197 38.5276 22.3505C44.6467 24.6712 51.5807 29.3703 57.8638 35.9085C64.147 42.4468 68.567 49.5629 70.6424 55.7695C72.7268 62.0033 72.4128 67.1961 69.4487 70.0447Z" stroke="black" stroke-width="0.68"/>
</svg>
