<svg width="103" height="103" viewBox="0 0 103 103" fill="none" xmlns="http://www.w3.org/2000/svg">
<mask id="path-1-inside-1_1124_298" fill="white">
<path d="M44.3608 77.5152L36.6232 85.6453L13.18 63.3338L35.4915 39.8907L47.3977 51.2221L59.6529 38.3454L88.625 65.9189L61.796 94.1087L44.3608 77.5152Z"/>
</mask>
<path d="M44.3608 77.5152L36.6232 85.6453L13.18 63.3338L35.4915 39.8907L47.3977 51.2221L59.6529 38.3454L88.625 65.9189L61.796 94.1087L44.3608 77.5152Z" fill="#C3E200"/>
<path d="M44.3608 77.5152L45.0502 76.7908L44.3259 76.1014L43.6364 76.8257L44.3608 77.5152ZM36.6232 85.6453L35.9338 86.3696L36.6581 87.059L37.3475 86.3347L36.6232 85.6453ZM13.18 63.3338L12.4557 62.6444L11.7663 63.3688L12.4906 64.0582L13.18 63.3338ZM35.4915 39.8907L36.1809 39.1663L35.4565 38.4769L34.7671 39.2013L35.4915 39.8907ZM47.3977 51.2221L46.7083 51.9465L47.4327 52.6359L48.1221 51.9115L47.3977 51.2221ZM59.6529 38.3454L60.3423 37.621L59.6179 36.9316L58.9285 37.656L59.6529 38.3454ZM88.625 65.9189L89.3494 66.6084L90.0388 65.884L89.3144 65.1946L88.625 65.9189ZM61.796 94.1087L61.1066 94.8331L61.831 95.5225L62.5204 94.7981L61.796 94.1087ZM44.3608 77.5152L43.6364 76.8257L35.8988 84.9559L36.6232 85.6453L37.3475 86.3347L45.0852 78.2046L44.3608 77.5152ZM36.6232 85.6453L37.3126 84.9209L13.8694 62.6094L13.18 63.3338L12.4906 64.0582L35.9338 86.3696L36.6232 85.6453ZM13.18 63.3338L13.9044 64.0232L36.2159 40.5801L35.4915 39.8907L34.7671 39.2013L12.4557 62.6444L13.18 63.3338ZM35.4915 39.8907L34.8021 40.615L46.7083 51.9465L47.3977 51.2221L48.0871 50.4977L36.1809 39.1663L35.4915 39.8907ZM47.3977 51.2221L48.1221 51.9115L60.3772 39.0348L59.6529 38.3454L58.9285 37.656L46.6733 50.5327L47.3977 51.2221ZM59.6529 38.3454L58.9634 39.0697L87.9356 66.6433L88.625 65.9189L89.3144 65.1946L60.3423 37.621L59.6529 38.3454ZM88.625 65.9189L87.9006 65.2295L61.0717 93.4193L61.796 94.1087L62.5204 94.7981L89.3494 66.6084L88.625 65.9189ZM61.796 94.1087L62.4854 93.3843L45.0502 76.7908L44.3608 77.5152L43.6714 78.2395L61.1066 94.8331L61.796 94.1087Z" fill="black" mask="url(#path-1-inside-1_1124_298)"/>
<mask id="path-3-inside-2_1124_298" fill="white">
<path d="M45.2046 50.8042L37.4669 58.9343L14.0238 36.6229L36.3353 13.1797L48.2415 24.5112L60.4966 11.6344L89.4687 39.208L62.6398 67.3978L45.2046 50.8042Z"/>
</mask>
<path d="M45.2046 50.8042L37.4669 58.9343L14.0238 36.6229L36.3353 13.1797L48.2415 24.5112L60.4966 11.6344L89.4687 39.208L62.6398 67.3978L45.2046 50.8042Z" fill="#C3E200"/>
<path d="M45.2046 50.8042L45.894 50.0798L45.1696 49.3904L44.4802 50.1148L45.2046 50.8042ZM37.4669 58.9343L36.7775 59.6587L37.5019 60.3481L38.1913 59.6237L37.4669 58.9343ZM14.0238 36.6229L13.2994 35.9335L12.61 36.6578L13.3344 37.3472L14.0238 36.6229ZM36.3353 13.1797L37.0247 12.4554L36.3003 11.7659L35.6109 12.4903L36.3353 13.1797ZM48.2415 24.5112L47.552 25.2356L48.2764 25.925L48.9658 25.2006L48.2415 24.5112ZM60.4966 11.6344L61.186 10.9101L60.4616 10.2206L59.7722 10.945L60.4966 11.6344ZM89.4687 39.208L90.1931 39.8974L90.8825 39.173L90.1582 38.4836L89.4687 39.208ZM62.6398 67.3978L61.9504 68.1222L62.6748 68.8116L63.3642 68.0872L62.6398 67.3978ZM45.2046 50.8042L44.4802 50.1148L36.7426 58.2449L37.4669 58.9343L38.1913 59.6237L45.9289 51.4936L45.2046 50.8042ZM37.4669 58.9343L38.1563 58.21L14.7132 35.8985L14.0238 36.6229L13.3344 37.3472L36.7775 59.6587L37.4669 58.9343ZM14.0238 36.6229L14.7482 37.3123L37.0596 13.8691L36.3353 13.1797L35.6109 12.4903L13.2994 35.9335L14.0238 36.6229ZM36.3353 13.1797L35.6458 13.9041L47.552 25.2356L48.2415 24.5112L48.9309 23.7868L37.0247 12.4554L36.3353 13.1797ZM48.2415 24.5112L48.9658 25.2006L61.221 12.3238L60.4966 11.6344L59.7722 10.945L47.5171 23.8218L48.2415 24.5112ZM60.4966 11.6344L59.8072 12.3588L88.7793 39.9324L89.4687 39.208L90.1582 38.4836L61.186 10.9101L60.4966 11.6344ZM89.4687 39.208L88.7444 38.5186L61.9154 66.7084L62.6398 67.3978L63.3642 68.0872L90.1931 39.8974L89.4687 39.208ZM62.6398 67.3978L63.3292 66.6734L45.894 50.0798L45.2046 50.8042L44.5152 51.5286L61.9504 68.1222L62.6398 67.3978Z" fill="black" mask="url(#path-3-inside-2_1124_298)"/>
<mask id="path-5-inside-3_1124_298" fill="white">
<path d="M43.9995 64.1069L36.2618 72.2371L12.8187 49.9256L35.1302 26.4825L47.0364 37.8139L59.2915 24.9372L88.2637 52.5107L61.4347 80.7005L43.9995 64.1069Z"/>
</mask>
<path d="M43.9995 64.1069L36.2618 72.2371L12.8187 49.9256L35.1302 26.4825L47.0364 37.8139L59.2915 24.9372L88.2637 52.5107L61.4347 80.7005L43.9995 64.1069Z" fill="#282828"/>
<path d="M43.9995 64.1069L44.6889 63.3826L43.9645 62.6932L43.2751 63.4175L43.9995 64.1069ZM36.2618 72.2371L35.5724 72.9614L36.2968 73.6508L36.9862 72.9265L36.2618 72.2371ZM12.8187 49.9256L12.0943 49.2362L11.4049 49.9606L12.1293 50.65L12.8187 49.9256ZM35.1302 26.4825L35.8196 25.7581L35.0952 25.0687L34.4058 25.7931L35.1302 26.4825ZM47.0364 37.8139L46.347 38.5383L47.0713 39.2277L47.7607 38.5033L47.0364 37.8139ZM59.2915 24.9372L59.9809 24.2128L59.2566 23.5234L58.5671 24.2478L59.2915 24.9372ZM88.2637 52.5107L88.988 53.2001L89.6775 52.4758L88.9531 51.7864L88.2637 52.5107ZM61.4347 80.7005L60.7453 81.4249L61.4697 82.1143L62.1591 81.3899L61.4347 80.7005ZM43.9995 64.1069L43.2751 63.4175L35.5375 71.5477L36.2618 72.2371L36.9862 72.9265L44.7239 64.7964L43.9995 64.1069ZM36.2618 72.2371L36.9513 71.5127L13.5081 49.2012L12.8187 49.9256L12.1293 50.65L35.5724 72.9614L36.2618 72.2371ZM12.8187 49.9256L13.5431 50.615L35.8546 27.1719L35.1302 26.4825L34.4058 25.7931L12.0943 49.2362L12.8187 49.9256ZM35.1302 26.4825L34.4408 27.2068L46.347 38.5383L47.0364 37.8139L47.7258 37.0895L35.8196 25.7581L35.1302 26.4825ZM47.0364 37.8139L47.7607 38.5033L60.0159 25.6266L59.2915 24.9372L58.5671 24.2478L46.312 37.1245L47.0364 37.8139ZM59.2915 24.9372L58.6021 25.6615L87.5743 53.2351L88.2637 52.5107L88.9531 51.7864L59.9809 24.2128L59.2915 24.9372ZM88.2637 52.5107L87.5393 51.8213L60.7103 80.0111L61.4347 80.7005L62.1591 81.3899L88.988 53.2001L88.2637 52.5107ZM61.4347 80.7005L62.1241 79.9761L44.6889 63.3826L43.9995 64.1069L43.3101 64.8313L60.7453 81.4249L61.4347 80.7005Z" fill="black" mask="url(#path-5-inside-3_1124_298)"/>
</svg>
