<svg width="106" height="104" viewBox="0 0 106 104" fill="none" xmlns="http://www.w3.org/2000/svg">
<rect x="0.5" y="0.5" width="103" height="103" rx="2.75" fill="white" stroke="black"/>
<mask id="path-2-inside-1_1127_100" fill="white">
<path d="M47.3608 78.5152L39.6232 86.6453L16.18 64.3338L38.4915 40.8907L50.3977 52.2221L62.6529 39.3454L91.625 66.9189L64.796 95.1087L47.3608 78.5152Z"/>
</mask>
<path d="M47.3608 78.5152L39.6232 86.6453L16.18 64.3338L38.4915 40.8907L50.3977 52.2221L62.6529 39.3454L91.625 66.9189L64.796 95.1087L47.3608 78.5152Z" fill="#C3E200"/>
<path d="M47.3608 78.5152L48.0502 77.7908L47.3259 77.1014L46.6364 77.8257L47.3608 78.5152ZM39.6232 86.6453L38.9338 87.3696L39.6581 88.059L40.3475 87.3347L39.6232 86.6453ZM16.18 64.3338L15.4557 63.6444L14.7663 64.3688L15.4906 65.0582L16.18 64.3338ZM38.4915 40.8907L39.1809 40.1663L38.4565 39.4769L37.7671 40.2013L38.4915 40.8907ZM50.3977 52.2221L49.7083 52.9465L50.4327 53.6359L51.1221 52.9115L50.3977 52.2221ZM62.6529 39.3454L63.3423 38.621L62.6179 37.9316L61.9285 38.656L62.6529 39.3454ZM91.625 66.9189L92.3494 67.6084L93.0388 66.884L92.3144 66.1946L91.625 66.9189ZM64.796 95.1087L64.1066 95.8331L64.831 96.5225L65.5204 95.7981L64.796 95.1087ZM47.3608 78.5152L46.6364 77.8257L38.8988 85.9559L39.6232 86.6453L40.3475 87.3347L48.0852 79.2046L47.3608 78.5152ZM39.6232 86.6453L40.3126 85.9209L16.8694 63.6094L16.18 64.3338L15.4906 65.0582L38.9338 87.3696L39.6232 86.6453ZM16.18 64.3338L16.9044 65.0232L39.2159 41.5801L38.4915 40.8907L37.7671 40.2013L15.4557 63.6444L16.18 64.3338ZM38.4915 40.8907L37.8021 41.615L49.7083 52.9465L50.3977 52.2221L51.0871 51.4977L39.1809 40.1663L38.4915 40.8907ZM50.3977 52.2221L51.1221 52.9115L63.3772 40.0348L62.6529 39.3454L61.9285 38.656L49.6733 51.5327L50.3977 52.2221ZM62.6529 39.3454L61.9634 40.0697L90.9356 67.6433L91.625 66.9189L92.3144 66.1946L63.3423 38.621L62.6529 39.3454ZM91.625 66.9189L90.9006 66.2295L64.0717 94.4193L64.796 95.1087L65.5204 95.7981L92.3494 67.6084L91.625 66.9189ZM64.796 95.1087L65.4854 94.3843L48.0502 77.7908L47.3608 78.5152L46.6714 79.2395L64.1066 95.8331L64.796 95.1087Z" fill="black" mask="url(#path-2-inside-1_1127_100)"/>
<mask id="path-4-inside-2_1127_100" fill="white">
<path d="M48.2046 51.8042L40.4669 59.9343L17.0238 37.6229L39.3353 14.1797L51.2415 25.5112L63.4966 12.6344L92.4687 40.208L65.6398 68.3978L48.2046 51.8042Z"/>
</mask>
<path d="M48.2046 51.8042L40.4669 59.9343L17.0238 37.6229L39.3353 14.1797L51.2415 25.5112L63.4966 12.6344L92.4687 40.208L65.6398 68.3978L48.2046 51.8042Z" fill="#C3E200"/>
<path d="M48.2046 51.8042L48.894 51.0798L48.1696 50.3904L47.4802 51.1148L48.2046 51.8042ZM40.4669 59.9343L39.7775 60.6587L40.5019 61.3481L41.1913 60.6237L40.4669 59.9343ZM17.0238 37.6229L16.2994 36.9335L15.61 37.6578L16.3344 38.3472L17.0238 37.6229ZM39.3353 14.1797L40.0247 13.4554L39.3003 12.7659L38.6109 13.4903L39.3353 14.1797ZM51.2415 25.5112L50.552 26.2356L51.2764 26.925L51.9658 26.2006L51.2415 25.5112ZM63.4966 12.6344L64.186 11.9101L63.4616 11.2206L62.7722 11.945L63.4966 12.6344ZM92.4687 40.208L93.1931 40.8974L93.8825 40.173L93.1582 39.4836L92.4687 40.208ZM65.6398 68.3978L64.9504 69.1222L65.6748 69.8116L66.3642 69.0872L65.6398 68.3978ZM48.2046 51.8042L47.4802 51.1148L39.7426 59.2449L40.4669 59.9343L41.1913 60.6237L48.9289 52.4936L48.2046 51.8042ZM40.4669 59.9343L41.1563 59.21L17.7132 36.8985L17.0238 37.6229L16.3344 38.3472L39.7775 60.6587L40.4669 59.9343ZM17.0238 37.6229L17.7482 38.3123L40.0596 14.8691L39.3353 14.1797L38.6109 13.4903L16.2994 36.9335L17.0238 37.6229ZM39.3353 14.1797L38.6458 14.9041L50.552 26.2356L51.2415 25.5112L51.9309 24.7868L40.0247 13.4554L39.3353 14.1797ZM51.2415 25.5112L51.9658 26.2006L64.221 13.3238L63.4966 12.6344L62.7722 11.945L50.5171 24.8218L51.2415 25.5112ZM63.4966 12.6344L62.8072 13.3588L91.7793 40.9324L92.4687 40.208L93.1582 39.4836L64.186 11.9101L63.4966 12.6344ZM92.4687 40.208L91.7444 39.5186L64.9154 67.7084L65.6398 68.3978L66.3642 69.0872L93.1931 40.8974L92.4687 40.208ZM65.6398 68.3978L66.3292 67.6734L48.894 51.0798L48.2046 51.8042L47.5152 52.5286L64.9504 69.1222L65.6398 68.3978Z" fill="black" mask="url(#path-4-inside-2_1127_100)"/>
<mask id="path-6-inside-3_1127_100" fill="white">
<path d="M46.9995 65.1069L39.2618 73.2371L15.8187 50.9256L38.1302 27.4825L50.0364 38.8139L62.2915 25.9372L91.2637 53.5107L64.4347 81.7005L46.9995 65.1069Z"/>
</mask>
<path d="M46.9995 65.1069L39.2618 73.2371L15.8187 50.9256L38.1302 27.4825L50.0364 38.8139L62.2915 25.9372L91.2637 53.5107L64.4347 81.7005L46.9995 65.1069Z" fill="#282828"/>
<path d="M46.9995 65.1069L47.6889 64.3826L46.9645 63.6932L46.2751 64.4175L46.9995 65.1069ZM39.2618 73.2371L38.5724 73.9614L39.2968 74.6508L39.9862 73.9265L39.2618 73.2371ZM15.8187 50.9256L15.0943 50.2362L14.4049 50.9606L15.1293 51.65L15.8187 50.9256ZM38.1302 27.4825L38.8196 26.7581L38.0952 26.0687L37.4058 26.7931L38.1302 27.4825ZM50.0364 38.8139L49.347 39.5383L50.0713 40.2277L50.7607 39.5033L50.0364 38.8139ZM62.2915 25.9372L62.9809 25.2128L62.2566 24.5234L61.5671 25.2478L62.2915 25.9372ZM91.2637 53.5107L91.988 54.2001L92.6775 53.4758L91.9531 52.7864L91.2637 53.5107ZM64.4347 81.7005L63.7453 82.4249L64.4697 83.1143L65.1591 82.3899L64.4347 81.7005ZM46.9995 65.1069L46.2751 64.4175L38.5375 72.5477L39.2618 73.2371L39.9862 73.9265L47.7239 65.7964L46.9995 65.1069ZM39.2618 73.2371L39.9513 72.5127L16.5081 50.2012L15.8187 50.9256L15.1293 51.65L38.5724 73.9614L39.2618 73.2371ZM15.8187 50.9256L16.5431 51.615L38.8546 28.1719L38.1302 27.4825L37.4058 26.7931L15.0943 50.2362L15.8187 50.9256ZM38.1302 27.4825L37.4408 28.2068L49.347 39.5383L50.0364 38.8139L50.7258 38.0895L38.8196 26.7581L38.1302 27.4825ZM50.0364 38.8139L50.7607 39.5033L63.0159 26.6266L62.2915 25.9372L61.5671 25.2478L49.312 38.1245L50.0364 38.8139ZM62.2915 25.9372L61.6021 26.6615L90.5743 54.2351L91.2637 53.5107L91.9531 52.7864L62.9809 25.2128L62.2915 25.9372ZM91.2637 53.5107L90.5393 52.8213L63.7103 81.0111L64.4347 81.7005L65.1591 82.3899L91.988 54.2001L91.2637 53.5107ZM64.4347 81.7005L65.1241 80.9761L47.6889 64.3826L46.9995 65.1069L46.3101 65.8313L63.7453 82.4249L64.4347 81.7005Z" fill="black" mask="url(#path-6-inside-3_1127_100)"/>
</svg>
