<svg width="55" height="55" viewBox="0 0 55 55" fill="none" xmlns="http://www.w3.org/2000/svg">
<path d="M13.2775 27.9586C13.1877 28.0338 13.0979 28.124 13.0081 28.1991C13.0979 28.1089 13.1877 28.0338 13.2775 27.9586Z" fill="#4EA352"/>
<path d="M32.0713 22.0045C31.4728 21.7038 30.8892 21.3731 30.3206 21.0272C30.8742 21.3881 31.4578 21.7038 32.0713 22.0045Z" fill="#4EA352"/>
<path d="M28.0462 19.0125C27.8666 18.802 27.687 18.5765 27.5224 18.3509C27.702 18.5915 27.8816 18.802 28.0462 19.0125Z" fill="#4EA352"/>
<path d="M14.2651 27.0865C14.1453 27.1918 14.0257 27.282 13.906 27.3873C14.0257 27.282 14.1453 27.1767 14.2651 27.0865Z" fill="#4EA352"/>
<path d="M16.315 25.5228C16.315 25.5228 16.315 25.5228 16.33 25.5228H16.315Z" fill="#4EA352"/>
<path d="M41.0193 27.282C41.0193 27.282 40.9744 27.2519 40.9595 27.2369C40.9744 27.2519 41.0043 27.267 41.0193 27.282Z" fill="#4EA352"/>
<path d="M38.8646 25.6281C38.8646 25.6281 38.9094 25.6582 38.9244 25.6732C38.9244 25.6732 38.9244 25.6732 38.9094 25.6582C38.9094 25.6582 38.8795 25.6431 38.8646 25.6281Z" fill="#4EA352"/>
<path d="M32.3257 22.1249C32.9242 22.4105 33.5527 22.6962 34.226 23.0119C34.1811 22.9969 34.1512 22.9668 34.1063 22.9518C33.5078 22.6962 32.9092 22.4256 32.3257 22.1249Z" fill="#4EA352"/>
<path d="M26.1758 19.8695C25.9962 20.0349 25.8017 20.2003 25.6222 20.3657C25.8167 20.2153 25.9962 20.05 26.1758 19.8695Z" fill="#4EA352"/>
<path d="M26.7294 19.2982C26.6097 19.4335 26.49 19.5688 26.3554 19.6891C26.4751 19.5688 26.6097 19.4335 26.7294 19.2982Z" fill="#4EA352"/>
<path d="M15.3125 26.2596C15.3125 26.2596 15.2227 26.3198 15.1778 26.3649C15.2227 26.3348 15.2676 26.3047 15.3125 26.2596Z" fill="#4EA352"/>
<path d="M28.6896 19.6891C28.5699 19.5688 28.4352 19.4335 28.3155 19.2982C28.4352 19.4335 28.5549 19.5688 28.6896 19.6891Z" fill="#4EA352"/>
<path d="M27.5224 18.3509C27.3578 18.5765 27.1783 18.802 26.9988 19.0125C27.1783 18.802 27.3578 18.5915 27.5224 18.3509Z" fill="#4EA352"/>
<path d="M29.4228 20.3507C29.2283 20.2003 29.0487 20.0349 28.8692 19.8545C29.0487 20.0349 29.2432 20.1853 29.4228 20.3507Z" fill="#4EA352"/>
<path d="M46.1966 33.5217C46.2564 33.627 46.3013 33.7322 46.3612 33.8525C46.3163 33.7472 46.2564 33.642 46.1966 33.5217Z" fill="#4EA352"/>
<path d="M24.7243 21.0272C24.1557 21.3731 23.5572 21.7038 22.9587 22.0196C23.5722 21.7189 24.1557 21.4031 24.7243 21.0272Z" fill="#4EA352"/>
<path d="M30.1859 20.922C29.9615 20.7716 29.737 20.6063 29.5126 20.4258C29.737 20.6063 29.9465 20.7716 30.1859 20.922Z" fill="#4EA352"/>
<path d="M20.8189 23.0119C21.5073 22.6962 22.1357 22.4105 22.7492 22.1249C22.1656 22.4256 21.5671 22.6962 20.9536 22.9518C20.9087 22.9668 20.8638 22.9969 20.8189 23.0119Z" fill="#4EA352"/>
<path d="M8.9082 33.4165C8.84835 33.5367 8.77352 33.6571 8.71367 33.7773C8.77352 33.6571 8.83338 33.5367 8.9082 33.4165Z" fill="#4EA352"/>
<path d="M45.1042 31.7475C45.3735 32.1385 45.6279 32.5444 45.8673 32.9504C45.6279 32.5444 45.3885 32.1385 45.1042 31.7475Z" fill="#4EA352"/>
<path d="M9.92569 31.7626C9.68628 32.0934 9.46182 32.4392 9.2673 32.8C9.47679 32.4542 9.70124 32.1084 9.92569 31.7626Z" fill="#4EA352"/>
<path d="M27.5224 32.9805C16.5993 32.9805 12.0505 39.3855 12.0505 45.7756C12.0505 46.1816 12.0505 46.5575 12.0655 46.9183C12.26 52.3912 13.861 54 13.861 54C13.861 49.4292 14.7738 43.0241 21.1332 43.0241C27.4926 43.0241 27.5075 49.4293 27.5075 49.4293C27.5075 49.4293 27.5075 43.0241 33.8818 43.0241C40.2561 43.0241 41.1539 49.4292 41.1539 54C41.1539 54 42.755 52.3912 42.9495 46.9183C42.9495 46.5575 42.9645 46.1816 42.9645 45.7756C42.9645 39.3705 38.4157 32.9805 27.4926 32.9805H27.5224ZM27.5224 40.2877C26.5199 40.2877 25.697 39.4757 25.697 38.4533C25.697 37.4309 26.5049 36.619 27.5224 36.619C28.5399 36.619 29.348 37.4309 29.348 38.4533C29.348 39.4757 28.5399 40.2877 27.5224 40.2877Z" fill="#4EA352"/>
<path d="M46.1966 33.5217C46.0918 33.3262 45.9721 33.1308 45.8674 32.9354C45.628 32.5294 45.3885 32.1384 45.1042 31.7325C44.9546 31.522 44.82 31.3265 44.6703 31.1311C44.1167 30.3943 43.5032 29.6727 42.8598 28.9961C42.2762 28.3946 41.6628 27.8082 41.0343 27.267C41.0193 27.2519 40.9893 27.2369 40.9744 27.2218C40.331 26.6655 39.6427 26.1393 38.9394 25.6582C38.9244 25.6432 38.8946 25.6281 38.8796 25.6131C38.4307 25.2973 37.9818 24.9966 37.5329 24.741C36.4555 24.1095 35.3483 23.5231 34.2261 22.9969C33.5527 22.6811 32.9242 22.3955 32.3257 22.1098C32.2359 22.0647 32.1611 22.0346 32.0713 21.9895C31.4579 21.6888 30.8742 21.373 30.3206 21.0122C30.2907 20.9972 30.2607 20.9821 30.2458 20.9671C30.2159 20.9521 30.2009 20.937 30.171 20.922C29.9465 20.7716 29.7221 20.6063 29.4976 20.4258C29.4677 20.3958 29.4378 20.3807 29.4079 20.3507C29.2283 20.2003 29.0338 20.0349 28.8542 19.8545C28.7944 19.7943 28.7345 19.7342 28.6747 19.6741C28.555 19.5538 28.4353 19.4184 28.3006 19.2831C28.2108 19.1779 28.121 19.0877 28.0313 18.9824C27.8517 18.7719 27.6721 18.5614 27.5075 18.3209C27.3279 18.5614 27.1484 18.7719 26.9838 18.9824C26.894 19.0877 26.8043 19.1779 26.7145 19.2831C26.5948 19.4184 26.4601 19.5538 26.3404 19.6741C26.2806 19.7342 26.2207 19.7943 26.1609 19.8394C25.9813 20.0199 25.7868 20.1853 25.6072 20.3356C25.5773 20.3657 25.5474 20.3807 25.5324 20.4108C25.308 20.5912 25.0835 20.7566 24.8591 20.907C24.8441 20.922 24.8141 20.9371 24.7992 20.9521C24.7692 20.9521 24.7543 20.9822 24.7244 20.9972C24.1707 21.3731 23.5872 21.6888 22.9587 21.9895C22.8839 22.0196 22.809 22.0647 22.7342 22.0947C22.1357 22.3804 21.4923 22.6661 20.804 22.9819C19.6818 23.5081 18.5745 24.0794 17.4971 24.726C17.1081 24.9665 16.7041 25.2221 16.315 25.4928C16.315 25.4928 16.315 25.4928 16.3001 25.4928C15.9559 25.7333 15.6267 25.9739 15.2976 26.2145C15.2527 26.2446 15.2077 26.2746 15.1628 26.3197C14.8486 26.5603 14.5494 26.8009 14.2501 27.0565C14.1304 27.1617 14.0107 27.2519 13.891 27.3572C13.6815 27.5376 13.4721 27.7331 13.2626 27.9285C13.1728 28.0037 13.083 28.0939 12.9933 28.1691C12.694 28.4548 12.3947 28.7405 12.1104 29.0412C11.5119 29.6727 10.9432 30.3342 10.4195 31.0258C10.24 31.2514 10.0754 31.492 9.91083 31.7175C9.67142 32.0633 9.44697 32.4091 9.25245 32.7549C9.13274 32.9654 9.01298 33.1609 8.90823 33.3713C8.84838 33.4916 8.78852 33.6119 8.7137 33.7322C8.26481 34.6644 7.92065 35.6267 7.68124 36.6341C6.82834 40.5884 8.96814 44.257 12.0506 46.8732C12.0506 46.5124 12.0356 46.1365 12.0356 45.7305C12.0356 39.3254 16.5843 32.9354 27.5075 32.9354C38.4306 32.9354 42.9795 39.3404 42.9795 45.7305C42.9795 46.1365 42.9795 46.5124 42.9645 46.8732C44.5057 45.5651 47.5283 42.4979 47.5283 38.4233C47.5283 37.8219 47.4535 37.2205 47.3337 36.604C47.1093 35.6267 46.7652 34.6945 46.3462 33.8074C46.2864 33.7021 46.2415 33.5969 46.1816 33.4766L46.1966 33.5217ZM27.5225 27.4925C26.5199 27.4925 25.697 26.6806 25.697 25.6582C25.697 24.6358 26.505 23.8239 27.5225 23.8239C28.54 23.8239 29.348 24.6358 29.348 25.6582C29.348 26.6806 28.54 27.4925 27.5225 27.4925Z" fill="#4EA352"/>
<path d="M27.5225 27.4925C28.5307 27.4925 29.348 26.6713 29.348 25.6582C29.348 24.6451 28.5307 23.8239 27.5225 23.8239C26.5143 23.8239 25.697 24.6451 25.697 25.6582C25.697 26.6713 26.5143 27.4925 27.5225 27.4925Z" fill="#4EA352"/>
<path d="M27.5224 40.2877C28.5306 40.2877 29.348 39.4664 29.348 38.4533C29.348 37.4403 28.5306 36.619 27.5224 36.619C26.5142 36.619 25.697 37.4403 25.697 38.4533C25.697 39.4664 26.5142 40.2877 27.5224 40.2877Z" fill="#4EA352"/>
<path d="M8.9082 33.4165C9.01294 33.206 9.13268 33.0105 9.25238 32.8C9.46187 32.4392 9.68632 32.0933 9.91077 31.7626C10.0754 31.522 10.2399 31.2964 10.4195 31.0709C10.4494 31.0408 10.4793 30.9957 10.5092 30.9506C8.98299 29.2516 7.12755 27.8684 5.07759 26.876C4.19476 26.3799 3.1174 26.4099 2.2645 26.9512C1.4116 27.4925 0.932824 28.4698 1.00764 29.4771C1.08246 30.4845 1.71084 31.3716 2.6236 31.7776C6.66367 33.8074 7.51666 36.2582 7.57651 36.4536C7.59147 36.5438 7.6214 36.619 7.66629 36.6942C7.86081 35.7169 8.21993 34.7395 8.69875 33.7923C8.7586 33.672 8.81837 33.5518 8.89319 33.4315L8.9082 33.4165Z" fill="#4EA352"/>
<path d="M9.2673 32.785C9.1476 32.9955 9.02792 33.1909 8.92318 33.4014C9.02792 33.1909 9.1476 32.9804 9.2673 32.785Z" fill="#4EA352"/>
<path d="M7.69618 36.6792C7.93559 35.6718 8.27975 34.6945 8.72865 33.7773C8.24983 34.7246 7.8907 35.7019 7.69618 36.6792Z" fill="#4EA352"/>
<path d="M10.4345 31.0559C10.2549 31.2815 10.0903 31.522 9.92569 31.7475C10.0903 31.507 10.2549 31.2815 10.4345 31.0559Z" fill="#4EA352"/>
<path d="M13.2775 27.9586C13.487 27.7632 13.6965 27.5827 13.906 27.3873C14.0257 27.282 14.1453 27.1767 14.2651 27.0865C14.5643 26.8309 14.8636 26.5904 15.1778 26.3498C15.2227 26.3197 15.2676 26.2896 15.3125 26.2445C15.6417 25.9889 15.9858 25.7484 16.315 25.5228C16.1504 25.2823 15.9709 25.0417 15.7764 24.7861C15.7764 24.7861 15.7764 24.7861 15.7764 24.771C15.7764 24.756 15.7764 24.7711 15.7764 24.756C13.1877 21.3731 9.83593 18.6516 6.00535 16.8173C4.67363 16.2309 3.11746 16.7873 2.45908 18.0953C1.81566 19.4034 2.29447 20.9971 3.56634 21.7189C8.48924 24.1997 10.9732 27.1918 12.1403 29.0863C12.4246 28.7856 12.7238 28.4999 13.0231 28.2142C13.1129 28.124 13.2026 28.0488 13.2924 27.9736L13.2775 27.9586Z" fill="#4EA352"/>
<path d="M15.1628 26.3498C14.8635 26.5904 14.5493 26.8309 14.2501 27.0865C14.5493 26.8309 14.8486 26.5904 15.1628 26.3498Z" fill="#4EA352"/>
<path d="M15.3125 26.2445C15.6417 25.9889 15.9858 25.7484 16.315 25.5228C15.9709 25.7484 15.6417 25.9889 15.3125 26.2445Z" fill="#4EA352"/>
<path d="M13.906 27.3873C13.6965 27.5677 13.487 27.7632 13.2775 27.9586C13.487 27.7632 13.6965 27.5827 13.906 27.3873Z" fill="#4EA352"/>
<path d="M15.7764 24.7861C15.9709 25.0417 16.1504 25.2823 16.315 25.5228C16.719 25.2522 17.108 24.9816 17.4971 24.7561C18.7241 24.0193 19.8014 23.478 20.804 23.0119C20.8489 22.9969 20.8938 22.9668 20.9387 22.9518C20.5945 22.0948 20.1905 21.1024 19.6967 20.0349C17.8263 16.0355 14.8336 11.0437 10.6739 8.66811C9.37205 8.00655 7.78599 8.47265 7.06776 9.75066C6.34953 11.0287 6.73853 12.6375 7.96552 13.4344C11.437 15.4341 14.2651 20.9972 15.7614 24.7711C15.7614 24.7711 15.7614 24.7711 15.7614 24.7861C15.7614 24.7861 15.7614 24.7861 15.7614 24.8012L15.7764 24.7861Z" fill="#4EA352"/>
<path d="M17.512 24.741C17.123 24.9816 16.719 25.2372 16.33 25.5078C16.734 25.2222 17.123 24.9665 17.512 24.741Z" fill="#4EA352"/>
<path d="M20.8189 23.0119C19.8314 23.478 18.739 24.0043 17.512 24.7561C18.5894 24.1246 19.6817 23.5382 20.8189 23.0119Z" fill="#4EA352"/>
<path d="M22.7342 22.1098C22.7342 22.1098 22.8838 22.0346 22.9587 22.0046C23.5572 21.7039 24.1407 21.3731 24.7243 21.0122C24.7542 20.9972 24.7692 20.9821 24.7991 20.9671V17.2985C24.0659 13.0134 22.8389 7.766 20.789 4.17253C20.0109 2.93962 18.3948 2.53365 17.123 3.27039C15.8511 3.99209 15.3873 5.60089 16.0457 6.89394C17.9909 10.307 19.0981 15.9603 19.6817 20.0199C20.1755 21.0874 20.5945 22.0797 20.9237 22.9368C21.5372 22.6812 22.1357 22.3955 22.7193 22.1098H22.7342Z" fill="#4EA352"/>
<path d="M22.9587 22.0046C22.9587 22.0046 22.809 22.0798 22.7342 22.1098C22.809 22.0798 22.8838 22.0346 22.9587 22.0046Z" fill="#4EA352"/>
<path d="M24.7243 21.0272C24.7243 21.0272 24.7692 20.9972 24.7991 20.9821C24.7991 20.9821 24.7543 21.0122 24.7243 21.0272Z" fill="#4EA352"/>
<path d="M52.7654 26.9361C51.9125 26.3949 50.8351 26.3648 49.9523 26.861C47.9023 27.8533 46.0469 29.2366 44.5206 30.9356C44.5655 30.9957 44.6104 31.0709 44.6553 31.1311C44.805 31.3265 44.9546 31.537 45.0892 31.7325C45.3586 32.1234 45.613 32.5143 45.8524 32.9353C45.9571 33.1308 46.0769 33.3262 46.1816 33.5217C46.2415 33.6269 46.2863 33.7322 46.3462 33.8525C46.7951 34.7696 47.1392 35.7019 47.3337 36.6491C47.3337 36.6641 47.3337 36.6942 47.3487 36.7092C47.3786 36.619 47.4085 36.5288 47.4235 36.4386C47.4534 36.3333 48.2614 33.8375 52.3763 31.7626C53.304 31.3566 53.9175 30.4695 53.9924 29.4621C54.0672 28.4548 53.5884 27.4774 52.7355 26.9361H52.7654Z" fill="#4EA352"/>
<path d="M46.3462 33.8525C46.7951 34.7696 47.1392 35.7019 47.3337 36.6491C47.1093 35.6868 46.7652 34.7546 46.3462 33.8525Z" fill="#4EA352"/>
<path d="M44.6703 31.1311C44.82 31.3265 44.9696 31.537 45.1042 31.7325C44.9696 31.522 44.82 31.3265 44.6703 31.1311Z" fill="#4EA352"/>
<path d="M46.1966 33.5217C46.0918 33.3262 45.9721 33.1308 45.8674 32.9354C45.9871 33.1308 46.0918 33.3262 46.1966 33.5217Z" fill="#4EA352"/>
<path d="M38.9094 25.6582C38.9094 25.6582 38.9094 25.6582 38.9244 25.6732C39.5977 26.1543 40.2861 26.6656 40.9595 27.2369C40.9744 27.2519 41.0043 27.267 41.0193 27.282C41.6477 27.8233 42.2612 28.3946 42.8447 29.011C42.8747 29.0411 42.8897 29.0562 42.9196 29.0863C45.0295 25.8837 48.0071 23.3276 51.4786 21.7188C52.4063 21.3129 53.0198 20.4258 53.0946 19.4184C53.1694 18.411 52.6906 17.4337 51.8377 16.8925C50.9848 16.3512 49.9074 16.3211 49.0246 16.8173C45.179 18.6516 41.8123 21.3881 39.2387 24.7861C39.2237 24.7861 39.2237 24.8011 39.2237 24.8161C39.104 25.1018 38.9993 25.3875 38.8945 25.6582L38.9094 25.6582Z" fill="#4EA352"/>
<path d="M40.9595 27.2369C40.2861 26.6656 39.6127 26.1393 38.9244 25.6732C39.6277 26.1694 40.3011 26.6806 40.9595 27.2369Z" fill="#4EA352"/>
<path d="M41.0193 27.282C41.6627 27.8233 42.2612 28.4096 42.8447 29.011C42.2612 28.4096 41.6477 27.8233 41.0193 27.282Z" fill="#4EA352"/>
<path d="M34.1063 22.9518C34.1063 22.9518 34.1811 22.9969 34.226 23.0119C35.2136 23.478 36.3058 24.0193 37.5328 24.7561C37.9668 25.0267 38.4157 25.3274 38.8796 25.6281C38.8796 25.6281 38.9094 25.6432 38.9244 25.6582C39.0291 25.3876 39.1339 25.1169 39.2536 24.8162C39.2536 24.8162 39.2537 24.8012 39.2686 24.7861C40.7649 21.0122 43.5929 15.419 47.0794 13.4193C48.3063 12.6375 48.7104 11.0136 47.9772 9.73561C47.259 8.4576 45.6579 7.99149 44.371 8.65306C40.2262 11.0287 37.2186 16.0205 35.3631 20.0049C34.8694 21.0724 34.4505 22.0647 34.1213 22.9367L34.1063 22.9518Z" fill="#4EA352"/>
<path d="M38.8646 25.6281C38.4157 25.3123 37.9667 25.0117 37.5179 24.7561C37.9518 25.0267 38.4157 25.3123 38.8646 25.6281Z" fill="#4EA352"/>
<path d="M37.5329 24.741C36.3059 24.0043 35.2136 23.463 34.2261 22.9969C35.3633 23.5231 36.4705 24.0945 37.5329 24.741Z" fill="#4EA352"/>
<path d="M30.3355 21.0272C30.9041 21.3731 31.4877 21.7038 32.0862 22.0045C32.176 22.0496 32.2509 22.0797 32.3406 22.1248C32.9242 22.4105 33.5078 22.6962 34.1213 22.9518C34.4654 22.0948 34.8694 21.1024 35.3631 20.0199C35.9916 15.7197 37.1438 10.1566 38.9993 6.92397C39.6577 5.61588 39.1938 4.02212 37.9219 3.30042C36.65 2.57872 35.0489 2.96965 34.2559 4.20255C32.2209 7.79603 30.979 13.0434 30.2458 17.3285V20.9972C30.2458 20.9972 30.3056 21.0273 30.3206 21.0423L30.3355 21.0272Z" fill="#4EA352"/>
<path d="M32.3257 22.1249C32.2359 22.0797 32.1611 22.0496 32.0713 22.0045C32.1461 22.0496 32.2359 22.0797 32.3257 22.1249Z" fill="#4EA352"/>
<path d="M30.2458 20.9821C30.2458 20.9821 30.3056 21.0122 30.3206 21.0272C30.2906 21.0122 30.2607 20.9972 30.2458 20.9821Z" fill="#4EA352"/>
<path d="M24.859 20.937C25.0835 20.7716 25.3229 20.6063 25.5324 20.4409C25.5623 20.4258 25.5922 20.3958 25.6072 20.3657C25.8017 20.2003 25.9813 20.0349 26.1608 19.8695C26.2207 19.8094 26.2805 19.7492 26.3404 19.7041C26.475 19.5838 26.5948 19.4485 26.7145 19.3132C26.8042 19.208 26.894 19.1177 26.9838 19.0125C27.1633 18.802 27.3429 18.5765 27.5075 18.3509C27.6721 18.5765 27.8517 18.802 28.0312 19.0125C28.121 19.1177 28.2108 19.208 28.3006 19.3132C28.4203 19.4485 28.54 19.5688 28.6746 19.7041C28.7345 19.7643 28.7943 19.8244 28.8542 19.8845C29.0337 20.0499 29.2133 20.2153 29.4078 20.3807C29.4377 20.4108 29.4677 20.4258 29.4976 20.4559C29.7071 20.6363 29.9315 20.7867 30.171 20.9521C30.2009 20.9671 30.2158 20.9821 30.2458 20.9972V3.73646C30.2458 2.21788 29.0188 1 27.5224 1C26.0261 1 24.7991 2.23292 24.7991 3.73646V20.9972C24.7991 20.9972 24.8441 20.9671 24.859 20.9521V20.937Z" fill="#4EA352"/>
<path d="M30.1859 20.922C30.1859 20.922 30.2308 20.9521 30.2607 20.9671C30.2607 20.9671 30.2159 20.937 30.1859 20.922Z" fill="#4EA352"/>
<path d="M26.3554 19.6891C26.3554 19.6891 26.2357 19.8094 26.1758 19.8545C26.2357 19.7943 26.2955 19.7342 26.3554 19.6891Z" fill="#4EA352"/>
<path d="M28.8692 19.8695C28.8692 19.8695 28.7495 19.7493 28.6896 19.6891C28.7495 19.7493 28.8093 19.8094 28.8692 19.8695Z" fill="#4EA352"/>
<path d="M29.5126 20.4258C29.5126 20.4258 29.4527 20.3807 29.4228 20.3507C29.4527 20.3807 29.4826 20.3958 29.5126 20.4258Z" fill="#4EA352"/>
<path d="M24.7991 20.9821C24.7991 20.9821 24.8441 20.9521 24.859 20.937C24.8441 20.937 24.8141 20.9671 24.7991 20.9821Z" fill="#4EA352"/>
<path d="M25.6072 20.3657C25.6072 20.3657 25.5474 20.4108 25.5324 20.4409C25.5623 20.4258 25.5922 20.3958 25.6072 20.3657Z" fill="#4EA352"/>
<path d="M13.2775 27.9586C13.1877 28.0338 13.0979 28.124 13.0081 28.1991M13.2775 27.9586C13.1877 28.0338 13.0979 28.1089 13.0081 28.1991M13.2775 27.9586C13.487 27.7632 13.6965 27.5827 13.906 27.3873M13.2775 27.9586L13.2924 27.9736C13.2026 28.0488 13.1129 28.124 13.0231 28.2142C12.7238 28.4999 12.4246 28.7856 12.1403 29.0863C10.9732 27.1918 8.48924 24.1997 3.56634 21.7189C2.29447 20.9971 1.81566 19.4034 2.45908 18.0953C3.11746 16.7873 4.67363 16.2309 6.00535 16.8173C9.83593 18.6516 13.1877 21.3731 15.7764 24.756C15.7764 24.7711 15.7764 24.756 15.7764 24.771C15.7764 24.7861 15.7764 24.7861 15.7764 24.7861M13.2775 27.9586C13.487 27.7632 13.6965 27.5677 13.906 27.3873M13.0081 28.1991C12.7088 28.4848 12.4096 28.7705 12.1253 29.0712M32.0713 22.0045C31.4728 21.7038 30.8892 21.3731 30.3206 21.0272M32.0713 22.0045C31.4578 21.7038 30.8742 21.3881 30.3206 21.0272M32.0713 22.0045C32.1611 22.0496 32.2359 22.0797 32.3257 22.1249M32.0713 22.0045C32.1461 22.0496 32.2359 22.0797 32.3257 22.1249M30.3206 21.0272C30.3056 21.0122 30.2458 20.9821 30.2458 20.9821C30.2607 20.9972 30.2906 21.0122 30.3206 21.0272ZM27.5224 18.3509C27.687 18.5765 27.8666 18.802 28.0462 19.0125C27.8816 18.802 27.702 18.5915 27.5224 18.3509ZM27.5224 18.3509C27.3578 18.5765 27.1783 18.802 26.9988 19.0125M27.5224 18.3509C27.3578 18.5915 27.1783 18.802 26.9988 19.0125M14.2651 27.0865C14.1453 27.1918 14.0257 27.282 13.906 27.3873M14.2651 27.0865C14.1453 27.1767 14.0257 27.282 13.906 27.3873M14.2651 27.0865C14.5643 26.8309 14.8636 26.5904 15.1778 26.3498C15.2227 26.3197 15.2676 26.2896 15.3125 26.2445M16.315 25.5228C16.315 25.5228 16.315 25.5228 16.33 25.5228H16.315ZM16.315 25.5228C15.9858 25.7484 15.6417 25.9889 15.3125 26.2445M16.315 25.5228C16.1504 25.2823 15.9709 25.0417 15.7764 24.7861M16.315 25.5228C15.9709 25.7484 15.6417 25.9889 15.3125 26.2445M16.315 25.5228C16.719 25.2522 17.108 24.9816 17.4971 24.7561C18.7241 24.0193 19.8014 23.478 20.804 23.0119C20.8489 22.9969 20.8938 22.9668 20.9387 22.9518C20.5945 22.0948 20.1905 21.1024 19.6967 20.0349C17.8263 16.0355 14.8336 11.0437 10.6739 8.66811C9.37205 8.00654 7.78599 8.47265 7.06776 9.75066C6.34953 11.0287 6.73853 12.6375 7.96552 13.4344C11.437 15.4341 14.2651 20.9972 15.7614 24.7711C15.7614 24.7711 15.7614 24.7711 15.7614 24.7861C15.7614 24.7861 15.7614 24.7861 15.7614 24.8012L15.7764 24.7861M41.0193 27.282C41.0193 27.282 40.9744 27.2519 40.9595 27.2369M41.0193 27.282C41.0043 27.267 40.9744 27.2519 40.9595 27.2369M41.0193 27.282C41.6477 27.8233 42.2612 28.3946 42.8448 29.011M41.0193 27.282C41.6627 27.8233 42.2612 28.4096 42.8448 29.011M41.0193 27.282C41.6477 27.8233 42.2612 28.4096 42.8448 29.011M40.9595 27.2369C40.2861 26.6656 39.5977 26.1543 38.9244 25.6732M40.9595 27.2369C40.2861 26.6656 39.6127 26.1393 38.9244 25.6732M40.9595 27.2369C40.3011 26.6806 39.6277 26.1694 38.9244 25.6732M38.8646 25.6281C38.8646 25.6281 38.9094 25.6582 38.9244 25.6732M38.8646 25.6281C38.8795 25.6431 38.9094 25.6582 38.9094 25.6582M38.8646 25.6281C38.4157 25.3123 37.9667 25.0117 37.5179 24.7561C37.9518 25.0267 38.4157 25.3123 38.8646 25.6281ZM38.9244 25.6732C38.9244 25.6732 38.9244 25.6732 38.9094 25.6582M38.9244 25.6732C38.9094 25.6582 38.9094 25.6582 38.9094 25.6582M38.9094 25.6582L38.8945 25.6582C38.9993 25.3875 39.104 25.1018 39.2237 24.8161C39.2237 24.8011 39.2237 24.7861 39.2387 24.7861C41.8123 21.3881 45.179 18.6516 49.0246 16.8173C49.9074 16.3211 50.9848 16.3512 51.8377 16.8925C52.6906 17.4337 53.1694 18.411 53.0946 19.4184C53.0198 20.4258 52.4063 21.3129 51.4786 21.7188C48.0071 23.3276 45.0295 25.8837 42.9196 29.0863C42.8897 29.0562 42.8747 29.0411 42.8448 29.011M32.3257 22.1249C32.9242 22.4105 33.5527 22.6962 34.226 23.0119M32.3257 22.1249C32.9092 22.4256 33.5078 22.6962 34.1063 22.9518M34.226 23.0119C34.1811 22.9969 34.1512 22.9668 34.1063 22.9518M34.226 23.0119C34.1811 22.9969 34.1063 22.9518 34.1063 22.9518M34.226 23.0119C35.2136 23.478 36.3058 24.0193 37.5328 24.7561C37.9668 25.0267 38.4157 25.3274 38.8796 25.6281C38.8796 25.6281 38.9094 25.6432 38.9244 25.6582C39.0291 25.3876 39.1339 25.1169 39.2536 24.8162C39.2536 24.8162 39.2536 24.8012 39.2686 24.7861C40.7649 21.0122 43.5929 15.419 47.0794 13.4193C48.3063 12.6375 48.7104 11.0136 47.9772 9.73561C47.259 8.4576 45.6579 7.99149 44.371 8.65305C40.2262 11.0287 37.2186 16.0205 35.3631 20.0049C34.8694 21.0724 34.4505 22.0647 34.1213 22.9367L34.1063 22.9518M26.3554 19.6891C26.49 19.5688 26.6097 19.4335 26.7294 19.2982C26.6097 19.4335 26.4751 19.5688 26.3554 19.6891ZM26.3554 19.6891C26.3554 19.6891 26.2357 19.8094 26.1758 19.8545C26.2357 19.7943 26.2955 19.7342 26.3554 19.6891ZM28.6896 19.6891C28.5699 19.5688 28.4352 19.4335 28.3155 19.2982M28.6896 19.6891C28.5549 19.5688 28.4352 19.4335 28.3155 19.2982M28.6896 19.6891C28.7495 19.7493 28.8692 19.8695 28.8692 19.8695C28.8093 19.8094 28.7495 19.7493 28.6896 19.6891ZM28.3155 19.2982C28.2258 19.1929 28.136 19.1027 28.0462 18.9974M26.9988 19.0125C26.909 19.1177 26.8192 19.208 26.7294 19.3132M29.4228 20.3507C29.2283 20.2003 29.0487 20.0349 28.8692 19.8545C29.0487 20.0349 29.2432 20.1853 29.4228 20.3507ZM29.4228 20.3507C29.4527 20.3807 29.5126 20.4258 29.5126 20.4258M29.4228 20.3507C29.4527 20.3807 29.4826 20.3958 29.5126 20.4258M46.1966 33.5217C46.2564 33.627 46.3013 33.7322 46.3612 33.8525C46.3163 33.7472 46.2564 33.642 46.1966 33.5217ZM46.1966 33.5217C46.0918 33.3262 45.9721 33.1308 45.8674 32.9354M46.1966 33.5217L46.1816 33.4766C46.2415 33.5969 46.2864 33.7021 46.3462 33.8074C46.7652 34.6945 47.1093 35.6267 47.3337 36.604C47.4535 37.2205 47.5283 37.8219 47.5283 38.4233C47.5283 42.4979 44.5057 45.5651 42.9645 46.8732C42.9795 46.5124 42.9795 46.1365 42.9795 45.7305C42.9795 39.3404 38.4306 32.9354 27.5075 32.9354C16.5843 32.9354 12.0356 39.3254 12.0356 45.7305C12.0356 46.1365 12.0506 46.5124 12.0506 46.8732C8.96814 44.257 6.82834 40.5884 7.68124 36.6341C7.92065 35.6267 8.26481 34.6644 8.7137 33.7322C8.78852 33.6119 8.84838 33.4916 8.90823 33.3713C9.01298 33.1608 9.13274 32.9654 9.25245 32.7549C9.44697 32.4091 9.67142 32.0633 9.91083 31.7175C10.0754 31.492 10.24 31.2513 10.4195 31.0258C10.9432 30.3342 11.5119 29.6727 12.1104 29.0412C12.3947 28.7405 12.694 28.4548 12.9933 28.1691C13.083 28.0939 13.1728 28.0037 13.2626 27.9285C13.4721 27.7331 13.6815 27.5376 13.891 27.3572C14.0107 27.2519 14.1304 27.1617 14.2501 27.0565C14.5494 26.8009 14.8486 26.5603 15.1628 26.3197C15.2077 26.2746 15.2527 26.2446 15.2976 26.2145C15.6267 25.9739 15.9559 25.7333 16.3001 25.4928C16.315 25.4928 16.315 25.4928 16.315 25.4928C16.7041 25.2221 17.1081 24.9665 17.4971 24.726C18.5745 24.0794 19.6818 23.5081 20.804 22.9819C21.4923 22.6661 22.1357 22.3804 22.7342 22.0948C22.809 22.0647 22.8839 22.0196 22.9587 21.9895C23.5872 21.6888 24.1707 21.3731 24.7244 20.9972C24.7543 20.9822 24.7692 20.9521 24.7992 20.9521C24.8141 20.9371 24.8441 20.922 24.8591 20.907C25.0835 20.7566 25.308 20.5912 25.5324 20.4108C25.5474 20.3807 25.5773 20.3657 25.6072 20.3356C25.7868 20.1853 25.9813 20.0199 26.1609 19.8394C26.2207 19.7943 26.2806 19.7342 26.3404 19.6741C26.4601 19.5538 26.5948 19.4184 26.7145 19.2831C26.8043 19.1779 26.894 19.0877 26.9838 18.9824C27.1484 18.7719 27.3279 18.5614 27.5075 18.3209C27.6721 18.5614 27.8517 18.7719 28.0313 18.9824C28.121 19.0877 28.2108 19.1779 28.3006 19.2831C28.4353 19.4184 28.555 19.5538 28.6747 19.6741C28.7345 19.7342 28.7944 19.7943 28.8542 19.8545C29.0338 20.0349 29.2283 20.2003 29.4079 20.3507C29.4378 20.3807 29.4677 20.3958 29.4976 20.4258C29.7221 20.6063 29.9465 20.7716 30.171 20.922C30.2009 20.937 30.2159 20.9521 30.2458 20.9671C30.2608 20.9821 30.2907 20.9972 30.3206 21.0122C30.8742 21.373 31.4579 21.6888 32.0713 21.9895C32.1611 22.0346 32.2359 22.0647 32.3257 22.1098C32.9242 22.3955 33.5527 22.6811 34.2261 22.9969M46.1966 33.5217C46.0918 33.3262 45.9871 33.1308 45.8674 32.9354M24.7243 21.0272C24.1557 21.3731 23.5572 21.7038 22.9587 22.0196C23.5722 21.7189 24.1557 21.4031 24.7243 21.0272ZM24.7243 21.0272C24.7243 21.0272 24.7692 20.9972 24.7991 20.9821M24.7243 21.0272C24.7543 21.0122 24.7991 20.9821 24.7991 20.9821M25.5324 20.4258C25.3079 20.6063 25.0835 20.7716 24.859 20.922M30.1859 20.922C29.9615 20.7716 29.737 20.6063 29.5126 20.4258M30.1859 20.922C29.9465 20.7716 29.737 20.6063 29.5126 20.4258M30.1859 20.922C30.1859 20.922 30.2308 20.9521 30.2607 20.9671C30.2607 20.9671 30.2159 20.937 30.1859 20.922ZM20.8189 23.0119C21.5073 22.6962 22.1357 22.4105 22.7492 22.1249C22.1656 22.4256 21.5671 22.6962 20.9536 22.9518C20.9087 22.9668 20.8638 22.9969 20.8189 23.0119ZM20.8189 23.0119C19.8314 23.478 18.739 24.0043 17.512 24.7561C18.5894 24.1246 19.6817 23.5382 20.8189 23.0119ZM8.9082 33.4165C8.84835 33.5367 8.77352 33.657 8.71367 33.7773C8.77352 33.657 8.83338 33.5367 8.9082 33.4165ZM8.9082 33.4165C9.01294 33.206 9.13268 33.0105 9.25238 32.8C9.46187 32.4392 9.68632 32.0933 9.91077 31.7626C10.0754 31.522 10.2399 31.2964 10.4195 31.0709C10.4494 31.0408 10.4793 30.9957 10.5092 30.9506C8.98299 29.2516 7.12755 27.8684 5.07759 26.876C4.19476 26.3799 3.1174 26.4099 2.2645 26.9512C1.4116 27.4925 0.932824 28.4698 1.00764 29.4771C1.08246 30.4845 1.71084 31.3716 2.6236 31.7776C6.66367 33.8074 7.51666 36.2582 7.57651 36.4536C7.59147 36.5438 7.6214 36.619 7.66629 36.6942C7.86081 35.7169 8.21993 34.7395 8.69875 33.7923C8.7586 33.672 8.81837 33.5518 8.89319 33.4315L8.9082 33.4165ZM27.5224 40.2877C26.5199 40.2877 25.697 39.4758 25.697 38.4533M27.5224 40.2877C28.5399 40.2877 29.348 39.4758 29.348 38.4533M27.5224 40.2877C28.5306 40.2877 29.348 39.4664 29.348 38.4533M27.5224 40.2877C26.5142 40.2877 25.697 39.4664 25.697 38.4533M25.697 38.4533C25.697 37.4309 26.5049 36.619 27.5224 36.619M25.697 38.4533C25.697 37.4403 26.5142 36.619 27.5224 36.619M27.5224 36.619C28.5399 36.619 29.348 37.4309 29.348 38.4533M27.5224 36.619C28.5306 36.619 29.348 37.4403 29.348 38.4533M45.8674 32.9354C45.628 32.5294 45.3885 32.1384 45.1042 31.7325M45.1042 31.7325C44.9546 31.522 44.82 31.3265 44.6703 31.1311M45.1042 31.7325C44.9696 31.537 44.82 31.3265 44.6703 31.1311M45.1042 31.7325C44.9696 31.522 44.82 31.3265 44.6703 31.1311M44.6703 31.1311C44.1167 30.3943 43.5032 29.6727 42.8598 28.9961C42.2762 28.3946 41.6627 27.8082 41.0343 27.267C41.0193 27.2519 40.9893 27.2369 40.9744 27.2218C40.331 26.6655 39.6427 26.1393 38.9394 25.6582C38.9244 25.6432 38.8946 25.6281 38.8796 25.6131C38.4307 25.2973 37.9818 24.9966 37.5329 24.741M37.5329 24.741C36.4555 24.1095 35.3483 23.5231 34.2261 22.9969M37.5329 24.741C36.3059 24.0043 35.2136 23.463 34.2261 22.9969M37.5329 24.741C36.4705 24.0945 35.3633 23.5231 34.2261 22.9969M27.5225 27.4925C26.5199 27.4925 25.697 26.6806 25.697 25.6582M27.5225 27.4925C28.54 27.4925 29.348 26.6806 29.348 25.6582M27.5225 27.4925C28.5307 27.4925 29.348 26.6713 29.348 25.6582M27.5225 27.4925C26.5143 27.4925 25.697 26.6713 25.697 25.6582M25.697 25.6582C25.697 24.6358 26.505 23.8239 27.5225 23.8239M25.697 25.6582C25.697 24.6451 26.5143 23.8239 27.5225 23.8239M27.5225 23.8239C28.54 23.8239 29.348 24.6358 29.348 25.6582M27.5225 23.8239C28.5307 23.8239 29.348 24.6451 29.348 25.6582M22.7342 22.1098C22.7342 22.1098 22.8838 22.0346 22.9587 22.0046M22.7342 22.1098H22.7193C22.1357 22.3955 21.5372 22.6812 20.9237 22.9368C20.5945 22.0797 20.1755 21.0874 19.6817 20.0199C19.0981 15.9603 17.9909 10.307 16.0457 6.89394C15.3873 5.60089 15.8511 3.99209 17.123 3.27039C18.3948 2.53365 20.0109 2.93962 20.789 4.17253C22.8389 7.766 24.0659 13.0134 24.7991 17.2985V20.9671C24.7692 20.9821 24.7542 20.9972 24.7243 21.0122C24.1407 21.3731 23.5572 21.7039 22.9587 22.0046M22.7342 22.1098C22.809 22.0798 22.9587 22.0046 22.9587 22.0046M22.7342 22.1098C22.809 22.0798 22.8838 22.0346 22.9587 22.0046M24.7991 20.9821C24.7991 20.9821 24.8441 20.9521 24.859 20.937M24.7991 20.9821C24.8141 20.9671 24.8441 20.937 24.859 20.937M46.3462 33.8525C46.2863 33.7322 46.2415 33.6269 46.1816 33.5217C46.0769 33.3262 45.9571 33.1308 45.8524 32.9353C45.613 32.5143 45.3586 32.1234 45.0892 31.7325C44.9546 31.537 44.805 31.3265 44.6553 31.1311C44.6104 31.0709 44.5655 30.9957 44.5206 30.9356C46.0469 29.2366 47.9023 27.8533 49.9523 26.861C50.8351 26.3648 51.9125 26.3949 52.7654 26.9361H52.7355C53.5884 27.4774 54.0672 28.4548 53.9924 29.4621C53.9175 30.4695 53.304 31.3566 52.3763 31.7626C48.2614 33.8375 47.4534 36.3333 47.4235 36.4386C47.4085 36.5288 47.3786 36.619 47.3487 36.7092C47.3337 36.6942 47.3337 36.6641 47.3337 36.6491M46.3462 33.8525C46.7951 34.7696 47.1392 35.7019 47.3337 36.6491M46.3462 33.8525C46.7652 34.7546 47.1093 35.6868 47.3337 36.6491M30.2458 20.9972V17.3285C30.9789 13.0434 32.2209 7.79603 34.2559 4.20255C35.0489 2.96965 36.65 2.57872 37.9219 3.30042C39.1938 4.02212 39.6577 5.61588 38.9993 6.92397C37.1438 10.1566 35.9916 15.7197 35.3631 20.0199C34.8694 21.1024 34.4654 22.0948 34.1213 22.9518C33.5078 22.6962 32.9242 22.4105 32.3406 22.1248C32.2509 22.0797 32.176 22.0496 32.0862 22.0045C31.4877 21.7038 30.9041 21.3731 30.3355 21.0272L30.3206 21.0423C30.3056 21.0273 30.2458 20.9972 30.2458 20.9972ZM30.2458 20.9972C30.2158 20.9821 30.2009 20.9671 30.171 20.9521C29.9315 20.7867 29.7071 20.6363 29.4976 20.4559C29.4677 20.4258 29.4377 20.4108 29.4078 20.3807C29.2133 20.2153 29.0337 20.0499 28.8542 19.8845C28.7943 19.8244 28.7345 19.7643 28.6746 19.7041C28.54 19.5688 28.4203 19.4485 28.3006 19.3132C28.2108 19.208 28.121 19.1177 28.0312 19.0125C27.8517 18.802 27.6721 18.5765 27.5075 18.3509C27.3429 18.5765 27.1633 18.802 26.9838 19.0125C26.894 19.1177 26.8042 19.208 26.7145 19.3132C26.5948 19.4485 26.475 19.5838 26.3404 19.7041C26.2805 19.7492 26.2207 19.8094 26.1608 19.8695C25.9813 20.0349 25.8017 20.2003 25.6072 20.3657M30.2458 20.9972V3.73646C30.2458 2.21788 29.0188 1 27.5224 1C26.0261 1 24.7991 2.23292 24.7991 3.73646V20.9972C24.7991 20.9972 24.8441 20.9671 24.859 20.9521V20.937M24.859 20.937C25.0835 20.7716 25.3229 20.6063 25.5324 20.4409M25.5324 20.4409C25.5623 20.4259 25.5922 20.3958 25.6072 20.3657M25.5324 20.4409C25.5474 20.4108 25.6072 20.3657 25.6072 20.3657M26.1758 19.8695C25.9962 20.0349 25.8017 20.2003 25.6222 20.3657C25.8167 20.2153 25.9962 20.05 26.1758 19.8695ZM15.3125 26.2596C15.3125 26.2596 15.2227 26.3198 15.1778 26.3649C15.2227 26.3348 15.2676 26.3047 15.3125 26.2596ZM45.1042 31.7475C45.3735 32.1385 45.6279 32.5444 45.8673 32.9504C45.6279 32.5444 45.3885 32.1385 45.1042 31.7475ZM9.92569 31.7626C9.68628 32.0934 9.46182 32.4392 9.2673 32.8C9.47679 32.4542 9.70124 32.1084 9.92569 31.7626ZM27.5224 32.9805C16.5993 32.9805 12.0505 39.3855 12.0505 45.7756C12.0505 46.1816 12.0505 46.5575 12.0655 46.9183C12.26 52.3912 13.861 54 13.861 54C13.861 49.4292 14.7738 43.0241 21.1332 43.0241C27.4926 43.0241 27.5075 49.4293 27.5075 49.4293C27.5075 49.4293 27.5075 43.0241 33.8818 43.0241C40.2561 43.0241 41.1539 49.4292 41.1539 54C41.1539 54 42.755 52.3912 42.9495 46.9183C42.9495 46.5575 42.9645 46.1816 42.9645 45.7756C42.9645 39.3705 38.4157 32.9805 27.4926 32.9805H27.5224ZM9.2673 32.785C9.1476 32.9955 9.02792 33.1909 8.92318 33.4014C9.02792 33.1909 9.1476 32.9804 9.2673 32.785ZM7.69618 36.6792C7.93559 35.6718 8.27975 34.6945 8.72865 33.7773C8.24983 34.7246 7.8907 35.7019 7.69618 36.6792ZM10.4345 31.0559C10.2549 31.2815 10.0903 31.522 9.92569 31.7475C10.0903 31.507 10.2549 31.2815 10.4345 31.0559ZM15.1628 26.3498C14.8635 26.5904 14.5493 26.8309 14.2501 27.0865C14.5493 26.8309 14.8486 26.5904 15.1628 26.3498ZM17.512 24.741C17.123 24.9816 16.719 25.2372 16.33 25.5078C16.734 25.2222 17.123 24.9665 17.512 24.741Z" stroke="black" stroke-linecap="round" stroke-linejoin="round"/>
</svg>
