<svg width="53" height="55" viewBox="0 0 53 55" fill="none" xmlns="http://www.w3.org/2000/svg">
<path d="M11.7249 36.985C10.3449 36.43 8.81497 36.43 7.43497 36.985C6.05497 37.54 4.52499 37.54 3.14499 36.985L1 36.13M11.7249 36.985H11.71C13.09 37.54 14.62 37.54 16 36.985L18.145 36.13V45.565H1V36.13M11.7249 36.985C13.1049 37.54 14.635 37.54 16.015 36.985L18.16 36.13V31.84L16.015 32.695C14.635 33.25 13.1049 33.25 11.7249 32.695C10.3449 32.14 8.81497 32.14 7.43497 32.695C6.05497 33.25 4.52499 33.25 3.14499 32.695L1 31.84V36.13M46.0299 36.985C44.6499 36.43 43.12 36.43 41.74 36.985C40.36 37.54 38.83 37.54 37.45 36.985L35.305 36.13M46.0299 36.985H46.015C47.395 37.54 48.925 37.54 50.305 36.985L52.45 36.13V45.565H35.305V36.13M46.0299 36.985C47.4099 37.54 48.94 37.54 50.32 36.985L52.465 36.13V31.84L50.32 32.695C48.94 33.25 47.4099 33.25 46.0299 32.695C44.6499 32.14 43.12 32.14 41.74 32.695C40.36 33.25 38.83 33.25 37.45 32.695L35.305 31.84V36.13M1.94501 45.55V53.62M5.66498 45.55V53.62M9.38495 45.55V53.62M13.105 45.55V53.62M16.825 45.55V53.62M36.595 45.55V53.62M40.3149 45.55V53.62M44.035 45.55V53.62M47.755 45.55V53.62M51.4749 45.55V53.62M1.01501 21.5501V31.8401L3.16 32.695C4.54 33.25 6.06998 33.25 7.44998 32.695C8.82998 32.14 10.36 32.14 11.74 32.695C13.12 33.25 14.6499 33.25 16.0299 32.695L18.175 31.8401V28.405H7.89996C4.10496 28.405 1.04495 25.3301 1.04495 21.5501H1.01501ZM35.305 8.08C35.305 11.725 32.335 14.68 28.675 14.68H24.775C21.115 14.68 18.145 11.71 18.145 8.05002V4.26999C18.145 2.58999 19.3899 1.225 21.0099 1H20.98C18.835 1.135 16.735 1.79498 14.89 2.90498L12.91 4.09C11.035 5.215 9.81999 7.15 9.60999 9.295C9.60999 9.43 9.51998 9.54999 9.41498 9.60999L4.32996 12.655C2.25996 13.9 1 16.12 1 18.535V21.505C1 25.3 4.07501 28.36 7.85501 28.36H28.435C32.215 28.36 35.29 25.285 35.29 21.505V8.035L35.305 8.08ZM49.1199 12.685L44.035 9.65498C43.915 9.59498 43.855 9.475 43.84 9.34C43.63 7.195 42.415 5.24498 40.54 4.11998L38.56 2.93501C36.7 1.82501 34.615 1.16501 32.455 1.01501C32.485 1.01501 32.515 1.03 32.56 1.045C32.65 1.06 32.74 1.09001 32.83 1.10501C32.935 1.13501 33.055 1.16498 33.16 1.20998C33.25 1.23998 33.325 1.28499 33.415 1.31499C33.52 1.35999 33.61 1.42001 33.715 1.48001C33.79 1.52501 33.8649 1.58502 33.9399 1.63002C34.0299 1.69002 34.12 1.765 34.195 1.84C34.255 1.9 34.33 1.95999 34.39 2.01999C34.465 2.10999 34.54 2.19998 34.615 2.28998C34.675 2.36498 34.72 2.425 34.765 2.5C34.825 2.605 34.885 2.70999 34.945 2.81499C34.975 2.88999 35.02 2.96498 35.05 3.03998C35.095 3.15998 35.14 3.29499 35.17 3.42999C35.185 3.50499 35.215 3.56501 35.23 3.64001C35.275 3.85001 35.29 4.05999 35.29 4.26999V31.825L37.435 32.68C38.815 33.235 40.3449 33.235 41.7249 32.68C43.1049 32.125 44.635 32.125 46.015 32.68C47.395 33.235 48.925 33.235 50.305 32.68L52.45 31.825V18.565C52.45 16.15 51.1899 13.93 49.1199 12.685ZM18.16 4.285V8.06499C18.16 11.725 21.13 14.695 24.79 14.695H28.6899C32.3349 14.695 35.305 11.74 35.32 8.09502C35.32 8.09502 35.32 8.095 35.32 8.08V4.30002C35.32 4.09002 35.2899 3.865 35.2599 3.67C35.2599 3.595 35.215 3.53498 35.2 3.45998C35.17 3.32498 35.125 3.19001 35.08 3.07001C35.05 2.99501 35.0049 2.92002 34.9749 2.84502C34.9149 2.74002 34.87 2.61998 34.795 2.52998C34.75 2.45498 34.69 2.39501 34.645 2.32001C34.57 2.23001 34.51 2.14002 34.42 2.05002C34.36 1.99002 34.2999 1.92998 34.2249 1.86998C34.1349 1.79498 34.06 1.72 33.97 1.66C33.895 1.6 33.8199 1.55499 33.7449 1.50999C33.6549 1.44999 33.55 1.40502 33.445 1.34502C33.355 1.30002 33.2799 1.27001 33.1899 1.24001C33.0849 1.19501 32.965 1.16499 32.86 1.13499C32.77 1.10499 32.68 1.08998 32.59 1.07498C32.41 1.04498 32.215 1.01501 32.02 1.01501H21.505C21.355 1.01501 21.205 1.04501 21.055 1.06001C19.435 1.28501 18.1899 2.65 18.1899 4.33L18.16 4.285Z" stroke="black" stroke-linecap="round" stroke-linejoin="round"/>
</svg>
