<svg width="55" height="42" viewBox="0 0 55 42" fill="none" xmlns="http://www.w3.org/2000/svg">
<path d="M35.7148 22.4741C36.1648 22.4741 36.6148 22.4891 37.0498 22.5341C27.4348 16.2941 33.1198 -4.58589 20.9398 3.22911C28.1098 5.98911 27.6598 22.4741 35.6998 22.4741H35.7148Z" fill="#6994FF"/>
<path d="M43.2598 24.0941C41.3398 23.2391 39.2548 22.6991 37.0498 22.5341C36.5998 22.5041 36.1648 22.4741 35.7148 22.4741C27.6748 22.4741 28.1248 5.97411 20.9548 3.24411C20.3098 2.98911 19.6048 2.85412 18.8098 2.85412C10.3498 2.85412 7.06483 -0.715892 2.95483 3.13911C2.60983 3.46911 2.45984 3.94911 2.56484 4.41411C5.50484 17.4041 2.12983 23.6291 1.25983 35.7491H34.9948C36.2848 30.9491 39.2698 26.8241 43.2598 24.0941ZM13.0348 22.6241C9.53984 22.6241 6.68984 19.7891 6.68984 16.2791C6.68984 12.7691 9.52484 9.93411 13.0348 9.93411C16.5448 9.93411 19.3798 12.7691 19.3798 16.2791C19.3798 19.7741 16.5448 22.6241 13.0348 22.6241ZM19.8598 9.09411C19.0048 9.09411 18.3148 8.40411 18.3148 7.54911C18.3148 6.69411 19.0048 6.00411 19.8598 6.00411C20.7148 6.00411 21.4048 6.69411 21.4048 7.54911C21.4048 8.40411 20.7148 9.09411 19.8598 9.09411ZM21.4648 12.0791C21.4648 11.2241 22.1548 10.5341 23.0098 10.5341C23.8648 10.5341 24.5548 11.2241 24.5548 12.0791C24.5548 12.9341 23.8648 13.6241 23.0098 13.6241C22.1548 13.6241 21.4648 12.9341 21.4648 12.0791ZM23.7898 17.3141C23.7898 16.4591 24.4798 15.7691 25.3348 15.7691C26.1898 15.7691 26.8798 16.4591 26.8798 17.3141C26.8798 18.1691 26.1898 18.8591 25.3348 18.8591C24.4798 18.8591 23.7898 18.1691 23.7898 17.3141ZM26.3098 22.6841C26.3098 21.8291 26.9998 21.1391 27.8548 21.1391C28.7098 21.1391 29.3998 21.8291 29.3998 22.6841C29.3998 23.5391 28.7098 24.2291 27.8548 24.2291C26.9998 24.2291 26.3098 23.5391 26.3098 22.6841Z" fill="#6994FF"/>
<path d="M16.0948 14.8841L14.2498 14.6141L13.4248 12.9491C13.2598 12.6341 12.8098 12.6341 12.6448 12.9491L11.8198 14.6141L9.97482 14.8841C9.61482 14.9291 9.47984 15.3791 9.73484 15.6191L11.0698 16.9091L10.7548 18.7391C10.6948 19.0991 11.0698 19.3691 11.3848 19.1891L13.0348 18.3191L14.6848 19.1891C14.9998 19.3541 15.3748 19.0841 15.3148 18.7391L14.9998 16.9091L16.3348 15.6191C16.5898 15.3641 16.4548 14.9291 16.0948 14.8841Z" fill="#6994FF"/>
<path d="M34.9948 35.7341H53.4298C51.8998 30.5291 48.1498 26.2691 43.2598 24.0791C39.2548 26.8091 36.2698 30.9191 34.9948 35.7341Z" fill="#6994FF"/>
<path d="M35.7148 22.4741C36.1648 22.4741 36.6148 22.4891 37.0498 22.5341M35.7148 22.4741H35.6998C27.6598 22.4741 28.1098 5.98911 20.9398 3.22911C33.1198 -4.58589 27.4348 16.2941 37.0498 22.5341M35.7148 22.4741C36.1648 22.4741 36.5998 22.5041 37.0498 22.5341M35.7148 22.4741C27.6748 22.4741 28.1248 5.97411 20.9548 3.24411C20.3098 2.98911 19.6048 2.85412 18.8098 2.85412C10.3498 2.85412 7.06483 -0.715892 2.95483 3.13911C2.60983 3.46911 2.45984 3.94911 2.56484 4.41411C5.50484 17.4041 2.12983 23.6291 1.25983 35.7491H34.9948C36.2848 30.9491 39.2698 26.8241 43.2598 24.0941C41.3398 23.2391 39.2548 22.6991 37.0498 22.5341M13.0348 22.6241C9.53984 22.6241 6.68984 19.7891 6.68984 16.2791M13.0348 22.6241C16.5448 22.6241 19.3798 19.7741 19.3798 16.2791M13.0348 22.6241C9.52484 22.6241 6.68984 19.7891 6.68984 16.2791M13.0348 22.6241C16.5448 22.6241 19.3798 19.7891 19.3798 16.2791M6.68984 16.2791C6.68984 12.7691 9.52484 9.93411 13.0348 9.93411M6.68984 16.2791C6.68984 12.7691 9.53984 9.93411 13.0348 9.93411M13.0348 9.93411C16.5448 9.93411 19.3798 12.7691 19.3798 16.2791M13.0348 9.93411C16.5448 9.93411 19.3798 12.7841 19.3798 16.2791M34.9948 35.7341H1.25982C1.22982 36.1991 1.19982 36.6791 1.16982 37.1591C1.04982 39.3791 2.81983 41.2541 5.03983 41.2541H34.3048M34.9948 35.7341C34.5448 37.4291 34.3048 39.2141 34.3048 41.0441M34.9948 35.7341H53.4298M34.9948 35.7341C34.5448 37.4291 34.3048 39.1991 34.3048 41.0441M34.9948 35.7341C36.2698 30.9191 39.2548 26.8091 43.2598 24.0791C48.1498 26.2691 51.8998 30.5291 53.4298 35.7341M34.3048 41.2541C34.3048 41.2541 34.3048 41.1191 34.3048 41.0441M34.3048 41.2541C34.3048 41.1791 34.3048 41.1191 34.3048 41.0441M34.3048 41.2541H53.8648C54.0448 41.2541 54.1798 41.1191 54.1798 40.9391C54.1798 39.1391 53.9248 37.3841 53.4448 35.7341H53.4298M16.3348 15.6191L14.9998 16.9091L15.3148 18.7391M16.3348 15.6191C16.5898 15.3791 16.4548 14.9291 16.0948 14.8841M16.3348 15.6191C16.5898 15.3641 16.4548 14.9291 16.0948 14.8841M15.3148 18.7391C15.3748 19.0991 14.9998 19.3691 14.6848 19.1891M15.3148 18.7391C15.3748 19.0841 14.9998 19.3541 14.6848 19.1891M14.6848 19.1891L13.0348 18.3191L11.3848 19.1891M11.3848 19.1891C11.0698 19.3541 10.6948 19.0841 10.7548 18.7391M11.3848 19.1891C11.0698 19.3691 10.6948 19.0991 10.7548 18.7391M10.7548 18.7391L11.0698 16.9091L9.73484 15.6191M9.73484 15.6191C9.47984 15.3641 9.61482 14.9291 9.97482 14.8841M9.73484 15.6191C9.47984 15.3791 9.61482 14.9291 9.97482 14.8841M9.97482 14.8841L11.8198 14.6141L12.6448 12.9491C12.8098 12.6341 13.2598 12.6341 13.4248 12.9491L14.2498 14.6141L16.0948 14.8841M19.8598 9.09411C19.0048 9.09411 18.3148 8.40411 18.3148 7.54911C18.3148 6.69411 19.0048 6.00411 19.8598 6.00411C20.7148 6.00411 21.4048 6.69411 21.4048 7.54911C21.4048 8.40411 20.7148 9.09411 19.8598 9.09411ZM21.4648 12.0791C21.4648 11.2241 22.1548 10.5341 23.0098 10.5341C23.8648 10.5341 24.5548 11.2241 24.5548 12.0791C24.5548 12.9341 23.8648 13.6241 23.0098 13.6241C22.1548 13.6241 21.4648 12.9341 21.4648 12.0791ZM23.7898 17.3141C23.7898 16.4591 24.4798 15.7691 25.3348 15.7691C26.1898 15.7691 26.8798 16.4591 26.8798 17.3141C26.8798 18.1691 26.1898 18.8591 25.3348 18.8591C24.4798 18.8591 23.7898 18.1691 23.7898 17.3141ZM26.3098 22.6841C26.3098 21.8291 26.9998 21.1391 27.8548 21.1391C28.7098 21.1391 29.3998 21.8291 29.3998 22.6841C29.3998 23.5391 28.7098 24.2291 27.8548 24.2291C26.9998 24.2291 26.3098 23.5391 26.3098 22.6841ZM19.8598 5.98911C19.0048 5.98911 18.3148 6.67911 18.3148 7.53411C18.3148 8.38911 19.0048 9.07911 19.8598 9.07911C20.7148 9.07911 21.4048 8.38911 21.4048 7.53411C21.4048 6.67911 20.7148 5.98911 19.8598 5.98911ZM24.5698 12.0791C24.5698 11.2241 23.8798 10.5341 23.0248 10.5341C22.1698 10.5341 21.4798 11.2241 21.4798 12.0791C21.4798 12.9341 22.1698 13.6241 23.0248 13.6241C23.8798 13.6241 24.5698 12.9341 24.5698 12.0791ZM26.8948 17.3141C26.8948 16.4591 26.2048 15.7691 25.3498 15.7691C24.4948 15.7691 23.8048 16.4591 23.8048 17.3141C23.8048 18.1691 24.4948 18.8591 25.3498 18.8591C26.2048 18.8591 26.8948 18.1691 26.8948 17.3141ZM29.4148 22.6841C29.4148 21.8291 28.7248 21.1391 27.8698 21.1391C27.0148 21.1391 26.3248 21.8291 26.3248 22.6841C26.3248 23.5391 27.0148 24.2291 27.8698 24.2291C28.7248 24.2291 29.4148 23.5391 29.4148 22.6841Z" stroke="black" stroke-linecap="round" stroke-linejoin="round"/>
</svg>
