<svg width="57" height="56" viewBox="0 0 57 56" fill="none" xmlns="http://www.w3.org/2000/svg">
<path d="M53.56 29.8C51.94 8.38 31.78 5.05 18.82 18.73C5.23001 31.6 8.56 51.85 29.89 53.38L47.8 55.27C50.05 55.72 52.03 55.09 53.65 53.56C55.27 51.94 55.9 49.96 55.45 47.71L53.56 29.8ZM26.29 22.78C26.92 23.41 27.28 24.94 27.46 27.28C18.82 27.55 22.42 19.54 26.29 22.78ZM36.55 19.27C37.18 19.9 37.54 21.43 37.72 23.86C29.17 24.04 32.59 16.3 36.55 19.27ZM46.81 19.99C47.44 20.62 47.89 22.15 47.98 24.58C39.43 24.76 42.85 17.02 46.81 19.99ZM36.55 32.95C37.18 33.58 37.54 35.11 37.72 37.54C29.17 37.81 32.59 29.98 36.55 32.95ZM43.39 43.3C46.36 41.14 47.98 44.02 47.89 47.8C44.11 47.8 41.23 46.18 43.39 43.3ZM45.73 30.88C48.25 31.24 48.34 32.86 48.61 36.19C46.18 36.1 44.74 35.65 44.11 35.02C42.49 33.67 43.75 30.88 45.73 30.88ZM23.95 37.54C20.17 37.54 16.75 35.56 19.36 32.95C22.06 30.34 23.95 33.67 23.95 37.54ZM21.79 42.58C24.31 42.94 24.31 44.47 24.76 47.8C22.33 47.71 20.8 47.35 20.17 46.63C18.46 45.19 19.72 42.49 21.79 42.58ZM31.06 45.64C30.97 43.57 33.76 42.4 35.2 43.93C35.83 44.56 36.19 46.09 36.28 48.43C33.04 48.16 31.33 48.25 31.06 45.64Z" fill="#FF202D"/>
<path d="M28.18 12.16C30.16 8.65 29.17 4.6 26.38 1C23.41 3.25 20.53 8.11001 21.97 11.53C20.44 8.65001 17.2 6.58 13.69 5.77C12.61 9.19 12.61 12.52 15.31 15.22C12.52 12.43 9.37001 12.52 5.77001 13.69C6.58001 17.11 8.65001 20.35 11.53 21.88C7.57001 20.35 3.97 23.32 1 26.29C4.6 28.99 8.74 29.98 12.25 28M53.56 29.8C51.94 8.38 31.78 5.05 18.82 18.73C5.23001 31.6 8.56 51.85 29.89 53.38L47.8 55.27C50.05 55.72 52.03 55.09 53.65 53.56C55.27 51.94 55.9 49.96 55.45 47.71L53.56 29.8ZM26.29 22.78C26.92 23.41 27.28 24.94 27.46 27.28C18.82 27.55 22.42 19.54 26.29 22.78ZM36.55 19.27C37.18 19.9 37.54 21.43 37.72 23.86C29.17 24.04 32.59 16.3 36.55 19.27ZM46.81 19.99C47.44 20.62 47.89 22.15 47.98 24.58C39.43 24.76 42.85 17.02 46.81 19.99ZM36.55 32.95C37.18 33.58 37.54 35.11 37.72 37.54C29.17 37.81 32.59 29.98 36.55 32.95ZM43.39 43.3C46.36 41.14 47.98 44.02 47.89 47.8C44.11 47.8 41.23 46.18 43.39 43.3ZM45.73 30.88C48.25 31.24 48.34 32.86 48.61 36.19C46.18 36.1 44.74 35.65 44.11 35.02C42.49 33.67 43.75 30.88 45.73 30.88ZM23.95 37.54C20.17 37.54 16.75 35.56 19.36 32.95C22.06 30.34 23.95 33.67 23.95 37.54ZM21.79 42.58C24.31 42.94 24.31 44.47 24.76 47.8C22.33 47.71 20.8 47.35 20.17 46.63C18.46 45.19 19.72 42.49 21.79 42.58ZM31.06 45.64C30.97 43.57 33.76 42.4 35.2 43.93C35.83 44.56 36.19 46.09 36.28 48.43C33.04 48.16 31.33 48.25 31.06 45.64Z" stroke="black" stroke-linecap="round" stroke-linejoin="round"/>
</svg>
