<svg width="55" height="55" viewBox="0 0 55 55" fill="none" xmlns="http://www.w3.org/2000/svg">
<path d="M36.2951 22.78L25.4951 33.67C25.6751 34.21 25.7651 34.75 25.7651 35.38C25.7651 38.53 23.1551 41.14 20.0051 41.14C19.3751 41.14 18.8351 41.05 18.2951 40.87L15.5051 43.57L13.6151 41.68L11.7251 39.79L14.5151 37C14.3351 36.46 14.2451 35.92 14.2451 35.38C14.2451 32.23 16.8551 29.62 20.0051 29.62C20.6351 29.62 21.1751 29.71 21.7151 29.89L32.6051 19C29.5451 17.38 26.6651 16.3 24.4151 16.39C22.1651 16.48 20.0051 17.11 18.7451 18.82C11.3651 29.08 11.4551 21.79 4.16513 28.36C1.64513 30.79 0.655128 34.03 1.10513 37.99C1.64513 41.95 3.44513 45.55 6.59513 48.7C9.74513 51.85 13.3451 53.65 17.3051 54.19C21.2651 54.64 24.3251 53.38 27.0251 51.22C31.0751 47.89 27.9251 40.51 33.3251 38.53C36.5651 37.45 38.8151 34.48 38.9951 30.97C39.0851 28.72 38.0951 25.48 36.2951 22.78Z" fill="#17EFFF"/>
<path d="M45.3851 1L46.6451 2.25999L47.0051 1.89999C47.4551 1.53999 47.9951 1.26999 48.6251 1.26999C49.2551 1.26999 49.7951 1.44999 50.2451 1.89999L53.3951 5.13999C53.8451 5.58999 54.0251 6.03999 54.0251 6.75999C54.0251 7.38999 53.7551 8.19999 53.3951 8.64999L54.3851 9.90998M32.5151 19L40.9751 10.54C40.7051 10.18 40.6151 9.72998 40.6151 9.27998C40.6151 8.64998 40.8851 8.10998 41.3351 7.65998L42.5951 6.39999L41.6051 7.38999L40.3451 6.03998" fill="#17EFFF"/>
<path d="M42.5951 6.39999L44.1251 4.77998L42.8651 3.51999M24.0551 31.24L42.7751 12.43L41.1551 10.72M53.3951 8.64999L50.5151 11.17L51.7751 12.43M50.5151 11.17L47.9951 13.69L49.2551 14.95" fill="#17EFFF"/>
<path d="M47.9951 13.69C47.9951 13.69 47.7251 13.87 47.6351 13.96C47.1851 14.41 46.7351 14.59 46.0151 14.59C45.5651 14.59 45.1151 14.5 44.7551 14.23M50.7851 2.52998L41.8751 11.44ZM52.7651 4.50999L43.8551 13.42ZM44.1251 4.77998L46.6451 2.25999ZM42.7751 12.43L44.7551 14.23L36.2051 22.78M11.7251 39.79L9.74513 37.9Z" fill="#17EFFF"/>
<path d="M15.8651 39.43L13.6151 41.68ZM15.5051 43.57L17.3951 45.55Z" fill="#17EFFF"/>
<path d="M15.5051 43.57L18.2951 40.87C18.8351 41.05 19.3751 41.14 20.0051 41.14C23.1551 41.14 25.7651 38.53 25.7651 35.38C25.7651 34.75 25.6751 34.21 25.4951 33.67L36.2951 22.78C38.0951 25.48 39.0851 28.72 38.9951 30.97C38.8151 34.48 36.5651 37.45 33.3251 38.53C27.9251 40.51 31.0751 47.89 27.0251 51.22C24.3251 53.38 21.2651 54.64 17.3051 54.19C13.3451 53.65 9.74513 51.85 6.59513 48.7C3.44513 45.55 1.64513 41.95 1.10513 37.99C0.655128 34.03 1.64513 30.79 4.16513 28.36C11.4551 21.79 11.3651 29.08 18.7451 18.82C20.0051 17.11 22.1651 16.48 24.4151 16.39C26.6651 16.3 29.5451 17.38 32.6051 19L21.7151 29.89C21.1751 29.71 20.6351 29.62 20.0051 29.62C16.8551 29.62 14.2451 32.23 14.2451 35.38C14.2451 35.92 14.3351 36.46 14.5151 37L11.7251 39.79M15.5051 43.57L13.6151 41.68M15.5051 43.57L17.3951 45.55M13.6151 41.68L11.7251 39.79M13.6151 41.68L15.8651 39.43M11.7251 39.79L9.74513 37.9M45.3851 1L46.6451 2.25999M46.6451 2.25999L47.0051 1.89999C47.4551 1.53999 47.9951 1.26999 48.6251 1.26999C49.2551 1.26999 49.7951 1.44999 50.2451 1.89999L53.3951 5.13999C53.8451 5.58999 54.0251 6.03999 54.0251 6.75999C54.0251 7.38999 53.7551 8.19999 53.3951 8.64999M46.6451 2.25999L44.1251 4.77998M53.3951 8.64999L54.3851 9.90998M53.3951 8.64999L50.5151 11.17M32.5151 19L40.9751 10.54M40.9751 10.54L41.1551 10.72L42.7751 12.43M40.9751 10.54C40.7051 10.18 40.6151 9.72998 40.6151 9.27998C40.6151 8.64998 40.8851 8.10998 41.3351 7.65998L42.5951 6.39999M42.5951 6.39999L41.6051 7.38999L40.3451 6.03998M42.5951 6.39999L44.1251 4.77998M44.1251 4.77998L42.8651 3.51999M24.0551 31.24L42.7751 12.43M42.7751 12.43L44.7551 14.23M50.5151 11.17L51.7751 12.43M50.5151 11.17L47.9951 13.69M47.9951 13.69L49.2551 14.95M47.9951 13.69C47.9951 13.69 47.7251 13.87 47.6351 13.96C47.1851 14.41 46.7351 14.59 46.0151 14.59C45.5651 14.59 45.1151 14.5 44.7551 14.23M44.7551 14.23L36.2051 22.78M50.7851 2.52998L41.8751 11.44M52.7651 4.50999L43.8551 13.42" stroke="black" stroke-width="1.125" stroke-linecap="round" stroke-linejoin="round"/>
</svg>
