<svg width="55" height="39" viewBox="0 0 55 39" fill="none" xmlns="http://www.w3.org/2000/svg">
<path d="M44.2327 20.155C46.9777 19.54 48.5827 17.875 49.4527 16.585C50.5177 15.01 51.0427 13.105 50.8777 11.5C50.7427 10.27 50.1577 8.81499 48.1777 8.81499C46.3777 8.81499 44.3977 9.66998 43.3627 10.915C42.9127 14.185 42.0577 17.83 40.5127 21.175C41.5927 20.815 42.8077 20.47 44.2327 20.14V20.155Z" fill="#FF523D"/>
<path d="M53.6677 11.185C53.5027 9.71501 52.9477 8.46999 52.0777 7.55499C51.0877 6.53499 49.7377 5.99498 48.1777 5.99498C46.2577 5.99498 44.8177 6.48998 43.7377 7.20998C43.6627 8.36498 43.5427 9.60998 43.3627 10.915C44.3977 9.65498 46.3777 8.81499 48.1777 8.81499C50.1577 8.81499 50.7427 10.285 50.8777 11.5C51.0577 13.105 50.5327 15.01 49.4527 16.585C48.5827 17.875 46.9777 19.54 44.2327 20.155C42.8077 20.47 41.5927 20.83 40.5127 21.19C39.8527 22.615 39.0727 23.98 38.1427 25.255C39.4477 24.52 41.5327 23.65 44.8477 22.9C50.9377 21.535 54.1777 15.76 53.6677 11.2V11.185Z" fill="#FF523D"/>
<path d="M34.1677 33.835C33.2677 32.38 30.5827 31.165 30.5827 31.165H14.8777C14.8777 31.165 12.1927 32.38 11.2927 33.835C11.2477 33.91 11.2177 34 11.2177 34.075H34.2277C34.2277 34 34.2127 33.91 34.1527 33.835H34.1677Z" fill="#FF523D"/>
<path d="M43.8277 1.95998C43.8277 1.59998 43.5277 1.31499 43.1677 1.31499H2.29271C1.93271 1.31499 1.64771 1.59998 1.63271 1.95998C1.46771 7.01498 1.64766 25.915 14.8777 31.165H24.4326H30.5677C33.8077 29.875 36.2676 27.76 38.1276 25.24C39.0576 23.98 39.8377 22.6 40.4977 21.175C42.0427 17.83 42.8827 14.185 43.3477 10.915C43.5277 9.60998 43.6477 8.34998 43.7227 7.20998C43.8727 4.97498 43.8427 3.11499 43.8127 1.97499L43.8277 1.95998ZM9.80764 19.345C9.20764 19.345 8.72768 18.865 8.72768 18.265V12.04C8.72768 11.845 8.77264 11.665 8.87764 11.5L10.6027 8.56001C10.7227 8.36501 10.9027 8.215 11.0977 8.125C11.0977 8.125 11.1277 8.12499 11.1427 8.10999C11.2627 8.06499 11.3827 8.035 11.5177 8.035H14.4577C14.8327 8.035 15.1927 8.23001 15.3877 8.56001L17.1127 11.5C17.2027 11.665 17.2627 11.845 17.2627 12.04V18.265C17.2627 18.865 16.7826 19.345 16.1826 19.345H9.80764Z" fill="#FF523D"/>
<path d="M11.1427 8.125C11.2627 8.08 11.3977 8.04997 11.5177 8.04997C11.3827 8.04997 11.2627 8.08 11.1427 8.125Z" fill="#FF523D"/>
<path d="M11.0977 8.14001C11.0977 8.14001 11.1277 8.14001 11.1427 8.14001C11.1427 8.14001 11.1127 8.14001 11.0977 8.14001Z" fill="#FF523D"/>
<path d="M17.1127 11.515C17.2027 11.68 17.2627 11.86 17.2627 12.055C17.2627 11.86 17.2177 11.68 17.1127 11.515Z" fill="#FF523D"/>
<path d="M17.1127 11.515L15.3877 8.57498C15.1927 8.24498 14.8477 8.04997 14.4577 8.04997H11.5177C11.3827 8.04997 11.2627 8.08 11.1427 8.125C11.1427 8.125 11.1127 8.12501 11.0977 8.14001C10.8877 8.23001 10.7077 8.37998 10.6027 8.57498L8.87766 11.515C8.78766 11.68 8.72769 11.86 8.72769 12.055V18.28C8.72769 18.88 9.20765 19.36 9.80765 19.36H16.1826C16.7826 19.36 17.2627 18.88 17.2627 18.28V12.055C17.2627 11.86 17.2177 11.68 17.1127 11.515Z" fill="#FF523D"/>
<path d="M40.6627 37.855C42.1177 37.855 43.4377 37.03 44.0827 35.77C43.4227 37.03 42.1177 37.855 40.6627 37.855Z" fill="#FF523D"/>
<path d="M1.61773 34.075C1.19773 34.075 0.89771 34.495 1.03271 34.885L1.13772 35.185C1.66272 36.775 3.13272 37.84 4.79772 37.84H40.6777C42.1327 37.84 43.4527 37.015 44.0977 35.755C44.1877 35.575 44.2777 35.38 44.3377 35.185L44.4427 34.885C44.5777 34.48 44.2777 34.075 43.8577 34.075H1.61773Z" fill="#FF523D"/>
<path d="M44.2327 20.155C46.9777 19.54 48.5827 17.875 49.4527 16.585M44.2327 20.155V20.14C42.8077 20.47 41.5927 20.815 40.5127 21.175C42.0577 17.83 42.9127 14.185 43.3627 10.915M44.2327 20.155C42.8077 20.47 41.5927 20.83 40.5127 21.19C39.8527 22.615 39.0727 23.98 38.1427 25.255C39.4477 24.52 41.5327 23.65 44.8477 22.9C50.9377 21.535 54.1777 15.76 53.6677 11.2V11.185C53.5027 9.71501 52.9477 8.46999 52.0777 7.55499C51.0877 6.53499 49.7377 5.99498 48.1777 5.99498C46.2577 5.99498 44.8177 6.48998 43.7377 7.20998C43.6627 8.36498 43.5427 9.60998 43.3627 10.915M49.4527 16.585C50.5177 15.01 51.0427 13.105 50.8777 11.5M49.4527 16.585C50.5327 15.01 51.0577 13.105 50.8777 11.5M50.8777 11.5C50.7427 10.27 50.1577 8.81499 48.1777 8.81499M50.8777 11.5C50.7427 10.285 50.1577 8.81499 48.1777 8.81499M48.1777 8.81499C46.3777 8.81499 44.3977 9.66998 43.3627 10.915M48.1777 8.81499C46.3777 8.81499 44.3977 9.65498 43.3627 10.915M14.8777 31.165H30.5827C30.5827 31.165 33.2677 32.38 34.1677 33.835H34.1527C34.2127 33.91 34.2277 34 34.2277 34.075H11.2177C11.2177 34 11.2477 33.91 11.2927 33.835C12.1927 32.38 14.8777 31.165 14.8777 31.165ZM14.8777 31.165C1.64766 25.915 1.46771 7.01498 1.63271 1.95998C1.64771 1.59998 1.93271 1.31499 2.29271 1.31499H43.1677C43.5277 1.31499 43.8277 1.59998 43.8277 1.95998L43.8127 1.97499C43.8427 3.11499 43.8727 4.97498 43.7227 7.20998C43.6477 8.34998 43.5277 9.60998 43.3477 10.915C42.8827 14.185 42.0427 17.83 40.4977 21.175C39.8377 22.6 39.0576 23.98 38.1276 25.24C36.2676 27.76 33.8077 29.875 30.5677 31.165H24.4326M14.8777 31.165H24.4326M24.4326 31.18V31.165M11.1427 8.125C11.2627 8.08 11.3977 8.04997 11.5177 8.04997M11.1427 8.125C11.2627 8.08 11.3827 8.04997 11.5177 8.04997M11.1427 8.125C11.1427 8.125 11.1127 8.12501 11.0977 8.14001M11.5177 8.04997H14.4577C14.8477 8.04997 15.1927 8.24498 15.3877 8.57498L17.1127 11.515M11.0977 8.14001C11.0977 8.14001 11.1277 8.14001 11.1427 8.14001C11.1427 8.14001 11.1127 8.14001 11.0977 8.14001ZM11.0977 8.14001C10.8877 8.23001 10.7077 8.37998 10.6027 8.57498L8.87766 11.515C8.78766 11.68 8.72769 11.86 8.72769 12.055V18.28C8.72769 18.88 9.20765 19.36 9.80765 19.36H16.1826C16.7826 19.36 17.2627 18.88 17.2627 18.28V12.055M17.1127 11.515C17.2027 11.68 17.2627 11.86 17.2627 12.055M17.1127 11.515C17.2177 11.68 17.2627 11.86 17.2627 12.055M13.0027 7.84V1M9.80764 19.345C9.20764 19.345 8.72768 18.865 8.72768 18.265V12.04C8.72768 11.845 8.77264 11.665 8.87764 11.5L10.6027 8.56001C10.7227 8.36501 10.9027 8.215 11.0977 8.125C11.0977 8.125 11.1277 8.12499 11.1427 8.10999C11.2627 8.06499 11.3827 8.035 11.5177 8.035H14.4577C14.8327 8.035 15.1927 8.23001 15.3877 8.56001L17.1127 11.5C17.2027 11.665 17.2627 11.845 17.2627 12.04V18.265C17.2627 18.865 16.7826 19.345 16.1826 19.345H9.80764ZM40.6627 37.855C42.1177 37.855 43.4377 37.03 44.0827 35.77C43.4227 37.03 42.1177 37.855 40.6627 37.855ZM1.61773 34.075C1.19773 34.075 0.89771 34.495 1.03271 34.885L1.13772 35.185C1.66272 36.775 3.13272 37.84 4.79772 37.84H40.6777C42.1327 37.84 43.4527 37.015 44.0977 35.755C44.1877 35.575 44.2777 35.38 44.3377 35.185L44.4427 34.885C44.5777 34.48 44.2777 34.075 43.8577 34.075H1.61773Z" stroke="black" stroke-width="1.125" stroke-linecap="round" stroke-linejoin="round"/>
</svg>
