<svg width="57" height="57" viewBox="0 0 57 57" fill="none" xmlns="http://www.w3.org/2000/svg">
<path d="M34.7503 22.8703C35.5603 22.8703 36.2803 23.0503 37.0003 23.3203C39.3403 16.2103 40.6903 9.28027 41.5003 4.15027C37.6303 1.99027 33.1303 0.820312 28.3603 0.820312C22.5103 0.820312 17.1103 2.62029 12.6103 5.77029C20.6203 11.8003 27.1003 19.2703 30.9703 24.1303C32.0503 23.4103 33.4003 22.8703 34.7503 22.8703Z" fill="#17FF4D"/>
<path d="M55.6303 24.5803C50.4103 26.0203 45.0103 27.1903 41.0503 28.0903C41.1403 28.4503 41.1403 28.9003 41.1403 29.3503C41.1403 31.7803 39.7903 33.8503 37.8103 34.9303C40.4653 39.8653 42.9553 44.8753 45.2803 49.9603C51.6703 44.9203 55.7203 37.0903 55.7203 28.3603C55.9003 27.1003 55.8103 25.8403 55.6303 24.5803Z" fill="#17FF4D"/>
<path d="M28.3603 29.9803C21.1603 30.7003 9.3703 31.7803 1.0903 32.1403C2.5303 42.8503 10.0903 51.4903 20.1703 54.6403C25.7503 49.1503 29.9803 40.8703 32.5003 35.2903C30.2503 34.4803 28.6303 32.4103 28.3603 29.9803Z" fill="#17FF4D"/>
<path d="M28.3603 0.820312C13.1503 0.820312 0.820312 13.1503 0.820312 28.3603C0.820312 43.5703 13.1503 55.9003 28.3603 55.9003C43.5703 55.9003 55.9004 43.5703 55.9004 28.3603C55.9004 13.1503 43.5703 0.820312 28.3603 0.820312ZM28.3603 0.820312C33.1303 0.820312 37.6303 1.99027 41.5003 4.15027M28.3603 0.820312C22.5103 0.820312 17.1103 2.62029 12.6103 5.77029C20.6203 11.8003 27.1003 19.2703 30.9703 24.1303C32.0503 23.4103 33.4003 22.8703 34.7503 22.8703C35.5603 22.8703 36.2803 23.0503 37.0003 23.3203M34.7503 35.7403C31.2403 35.7403 28.3603 32.8602 28.3603 29.3503C28.3603 25.8403 31.2403 22.9603 34.7503 22.9603C38.2603 22.9603 41.1403 25.8403 41.1403 29.3503M34.7503 35.7403C38.3503 35.7403 41.2303 32.8602 41.1403 29.3503M34.7503 35.7403C35.9203 35.7403 37.0004 35.4703 37.9004 34.9303C39.7904 38.4403 42.4003 43.5703 45.2803 49.9603M34.7503 35.7403C33.9403 35.7403 33.1303 35.5603 32.4103 35.2903C29.9803 40.8703 25.7504 49.1503 20.0804 54.6403C22.6904 55.4503 25.4803 55.9003 28.2703 55.9003C34.7503 55.9003 40.6003 53.6503 45.2803 49.9603M41.1403 29.3503C41.1403 28.9003 41.1403 28.4503 41.0503 28.0903M41.1403 29.3503C41.1403 31.7803 39.7903 33.8503 37.8103 34.9303C40.4653 39.8653 42.9553 44.8753 45.2803 49.9603M37.0003 23.3203C39.3403 16.2103 40.6903 9.28027 41.5003 4.15027M37.0003 23.3203C39.4303 16.2103 40.7803 9.28027 41.5003 4.15027M37.0003 23.3203C39.0703 24.0403 40.6903 25.8403 41.0503 28.0903M41.5003 4.15027C49.0603 8.29027 54.4603 15.7603 55.6303 24.5803M41.0503 28.0903C45.0103 27.2803 50.3203 26.0203 55.6303 24.5803M41.0503 28.0903C45.0103 27.1903 50.4103 26.0203 55.6303 24.5803M55.6303 24.5803C55.8103 25.8403 55.9003 27.1003 55.7203 28.3603C55.7203 37.0903 51.6703 44.9203 45.2803 49.9603M28.3603 29.9803C21.1603 30.7003 9.3703 31.7803 1.0903 32.1403C2.5303 42.8503 10.0903 51.4903 20.1703 54.6403C25.7503 49.1503 29.9803 40.8703 32.5003 35.2903C30.2503 34.4803 28.6303 32.4103 28.3603 29.9803Z" stroke="black" stroke-width="1.125" stroke-linecap="round" stroke-linejoin="round"/>
</svg>
