<svg width="55" height="55" viewBox="0 0 55 55" fill="none" xmlns="http://www.w3.org/2000/svg">
<path d="M44.6679 5.18501L54.1179 33.235V33.25C54.3579 33.985 54.028 34.7951 53.338 35.1401L46.9929 38.26C46.1979 38.665 45.2229 38.3051 44.8629 37.4801L41.623 29.905V27.505L44.728 5.90503C44.773 5.65003 44.7429 5.41001 44.6679 5.18501ZM44.6679 5.18501C44.7279 5.41001 44.758 5.65001 44.728 5.89001L41.623 27.49M44.6679 5.18501C44.5179 4.73501 44.173 4.36001 43.693 4.19501L35.908 1.50999L29.2779 19.18L32.3979 27.49H32.3829M13.5729 27.49L10.4679 5.89001M13.5729 27.49V29.8901M13.5729 27.49H27.5979M10.4679 5.89001C10.4379 5.65001 10.4679 5.41001 10.5279 5.18501L1.07787 33.235C0.837869 33.97 1.1679 34.78 1.8579 35.125L8.20287 38.245C8.99787 38.65 9.97284 38.29 10.3328 37.465L13.5729 29.8901M10.4679 5.89001H10.4829C10.4379 5.65001 10.4679 5.41001 10.5429 5.18501C10.6929 4.73501 11.0379 4.36001 11.5179 4.19501L19.3029 1.50999M13.5729 29.8901L13.5729 33.715M22.4379 1L27.5979 14.74M22.4379 1L19.3029 1.50999M22.4379 1H32.7429M27.5979 14.74L32.7429 1M27.5979 14.74L29.263 19.18M32.7429 1L35.8779 1.50999L29.263 19.18M13.5729 33.715V52.63C13.5729 53.485 14.2779 54.19 15.1329 54.19H27.5979M13.5729 33.715H27.5979M27.5979 54.19V33.715M27.5979 54.19H40.0629C40.9179 54.19 41.623 53.485 41.623 52.63V33.715M27.5979 33.715H41.623M27.5979 27.49V23.62M27.5979 27.49H29.0529M27.5979 23.62L19.3029 1.50999M27.5979 23.62L29.0529 27.49M32.3829 27.49H41.623M32.3829 27.49H29.0529M32.3829 27.49L29.263 19.18M41.623 27.49V33.715" stroke="black" stroke-linecap="round" stroke-linejoin="round"/>
</svg>
