<svg width="37" height="37" viewBox="0 0 37 37" fill="none" xmlns="http://www.w3.org/2000/svg">
<path d="M2.90997 24.34L3.64996 32.57C3.74996 33.66 4.31996 34.66 5.20996 35.31C7.31996 36.84 10.3 35.8299 11.07 33.34L12.04 30.1499C11.7 30.0499 11.37 29.9 11.05 29.69L2.91998 24.33L2.90997 24.34Z" fill="#FFD431"/>
<path d="M35.08 5.43996C34.44 4.54996 33.44 3.97996 32.34 3.87996L24.11 3.13995L29.47 11.27C29.68 11.58 29.83 11.9199 29.93 12.2599L33.12 11.2899C35.61 10.5299 36.61 7.53995 35.09 5.42995L35.08 5.43996Z" fill="#FFD431"/>
<path d="M18.68 24.0399L3.35995 11.97C3.16995 12.28 3.02996 12.61 2.92996 12.96L1.02996 19.9799C0.599965 21.5599 1.23995 23.24 2.60995 24.14L2.91998 24.34L11.05 29.7C11.36 29.91 11.7 30.06 12.04 30.16C13.77 30.68 15.7 29.92 16.54 28.21L18.29 24.66C18.4 24.44 18.53 24.2299 18.68 24.0399Z" fill="#FFD431"/>
<path d="M29.93 12.27C29.83 11.93 29.68 11.5999 29.47 11.2799L24.11 3.14994L23.91 2.83995C23.01 1.46995 21.33 0.839944 19.75 1.25994L12.73 3.15995C12.38 3.25995 12.05 3.39995 11.74 3.58995L23.81 18.91C24 18.76 24.21 18.63 24.43 18.52L27.98 16.77C29.69 15.93 30.45 13.99 29.93 12.27Z" fill="#FFD431"/>
<path d="M7.46997 7.69995L3.90997 11.2599C3.69997 11.4699 3.51995 11.71 3.35995 11.96L18.68 24.03C18.78 23.9 18.89 23.7699 19.01 23.6499L21.22 21.44L7.46997 7.68996V7.69995Z" fill="#FFD431"/>
<path d="M23.81 18.91L11.74 3.58995C11.49 3.74995 11.25 3.92995 11.04 4.13995L7.47998 7.69995L21.23 21.45L23.44 19.24C23.56 19.12 23.69 19.01 23.82 18.91L23.81 18.91Z" fill="#FFD431"/>
<path d="M11.74 3.58995C12.05 3.39995 12.38 3.25995 12.73 3.15995L19.75 1.25994C21.33 0.839944 23.01 1.46995 23.91 2.83995L24.11 3.14994L29.47 11.2799C29.68 11.5999 29.83 11.93 29.93 12.27C30.45 13.99 29.69 15.93 27.98 16.77L24.43 18.52C24.21 18.63 24 18.76 23.81 18.91M11.74 3.58995L23.81 18.91M11.74 3.58995C11.49 3.74995 11.25 3.92995 11.04 4.13995L7.47998 7.69995L21.23 21.45L23.44 19.24C23.56 19.12 23.69 19.01 23.82 18.91L23.81 18.91M2.90997 24.34L3.64996 32.57C3.74996 33.66 4.31996 34.66 5.20996 35.31C7.31996 36.84 10.3 35.83 11.07 33.34L12.04 30.1499C11.7 30.0499 11.37 29.9 11.05 29.69L2.91998 24.33L2.90997 24.34ZM35.08 5.43996C34.44 4.54996 33.44 3.97996 32.34 3.87996L24.11 3.13995L29.47 11.27C29.68 11.58 29.83 11.9199 29.93 12.2599L33.12 11.2899C35.61 10.5299 36.61 7.53995 35.09 5.42995L35.08 5.43996ZM18.68 24.0399L3.35995 11.97C3.16995 12.28 3.02996 12.61 2.92996 12.96L1.02996 19.9799C0.599965 21.5599 1.23995 23.24 2.60995 24.14L2.91998 24.34L11.05 29.7C11.36 29.91 11.7 30.06 12.04 30.16C13.77 30.68 15.7 29.92 16.54 28.21L18.29 24.66C18.4 24.44 18.53 24.2299 18.68 24.0399ZM7.46997 7.69995L3.90997 11.2599C3.69997 11.4699 3.51995 11.71 3.35995 11.96L18.68 24.03C18.78 23.9 18.89 23.7699 19.01 23.6499L21.22 21.44L7.46997 7.68996V7.69995Z" stroke="black" stroke-width="0.75" stroke-linecap="round" stroke-linejoin="round"/>
</svg>
