<svg width="44" height="54" viewBox="0 0 44 54" fill="none" xmlns="http://www.w3.org/2000/svg">
<path d="M31.03 37.8587H12.325L12.13 37.8438M31.03 37.8587L31.915 53.4138H11.245L12.13 37.8438M31.03 37.8587L30.55 29.4888M12.13 37.8438L12.595 29.4888M30.55 29.4888L29.98 19.3787M30.55 29.4888H12.595M12.595 29.4888L13.18 19.3787M13.18 19.3787H12.295V8.38376H30.865V19.3787H29.98M13.18 19.3787H29.98M37.045 13.6188H42.61M36.085 7.73876L41.65 5.33875M35.11 19.2737L40.66 21.6737M1 14.2488H6.56499M1.94501 5.99875L7.50999 8.39875M2.94998 22.3038L8.51497 19.8888M36.625 53.4138H6.51999M23.32 1.66375C22.33 0.77875 20.815 0.77875 19.84 1.66375L12.31 8.38376H30.88L23.335 1.66375H23.32Z" stroke="black" stroke-linecap="round" stroke-linejoin="round"/>
</svg>
