<svg width="53" height="53" viewBox="0 0 53 53" fill="none" xmlns="http://www.w3.org/2000/svg">
<path d="M45.6536 42.3448C47.1986 42.0748 48.2186 40.5898 47.9486 39.0598C47.6786 37.5298 48.5636 35.6248 49.9136 34.8448C51.2636 34.0648 51.7286 32.3248 50.9486 30.9748C50.1536 29.6248 50.3485 27.5398 51.3535 26.3398C52.3585 25.1398 52.1936 23.3398 50.9936 22.3348C49.7936 21.3298 49.2686 19.3198 49.7936 17.8498C50.3336 16.3798 49.5686 14.7448 48.0986 14.2198C46.6286 13.6798 45.4286 11.9698 45.4286 10.4098C45.4286 8.84977 44.1536 7.57477 42.5936 7.57477C41.0336 7.57477 39.3085 6.37477 38.7835 4.90477C38.2435 3.44977 36.6236 2.68478 35.1536 3.20978C33.6836 3.74978 31.6586 3.20977 30.6686 2.00977C29.6636 0.809774 27.8636 0.659775 26.6636 1.66477C25.4636 2.66977 23.3786 2.86478 22.0286 2.06978C20.6786 1.28978 18.9385 1.75477 18.1585 3.10477C17.3785 4.45477 15.4885 5.33978 13.9435 5.06978C12.4135 4.79978 10.9285 5.81977 10.6585 7.36477C10.3885 8.89477 8.90353 10.3798 7.37353 10.6498C5.82853 10.9198 4.79356 12.4048 5.06356 13.9348C5.33356 15.4648 4.44857 17.3698 3.09857 18.1498C1.74857 18.9298 1.28356 20.6698 2.06356 22.0198C2.84356 23.3848 2.66353 25.4698 1.65853 26.6548C0.653534 27.8548 0.818611 29.6548 2.01861 30.6598C3.21861 31.6648 3.75859 33.6898 3.21859 35.1448C2.67859 36.6148 3.4436 38.2498 4.9136 38.7898C6.3836 39.3148 7.58355 41.0398 7.58355 42.5998C7.58355 44.1598 8.85857 45.4348 10.4186 45.4348C11.9786 45.4348 13.7035 46.6348 14.2285 48.1048C14.7685 49.5598 16.3886 50.3248 17.8586 49.7998C19.3286 49.2598 21.3536 49.7998 22.3436 50.9998C23.3336 52.1998 25.1486 52.3498 26.3486 51.3598C27.5486 50.3548 29.6336 50.1598 30.9836 50.9548C32.3336 51.7348 34.0735 51.2698 34.8535 49.9198C35.6335 48.5548 37.5385 47.6848 39.0685 47.9548C40.5985 48.2248 42.0835 47.1898 42.3535 45.6448C42.6235 44.1148 44.1085 42.6298 45.6385 42.3598L45.6536 42.3448ZM39.7736 45.4198C39.7736 45.4198 39.6236 45.5098 39.5036 45.4798C37.3736 45.1048 35.0186 45.9598 33.5186 47.5648C33.2036 47.8948 32.9335 48.2548 32.6935 48.6598C32.6335 48.7648 32.5436 48.8098 32.4686 48.8248C32.4086 48.8398 32.3036 48.8548 32.2136 48.7948C31.0886 48.1498 29.7386 47.8798 28.4186 47.9998C27.0686 48.1048 25.7486 48.5998 24.7436 49.4398C24.6686 49.4998 24.5786 49.5298 24.4886 49.5148C24.3986 49.5148 24.3085 49.4698 24.2485 49.3948C23.1985 48.1498 21.5636 47.3548 19.8986 47.1598C18.9086 47.0248 17.9036 47.1298 17.0036 47.4598C16.8386 47.5198 16.6886 47.4598 16.6136 47.3548C16.5836 47.3248 16.5686 47.2798 16.5536 47.2498C16.2536 46.4248 15.7436 45.6448 15.0836 44.9848C14.6786 44.5798 14.2285 44.2348 13.7485 43.9498C12.7135 43.3048 11.5286 42.9598 10.4186 42.9598C10.2986 42.9598 10.2086 42.9298 10.1486 42.8698C10.0886 42.8098 10.0586 42.7198 10.0586 42.5998C10.0586 41.4748 9.69854 40.3048 9.06854 39.2698C8.78354 38.7898 8.43853 38.3398 8.03353 37.9348C7.37353 37.2748 6.57861 36.7648 5.76861 36.4648C5.73861 36.4648 5.6936 36.4348 5.6636 36.4048C5.5586 36.3298 5.49859 36.1798 5.55859 36.0148C5.88859 35.1148 5.97861 34.1098 5.85861 33.1198C5.69361 31.6198 5.03361 30.1498 3.98361 29.1148C3.86361 28.9948 3.74359 28.8748 3.59359 28.7548C3.53359 28.6948 3.50358 28.6198 3.48858 28.5298C3.48858 28.4398 3.48856 28.3498 3.56356 28.2748C4.41856 27.2548 4.91361 25.9498 5.01861 24.5998C5.12361 23.2798 4.86857 21.9148 4.22357 20.8048C4.16357 20.6998 4.17854 20.6098 4.19354 20.5348C4.20854 20.4598 4.25361 20.3698 4.35861 20.3098C4.74861 20.0848 5.12358 19.7998 5.45358 19.4848C7.04358 17.9998 7.8986 15.6298 7.5386 13.4998C7.5086 13.3798 7.55357 13.2898 7.59857 13.2448C7.64357 13.1848 7.7036 13.1098 7.8236 13.0948C7.9886 13.0648 8.16855 13.0198 8.33355 12.9898C10.5236 12.4048 12.4285 10.4998 13.0135 8.30978C13.0585 8.14478 13.0886 7.96478 13.1186 7.79977C13.1486 7.67977 13.2086 7.61977 13.2686 7.57477C13.3286 7.52977 13.4036 7.49977 13.5386 7.51477C15.6536 7.88977 18.0236 7.03477 19.5086 5.44478C19.8386 5.11478 20.1086 4.73977 20.3336 4.34977C20.3936 4.24477 20.4836 4.19978 20.5436 4.18478C20.5736 4.18478 20.6186 4.18478 20.6636 4.18478C20.7086 4.18478 20.7536 4.18478 20.8136 4.22978C21.9236 4.87478 23.2886 5.12978 24.6086 5.02478C25.9436 4.91978 27.2785 4.42478 28.2835 3.56978C28.4335 3.44978 28.6586 3.47977 28.7786 3.61477C29.8136 4.85977 31.4486 5.65477 33.1436 5.84977C34.1336 5.98477 35.1236 5.89478 36.0236 5.56478C36.2486 5.47478 36.4286 5.62478 36.4736 5.77478C36.7736 6.59978 37.2835 7.37977 37.9435 8.05477C38.3485 8.45977 38.7986 8.80478 39.2786 9.08978C40.3136 9.73478 41.4986 10.0798 42.6086 10.0798C42.7286 10.0798 42.8186 10.1098 42.8786 10.1698C42.9386 10.2298 42.9686 10.3198 42.9686 10.4398C42.9686 11.5648 43.3136 12.7498 43.9585 13.7848C44.2436 14.2648 44.6036 14.7148 44.9936 15.1198C45.6536 15.7798 46.4335 16.2748 47.2285 16.5748C47.2285 16.5748 47.2436 16.5748 47.2586 16.5748C47.2886 16.5748 47.3336 16.6048 47.3636 16.6348C47.4686 16.7098 47.5286 16.8448 47.4686 17.0248C47.1386 17.9248 47.0486 18.9298 47.1686 19.9198C47.3486 21.4198 47.9936 22.8898 49.0436 23.9398C49.1636 24.0598 49.2836 24.1648 49.4336 24.2998C49.5386 24.4048 49.5686 24.6298 49.4486 24.7798C49.4186 24.8098 49.4035 24.8398 49.3885 24.8698C48.5785 25.8748 48.1136 27.1498 47.9936 28.4548C47.8886 29.7748 48.1436 31.1398 48.7886 32.2498C48.8486 32.3548 48.8335 32.4448 48.8185 32.5198C48.8185 32.5498 48.8036 32.5948 48.7736 32.6398C48.7436 32.6848 48.7136 32.7148 48.6536 32.7448C48.2636 32.9698 47.8886 33.2548 47.5586 33.5698C45.9686 35.0698 45.1136 37.4248 45.4886 39.5398C45.5036 39.6598 45.4586 39.7498 45.4286 39.8098C45.3986 39.8698 45.3236 39.9448 45.2186 39.9598C45.0536 39.9898 44.8736 40.0348 44.7085 40.0798C42.5036 40.6798 40.6136 42.5698 40.0286 44.7598C39.9836 44.9248 39.9535 45.1048 39.9235 45.2698C39.9085 45.3748 39.8336 45.4498 39.7736 45.4948V45.4198Z" fill="#BE8554"/>
<path d="M45.2336 39.8848C45.3386 39.8698 45.4135 39.7948 45.4435 39.7348C45.4885 39.6748 45.5186 39.5998 45.5036 39.4648C45.1286 37.3498 45.9836 34.9798 47.5736 33.4948L45.2336 31.1548L40.5536 35.8348L44.7086 39.9898C44.8736 39.9448 45.0536 39.8998 45.2186 39.8698L45.2336 39.8848Z" fill="#BE8554"/>
<path d="M31.1935 45.2248L33.5335 47.5648C35.0185 45.9748 37.3886 45.1198 39.5186 45.4798C39.6386 45.5098 39.7286 45.4648 39.7886 45.4198C39.8486 45.3898 39.9236 45.3148 39.9386 45.2098C39.9686 45.0448 40.0136 44.8648 40.0436 44.6998L35.8885 40.5448L31.2086 45.2248H31.1935Z" fill="#BE8554"/>
<path d="M28.4336 47.9848L31.1935 45.2248L47.9936 28.4248C48.0986 27.1198 48.5785 25.8448 49.3885 24.8398C49.4185 24.8098 49.4336 24.7798 49.4486 24.7498C49.5686 24.5998 49.5386 24.3748 49.4336 24.2698C49.2836 24.1348 49.1636 24.0298 49.0436 23.9098C47.9936 22.8598 47.3336 21.3898 47.1686 19.8898L19.9286 47.1298C21.6086 47.3248 23.2436 48.1198 24.2786 49.3648C24.3386 49.4248 24.4286 49.4698 24.5186 49.4848C24.6086 49.4848 24.6986 49.4848 24.7736 49.4098C25.7786 48.5698 27.0986 48.0748 28.4486 47.9698L28.4336 47.9848Z" fill="#BE8554"/>
<path d="M21.8372 35.8435L17.1491 40.5316L21.8372 45.2197L26.5253 40.5316L21.8372 35.8435Z" fill="#BE8554"/>
<path d="M31.1865 26.4809L26.4984 31.169L31.1866 35.8571L35.8747 31.169L31.1865 26.4809Z" fill="#BE8554"/>
<path d="M40.5721 17.1182L35.884 21.8063L40.5721 26.4944L45.2602 21.8063L40.5721 17.1182Z" fill="#BE8554"/>
<path d="M13.7485 43.9348L43.9286 13.7548C43.2836 12.7198 42.9386 11.5348 42.9386 10.4098C42.9386 10.2898 42.9086 10.1998 42.8486 10.1398C42.7886 10.0798 42.6986 10.0498 42.5786 10.0498C41.4536 10.0498 40.2835 9.68978 39.2485 9.05978L9.06854 39.2398C9.71354 40.2748 10.0586 41.4598 10.0586 42.5848C10.0586 42.7048 10.0886 42.7948 10.1486 42.8548C10.2086 42.9148 10.2986 42.9448 10.4186 42.9448C11.5436 42.9448 12.7135 43.3048 13.7485 43.9348Z" fill="#BE8554"/>
<path d="M12.4639 26.4835L7.77582 31.1716L12.4639 35.8597L17.152 31.1716L12.4639 26.4835Z" fill="#BE8554"/>
<path d="M21.8345 17.1208L17.1464 21.8089L21.8345 26.4971L26.5226 21.809L21.8345 17.1208Z" fill="#BE8554"/>
<path d="M31.1989 7.7432L26.5108 12.4313L31.1989 17.1194L35.887 12.4313L31.1989 7.7432Z" fill="#BE8554"/>
<path d="M17.1385 12.4348L5.01859 24.5548C4.91359 25.9048 4.41855 27.2098 3.56355 28.2298C3.50355 28.3048 3.47357 28.3948 3.48857 28.4848C3.48857 28.5748 3.53358 28.6498 3.59358 28.7098C3.74358 28.8298 3.86359 28.9498 3.98359 29.0698C5.03359 30.1198 5.67859 31.5748 5.85859 33.0748L33.1136 5.81978C31.4336 5.62478 29.7835 4.82978 28.7485 3.56978C28.6135 3.43478 28.4036 3.40478 28.2536 3.52478C27.2336 4.37978 25.9136 4.85978 24.5786 4.97978L21.8185 7.73977" fill="#BE8554"/>
<path d="M8.30362 12.9748C8.13862 13.0198 7.95858 13.0498 7.79358 13.0798C7.68858 13.0948 7.61354 13.1698 7.56854 13.2298C7.52354 13.2898 7.47858 13.3648 7.50858 13.4848C7.88358 15.6148 7.02855 17.9698 5.42355 19.4698L7.76355 21.8098L12.4435 17.1298L8.2886 12.9748H8.30362Z" fill="#BE8554"/>
<path d="M17.1385 12.4348L21.8185 7.75478L19.4785 5.41478C17.9785 7.00478 15.6236 7.85978 13.5086 7.48478C13.3886 7.46978 13.2986 7.51478 13.2386 7.54478C13.1786 7.57478 13.1036 7.64978 13.0886 7.76978C13.0586 7.93478 13.0136 8.11478 12.9836 8.27978L17.1385 12.4348Z" fill="#BE8554"/>
<path d="M31.1935 45.2248L33.5335 47.5648C35.0185 45.9748 37.3886 45.1198 39.5186 45.4798C39.6386 45.5098 39.7286 45.4648 39.7886 45.4198C39.8486 45.3898 39.9236 45.3148 39.9386 45.2098C39.9686 45.0448 40.0136 44.8648 40.0436 44.6998L35.8885 40.5448L31.2086 45.2248H31.1935ZM31.1935 45.2248L28.4336 47.9848L28.4486 47.9698C27.0986 48.0748 25.7786 48.5698 24.7736 49.4098C24.6986 49.4848 24.6086 49.4848 24.5186 49.4848C24.4286 49.4698 24.3386 49.4248 24.2786 49.3648C23.2436 48.1198 21.6086 47.3248 19.9286 47.1298L47.1686 19.8898C47.3336 21.3898 47.9936 22.8598 49.0436 23.9098C49.1636 24.0298 49.2836 24.1348 49.4336 24.2698C49.5386 24.3748 49.5686 24.5998 49.4486 24.7498C49.4336 24.7798 49.4186 24.8098 49.3885 24.8398C48.5785 25.8448 48.0986 27.1198 47.9936 28.4248L31.1935 45.2248ZM17.1385 12.4348L21.8185 7.75478L19.4785 5.41478C17.9785 7.00478 15.6236 7.85978 13.5086 7.48478C13.3886 7.46978 13.2986 7.51478 13.2386 7.54478C13.1786 7.57478 13.1036 7.64978 13.0886 7.76978C13.0586 7.93478 13.0136 8.11478 12.9836 8.27978L17.1385 12.4348ZM17.1385 12.4348L5.01859 24.5548C4.91359 25.9048 4.41855 27.2098 3.56355 28.2298C3.50355 28.3048 3.47357 28.3948 3.48857 28.4848C3.48857 28.5748 3.53358 28.6498 3.59358 28.7098C3.74358 28.8298 3.86359 28.9498 3.98359 29.0698C5.03359 30.1198 5.67859 31.5748 5.85859 33.0748L33.1136 5.81978C31.4336 5.62478 29.7835 4.82978 28.7485 3.56978C28.6135 3.43478 28.4036 3.40478 28.2536 3.52478C27.2336 4.37978 25.9136 4.85978 24.5786 4.97978L21.8185 7.73977M45.6536 42.3448C47.1986 42.0748 48.2186 40.5898 47.9486 39.0598C47.6786 37.5298 48.5636 35.6248 49.9136 34.8448C51.2636 34.0648 51.7286 32.3248 50.9486 30.9748C50.1536 29.6248 50.3485 27.5398 51.3535 26.3398C52.3585 25.1398 52.1936 23.3398 50.9936 22.3348C49.7936 21.3298 49.2686 19.3198 49.7936 17.8498C50.3336 16.3798 49.5686 14.7448 48.0986 14.2198C46.6286 13.6798 45.4286 11.9698 45.4286 10.4098C45.4286 8.84977 44.1536 7.57477 42.5936 7.57477C41.0336 7.57477 39.3085 6.37477 38.7835 4.90477C38.2435 3.44977 36.6236 2.68478 35.1536 3.20978C33.6836 3.74978 31.6586 3.20977 30.6686 2.00977C29.6636 0.809774 27.8636 0.659775 26.6636 1.66477C25.4636 2.66977 23.3786 2.86478 22.0286 2.06978C20.6786 1.28978 18.9385 1.75477 18.1585 3.10477C17.3785 4.45477 15.4885 5.33978 13.9435 5.06978C12.4135 4.79978 10.9285 5.81977 10.6585 7.36477C10.3885 8.89477 8.90353 10.3798 7.37353 10.6498C5.82853 10.9198 4.79356 12.4048 5.06356 13.9348C5.33356 15.4648 4.44857 17.3698 3.09857 18.1498C1.74857 18.9298 1.28356 20.6698 2.06356 22.0198C2.84356 23.3848 2.66353 25.4698 1.65853 26.6548C0.653534 27.8548 0.818611 29.6548 2.01861 30.6598C3.21861 31.6648 3.75859 33.6898 3.21859 35.1448C2.67859 36.6148 3.4436 38.2498 4.9136 38.7898C6.3836 39.3148 7.58355 41.0398 7.58355 42.5998C7.58355 44.1598 8.85857 45.4348 10.4186 45.4348C11.9786 45.4348 13.7035 46.6348 14.2285 48.1048C14.7685 49.5598 16.3886 50.3248 17.8586 49.7998C19.3286 49.2598 21.3536 49.7998 22.3436 50.9998C23.3336 52.1998 25.1486 52.3498 26.3486 51.3598C27.5486 50.3548 29.6336 50.1598 30.9836 50.9548C32.3336 51.7348 34.0735 51.2698 34.8535 49.9198C35.6335 48.5548 37.5385 47.6848 39.0685 47.9548C40.5985 48.2248 42.0835 47.1898 42.3535 45.6448C42.6235 44.1148 44.1085 42.6298 45.6385 42.3598L45.6536 42.3448ZM39.7736 45.4198C39.7736 45.4198 39.6236 45.5098 39.5036 45.4798C37.3736 45.1048 35.0186 45.9598 33.5186 47.5648C33.2036 47.8948 32.9335 48.2548 32.6935 48.6598C32.6335 48.7648 32.5436 48.8098 32.4686 48.8248C32.4086 48.8398 32.3036 48.8548 32.2136 48.7948C31.0886 48.1498 29.7386 47.8798 28.4186 47.9998C27.0686 48.1048 25.7486 48.5998 24.7436 49.4398C24.6686 49.4998 24.5786 49.5298 24.4886 49.5148C24.3986 49.5148 24.3085 49.4698 24.2485 49.3948C23.1985 48.1498 21.5636 47.3548 19.8986 47.1598C18.9086 47.0248 17.9036 47.1298 17.0036 47.4598C16.8386 47.5198 16.6886 47.4598 16.6136 47.3548C16.5836 47.3248 16.5686 47.2798 16.5536 47.2498C16.2536 46.4248 15.7436 45.6448 15.0836 44.9848C14.6786 44.5798 14.2285 44.2348 13.7485 43.9498C12.7135 43.3048 11.5286 42.9598 10.4186 42.9598C10.2986 42.9598 10.2086 42.9298 10.1486 42.8698C10.0886 42.8098 10.0586 42.7198 10.0586 42.5998C10.0586 41.4748 9.69854 40.3048 9.06854 39.2698C8.78354 38.7898 8.43853 38.3398 8.03353 37.9348C7.37353 37.2748 6.57861 36.7648 5.76861 36.4648C5.73861 36.4648 5.6936 36.4348 5.6636 36.4048C5.5586 36.3298 5.49859 36.1798 5.55859 36.0148C5.88859 35.1148 5.97861 34.1098 5.85861 33.1198C5.69361 31.6198 5.03361 30.1498 3.98361 29.1148C3.86361 28.9948 3.74359 28.8748 3.59359 28.7548C3.53359 28.6948 3.50358 28.6198 3.48858 28.5298C3.48858 28.4398 3.48856 28.3498 3.56356 28.2748C4.41856 27.2548 4.91361 25.9498 5.01861 24.5998C5.12361 23.2798 4.86857 21.9148 4.22357 20.8048C4.16357 20.6998 4.17854 20.6098 4.19354 20.5348C4.20854 20.4598 4.25361 20.3698 4.35861 20.3098C4.74861 20.0848 5.12358 19.7998 5.45358 19.4848C7.04358 17.9998 7.8986 15.6298 7.5386 13.4998C7.5086 13.3798 7.55357 13.2898 7.59857 13.2448C7.64357 13.1848 7.7036 13.1098 7.8236 13.0948C7.9886 13.0648 8.16855 13.0198 8.33355 12.9898C10.5236 12.4048 12.4285 10.4998 13.0135 8.30978C13.0585 8.14478 13.0886 7.96477 13.1186 7.79977C13.1486 7.67977 13.2086 7.61977 13.2686 7.57477C13.3286 7.52977 13.4036 7.49977 13.5386 7.51477C15.6536 7.88977 18.0236 7.03478 19.5086 5.44478C19.8386 5.11478 20.1086 4.73977 20.3336 4.34977C20.3936 4.24477 20.4836 4.19978 20.5436 4.18478C20.5736 4.18478 20.6186 4.18478 20.6636 4.18478C20.7086 4.18478 20.7536 4.18478 20.8136 4.22978C21.9236 4.87478 23.2886 5.12978 24.6086 5.02478C25.9436 4.91978 27.2785 4.42478 28.2835 3.56978C28.4335 3.44978 28.6586 3.47977 28.7786 3.61477C29.8136 4.85977 31.4486 5.65477 33.1436 5.84977C34.1336 5.98477 35.1236 5.89478 36.0236 5.56478C36.2486 5.47478 36.4286 5.62478 36.4736 5.77478C36.7736 6.59978 37.2835 7.37977 37.9435 8.05477C38.3485 8.45977 38.7986 8.80478 39.2786 9.08978C40.3136 9.73478 41.4986 10.0798 42.6086 10.0798C42.7286 10.0798 42.8186 10.1098 42.8786 10.1698C42.9386 10.2298 42.9686 10.3198 42.9686 10.4398C42.9686 11.5648 43.3136 12.7498 43.9586 13.7848C44.2436 14.2648 44.6036 14.7148 44.9936 15.1198C45.6536 15.7798 46.4335 16.2748 47.2285 16.5748C47.2285 16.5748 47.2436 16.5748 47.2586 16.5748C47.2886 16.5748 47.3336 16.6048 47.3636 16.6348C47.4686 16.7098 47.5286 16.8448 47.4686 17.0248C47.1386 17.9248 47.0486 18.9298 47.1686 19.9198C47.3486 21.4198 47.9936 22.8898 49.0436 23.9398C49.1636 24.0598 49.2836 24.1648 49.4336 24.2998C49.5386 24.4048 49.5686 24.6298 49.4486 24.7798C49.4186 24.8098 49.4035 24.8398 49.3885 24.8698C48.5785 25.8748 48.1136 27.1498 47.9936 28.4548C47.8886 29.7748 48.1436 31.1398 48.7886 32.2498C48.8486 32.3548 48.8335 32.4448 48.8185 32.5198C48.8185 32.5498 48.8036 32.5948 48.7736 32.6398C48.7436 32.6848 48.7136 32.7148 48.6536 32.7448C48.2636 32.9698 47.8886 33.2548 47.5586 33.5698C45.9686 35.0698 45.1136 37.4248 45.4886 39.5398C45.5036 39.6598 45.4586 39.7498 45.4286 39.8098C45.3986 39.8698 45.3236 39.9448 45.2186 39.9598C45.0536 39.9898 44.8736 40.0348 44.7086 40.0798C42.5036 40.6798 40.6136 42.5698 40.0286 44.7598C39.9836 44.9248 39.9535 45.1048 39.9235 45.2698C39.9085 45.3748 39.8336 45.4498 39.7736 45.4948V45.4198ZM45.2336 39.8848C45.3386 39.8698 45.4135 39.7948 45.4435 39.7348C45.4885 39.6748 45.5186 39.5998 45.5036 39.4648C45.1286 37.3498 45.9836 34.9798 47.5736 33.4948L45.2336 31.1548L40.5536 35.8348L44.7086 39.9898C44.8736 39.9448 45.0536 39.8998 45.2186 39.8698L45.2336 39.8848ZM21.8372 35.8435L17.1491 40.5316L21.8372 45.2197L26.5253 40.5316L21.8372 35.8435ZM31.1865 26.4809L26.4984 31.169L31.1866 35.8571L35.8747 31.169L31.1865 26.4809ZM40.5721 17.1182L35.884 21.8063L40.5721 26.4944L45.2602 21.8063L40.5721 17.1182ZM13.7485 43.9348C12.7135 43.3048 11.5436 42.9448 10.4186 42.9448C10.2986 42.9448 10.2086 42.9148 10.1486 42.8548C10.0886 42.7948 10.0586 42.7048 10.0586 42.5848C10.0586 41.4598 9.71354 40.2748 9.06854 39.2398L39.2485 9.05978C40.2835 9.68978 41.4536 10.0498 42.5786 10.0498C42.6986 10.0498 42.7886 10.0798 42.8486 10.1398C42.9086 10.1998 42.9386 10.2898 42.9386 10.4098C42.9386 11.5348 43.2836 12.7198 43.9286 13.7548L13.7485 43.9348ZM12.4639 26.4835L7.77582 31.1716L12.4639 35.8597L17.152 31.1716L12.4639 26.4835ZM21.8345 17.1208L17.1464 21.8089L21.8345 26.4971L26.5226 21.809L21.8345 17.1208ZM31.1989 7.7432L26.5108 12.4313L31.1989 17.1194L35.887 12.4313L31.1989 7.7432ZM8.30362 12.9748C8.13862 13.0198 7.95858 13.0498 7.79358 13.0798C7.68858 13.0948 7.61354 13.1698 7.56854 13.2298C7.52354 13.2898 7.47858 13.3648 7.50858 13.4848C7.88358 15.6148 7.02855 17.9698 5.42355 19.4698L7.76355 21.8098L12.4435 17.1298L8.2886 12.9748H8.30362Z" stroke="black" stroke-linecap="round" stroke-linejoin="round"/>
</svg>
