<svg width="45" height="55" viewBox="0 0 45 55" fill="none" xmlns="http://www.w3.org/2000/svg">
<path d="M25.54 14.1097C27.655 13.0747 30.13 8.96465 29.215 7.10465C28.315 5.24465 23.56 4.62966 21.445 5.66466C21.37 5.69466 21.31 5.73969 21.235 5.78469C22.93 8.27469 24.115 11.3947 24.88 14.3497C25.09 14.2897 25.315 14.2297 25.54 14.1097Z" fill="#0EBFCC"/>
<path d="M26.98 27.0697C27.1 27.0697 27.22 27.0397 27.355 27.0097C29.665 26.5147 33.04 23.1247 32.605 21.0997C32.185 19.1347 27.985 17.4546 25.63 17.7996C25.735 18.4446 25.825 19.0747 25.9 19.6447C26.23 22.3747 26.575 24.8347 26.98 27.0547V27.0697Z" fill="#0EBFCC"/>
<path d="M35.62 33.4447C34.78 31.6147 30.235 30.9097 28.03 31.7947C28.975 35.2747 30.175 38.0347 31.87 40.3297C34 39.2797 36.475 35.2897 35.62 33.4447Z" fill="#0EBFCC"/>
<path d="M41.02 47.2446C36.91 45.3696 34 43.2247 31.87 40.3297C30.175 38.0347 28.96 35.2747 28.03 31.7947C27.64 30.3547 27.295 28.7797 26.98 27.0697C26.575 24.8497 26.23 22.3897 25.9 19.6597C25.825 19.0747 25.735 18.4597 25.63 17.8147C25.45 16.7347 25.195 15.5647 24.88 14.3647C24.115 11.4097 22.93 8.28964 21.235 5.79964C19.555 3.33964 17.365 1.50965 14.56 1.11965C7.89999 0.174645 1 4.95963 1 10.8096C1 15.9096 5.13999 17.2596 10.855 16.8096C11.335 18.3846 11.785 20.1696 12.16 22.0146C12.19 22.0146 12.235 21.9846 12.265 21.9696C16.345 20.3196 19 20.8297 19.69 22.5247C20.38 24.2197 18.835 26.4397 14.74 28.0897C14.23 28.2997 13.72 28.4796 13.225 28.6296C13.375 29.9946 13.465 31.2547 13.495 32.3647C6.355 35.5147 7.315 43.3146 10.75 47.3796C8.425 47.7396 7.09 49.0597 7.09 50.6347C7.09 52.4947 8.94999 53.9946 12.1 53.9946H18.22C20.32 53.9946 22.015 52.2997 22.015 50.1996V49.3297C23.665 50.9797 27.415 53.9946 32.695 53.9946H39.49C44.38 53.9946 45.28 49.2247 41.02 47.2747V47.2446ZM11.71 8.52965C11.71 9.38465 11.02 10.0746 10.165 10.0746C9.31 10.0746 8.62 9.38465 8.62 8.52965V7.22466C8.62 6.36966 9.31 5.67966 10.165 5.67966C11.02 5.67966 11.71 6.36966 11.71 7.22466V8.52965Z" fill="#0EBFCC"/>
<path d="M19.69 22.4947C19 20.7997 16.345 20.2897 12.265 21.9397C12.235 21.9397 12.19 21.9697 12.16 21.9847C8.14 23.6497 5.425 26.3197 6.115 27.9997C6.715 29.4697 9.74499 29.6797 13.225 28.5997C13.72 28.4497 14.23 28.2697 14.74 28.0597C18.82 26.4097 20.365 24.1747 19.69 22.4947Z" fill="#0EBFCC"/>
<path d="M26.98 27.0697C27.1 27.0697 27.22 27.0397 27.355 27.0097C29.665 26.5147 33.04 23.1247 32.605 21.0997C32.185 19.1347 27.985 17.4546 25.63 17.7996C25.735 18.4446 25.825 19.0747 25.9 19.6447C26.23 22.3747 26.575 24.8347 26.98 27.0547V27.0697ZM26.98 27.0697C27.295 28.7797 27.64 30.3547 28.03 31.7947M26.98 27.0697C26.575 24.8497 26.23 22.3897 25.9 19.6597C25.825 19.0747 25.735 18.4597 25.63 17.8147C25.45 16.7347 25.195 15.5647 24.88 14.3647C24.115 11.4097 22.93 8.28964 21.235 5.79964C19.555 3.33964 17.365 1.50965 14.56 1.11965C7.89999 0.174645 1 4.95963 1 10.8096C1 15.9096 5.13999 17.2596 10.855 16.8096C11.335 18.3846 11.785 20.1696 12.16 22.0146C12.19 22.0146 12.235 21.9846 12.265 21.9696C16.345 20.3196 19 20.8297 19.69 22.5247C20.38 24.2197 18.835 26.4397 14.74 28.0897C14.23 28.2997 13.72 28.4796 13.225 28.6296C13.375 29.9946 13.465 31.2547 13.495 32.3647C6.355 35.5147 7.315 43.3146 10.75 47.3796C8.425 47.7396 7.09 49.0597 7.09 50.6347C7.09 52.4947 8.94999 53.9946 12.1 53.9946H18.22C20.32 53.9946 22.015 52.2997 22.015 50.1996V49.3297C23.665 50.9797 27.415 53.9946 32.695 53.9946H39.49C44.38 53.9946 45.28 49.2247 41.02 47.2747V47.2446C36.91 45.3696 34 43.2247 31.87 40.3297M28.03 31.7947C30.235 30.9097 34.78 31.6147 35.62 33.4447C36.475 35.2897 34 39.2797 31.87 40.3297M28.03 31.7947C28.975 35.2747 30.175 38.0347 31.87 40.3297M28.03 31.7947C28.96 35.2747 30.175 38.0347 31.87 40.3297M25.54 14.1097C27.655 13.0747 30.13 8.96465 29.215 7.10465C28.315 5.24465 23.56 4.62966 21.445 5.66466C21.37 5.69466 21.31 5.73969 21.235 5.78469C22.93 8.27469 24.115 11.3947 24.88 14.3497C25.09 14.2897 25.315 14.2297 25.54 14.1097ZM11.71 8.52965C11.71 9.38465 11.02 10.0746 10.165 10.0746C9.31 10.0746 8.62 9.38465 8.62 8.52965V7.22466C8.62 6.36966 9.31 5.67966 10.165 5.67966C11.02 5.67966 11.71 6.36966 11.71 7.22466V8.52965ZM19.69 22.4947C19 20.7997 16.345 20.2897 12.265 21.9397C12.235 21.9397 12.19 21.9697 12.16 21.9847C8.14 23.6497 5.425 26.3197 6.115 27.9997C6.715 29.4697 9.74499 29.6797 13.225 28.5997C13.72 28.4497 14.23 28.2697 14.74 28.0597C18.82 26.4097 20.365 24.1747 19.69 22.4947Z" stroke="#081219" stroke-width="1.125" stroke-linecap="round" stroke-linejoin="round"/>
</svg>
