<svg width="39" height="55" viewBox="0 0 39 55" fill="none" xmlns="http://www.w3.org/2000/svg">
<path d="M36.61 18.43C36.61 18.43 36.625 18.385 36.625 18.355C36.625 8.78497 28.84 1 19.27 1C9.69999 1 1.915 8.78497 1.915 18.355C1.915 18.385 1.91499 18.4 1.92999 18.43M36.61 18.43C36.475 18.385 36.325 18.355 36.175 18.355H2.36501C2.21501 18.355 2.06499 18.385 1.92999 18.43M36.61 18.43H36.595C37.135 18.61 37.525 19.12 37.525 19.72C37.525 20.47 36.91 21.085 36.16 21.085H35.71M1.92999 18.43C1.38999 18.61 1 19.12 1 19.72C1 20.47 1.61501 21.085 2.36501 21.085H2.81501M2.81501 21.085H35.71M2.81501 21.085L5.34999 51.46C5.46999 52.885 6.655 53.98 8.08 53.98H30.445C31.87 53.98 33.055 52.885 33.175 51.46L35.71 21.085M27.025 35.875L24.25 38.575L24.91 42.4C25.12 43.645 23.815 44.59 22.705 44.005L19.27 42.205L15.835 44.005C14.725 44.59 13.42 43.645 13.63 42.4L14.29 38.575L11.515 35.875C10.615 34.99 11.11 33.46 12.355 33.28L16.195 32.725L17.905 29.245C18.46 28.12 20.08 28.12 20.635 29.245L22.345 32.725L26.185 33.28C27.43 33.46 27.925 34.99 27.025 35.875Z" stroke="black" stroke-linecap="round" stroke-linejoin="round"/>
</svg>
