<svg width="53" height="56" viewBox="0 0 53 56" fill="none" xmlns="http://www.w3.org/2000/svg">
<path d="M42.7616 53.02H50.0516C49.9616 51.58 50.5016 50.32 51.6716 49.24L42.4917 49.42L42.7616 53.02ZM10.0916 53.02L10.3617 49.42L1.27163 49.24C2.35163 50.32 2.89164 51.58 2.80164 53.02H10.0916ZM38.8916 1.09H33.9416C34.1216 10.9 18.7317 10.63 18.9117 1H13.9616C13.4216 17.2 39.2516 17.29 38.8916 1.09ZM11.3516 51.22C12.3416 52.21 12.9717 53.29 13.2417 54.64H39.5216C39.7916 53.38 40.4216 52.21 41.4116 51.22H11.3516Z" fill="#FFC637"/>
<path d="M39.5216 39.97L35.1117 35.56L30.7916 39.97L26.3816 35.56L22.0616 39.97L17.6516 35.56L13.2417 39.97L10.2716 37L10.6316 42.49L13.2417 44.92L17.6516 40.6L22.0616 44.92L26.3816 40.6L30.7916 44.92L35.1117 40.6L39.5216 44.92L42.1316 42.49L42.4916 37L39.5216 39.97Z" fill="#FFC637"/>
<path d="M39.5216 29.89L35.1117 25.57L30.7916 29.89L26.3816 25.57L22.0616 29.89L17.6516 25.57L13.2417 29.89L9.46164 26.11L9.91164 31.6L13.2417 34.93L17.6516 30.52L22.0616 34.93L26.3816 30.52L30.7916 34.93L35.1117 30.52L39.5216 34.93L42.9416 31.6L43.3916 26.11L39.5216 29.89Z" fill="#FFC637"/>
<path d="M13.8716 1C8.11164 1.09 2.80164 2.43999 2.08164 8.46999C0.281639 22.51 1.27163 36.28 1.27163 49.24M1.27163 49.24L10.3617 49.42L10.0916 53.02H2.80164C2.89164 51.58 2.35163 50.32 1.27163 49.24ZM51.6716 49.24C51.6716 36.46 51.5816 22.96 50.7716 8.56C50.5016 3.52 45.7316 1.27 41.4116 1.09H38.8916M51.6716 49.24C50.5016 50.32 49.9616 51.58 50.0516 53.02H42.7616L42.4917 49.42L51.6716 49.24ZM38.8916 1.09H33.9416C34.1216 10.9 18.7317 10.63 18.9117 1H13.9616C13.4216 17.2 39.2516 17.29 38.8916 1.09ZM42.4916 37L42.9416 31.6M42.4916 37L42.1316 42.49M42.4916 37L39.5216 39.97L35.1117 35.56L30.7916 39.97L26.3816 35.56L22.0616 39.97L17.6516 35.56L13.2417 39.97L10.2716 37M42.9416 31.6L39.5216 34.93L35.1117 30.52L30.7916 34.93L26.3816 30.52L22.0616 34.93L17.6516 30.52L13.2417 34.93L9.91164 31.6M42.9416 31.6L43.3916 26.11M43.9316 18.64L43.3916 26.11M43.3916 26.11L39.5216 29.89L35.1117 25.57L30.7916 29.89L26.3816 25.57L22.0616 29.89L17.6516 25.57L13.2417 29.89L9.46164 26.11M34.1216 1.18C31.6016 2.17 28.9016 2.52999 26.2916 2.52999C23.6816 2.52999 21.1616 2.17 18.8216 1.09M9.91164 31.6L10.2716 37M9.91164 31.6L9.46164 26.11M10.2716 37L10.6316 42.49M8.83164 18.64L9.46164 26.11M41.4116 51.22L42.1316 42.49M41.4116 51.22C40.4216 52.21 39.7916 53.38 39.5216 54.64H13.2417C12.9717 53.29 12.3416 52.21 11.3516 51.22M41.4116 51.22H11.3516M42.1316 42.49L39.5216 44.92L35.1117 40.6L30.7916 44.92L26.3816 40.6L22.0616 44.92L17.6516 40.6L13.2417 44.92L10.6316 42.49M10.6316 42.49L11.3516 51.22" stroke="black" stroke-linecap="round" stroke-linejoin="round"/>
</svg>
