<svg width="39" height="55" viewBox="0 0 39 55" fill="none" xmlns="http://www.w3.org/2000/svg">
<path d="M25.0674 4.20523C25.3524 3.17023 24.7374 2.10524 23.7024 1.83524L21.8274 1.34023C20.7924 1.05523 19.7274 1.67023 19.4574 2.70523L16.7274 12.9052H22.7574L25.0824 4.20523H25.0674Z" fill="#FFA4C4"/>
<path d="M6.67743 12.9052C5.59743 12.9052 4.74242 13.7752 4.74242 14.8402V18.7252H33.8424V14.8402C33.8424 13.7602 32.9724 12.9052 31.9074 12.9052H6.67743Z" fill="#FFA4C4"/>
<path d="M35.7774 18.7252H2.79243C1.71243 18.7252 0.857422 19.5952 0.857422 20.6602C0.857422 21.7252 1.72743 22.5952 2.79243 22.5952H35.7774C36.8574 22.5952 37.7124 21.7252 37.7124 20.6602C37.7124 19.5952 36.8424 18.7252 35.7774 18.7252Z" fill="#FFA4C4"/>
<path d="M6.2274 42.3502C15.6624 35.1352 25.0374 30.5002 34.2474 26.9752L34.7874 22.5952H3.75241L6.2274 42.3502Z" fill="#FFA4C4"/>
<path d="M7.3974 51.7252C7.5324 52.8202 8.46242 53.6452 9.57242 53.6452H28.9674C30.0774 53.6452 31.0074 52.8202 31.1424 51.7252L33.4074 33.5752C24.6324 37.1602 15.9024 41.8402 7.05243 49.1152L7.38243 51.7252H7.3974Z" fill="#FFA4C4"/>
<path d="M7.0674 49.1002C15.9324 41.8252 24.6474 37.1452 33.4224 33.5602L34.2474 26.9752C25.0224 30.5002 15.6624 35.1352 6.2274 42.3502L7.0674 49.1002Z" fill="#FFA4C4"/>
<path d="M6.2274 42.3502C15.6624 35.1352 25.0374 30.5002 34.2474 26.9752M6.2274 42.3502L3.75241 22.5952H34.7874L34.2474 26.9752M6.2274 42.3502C15.6624 35.1352 25.0224 30.5002 34.2474 26.9752M6.2274 42.3502L7.0674 49.1002C15.9324 41.8252 24.6474 37.1452 33.4224 33.5602L34.2474 26.9752M25.0674 4.20523C25.3524 3.17023 24.7374 2.10524 23.7024 1.83524L21.8274 1.34023C20.7924 1.05523 19.7274 1.67023 19.4574 2.70523L16.7274 12.9052H22.7574L25.0824 4.20523H25.0674ZM6.67743 12.9052C5.59743 12.9052 4.74242 13.7752 4.74242 14.8402V18.7252H33.8424V14.8402C33.8424 13.7602 32.9724 12.9052 31.9074 12.9052H6.67743ZM35.7774 18.7252H2.79243C1.71243 18.7252 0.857422 19.5952 0.857422 20.6602C0.857422 21.7252 1.72743 22.5952 2.79243 22.5952H35.7774C36.8574 22.5952 37.7124 21.7252 37.7124 20.6602C37.7124 19.5952 36.8424 18.7252 35.7774 18.7252ZM7.3974 51.7252C7.5324 52.8202 8.46242 53.6452 9.57242 53.6452H28.9674C30.0774 53.6452 31.0074 52.8202 31.1424 51.7252L33.4074 33.5752C24.6324 37.1602 15.9024 41.8402 7.05243 49.1152L7.38243 51.7252H7.3974Z" stroke="black" stroke-width="1.125" stroke-linecap="round" stroke-linejoin="round"/>
</svg>
