<svg width="43" height="54" viewBox="0 0 43 54" fill="none" xmlns="http://www.w3.org/2000/svg">
<path d="M14.9329 12.025V17.635M14.1979 12.115L15.6529 17.53M14.1979 12.115L22.0279 10.015M14.1979 12.115L11.0779 12.955L12.3079 17.53H15.6529M15.6529 17.53H9.36792C8.76792 17.53 8.21289 17.86 7.92789 18.4C7.92789 18.4 7.92789 18.4 7.92789 18.415C7.73289 18.79 7.55289 19.18 7.37289 19.555M15.6529 17.53H21.9379L13.6429 25.825M9.96791 1C10.1029 1 10.2379 0.999998 10.3729 1.045C10.2379 1.015 10.1029 1 9.96791 1ZM9.96791 1C9.83291 1 9.69788 1.01499 9.56288 1.05999C9.69788 1.02999 9.83291 1 9.96791 1ZM39.4129 1.63L34.5379 3.65501L31.1779 17.53H34.5079M13.6429 44.875L8.60291 49.915C9.08291 50.755 9.5929 51.565 10.1479 52.375L10.2079 52.465C10.5079 52.9 11.0029 53.17 11.5429 53.17H21.9379L13.6429 44.875ZM13.6429 44.875L23.1679 35.35M13.6429 44.875H13.6279L4.31288 35.56M13.6429 44.875L21.9229 53.17H24.3979M23.1679 35.35L13.6429 25.825M23.1679 35.35L32.6929 44.875M23.1679 35.35H23.1529L32.6779 25.825L42.0229 35.17M23.1679 35.35L32.6929 25.825M13.6429 25.825L4.29791 35.17C4.29791 35.305 4.29788 35.425 4.31288 35.56M13.6429 25.825L7.37289 19.555M13.6429 25.825L21.9229 17.53H24.3979L32.6929 25.825M13.6429 25.825L13.6429 25.81L4.29792 35.155C4.04292 29.875 5.04789 24.52 7.37289 19.555M4.31288 35.56C4.61288 40.54 6.05289 45.46 8.58789 49.93L13.6279 44.89L4.31288 35.575V35.56ZM24.3979 53.17H34.7929C35.0629 53.17 35.3179 53.11 35.5429 52.99M24.3979 53.17L32.6929 44.875M35.5429 52.99C35.7829 52.87 35.9779 52.705 36.1279 52.48M35.5429 52.99C35.7679 52.87 35.9779 52.69 36.1279 52.48M42.0079 35.56C42.0079 35.425 42.0229 35.305 42.0229 35.17M42.0079 35.56C42.0229 35.425 42.0229 35.305 42.0229 35.17M42.0079 35.56L32.6929 44.875M42.0079 35.56V35.545C41.7079 40.54 40.2679 45.46 37.7329 49.915L32.6929 44.875M37.7329 49.93C37.2529 50.77 36.7429 51.58 36.1879 52.39M37.7329 49.93C37.2529 50.77 36.7429 51.595 36.1879 52.39M37.7329 49.93L32.6929 44.89L24.3979 53.185H34.7929C35.0629 53.185 35.3179 53.125 35.5429 53.005C35.7679 52.885 35.9779 52.705 36.1279 52.495V52.48M36.1879 52.39L36.1279 52.48M32.6929 25.825L38.9629 19.555C41.2729 24.52 42.2929 29.875 42.0379 35.17L32.6929 25.825ZM23.1679 8.035C22.4929 5.53 20.5279 3.595 18.0079 2.965L11.2879 1.285L10.3579 1.05999C10.2229 1.02999 10.0879 1.01499 9.95289 1.01499C9.81789 1.01499 9.68291 1.03 9.54791 1.075C9.29291 1.15 9.03791 1.28499 8.84291 1.47999L8.15292 2.13999L3.17291 6.955C1.31291 8.755 0.577895 11.425 1.23789 13.915C1.46289 14.785 2.36291 15.295 3.21791 15.055L21.9979 10.015C22.8679 9.78999 23.3779 8.89 23.1379 8.035H23.1679ZM38.3929 18.415C38.3929 18.415 38.3929 18.415 38.3929 18.4C38.1079 17.875 37.5679 17.53 36.9679 17.53H24.4129L32.7079 25.825L38.9779 19.555C38.7979 19.165 38.6179 18.79 38.4229 18.415H38.3929Z" stroke="black" stroke-linecap="round" stroke-linejoin="round"/>
</svg>
