<svg width="53" height="57" viewBox="0 0 53 57" fill="none" xmlns="http://www.w3.org/2000/svg">
<path d="M31.3697 31.6C29.7497 34.39 26.1497 35.29 23.4497 33.67C20.7497 32.05 19.7597 28.45 21.3797 25.75C22.9997 22.96 26.5997 22.06 29.2997 23.68C32.1797 25.3 33.0797 28.81 31.3697 31.6ZM49.9997 44.65C48.9197 46.54 46.4897 47.08 44.5997 46C42.7097 44.92 42.1697 42.49 43.2497 40.6C44.3297 38.71 46.7597 38.17 48.6497 39.25C50.5397 40.42 51.1697 42.85 49.9997 44.65ZM10.5797 15.85C9.49972 17.74 7.06971 18.28 5.17971 17.2C3.28971 16.12 2.74972 13.69 3.82972 11.8C4.90972 9.91 7.33968 9.37001 9.22968 10.45C11.1197 11.53 11.6597 14.05 10.5797 15.85Z" fill="#47B8FF"/>
<path d="M26.4197 56.26C32.0862 56.26 36.6797 43.8896 36.6797 28.63C36.6797 13.3704 32.0862 1 26.4197 1C20.7533 1 16.1597 13.3704 16.1597 28.63C16.1597 43.8896 20.7533 56.26 26.4197 56.26Z" stroke="black" stroke-width="1.125" stroke-linecap="round" stroke-linejoin="round"/>
<path d="M30.7642 37.9193C44.5941 31.4703 53.8642 22.0792 51.4694 16.9436C49.0747 11.8081 35.922 12.8729 22.0921 19.3219C8.26219 25.7709 -1.00788 35.162 1.38686 40.2975C3.78161 45.4331 16.9343 44.3683 30.7642 37.9193Z" stroke="black" stroke-width="1.125" stroke-linecap="round" stroke-linejoin="round"/>
<path d="M51.4594 40.3274C53.8541 35.1918 44.5841 25.8007 30.7542 19.3517C16.9242 12.9027 3.77153 11.838 1.37679 16.9735C-1.01795 22.109 8.25212 31.5002 22.082 37.9492C35.912 44.3982 49.0646 45.4629 51.4594 40.3274Z" stroke="black" stroke-width="1.125" stroke-linecap="round" stroke-linejoin="round"/>
<path d="M31.3697 31.6C29.7497 34.39 26.1497 35.29 23.4497 33.67C20.7497 32.05 19.7597 28.45 21.3797 25.75C22.9997 22.96 26.5997 22.06 29.2997 23.68C32.1797 25.3 33.0797 28.81 31.3697 31.6ZM49.9997 44.65C48.9197 46.54 46.4897 47.08 44.5997 46C42.7097 44.92 42.1697 42.49 43.2497 40.6C44.3297 38.71 46.7597 38.17 48.6497 39.25C50.5397 40.42 51.1697 42.85 49.9997 44.65ZM10.5797 15.85C9.49972 17.74 7.06971 18.28 5.17971 17.2C3.28971 16.12 2.74972 13.69 3.82972 11.8C4.90972 9.91 7.33968 9.37001 9.22968 10.45C11.1197 11.53 11.6597 14.05 10.5797 15.85Z" stroke="black" stroke-width="1.125" stroke-linecap="round" stroke-linejoin="round"/>
</svg>
