<svg width="43" height="57" viewBox="0 0 43 57" fill="none" xmlns="http://www.w3.org/2000/svg">
<path d="M26.4714 27.1484C26.2014 26.4284 26.1114 25.7984 26.2914 25.5284L26.5614 25.2584C28.1814 24.0884 33.4914 25.5284 37.8114 25.3484C39.0714 25.2584 39.9714 24.5384 40.3314 23.5484C41.4114 21.0284 40.0614 16.7984 37.8114 16.7084C34.5714 16.6184 31.2415 14.6384 30.4315 10.7684C29.6215 6.89839 23.5915 6.71842 23.5915 6.71842C23.4115 6.71842 23.1414 6.62842 22.9614 6.62842C22.9614 5.18842 22.8715 3.20839 23.2315 1.76839C23.7715 -0.391612 18.6414 2.21841 17.6514 6.89841C8.29143 9.23841 5.86145 20.8484 8.02145 26.7884C10.6315 33.8084 7.1214 44.2484 7.1214 44.2484H35.1114C35.1114 37.0484 28.0014 31.1084 26.4714 27.1484Z" fill="#FFEF1F"/>
<path d="M36.6415 21.3884C37.0915 21.3884 37.3615 21.0284 37.3615 20.6684V20.4884C37.3615 20.0384 37.0015 19.7684 36.6415 19.7684C36.2815 19.7684 35.9214 20.1284 35.9214 20.4884V20.6684C35.9214 21.0284 36.1915 21.3884 36.6415 21.3884Z" fill="#FFEF1F"/>
<path d="M5.0514 50.2784H37.1815C37.6315 50.2784 37.9014 49.7384 37.7214 49.1984L37.0915 47.7584L35.8314 44.7884C35.7414 44.5184 35.2915 44.4284 35.2915 44.4284H6.85142C6.85142 44.4284 6.40144 44.6084 6.31144 44.7884L5.0514 47.7584L4.42143 49.1984C4.33143 49.6484 4.6014 50.2784 5.0514 50.2784Z" fill="#FFEF1F"/>
<path d="M1.72144 56.1284H41.1415C41.6815 56.1284 42.0415 55.5884 41.7715 55.0484L41.0514 53.6084L39.5215 50.6384C39.4315 50.3684 39.1615 50.2784 38.8915 50.2784H3.97144C3.70144 50.2784 3.43147 50.4584 3.34147 50.6384L1.81144 53.6084L1.09147 55.0484C0.821466 55.5884 1.18144 56.1284 1.72144 56.1284Z" fill="#FFEF1F"/>
<path d="M25.3014 16.6184C24.009 16.6184 22.9614 15.5708 22.9614 14.2784C22.9614 12.9861 24.009 11.9384 25.3014 11.9384C26.5937 11.9384 27.6415 12.9861 27.6415 14.2784C27.6415 15.5708 26.5937 16.6184 25.3014 16.6184Z" fill="#FFEF1F"/>
<path d="M7.30139 7.07841C12.6114 1.67841 19.5414 3.11844 19.5414 3.11844C18.7314 4.10844 17.9214 5.36841 17.6514 6.89841C8.29143 9.23841 5.86145 20.8484 8.02145 26.7884C10.0915 32.1884 8.29148 39.9284 7.48148 43.1684C6.67148 43.0784 6.04145 42.4484 5.86145 41.6384C4.15145 33.8984 -1.42861 14.2784 7.30139 7.07841Z" fill="#FFEF1F"/>
<path d="M26.2914 7.1684C24.8514 6.8084 23.6814 6.71842 23.6814 6.71842C23.5014 6.71842 23.2314 6.62842 23.0514 6.62842C22.9614 5.90842 22.9614 5.09843 22.9614 4.19843C23.9514 2.93843 25.3014 2.21843 26.2914 1.94843C26.7414 1.76843 27.2814 2.2184 27.1914 2.6684L26.2914 7.1684Z" fill="#FFEF1F"/>
<path d="M17.6514 6.89841C18.6414 2.21841 23.7715 -0.391612 23.2315 1.76839C22.8715 3.20839 22.9614 5.18842 22.9614 6.62842C23.1414 6.62842 23.4115 6.71842 23.5915 6.71842C23.5915 6.71842 29.6215 6.89839 30.4315 10.7684C31.2415 14.6384 34.5714 16.6184 37.8114 16.7084C40.0614 16.7984 41.4114 21.0284 40.3314 23.5484C39.9714 24.5384 39.0714 25.2584 37.8114 25.3484C33.4914 25.5284 28.1814 24.0884 26.5614 25.2584L26.2914 25.5284C26.1114 25.7984 26.2014 26.4284 26.4714 27.1484C28.0014 31.1084 35.1114 37.0484 35.1114 44.2484H7.1214C7.1214 44.2484 10.6315 33.8084 8.02145 26.7884M17.6514 6.89841C8.29143 9.23841 5.86145 20.8484 8.02145 26.7884M17.6514 6.89841C17.9214 5.36841 18.7314 4.10844 19.5414 3.11844C19.5414 3.11844 12.6114 1.67841 7.30139 7.07841C-1.42861 14.2784 4.15145 33.8984 5.86145 41.6384C6.04145 42.4484 6.67148 43.0784 7.48148 43.1684C8.29148 39.9284 10.0915 32.1884 8.02145 26.7884M36.6415 21.3884C37.0915 21.3884 37.3615 21.0284 37.3615 20.6684V20.4884C37.3615 20.0384 37.0015 19.7684 36.6415 19.7684C36.2815 19.7684 35.9214 20.1284 35.9214 20.4884V20.6684C35.9214 21.0284 36.1915 21.3884 36.6415 21.3884ZM5.0514 50.2784H37.1815C37.6315 50.2784 37.9014 49.7384 37.7214 49.1984L37.0915 47.7584L35.8314 44.7884C35.7414 44.5184 35.2915 44.4284 35.2915 44.4284H6.85142C6.85142 44.4284 6.40144 44.6084 6.31144 44.7884L5.0514 47.7584L4.42143 49.1984C4.33143 49.6484 4.6014 50.2784 5.0514 50.2784ZM1.72144 56.1284H41.1415C41.6815 56.1284 42.0415 55.5884 41.7715 55.0484L41.0514 53.6084L39.5215 50.6384C39.4315 50.3684 39.1615 50.2784 38.8915 50.2784H3.97144C3.70144 50.2784 3.43147 50.4584 3.34147 50.6384L1.81144 53.6084L1.09147 55.0484C0.821466 55.5884 1.18144 56.1284 1.72144 56.1284ZM22.9614 14.2784C22.9614 15.5708 24.009 16.6184 25.3014 16.6184C26.5937 16.6184 27.6415 15.5708 27.6415 14.2784C27.6415 12.9861 26.5937 11.9384 25.3014 11.9384C24.009 11.9384 22.9614 12.9861 22.9614 14.2784ZM26.2914 7.1684C24.8514 6.8084 23.6814 6.71842 23.6814 6.71842C23.5014 6.71842 23.2314 6.62842 23.0514 6.62842C22.9614 5.90842 22.9614 5.09843 22.9614 4.19843C23.9514 2.93843 25.3014 2.21843 26.2914 1.94843C26.7414 1.76843 27.2814 2.2184 27.1914 2.6684L26.2914 7.1684Z" stroke="black" stroke-width="1.125" stroke-linecap="round" stroke-linejoin="round"/>
</svg>
